<?xml version="1.0" encoding="UTF-8"?>
<svg width="35px" height="52px" viewBox="0 0 35 52" version="1.1" xmlns="http://www.w3.org/2000/svg" xmlns:xlink="http://www.w3.org/1999/xlink">
    <title>reward3</title>
    <defs>
        <polygon id="path-1" points="0.190102459 0.0217213115 17.176373 0.0217213115 17.176373 13.6964959 0.190102459 13.6964959"></polygon>
        <polygon id="path-3" points="0.038545082 0.0217213115 6.51375 0.0217213115 6.51375 13.6964959 0.038545082 13.6964959"></polygon>
        <polygon id="path-5" points="0.118381148 0.0217213115 6.59358607 0.0217213115 6.59358607 13.6964959 0.118381148 13.6964959"></polygon>
        <polygon id="path-7" points="0.0873770492 0.0217213115 6.56258197 0.0217213115 6.56258197 13.6964959 0.0873770492 13.6964959"></polygon>
        <polygon id="path-9" points="0.169610656 0.0217213115 6.64481557 0.0217213115 6.64481557 13.6964959 0.169610656 13.6964959"></polygon>
        <polygon id="path-11" points="0 0.125430328 33.6861885 0.125430328 33.6861885 33.8114754 0 33.8114754"></polygon>
        <polygon id="path-13" points="0.166086066 0.086352459 29.1779713 0.086352459 29.1779713 29.0983607 0.166086066 29.0983607"></polygon>
    </defs>
    <g id="Page-1" stroke="none" stroke-width="1" fill="none" fill-rule="evenodd">
        <g id="Dashboard08" transform="translate(-377.000000, -948.000000)">
            <g id="Group-9" transform="translate(26.999789, 948.000000)">
                <g id="reward3" transform="translate(350.000000, 0.000000)">
                    <polygon id="Fill-1" fill="#8E2323" points="16.4753484 0.204938525 11.3241189 13.8797336 22.9140779 13.8797336 28.4942008 0.204938525"></polygon>
                    <g id="Group-128" transform="translate(0.000000, 0.183197)">
                        <path d="M23.8337295,14.2535041 L10.2202049,14.2535041 L10.2202049,13.6426434 C10.2202049,12.9780943 10.7589344,12.4393648 11.4234836,12.4393648 L22.6306557,12.4393648 C23.295,12.4393648 23.8337295,12.9780943 23.8337295,13.6426434 L23.8337295,14.2535041 Z M23.4454098,11.3254303 L10.8947951,11.3254303 C10.0708197,11.3254303 9.40278689,11.9934631 9.40278689,12.8176434 L9.40278689,20.8098566 L24.937623,20.8098566 L24.937623,12.8176434 C24.937623,11.9934631 24.2695902,11.3254303 23.4454098,11.3254303 L23.4454098,11.3254303 Z" id="Fill-2" fill="#C95506"></path>
                        <g id="Group-6" transform="translate(5.737705, 0.000000)">
                            <mask id="mask-2" fill="white">
                                <use xlink:href="#path-1"></use>
                            </mask>
                            <g id="Clip-5"></g>
                            <polygon id="Fill-4" fill="#FA342B" mask="url(#mask-2)" points="0.190102459 0.0217008197 5.58641393 13.6964959 17.176373 13.6964959 11.9026025 0.0217008197"></polygon>
                        </g>
                        <g id="Group-9" transform="translate(7.377049, 0.000000)">
                            <mask id="mask-4" fill="white">
                                <use xlink:href="#path-3"></use>
                            </mask>
                            <g id="Clip-8"></g>
                            <polygon id="Fill-7" fill="#7F0B0B" mask="url(#mask-4)" points="6.51375 13.6964959 0.706577869 0.0217008197 0.038545082 0.0217008197 5.84571721 13.6964959"></polygon>
                        </g>
                        <g id="Group-12" transform="translate(9.426230, 0.000000)">
                            <mask id="mask-6" fill="white">
                                <use xlink:href="#path-5"></use>
                            </mask>
                            <g id="Clip-11"></g>
                            <polygon id="Fill-10" fill="#7F0B0B" mask="url(#mask-6)" points="6.59358607 13.6964959 0.786413934 0.0217008197 0.118381148 0.0217008197 5.92555328 13.6964959"></polygon>
                        </g>
                        <g id="Group-15" transform="translate(11.885246, 0.000000)">
                            <mask id="mask-8" fill="white">
                                <use xlink:href="#path-7"></use>
                            </mask>
                            <g id="Clip-14"></g>
                            <polygon id="Fill-13" fill="#7F0B0B" mask="url(#mask-8)" points="6.56258197 13.6964959 0.755409836 0.0217008197 0.0873770492 0.0217008197 5.89454918 13.6964959"></polygon>
                        </g>
                        <g id="Group-18" transform="translate(14.139344, 0.000000)">
                            <mask id="mask-10" fill="white">
                                <use xlink:href="#path-9"></use>
                            </mask>
                            <g id="Clip-17"></g>
                            <polygon id="Fill-16" fill="#7F0B0B" mask="url(#mask-10)" points="6.64481557 13.6964959 0.837643443 0.0217008197 0.169610656 0.0217008197 5.97678279 13.6964959"></polygon>
                        </g>
                        <g id="Group-21" transform="translate(0.000000, 15.778689)">
                            <mask id="mask-12" fill="white">
                                <use xlink:href="#path-11"></use>
                            </mask>
                            <g id="Clip-20"></g>
                            <path d="M33.6861885,16.9684631 C33.6861885,26.2707172 26.1452049,33.8114959 16.8431557,33.8114959 C7.54090164,33.8114959 -8.19672131e-05,26.2707172 -8.19672131e-05,16.9684631 C-8.19672131e-05,7.66620902 7.54090164,0.125430328 16.8431557,0.125430328 C26.1452049,0.125430328 33.6861885,7.66620902 33.6861885,16.9684631" id="Fill-19" fill="#F4A556" mask="url(#mask-12)"></path>
                        </g>
                        <g id="Group-24" transform="translate(4.508197, 20.491803)">
                            <mask id="mask-14" fill="white">
                                <use xlink:href="#path-13"></use>
                            </mask>
                            <g id="Clip-23"></g>
                            <path d="M23.9798156,0.086352459 C26.8753074,3.11114754 28.6542008,7.21340164 28.6542008,11.7314344 C28.6542008,21.0334836 21.1132172,28.5742623 11.8109631,28.5742623 C7.29313525,28.5742623 3.19088115,26.7955738 0.166086066,23.9002869 C3.23227459,27.1035656 7.5505123,29.0984426 12.3349385,29.0984426 C21.6369877,29.0984426 29.1779713,21.557459 29.1779713,12.2554098 C29.1779713,7.47098361 27.1830943,3.15254098 23.9798156,0.086352459" id="Fill-22" fill="#EA7603" mask="url(#mask-14)"></path>
                        </g>
                        <path d="M30.5792008,32.7471516 C30.5792008,40.3334221 24.4292008,46.4832172 16.8431352,46.4832172 C9.25686475,46.4832172 3.10706967,40.3334221 3.10706967,32.7471516 C3.10706967,25.1608811 9.25686475,19.0110861 16.8431352,19.0110861 C24.4292008,19.0110861 30.5792008,25.1608811 30.5792008,32.7471516" id="Fill-25" fill="#CA6D32"></path>
                        <g id="Group-125" transform="translate(4.918033, 23.975410)" fill="#FFB448">
                            <path d="M10.5728893,18.4817418 C11.1097746,18.9042828 11.2528074,19.606127 11.2528074,19.606127 C11.2528074,19.606127 10.5257582,19.6231352 9.98866803,19.2005943 C9.45178279,18.7782582 9.30854508,18.076209 9.30854508,18.076209 C9.30854508,18.076209 10.0357992,18.0592008 10.5728893,18.4817418" id="Fill-27"></path>
                            <path d="M9.9235041,19.5796721 C10.5716598,19.3544672 11.2528074,19.6061066 11.2528074,19.6061066 C11.2528074,19.6061066 10.8831352,20.2225 10.2347746,20.4477049 C9.58641393,20.6727049 8.90526639,20.4212705 8.90526639,20.4212705 C8.90526639,20.4212705 9.27534836,19.804877 9.9235041,19.5796721" id="Fill-29"></path>
                            <path d="M8.47706967,17.9136066 C8.94981557,18.4047951 8.99346311,19.1193443 8.99346311,19.1193443 C8.99346311,19.1193443 8.2705123,19.037582 7.79797131,18.5465984 C7.32522541,18.0554098 7.28157787,17.3408607 7.28157787,17.3408607 C7.28157787,17.3408607 8.00411885,17.422418 8.47706967,17.9136066" id="Fill-31"></path>
                            <path d="M7.68022541,18.9131967 C8.35379098,18.7779508 8.99334016,19.1193443 8.99334016,19.1193443 C8.99334016,19.1193443 8.54067623,19.68 7.86711066,19.815041 C7.19354508,19.9502869 6.5539959,19.6088934 6.5539959,19.6088934 C6.5539959,19.6088934 7.00665984,19.0482377 7.68022541,18.9131967" id="Fill-33"></path>
                            <path d="M6.82752049,17.0976434 C7.21543033,17.65625 7.14329918,18.36875 7.14329918,18.36875 C7.14329918,18.36875 6.44288934,18.1755123 6.05497951,17.6169057 C5.66727459,17.0582992 5.73920082,16.3457992 5.73920082,16.3457992 C5.73920082,16.3457992 6.43961066,16.5390369 6.82752049,17.0976434" id="Fill-35"></path>
                            <path d="M5.87997951,17.9605328 C6.56706967,17.9320492 7.14329918,18.3687295 7.14329918,18.3687295 C7.14329918,18.3687295 6.60641393,18.8517213 5.91932377,18.8802049 C5.23264344,18.9086885 4.6560041,18.4720082 4.6560041,18.4720082 C4.6560041,18.4720082 5.19309426,17.9890164 5.87997951,17.9605328" id="Fill-37"></path>
                            <path d="M5.28622951,15.8548361 C5.52454918,16.4892623 5.2792623,17.1632377 5.2792623,17.1632377 C5.2792623,17.1632377 4.64729508,16.8085246 4.40897541,16.1740984 C4.17045082,15.5394672 4.41594262,14.8654918 4.41594262,14.8654918 C4.41594262,14.8654918 5.04770492,15.2202049 5.28622951,15.8548361" id="Fill-39"></path>
                            <path d="M4.15418033,16.4655738 C4.82754098,16.6020492 5.27918033,17.1633197 5.27918033,17.1633197 C5.27918033,17.1633197 4.63901639,17.5034836 3.96565574,17.3672131 C3.29229508,17.2307377 2.84086066,16.6694672 2.84086066,16.6694672 C2.84086066,16.6694672 3.48102459,16.3290984 4.15418033,16.4655738" id="Fill-41"></path>
                            <path d="M4.12116803,14.415 C4.2014959,15.0867213 3.80170082,15.685082 3.80170082,15.685082 C3.80170082,15.685082 3.27239754,15.1940984 3.19227459,14.5221721 C3.11215164,13.8504508 3.51153689,13.2520902 3.51153689,13.2520902 C3.51153689,13.2520902 4.04104508,13.7430738 4.12116803,14.415" id="Fill-43"></path>
                            <path d="M2.87504098,14.7468852 C3.49696721,15.0352049 3.80168033,15.6852049 3.80168033,15.6852049 C3.80168033,15.6852049 3.09840164,15.8677869 2.47668033,15.5794672 C1.8547541,15.2911475 1.54963115,14.6411475 1.54963115,14.6411475 C1.54963115,14.6411475 2.25331967,14.4585656 2.87504098,14.7468852" id="Fill-45"></path>
                            <path d="M3.1269877,12.602459 C3.06981557,13.2766393 2.55752049,13.7848361 2.55752049,13.7848361 C2.55752049,13.7848361 2.13764344,13.2 2.19481557,12.5258197 C2.2519877,11.8516393 2.76428279,11.3434426 2.76428279,11.3434426 C2.76428279,11.3434426 3.18415984,11.9282787 3.1269877,12.602459" id="Fill-47"></path>
                            <path d="M1.83864754,12.6838934 C2.38987705,13.0879918 2.5575,13.7847131 2.5575,13.7847131 C2.5575,13.7847131 1.83106557,13.8261066 1.27963115,13.4220082 C0.728606557,13.0177049 0.561188525,12.3209836 0.561188525,12.3209836 C0.561188525,12.3209836 1.28762295,12.2795902 1.83864754,12.6838934" id="Fill-49"></path>
                            <path d="M2.61370902,10.8742623 C2.44875,11.5310246 1.86104508,11.9529508 1.86104508,11.9529508 C1.86104508,11.9529508 1.54096311,11.310123 1.70571721,10.6533607 C1.87067623,9.99680328 2.45817623,9.57467213 2.45817623,9.57467213 C2.45817623,9.57467213 2.77866803,10.2175 2.61370902,10.8742623" id="Fill-51"></path>
                            <path d="M1.32856557,10.7539959 C1.80786885,11.2390369 1.86114754,11.9529713 1.86114754,11.9529713 C1.86114754,11.9529713 1.13717213,11.8808402 0.65807377,11.3957992 C0.178770492,10.9107582 0.125491803,10.1968238 0.125491803,10.1968238 C0.125491803,10.1968238 0.849262295,10.2689549 1.32856557,10.7539959" id="Fill-53"></path>
                            <path d="M2.55807377,8.94836066 C2.23614754,9.54610656 1.5617623,9.81495902 1.5617623,9.81495902 C1.5617623,9.81495902 1.40971311,9.11495902 1.73163934,8.51721311 C2.05356557,7.91946721 2.7277459,7.65061475 2.7277459,7.65061475 C2.7277459,7.65061475 2.87979508,8.35061475 2.55807377,8.94836066" id="Fill-55"></path>
                            <path d="M1.34096311,8.52481557 C1.68625,9.10965164 1.56165984,9.81497951 1.56165984,9.81497951 C1.56165984,9.81497951 0.877438525,9.57194672 0.532151639,8.98711066 C0.186659836,8.40227459 0.31125,7.6967418 0.31125,7.6967418 C0.31125,7.6967418 0.995471311,7.93977459 1.34096311,8.52481557" id="Fill-57"></path>
                            <path d="M2.90127049,7.00432377 C2.44553279,7.51088115 1.72606557,7.61641393 1.72606557,7.61641393 C1.72606557,7.61641393 1.74532787,6.90084016 2.20106557,6.39428279 C2.65680328,5.88772541 3.37627049,5.78219262 3.37627049,5.78219262 C3.37627049,5.78219262 3.35721311,6.49776639 2.90127049,7.00432377" id="Fill-59"></path>
                            <path d="M1.81944672,6.31112705 C2.01555328,6.95969262 1.7260041,7.61645492 1.7260041,7.61645492 C1.7260041,7.61645492 1.11883197,7.2219877 0.922930328,6.57342213 C0.727028689,5.92506148 1.01637295,5.26829918 1.01637295,5.26829918 C1.01637295,5.26829918 1.62354508,5.66276639 1.81944672,6.31112705" id="Fill-61"></path>
                            <path d="M3.60526639,5.40631148 C3.04420082,5.79729508 2.31920082,5.73868852 2.31920082,5.73868852 C2.31920082,5.73868852 2.50362705,5.04606557 3.0644877,4.65508197 C3.6257582,4.26409836 4.3507582,4.32270492 4.3507582,4.32270492 C4.3507582,4.32270492 4.16612705,5.01532787 3.60526639,5.40631148" id="Fill-63"></path>
                            <path d="M2.71235656,4.48868852 C2.75313525,5.16389344 2.31911885,5.73868852 2.31911885,5.73868852 C2.31911885,5.73868852 1.81932377,5.21840164 1.77854508,4.54319672 C1.73797131,3.86778689 2.1719877,3.29319672 2.1719877,3.29319672 C2.1719877,3.29319672 2.67178279,3.81348361 2.71235656,4.48868852" id="Fill-65"></path>
                            <path d="M4.48518443,3.96028689 C3.86838115,4.25905738 3.16182377,4.08815574 3.16182377,4.08815574 C3.16182377,4.08815574 3.45547131,3.43303279 4.07227459,3.13446721 C4.68907787,2.83569672 5.39543033,3.00659836 5.39543033,3.00659836 C5.39543033,3.00659836 5.10219262,3.66151639 4.48518443,3.96028689" id="Fill-67"></path>
                            <path d="M3.75135246,2.91526639 C3.68270492,3.58842213 3.16180328,4.08821721 3.16180328,4.08821721 C3.16180328,4.08821721 2.75196721,3.49661885 2.82061475,2.82346311 C2.88905738,2.1505123 3.40995902,1.65071721 3.40995902,1.65071721 C3.40995902,1.65071721 3.81979508,2.24211066 3.75135246,2.91526639" id="Fill-69"></path>
                            <path d="M14.3014344,18.3907992 C13.7643443,18.8133402 13.6213115,19.5151844 13.6213115,19.5151844 C13.6213115,19.5151844 14.3485656,19.5321926 14.8856557,19.1096516 C15.422541,18.6873156 15.5655738,17.9852664 15.5655738,17.9852664 C15.5655738,17.9852664 14.8383197,17.9682582 14.3014344,18.3907992" id="Fill-71"></path>
                            <path d="M14.9506148,19.488832 C14.302459,19.263627 13.6213115,19.5150615 13.6213115,19.5150615 C13.6213115,19.5150615 13.9909836,20.1316598 14.6393443,20.3566598 C15.2877049,20.5818648 15.9688525,20.3304303 15.9688525,20.3304303 C15.9688525,20.3304303 15.5989754,19.713832 14.9506148,19.488832" id="Fill-73"></path>
                            <path d="M16.1318852,17.9136066 C15.6589344,18.4047951 15.6152869,19.1193443 15.6152869,19.1193443 C15.6152869,19.1193443 16.3382377,19.037582 16.8107787,18.5465984 C17.2837295,18.0554098 17.327377,17.3408607 17.327377,17.3408607 C17.327377,17.3408607 16.6046311,17.422418 16.1318852,17.9136066" id="Fill-75"></path>
                            <path d="M16.9285451,18.9131967 C16.2549795,18.7779508 15.6154303,19.1193443 15.6154303,19.1193443 C15.6154303,19.1193443 16.0680943,19.68 16.7416598,19.815041 C17.4152254,19.9502869 18.0547746,19.6088934 18.0547746,19.6088934 C18.0547746,19.6088934 17.6021107,19.0482377 16.9285451,18.9131967" id="Fill-77"></path>
                            <path d="M17.778627,17.0292008 C17.3909221,17.5878074 17.4628484,18.3003074 17.4628484,18.3003074 C17.4628484,18.3003074 18.1632582,18.1068648 18.551168,17.5484631 C18.938873,16.9898566 18.8671516,16.2773566 18.8671516,16.2773566 C18.8671516,16.2773566 18.1665369,16.4705943 17.778627,17.0292008" id="Fill-79"></path>
                            <path d="M18.7261885,17.8920082 C18.0393033,17.8635246 17.4628689,18.3002049 17.4628689,18.3002049 C17.4628689,18.3002049 17.999959,18.7831967 18.6868443,18.8116803 C19.3735246,18.8401639 19.9501639,18.4034836 19.9501639,18.4034836 C19.9501639,18.4034836 19.4130738,17.9206967 18.7261885,17.8920082" id="Fill-81"></path>
                            <path d="M19.2670902,15.8190164 C19.0285656,16.4534426 19.2740574,17.127418 19.2740574,17.127418 C19.2740574,17.127418 19.9060246,16.7727049 20.1443443,16.1382787 C20.3826639,15.5036475 20.137377,14.8296721 20.137377,14.8296721 C20.137377,14.8296721 19.5054098,15.1843852 19.2670902,15.8190164" id="Fill-83"></path>
                            <path d="M20.3989344,16.4297541 C19.7255738,16.5662295 19.2741393,17.1275 19.2741393,17.1275 C19.2741393,17.1275 19.9143033,17.4676639 20.587459,17.3313934 C21.2608197,17.194918 21.712459,16.6336475 21.712459,16.6336475 C21.712459,16.6336475 21.0722951,16.2932787 20.3989344,16.4297541" id="Fill-85"></path>
                            <path d="M20.4957992,14.2830328 C20.4156762,14.954959 20.8152664,15.5533197 20.8152664,15.5533197 C20.8152664,15.5533197 21.3447746,15.0623361 21.4248975,14.3904098 C21.5050205,13.7184836 21.1056352,13.1203279 21.1056352,13.1203279 C21.1056352,13.1203279 20.576127,13.6113115 20.4957992,14.2830328" id="Fill-87"></path>
                            <path d="M21.7421107,14.614918 C21.1201844,14.9032377 20.8152664,15.5532377 20.8152664,15.5532377 C20.8152664,15.5532377 21.51875,15.7358197 22.1404713,15.4475 C22.7623975,15.1593852 23.0673156,14.5093852 23.0673156,14.5093852 C23.0673156,14.5093852 22.363832,14.3265984 21.7421107,14.614918" id="Fill-89"></path>
                            <path d="M21.3773156,12.568832 C21.4344877,13.2430123 21.9469877,13.751209 21.9469877,13.751209 C21.9469877,13.751209 22.3666598,13.166373 22.3094877,12.4921926 C22.2523156,11.8180123 21.7400205,11.3098156 21.7400205,11.3098156 C21.7400205,11.3098156 21.3201434,11.8946516 21.3773156,12.568832" id="Fill-91"></path>
                            <path d="M22.6656557,12.6502869 C22.1144262,13.0545902 21.9470082,13.7513115 21.9470082,13.7513115 C21.9470082,13.7513115 22.6732377,13.7925 23.2246721,13.3884016 C23.7756967,12.9840984 23.9431148,12.287377 23.9431148,12.287377 C23.9431148,12.287377 23.2168852,12.2459836 22.6656557,12.6502869" id="Fill-93"></path>
                            <path d="M21.8905943,10.8376434 C22.0555533,11.4944057 22.6432582,11.916332 22.6432582,11.916332 C22.6432582,11.916332 22.9635451,11.2735041 22.798791,10.6167418 C22.633832,9.96018443 22.046127,9.53805328 22.046127,9.53805328 C22.046127,9.53805328 21.7256352,10.1808811 21.8905943,10.8376434" id="Fill-95"></path>
                            <path d="M23.1757377,10.717377 C22.6964344,11.202418 22.6431557,11.9163525 22.6431557,11.9163525 C22.6431557,11.9163525 23.3671311,11.8440164 23.8462295,11.3591803 C24.3255328,10.8741393 24.3788115,10.1602049 24.3788115,10.1602049 C24.3788115,10.1602049 23.655041,10.2323361 23.1757377,10.717377" id="Fill-97"></path>
                            <path d="M21.9372336,8.9757582 C22.2591598,9.5735041 22.9333402,9.84256148 22.9333402,9.84256148 C22.9333402,9.84256148 23.0855943,9.14235656 22.763668,8.54461066 C22.4417418,7.94706967 21.7675615,7.6780123 21.7675615,7.6780123 C21.7675615,7.6780123 21.6153074,8.3780123 21.9372336,8.9757582" id="Fill-99"></path>
                            <path d="M23.1543238,8.55221311 C22.808832,9.13704918 22.9334221,9.84258197 22.9334221,9.84258197 C22.9334221,9.84258197 23.6176434,9.59954918 23.9629303,9.0145082 C24.3084221,8.42967213 24.183832,7.72434426 24.183832,7.72434426 C24.183832,7.72434426 23.4996107,7.96737705 23.1543238,8.55221311" id="Fill-101"></path>
                            <path d="M21.577418,7.0307377 C22.0331557,7.53729508 22.752623,7.64282787 22.752623,7.64282787 C22.752623,7.64282787 22.7335656,6.92704918 22.2778279,6.4204918 C21.8220902,5.91413934 21.102623,5.80860656 21.102623,5.80860656 C21.102623,5.80860656 21.1216803,6.52418033 21.577418,7.0307377" id="Fill-103"></path>
                            <path d="M22.6592418,6.33754098 C22.4633402,6.98590164 22.7526844,7.64286885 22.7526844,7.64286885 C22.7526844,7.64286885 23.3598566,7.24819672 23.5557582,6.59983607 C23.7516598,5.95147541 23.4623156,5.29471311 23.4623156,5.29471311 C23.4623156,5.29471311 22.8551434,5.68897541 22.6592418,6.33754098" id="Fill-105"></path>
                            <path d="M20.893627,5.45965164 C21.4544877,5.85063525 22.1796926,5.79202869 22.1796926,5.79202869 C22.1796926,5.79202869 21.9952664,5.09961066 21.4344057,4.70842213 C20.8731352,4.31764344 20.1481352,4.37625 20.1481352,4.37625 C20.1481352,4.37625 20.3325615,5.06866803 20.893627,5.45965164" id="Fill-107"></path>
                            <path d="M21.7863525,4.54211066 C21.7457787,5.21731557 22.1797951,5.79211066 22.1797951,5.79211066 C22.1797951,5.79211066 22.6793852,5.27182377 22.7201639,4.59661885 C22.7607377,3.92120902 22.3269262,3.34661885 22.3269262,3.34661885 C22.3269262,3.34661885 21.8269262,3.86690574 21.7863525,4.54211066" id="Fill-109"></path>
                            <path d="M19.9622951,4.0245082 C20.5790984,4.32327869 21.2856557,4.15237705 21.2856557,4.15237705 C21.2856557,4.15237705 20.9920082,3.4972541 20.3754098,3.19868852 C19.7586066,2.89991803 19.0520492,3.07081967 19.0520492,3.07081967 C19.0520492,3.07081967 19.3454918,3.7257377 19.9622951,4.0245082" id="Fill-111"></path>
                            <path d="M20.6963115,2.9795082 C20.7647541,3.65266393 21.2856557,4.15245902 21.2856557,4.15245902 C21.2856557,4.15245902 21.6954918,3.56086066 21.6270492,2.88770492 C21.5584016,2.2147541 21.0377049,1.71495902 21.0377049,1.71495902 C21.0377049,1.71495902 20.6278689,2.30635246 20.6963115,2.9795082" id="Fill-113"></path>
                            <path d="M19.466209,1.96063525 C19.4381352,1.98952869 19.4065779,2.01821721 19.3694877,2.0464959 C19.358832,2.05469262 19.3477664,2.06043033 19.3367008,2.06739754 C21.4926434,3.90305328 22.8500205,6.55961066 22.8500205,9.51002049 C22.8500205,15.0360451 18.0895697,19.5317418 12.2381352,19.5317418 C6.3864959,19.5317418 1.62604508,15.0360451 1.62604508,9.51002049 C1.62604508,6.69034836 2.8660041,4.13932377 4.85760246,2.31657787 C4.80104508,2.29997951 4.74387295,2.27764344 4.6864959,2.24915984 C2.69346311,4.09793033 1.45534836,6.66985656 1.45534836,9.51002049 C1.45534836,15.1247746 6.29243852,19.6928074 12.2381352,19.6928074 C18.183627,19.6928074 23.0207172,15.1247746 23.0207172,9.51002049 C23.0207172,6.51903689 21.6477664,3.82518443 19.466209,1.96063525" id="Fill-115"></path>
                            <path d="M5.91340164,2.6817418 C5.24127049,2.82415984 4.59803279,2.48973361 4.59803279,2.48973361 C4.59803279,2.48973361 5.04434426,1.92436475 5.71627049,1.78194672 C6.38840164,1.63952869 7.03163934,1.97395492 7.03163934,1.97395492 C7.03163934,1.97395492 6.58532787,2.53932377 5.91340164,2.6817418" id="Fill-117"></path>
                            <path d="M5.45913934,1.49266393 C5.22655738,2.12934426 4.59807377,2.48979508 4.59807377,2.48979508 C4.59807377,2.48979508 4.34622951,1.81807377 4.57881148,1.18139344 C4.81118852,0.544918033 5.43967213,0.184262295 5.43967213,0.184262295 C5.43967213,0.184262295 5.69151639,0.855983607 5.45913934,1.49266393" id="Fill-119"></path>
                            <path d="M18.6075205,2.6817418 C19.2794467,2.82415984 19.9228893,2.48973361 19.9228893,2.48973361 C19.9228893,2.48973361 19.476373,1.92436475 18.8044467,1.78194672 C18.1325205,1.63952869 17.4890779,1.97395492 17.4890779,1.97395492 C17.4890779,1.97395492 17.9355943,2.53932377 18.6075205,2.6817418" id="Fill-121"></path>
                            <path d="M19.0617828,1.49266393 C19.2943648,2.12934426 19.9228484,2.48979508 19.9228484,2.48979508 C19.9228484,2.48979508 20.1744877,1.81807377 19.9421107,1.18139344 C19.7095287,0.544918033 19.0810451,0.184262295 19.0810451,0.184262295 C19.0810451,0.184262295 18.8292008,0.855983607 19.0617828,1.49266393" id="Fill-123"></path>
                        </g>
                        <path d="M18.9343033,31.1979713 C20.2789754,31.5569877 21.112582,32.4110861 21.112582,33.818668 C21.112582,37.1817828 16.407459,37.6682582 13.227541,36.7895697 L13.3888115,34.4397746 C14.6254918,35.0739959 16.6209836,35.316209 17.6494672,34.6510451 C18.4916803,34.1065779 18.3990574,33.0567828 17.7951639,32.6317828 C17.1207787,32.1573975 16.0783607,32.3498156 15.0992623,32.3051434 L15.0992623,30.3139549 L16.3418852,30.3139549 C18.7836885,30.3139549 18.8396311,27.7569877 16.2806148,27.7569877 C15.4136066,27.7569877 14.5484426,27.9410041 13.7187295,28.258832 L13.5881967,26.156168 C14.125082,25.9916189 14.6685246,25.8680533 15.2181148,25.7856762 C21.2756967,24.8791189 21.5060246,28.9147746 20.4109426,30.2780943 C20.0759016,30.6948975 19.5836885,31.0016598 18.9343033,31.1979713" id="Fill-126" fill="#FFB839"></path>
                    </g>
                </g>
            </g>
        </g>
    </g>
</svg>