<?xml version="1.0" encoding="UTF-8"?>
<svg width="107px" height="81px" viewBox="0 0 107 81" version="1.1" xmlns="http://www.w3.org/2000/svg" xmlns:xlink="http://www.w3.org/1999/xlink">
    <title>ranking</title>
    <defs>
        <linearGradient x1="24.782128%" y1="93.0398926%" x2="70.2854209%" y2="-14.9591082%" id="linearGradient-1">
            <stop stop-color="#4753DA" offset="0%"></stop>
            <stop stop-color="#C86FF2" offset="100%"></stop>
        </linearGradient>
        <linearGradient x1="16.5730034%" y1="93.0398926%" x2="76.4708121%" y2="-14.2105082%" id="linearGradient-2">
            <stop stop-color="#4753DA" offset="0%"></stop>
            <stop stop-color="#C79CFF" offset="100%"></stop>
        </linearGradient>
        <linearGradient x1="308.136704%" y1="70.6002837%" x2="308.136704%" y2="106.783986%" id="linearGradient-3">
            <stop stop-color="#EDEDED" offset="0%"></stop>
            <stop stop-color="#FFFFFF" offset="100%"></stop>
        </linearGradient>
        <linearGradient x1="308.136704%" y1="70.6002837%" x2="308.136704%" y2="106.783986%" id="linearGradient-4">
            <stop stop-color="#6DF0EA" offset="0%"></stop>
            <stop stop-color="#FFFFFF" offset="100%"></stop>
        </linearGradient>
        <linearGradient x1="308.136704%" y1="70.6002837%" x2="308.136704%" y2="106.783986%" id="linearGradient-5">
            <stop stop-color="#EDEDED" offset="0%"></stop>
            <stop stop-color="#FFFFFF" offset="100%"></stop>
        </linearGradient>
        <linearGradient x1="50%" y1="97.8080055%" x2="80.0030147%" y2="8.48250886%" id="linearGradient-6">
            <stop stop-color="#FFF6C7" offset="0%"></stop>
            <stop stop-color="#FBDA5F" offset="100%"></stop>
        </linearGradient>
        <linearGradient x1="6.34024936%" y1="93.0398926%" x2="85.1201886%" y2="-14.9591082%" id="linearGradient-7">
            <stop stop-color="#FFB21D" offset="0%"></stop>
            <stop stop-color="#C8331E" offset="100%"></stop>
        </linearGradient>
        <linearGradient x1="19.6807287%" y1="93.0398926%" x2="74.3890198%" y2="-14.9591082%" id="linearGradient-8">
            <stop stop-color="#4753DA" offset="0%"></stop>
            <stop stop-color="#C86FF2" offset="100%"></stop>
        </linearGradient>
        <linearGradient x1="308.136704%" y1="70.6002837%" x2="308.136704%" y2="106.783986%" id="linearGradient-9">
            <stop stop-color="#EDEDED" offset="0%"></stop>
            <stop stop-color="#FFFFFF" offset="100%"></stop>
        </linearGradient>
        <linearGradient x1="50%" y1="100%" x2="60.969193%" y2="6.57893407%" id="linearGradient-10">
            <stop stop-color="#FFF6C7" offset="0%"></stop>
            <stop stop-color="#FBDA5F" offset="100%"></stop>
        </linearGradient>
        <linearGradient x1="308.136704%" y1="70.6002837%" x2="308.136704%" y2="106.783986%" id="linearGradient-11">
            <stop stop-color="#EDEDED" offset="0%"></stop>
            <stop stop-color="#FFFFFF" offset="100%"></stop>
        </linearGradient>
        <linearGradient x1="308.136704%" y1="70.6002837%" x2="308.136704%" y2="105.747886%" id="linearGradient-12">
            <stop stop-color="#5746D9" offset="0%"></stop>
            <stop stop-color="#5B78E1" offset="100%"></stop>
        </linearGradient>
    </defs>
    <g id="Page-1" stroke="none" stroke-width="1" fill="none" fill-rule="evenodd">
        <g id="Dashboard06" transform="translate(-170.000000, -73.000000)" fill-rule="nonzero">
            <g id="Coupon_bg" transform="translate(28.000000, 63.000000)">
                <g id="ranking" transform="translate(142.000000, 10.000000)">
                    <g id="Group-8">
                        <path d="M14.5113658,12.8695803 C14.6040475,13.1743666 14.7875729,13.4156175 15.0191457,13.5377775 L20.4269754,16.3861333 C21.1910082,16.7885249 21.1910082,18.2114751 20.4269754,18.6141736 L15.0191457,21.4625294 C14.7875729,21.5843825 14.6040475,21.8259403 14.5113658,22.1304197 L12.3466061,29.2460912 C12.0407305,30.2513029 10.9592695,30.2513029 10.6533939,29.2460912 L8.48863417,22.1304197 C8.39595252,21.8256334 8.21242711,21.5843825 7.98085427,21.4625294 L2.57302462,18.6141736 C1.80899179,18.211782 1.80899179,16.7885249 2.57302462,16.3861333 L7.98085427,13.5377775 C8.21242711,13.4159244 8.39595252,13.1743666 8.48863417,12.8695803 L10.6533939,5.75390882 C10.9592695,4.74869706 12.0407305,4.74869706 12.3466061,5.75390882 L14.5113658,12.8695803 Z" id="Path" fill="url(#linearGradient-1)" opacity="0.186896188"></path>
                        <path d="M100.623839,12.482421 L102.218906,17.0363909 C102.287237,17.2312925 102.422332,17.3859426 102.592897,17.4640621 L106.577696,19.2870271 C107.140768,19.5446891 107.140768,20.4553771 106.577696,20.7127743 L102.592897,22.5357393 C102.422332,22.6138588 102.286976,22.7682441 102.218906,22.9634104 L100.623839,27.5173803 C100.398506,28.1608732 99.601494,28.1608732 99.3761608,27.5173803 L97.7810937,22.9634104 C97.7127635,22.7685089 97.5776679,22.6138588 97.4071031,22.5357393 L93.4223042,20.7127743 C92.8592319,20.4551123 92.8592319,19.5444243 93.4223042,19.2870271 L97.4071031,17.4640621 C97.5776679,17.3859426 97.7130243,17.2315573 97.7810937,17.0363909 L99.3761608,12.482421 C99.601494,11.839193 100.398506,11.839193 100.623839,12.482421 Z" id="Path" fill="url(#linearGradient-2)" opacity="0.272716704"></path>
                        <path d="M59.8119196,0.301513152 L60.6094532,3.14774434 C60.6436183,3.26955781 60.7111661,3.36621414 60.7964484,3.41503883 L62.7888479,4.55439195 C63.070384,4.71543067 63.070384,5.28461071 62.7888479,5.44548392 L60.7964484,6.58483704 C60.7111661,6.63366173 60.6434879,6.73015256 60.6094532,6.85213153 L59.8119196,9.69836272 C59.699253,10.1005458 59.300747,10.1005458 59.1880804,9.69836272 L58.3905468,6.85213153 C58.3563817,6.73031806 58.2888339,6.63366173 58.2035516,6.58483704 L56.2111521,5.44548392 C55.929616,5.2844452 55.929616,4.71526516 56.2111521,4.55439195 L58.2035516,3.41503883 C58.2888339,3.36621414 58.3565121,3.26972331 58.3905468,3.14774434 L59.1880804,0.301513152 C59.300747,-0.100504384 59.699253,-0.100504384 59.8119196,0.301513152 Z" id="Path-Copy" fill="url(#linearGradient-3)"></path>
                        <path d="M38.8119196,22.3015132 L39.6094532,25.1477443 C39.6436183,25.2695578 39.7111661,25.3662141 39.7964484,25.4150388 L41.7888479,26.5543919 C42.070384,26.7154307 42.070384,27.2846107 41.7888479,27.4454839 L39.7964484,28.584837 C39.7111661,28.6336617 39.6434879,28.7301526 39.6094532,28.8521315 L38.8119196,31.6983627 C38.699253,32.1005458 38.300747,32.1005458 38.1880804,31.6983627 L37.3905468,28.8521315 C37.3563817,28.7303181 37.2888339,28.6336617 37.2035516,28.584837 L35.2111521,27.4454839 C34.929616,27.2844452 34.929616,26.7152652 35.2111521,26.5543919 L37.2035516,25.4150388 C37.2888339,25.3662141 37.3565121,25.2697233 37.3905468,25.1477443 L38.1880804,22.3015132 C38.300747,21.8994956 38.699253,21.8994956 38.8119196,22.3015132 Z" id="Path-Copy-3" fill="url(#linearGradient-3)"></path>
                        <path d="M77.8119196,34.3015132 L78.6094532,37.1477443 C78.6436183,37.2695578 78.7111661,37.3662141 78.7964484,37.4150388 L80.7888479,38.5543919 C81.070384,38.7154307 81.070384,39.2846107 80.7888479,39.4454839 L78.7964484,40.584837 C78.7111661,40.6336617 78.6434879,40.7301526 78.6094532,40.8521315 L77.8119196,43.6983627 C77.699253,44.1005458 77.300747,44.1005458 77.1880804,43.6983627 L76.3905468,40.8521315 C76.3563817,40.7303181 76.2888339,40.6336617 76.2035516,40.584837 L74.2111521,39.4454839 C73.929616,39.2844452 73.929616,38.7152652 74.2111521,38.5543919 L76.2035516,37.4150388 C76.2888339,37.3662141 76.3565121,37.2697233 76.3905468,37.1477443 L77.1880804,34.3015132 C77.300747,33.8994956 77.699253,33.8994956 77.8119196,34.3015132 Z" id="Path-Copy-2" fill="url(#linearGradient-3)"></path>
                        <path d="M0.676224084,38.5526886 C0.828825795,38.6889138 16.012696,52.4455211 22.2673516,76.5614013 C22.8989112,79.0972246 26.600384,77.9900267 25.9159427,75.4924749 C19.3339237,50.1139018 3.76477191,36.0540663 3.10526056,35.4679499 C2.30372385,34.7560459 1.11212105,34.8692547 0.441277886,35.7200603 C-0.229061643,36.5708658 -0.123801717,37.8389112 0.676224084,38.5526886 Z" id="Path" fill="url(#linearGradient-4)" opacity="0.183587937"></path>
                        <path d="M78.0416814,36.7535053 C78.9911867,37.2822817 80.2203336,36.9358513 80.7514399,35.9486587 C80.7769586,35.9013938 83.3421116,31.189671 86.3240688,28.5312871 C87.1512975,27.7938468 87.2302457,26.5184993 86.500041,25.6827694 C85.7701021,24.8470395 84.5079936,24.7675485 83.6804992,25.5049888 C80.16398,28.6397816 77.360919,33.79891 77.243427,34.0169732 C76.716308,34.995035 77.0735687,36.219895 78.0416814,36.7535053 Z" id="Path" fill="url(#linearGradient-5)"></path>
                        <ellipse id="Oval" fill="url(#linearGradient-6)" transform="translate(79.902791, 8.409326) rotate(-76.700416) translate(-79.902791, -8.409326) " cx="79.9027908" cy="8.40932625" rx="5.03137508" ry="4.91985162"></ellipse>
                        <circle id="Oval" fill="url(#linearGradient-7)" opacity="0.33286903" cx="43.5" cy="9.5" r="2.5"></circle>
                        <path d="M16.6759572,28.5313476 C19.6578437,31.1896141 22.2229359,35.9011289 22.2487197,35.9483917 C22.7795476,36.9358092 24.0081338,37.2819558 24.9578824,36.7540084 C25.9265038,36.2209587 26.2840218,34.9953472 25.7561179,34.016523 C25.6386287,33.7984694 22.8353683,28.6398373 19.3191984,25.5051829 C18.4917235,24.767238 17.2293792,24.8472626 16.4997234,25.6829557 C15.7698018,26.5186487 15.8487482,27.7939399 16.6759572,28.5313476 L16.6759572,28.5313476 Z" id="Path" fill="url(#linearGradient-8)" opacity="0.110373361"></path>
                        <path d="M48.9763762,44.0551144 C48.9763762,45.1291364 49.8772075,46 50.9881881,46 C52.0991687,46 53,45.1291364 53,44.0551144 C53,36.039287 49.8437442,31.1106906 49.7093557,30.9049442 C49.1182605,29.9991425 47.8835996,29.7292136 46.9442186,30.2970218 C46.0048377,30.8643125 45.7191952,32.0628175 46.3019915,32.9732776 C46.3284944,33.0152033 48.9763762,37.2305456 48.9763762,44.0551144 L48.9763762,44.0551144 Z" id="Path" fill="url(#linearGradient-9)"></path>
                        <path d="M78.3906021,77.9263261 C79.3714771,78.2220555 80.4445689,77.6019863 80.7192039,76.5233492 C86.9660145,52.4724691 102.115784,38.7344187 102.321382,38.5504567 C103.123367,37.8386739 103.229693,36.5717967 102.559231,35.7204381 C101.888265,34.8693469 100.694485,34.7559751 99.8919969,35.4677579 C99.2321172,36.0533343 83.6542701,50.1002162 77.0685751,75.4554075 C76.7906647,76.5252209 77.3825155,77.6316662 78.3906021,77.9263261 L78.3906021,77.9263261 Z" id="Path" fill="url(#linearGradient-10)"></path>
                        <polygon id="Path" fill="url(#linearGradient-11)" points="63 20 68 20 68 25 63 25"></polygon>
                        <polygon id="Path" fill="url(#linearGradient-12)" opacity="0.214107695" points="26 7 31 7 31 12 26 12"></polygon>
                    </g>
                    <g id="award-(1)" transform="translate(32.000000, 26.000000)">
                        <g id="Group" transform="translate(0.000000, 39.247063)" fill="#E35D25">
                            <path d="M6.70789861,0.0683422182 L0.0748310659,8.59699056 L7.72978746,7.64009484 L9.64357889,14.3382602 L16.3417442,5.72630341 L16.3724093,5.68705635 C15.0461725,4.34836521 13.5936126,3.14175352 12.0358705,2.08155954 C10.3286756,1.24052115 8.54413784,0.566832242 6.70789861,0.0683422182 Z" id="Path"></path>
                            <path d="M37.4581291,0.0683422182 C35.6218899,0.565890312 33.8372474,1.23863729 32.1302619,2.07779182 C30.5724151,3.13704387 29.1209018,4.34459749 27.794665,5.68328863 L34.5224488,14.3382602 L36.4362403,7.64009484 L44.0913013,8.59699056 L37.4581291,0.0683422182 Z" id="Path"></path>
                        </g>
                        <path d="M42.1775099,23.9219742 C42.1775099,19.912599 44.6759255,15.1952067 42.8023231,11.9609348 C40.8704257,8.62053879 35.4698206,8.45025887 32.1302619,6.51825681 C28.8931641,4.64182858 26.0923891,0 22.0830139,0 C18.0736386,0 15.2728636,4.64277051 12.0357658,6.51543102 C8.6952652,8.44837501 3.29560201,8.62053879 1.3637046,11.9582137 C-0.509897837,15.1953114 1.98851784,19.9127036 1.98851784,23.9219742 C1.98851784,27.9312448 -0.509897837,32.6487417 1.3637046,35.8830137 C3.29560201,39.2235143 8.69631179,39.3937942 12.0357658,41.3257963 C15.2728636,43.2022245 18.0736386,47.8440531 22.0830139,47.8440531 C26.0923891,47.8440531 28.8931641,43.2012826 32.1302619,41.3286221 C35.4707625,39.3956781 40.8704257,39.2235143 42.8023231,35.8858394 C44.6759255,32.6487417 42.1775099,27.9313495 42.1775099,23.9219742 Z" id="Path" fill="#FFA511"></path>
                        <circle id="Oval" fill="#FFDC13" cx="22.0830139" cy="23.9219742" r="16.2670178"></circle>
                        <g id="Group-4" transform="translate(10.654746, 12.703835)">
                            <path d="M23.1967357,7.98876707 C22.9634046,7.27948402 22.3413178,6.79418508 21.6024358,6.71964814 L15.9245817,5.89824859 L13.3969573,0.970597869 C13.0468309,0.336100621 12.3468375,0 11.6469737,0 C10.9471099,0 10.2469869,0.336100621 9.89699014,0.970597869 L7.36936571,5.89824859 L1.69151158,6.71964814 C0.952629628,6.79418508 0.330542873,7.27948402 0.0972117296,7.98876707 C-0.136378671,8.66071945 0.0583232057,9.40733319 0.602503284,9.89263213 L4.72468682,13.7378173 L3.75247372,19.1506426 C3.63593778,19.8599256 3.90815745,20.5692087 4.5302442,20.9800951 C5.11370169,21.3907327 5.93036069,21.4651452 6.55257708,21.1292934 L11.6469737,18.553476 L16.7413704,21.1292934 C17.3634571,21.4651452 18.1802457,21.4280634 18.7637032,20.9800951 C19.38579,20.5693331 19.6580097,19.8600501 19.5414737,19.1506426 L18.5692606,13.7378173 L22.6914441,9.89263213 C23.2356242,9.40733319 23.4303261,8.66071945 23.1967357,7.98876707 Z" id="Path" fill="#FDBF00"></path>
                            <path d="M15.8923042,21.1293335 L11.6469737,18.5535112 L11.6469737,0 C12.2303016,0 12.8136294,0.336101259 13.1052934,0.970599711 L15.2116471,5.89825978 L19.9431922,6.71966089 C20.5589271,6.79419797 21.0773328,7.27949783 21.2717754,7.98878223 C21.466434,8.66073588 21.3041825,9.40735104 20.8506991,9.8926509 L17.4155461,13.7378434 L18.2257237,19.1506789 C18.322837,19.8599633 18.0959873,20.5692477 17.5775816,20.9801349 C17.0913671,21.4279796 16.4107099,21.4651859 15.8923042,21.1293335 Z" id="Path" fill="#FF9F00"></path>
                        </g>
                        <path d="M42.8023231,11.9610394 C42.7611922,11.8892435 42.7066649,11.8280181 42.665534,11.7600945 C41.2570354,14.4412445 39.5872038,16.9760814 37.6802151,19.3290213 C40.2197617,27.9409781 35.2966102,36.9815128 26.6846534,39.521164 C21.0256457,41.1890072 14.906453,39.6608836 10.6961328,35.5271736 C7.82649222,36.0802956 4.91080178,36.35963 1.98851784,36.3616185 C1.88521957,36.3616185 1.78474709,36.3549203 1.68134416,36.3539784 C3.83145523,39.2418296 8.85790503,39.4915456 12.0357658,41.3297733 C15.2728636,43.2013872 18.0736386,47.8442624 22.0830139,47.8442624 C26.0923891,47.8442624 28.8931641,43.2014919 32.1302619,41.3288314 C35.4707625,39.3958874 40.8704257,39.2237236 42.8023231,35.8860488 C44.6759255,32.648951 42.1775099,27.9314541 42.1775099,23.9221835 C42.1775099,19.9129129 44.6759255,15.1953114 42.8023231,11.9610394 Z" id="Path" fill="#F08015"></path>
                        <path d="M27.7401378,28.4662608 L28.8615572,31.9167578 C29.0251389,32.4191202 28.7495722,32.9588459 28.2472098,33.1224276 C27.9553163,33.2171439 27.6367349,33.166489 27.3889027,32.9865804 L24.1737834,30.6498627 C19.9654517,32.9769518 15.4154089,34.6237586 10.6932023,35.5299994 C17.0918341,41.8272168 27.3831465,41.7449549 33.6794219,35.3463232 C37.8265282,31.1322352 39.3585242,24.9985996 37.6801105,19.329126 C34.8324483,22.8455581 31.4833656,25.9237837 27.7401378,28.4662608 Z" id="Path" fill="#E5AF17" opacity="0.400000006"></path>
                        <g id="Group" transform="translate(6.384189, 38.327177)" fill="#CE4A13">
                            <path d="M29.5735512,6.64618902 C32.0537563,6.64807288 34.5034009,7.20402061 36.7415301,8.27290127 L31.0739403,0.98623931 C29.237701,1.4837874 27.4530586,2.15653439 25.746073,2.99568891 C24.1882263,4.05494097 22.7367129,5.26249459 21.4104762,6.60118572 L22.624728,8.16374211 C24.8044575,7.16288968 27.1746661,6.64524709 29.5735512,6.64618902 Z" id="Path"></path>
                            <path d="M5.65157701,3.00144515 C3.94448677,2.16229062 2.159949,1.48954364 0.323709772,0.991995546 L0.0280485674,1.3747329 C3.25750619,3.70663637 5.17129762,7.44714308 5.17318148,11.4305629 C5.17129762,11.9300995 5.13874872,12.4276476 5.0775233,12.9233119 L9.95766005,6.64618902 L9.98832509,6.60694196 C8.66187903,5.26835548 7.20942374,4.06163913 5.65157701,3.00144515 Z" id="Path"></path>
                        </g>
                    </g>
                </g>
            </g>
        </g>
    </g>
</svg>