<?xml version="1.0" encoding="UTF-8"?>
<svg width="23px" height="28px" viewBox="0 0 23 28" version="1.1" xmlns="http://www.w3.org/2000/svg" xmlns:xlink="http://www.w3.org/1999/xlink">
    <title>ranking_small</title>
    <g id="Page-1" stroke="none" stroke-width="1" fill="none" fill-rule="evenodd">
        <g id="Dashboard06" transform="translate(-44.000000, -382.000000)" fill-rule="nonzero">
            <g id="Group-9" transform="translate(27.999789, 273.000000)">
                <g id="ranking_small" transform="translate(16.000000, 109.000000)">
                    <g id="Group" transform="translate(0.000000, 19.266740)" fill="#E35D25">
                        <path d="M3.29296841,0.0335498162 L0.0367352505,4.22034082 L3.79462294,3.75059201 L4.73412055,7.03878227 L8.0223108,2.8110944 L8.03736455,2.79182766 C7.38630288,2.13465201 6.67322799,1.54231536 5.90851825,1.0218565 C5.07044076,0.608983111 4.19439494,0.278263101 3.29296841,0.0335498162 Z" id="Path"></path>
                        <path d="M18.3885361,0.0335498162 C17.4871096,0.277800699 16.6110124,0.608058308 15.7730376,1.02000689 C15.0082765,1.54000336 14.2957154,2.13280241 13.6446537,2.78997806 L16.947384,7.03878227 L17.8868816,3.75059201 L21.6448206,4.22034082 L18.3885361,0.0335498162 Z" id="Path"></path>
                    </g>
                    <path d="M20.705323,11.7435146 C20.705323,9.77527586 21.931818,7.45946511 21.0120495,5.87173162 C20.0636635,4.23190086 17.4124574,4.1483089 15.7730376,3.19987152 C14.1839169,2.27871585 12.808991,0 10.8407523,0 C8.8725135,0 7.49758757,2.27917825 5.90846687,3.19848432 C4.26858473,4.1473841 1.61784098,4.23190086 0.669454985,5.87039579 C-0.250313483,7.45951649 0.976181483,9.77532724 0.976181483,11.7435146 C0.976181483,13.711702 -0.250313483,16.0275641 0.669454985,17.6152976 C1.61784098,19.2551797 4.26909851,19.3387717 5.90846687,20.2872091 C7.49758757,21.2083648 8.8725135,23.4870806 10.8407523,23.4870806 C12.808991,23.4870806 14.1839169,21.2079024 15.7730376,20.2885963 C17.4129198,19.3396965 20.0636635,19.2551797 21.0120495,17.6166848 C21.931818,16.0275641 20.705323,13.7117534 20.705323,11.7435146 Z" id="Path" fill="#FFA511"></path>
                    <circle id="Oval" fill="#FFDC13" cx="10.8407523" cy="11.7435146" r="7.98562693"></circle>
                    <g id="Group-4" transform="translate(5.230512, 6.236428)">
                        <path d="M11.3874884,3.92175838 C11.2729441,3.57356488 10.967556,3.33532722 10.6048321,3.29873636 L7.81752194,2.89550385 L6.57668813,0.476475317 C6.40480792,0.16499485 6.06117478,0 5.71760528,0 C5.37403578,0 5.030339,0.16499485 4.85852243,0.476475317 L3.61768862,2.89550385 L0.830378414,3.29873636 C0.467654545,3.33532722 0.162266501,3.57356488 0.0477221218,3.92175838 C-0.0669495294,4.25162591 0.0286313919,4.61814538 0.29577434,4.85638304 L2.31939171,6.74401943 L1.84212346,9.40122453 C1.78491491,9.74941803 1.91855002,10.0976115 2.22393806,10.2993194 C2.51036265,10.5009051 2.91126798,10.5374349 3.21671966,10.3725622 L5.71760528,9.10807004 L8.2184909,10.3725622 C8.52387894,10.5374349 8.92484791,10.5192311 9.21127249,10.2993194 C9.51666054,10.0976726 9.65029565,9.74947912 9.59308709,9.40122453 L9.11581884,6.74401943 L11.1394362,4.85638304 C11.4065792,4.61814538 11.5021601,4.25162591 11.3874884,3.92175838 Z" id="Path" fill="#FDBF00"></path>
                        <path d="M7.80167663,10.3725819 L5.71760528,9.10808732 L5.71760528,0 C6.00396623,0 6.29032718,0.164995163 6.43350765,0.476476222 L7.46753583,2.89550935 L9.79029433,3.29874262 C10.0925642,3.33533355 10.3470543,3.57357166 10.4425079,3.92176582 C10.5380676,4.25163398 10.4584169,4.61815415 10.2357977,4.85639226 L8.54944992,6.74403222 L8.94717346,9.40124237 C8.99484725,9.74943653 8.88348466,10.0976307 8.62899462,10.299339 C8.39030747,10.51919 8.05616667,10.5374549 7.80167663,10.3725819 Z" id="Path" fill="#FF9F00"></path>
                    </g>
                    <path d="M21.0120495,5.871783 C20.991858,5.83653771 20.9650901,5.80648159 20.9448985,5.77313729 C20.2534538,7.0893382 19.4337182,8.3337127 18.4975602,9.48879228 C19.7442467,13.7164801 17.3274268,18.1545608 13.099739,19.4012987 C10.3216806,20.2200581 7.31771329,19.4698883 5.25082882,17.4406125 C3.84209618,17.7121451 2.41075724,17.8492729 0.976181483,17.8502491 C0.925471424,17.8502491 0.87614857,17.8469609 0.825387133,17.8464985 C1.88089621,19.2641709 4.3484261,19.3867587 5.90846687,20.2891615 C7.49758757,21.2079537 8.8725135,23.4871834 10.8407523,23.4871834 C12.808991,23.4871834 14.1839169,21.2080051 15.7730376,20.288699 C17.4129198,19.3397993 20.0636635,19.2552825 21.0120495,17.6167876 C21.931818,16.0276669 20.705323,13.7118048 20.705323,11.7436174 C20.705323,9.77542999 21.931818,7.45951649 21.0120495,5.871783 Z" id="Path" fill="#F08015"></path>
                    <path d="M13.6178858,13.9743462 L14.1684008,15.6682266 C14.2487046,15.9148408 14.1134264,16.1797971 13.8668121,16.2601008 C13.7235189,16.3065979 13.5671244,16.281731 13.4454613,16.1934122 L11.86713,15.0462962 C9.80122173,16.1886854 7.56756437,16.9971178 5.24939024,17.4419997 C8.39053673,20.533361 13.4426356,20.4929779 16.5335344,17.3518314 C18.5693866,15.2830973 19.3214573,12.2720398 18.4975088,9.48884366 C17.0995655,11.2150922 15.4554704,12.7262211 13.6178858,13.9743462 Z" id="Path" fill="#E5AF17" opacity="0.400000006"></path>
                    <g id="Group" transform="translate(3.134056, 18.815160)" fill="#CE4A13">
                        <path d="M14.5179251,3.26267461 C15.7354803,3.26359941 16.9380332,3.53651921 18.0367511,4.06124244 L15.2544798,0.484153843 C14.3530532,0.728404726 13.476956,1.05866233 12.6389813,1.47061092 C11.8742202,1.99060738 11.1616591,2.58340643 10.5105974,3.24058208 L11.1066846,4.00765522 C12.1767337,3.51632766 13.3402906,3.26221221 14.5179251,3.26267461 Z" id="Path"></path>
                        <path d="M2.77441053,1.47343671 C1.93638442,1.06148812 1.0603386,0.731230514 0.15891207,0.486979632 L0.0137692967,0.674868878 C1.5991394,1.81962149 2.53863701,3.65587024 2.53956182,5.61136726 C2.53863701,5.85659432 2.52265846,6.10084521 2.49260235,6.34417128 L4.88830584,3.26267461 L4.90335959,3.24340787 C4.25219516,2.5862836 3.53917166,1.99389557 2.77441053,1.47343671 Z" id="Path"></path>
                    </g>
                </g>
            </g>
        </g>
    </g>
</svg>