<?xml version="1.0" encoding="UTF-8"?>
<svg width="19px" height="19px" viewBox="0 0 19 19" version="1.1" xmlns="http://www.w3.org/2000/svg" xmlns:xlink="http://www.w3.org/1999/xlink">
    <title>amountwon_home_small</title>
    <g id="Page-1" stroke="none" stroke-width="1" fill="none" fill-rule="evenodd">
        <g id="Dashboard01" transform="translate(-138.000000, -988.000000)" fill-rule="nonzero">
            <g id="Group-9" transform="translate(27.999789, 761.000000)">
                <g id="Group-13" transform="translate(110.000000, 224.000000)">
                    <g id="amountwon_home_small" transform="translate(0.000211, 3.000000)">
                        <g id="Group">
                            <path d="M18.8664242,9.43321212 C18.8664242,14.6430404 14.6430404,18.8664242 9.43321212,18.8664242 C6.68679979,18.8664242 4.21452816,17.6928556 2.49075303,15.8196892 C2.03795885,15.3280071 1.63714359,14.7878113 1.29600784,14.2083426 C0.472430664,12.8076069 0,11.1754686 0,9.43321212 C0,4.22338383 4.22338383,0 9.43321212,0 C11.1758537,0 12.8079919,0.472430664 14.2083426,1.29639287 C14.7878113,1.63714359 15.3276221,2.03795885 15.8193042,2.49113806 C17.6924706,4.21414313 18.8664242,6.68679979 18.8664242,9.43321212 Z" id="Path" fill="#F0CD00"></path>
                            <path d="M18.8664242,9.43321212 C18.8664242,14.5256066 14.8317047,18.6754498 9.78435863,18.8598787 C4.7370126,18.6754498 0.702293017,14.5256066 0.702293017,9.43321212 C0.702293017,4.34081769 4.7370126,0.190974417 9.78435863,0.00654549412 C14.8317047,0.190974417 18.8664242,4.34081769 18.8664242,9.43321212 Z" id="Path" fill="#FFDE50"></path>
                            <path d="M15.8193042,2.49113806 L2.49075303,15.8196892 C2.03795885,15.3280071 1.63714359,14.7878113 1.29600784,14.2083426 L14.2083426,1.29639287 C14.7878113,1.63714359 15.3276221,2.03795885 15.8193042,2.49113806 Z" id="Path" fill="#FFEA94"></path>
                            <path d="M18.2157251,5.98450678 L5.98412175,18.2161101 C5.11819138,17.8757445 4.31463572,17.4110144 3.59578645,16.8438666 L16.8438666,3.59578645 C17.4110144,4.31463572 17.8757445,5.11819138 18.2157251,5.98450678 Z" id="Path" fill="#FFEA94"></path>
                            <path d="M16.7633955,9.43321212 C16.7633955,13.4814077 13.4814077,16.7633955 9.43321212,16.7633955 C8.02323568,16.7633955 6.70643627,16.3652754 5.5886969,15.6753033 C5.10163513,15.3749807 4.65269124,15.0188288 4.24995083,14.6160884 C3.95386348,14.3203861 3.68280302,13.9988868 3.44061974,13.6558259 C3.10718456,13.1833952 2.82803849,12.6697665 2.61280724,12.1241803 C2.29400318,11.3175444 2.11457963,10.4404482 2.10379882,9.52330892 C2.10302876,9.49327666 2.10302876,9.46324439 2.10302876,9.43321212 C2.10302876,5.38501652 5.38463149,2.10302876 9.43321212,2.10302876 C9.46324439,2.10302876 9.49366168,2.10302876 9.52369395,2.10379882 C10.4408332,2.11457963 11.3175444,2.29438821 12.1241803,2.61280724 C12.6697665,2.82842352 13.1833952,3.10718456 13.6558259,3.44061974 C13.9988868,3.68318805 14.320001,3.95386348 14.6160884,4.24995083 C15.0188288,4.65230621 15.3749807,5.10163513 15.6753033,5.5886969 C16.3652754,6.70643627 16.7633955,8.02323568 16.7633955,9.43321212 Z" id="Path" fill="#FAA300"></path>
                            <path d="M14.6160884,4.24995083 L4.24995083,14.6160884 C3.95386348,14.3203861 3.68280302,13.9988868 3.44061974,13.6558259 C3.10718456,13.1833952 2.82803849,12.6697665 2.61280724,12.1241803 C2.29400318,11.3175444 2.11457963,10.4404482 2.10379882,9.52330892 C2.10302876,9.49327666 2.10302876,9.46324439 2.10302876,9.43321212 C2.10302876,5.38501652 5.38463149,2.10302876 9.43321212,2.10302876 C9.46324439,2.10302876 9.49366168,2.10302876 9.52369395,2.10379882 C10.4408332,2.11457963 11.3175444,2.29438821 12.1241803,2.61280724 C12.6697665,2.82842352 13.1833952,3.10718456 13.6558259,3.44061974 C13.9988868,3.68318805 14.320001,3.95386348 14.6160884,4.24995083 Z" id="Path" fill="#FFBD00"></path>
                            <path d="M16.763203,9.43321212 C16.763203,13.4814077 13.4812152,16.7633955 9.43301961,16.7633955 C9.29402411,16.7633955 9.15618371,16.7595452 9.01911336,16.7518446 C12.8747944,16.5373834 15.9350054,13.3424122 15.9350054,9.43321212 C15.9350054,5.52401201 12.8747944,2.32904082 9.01911336,2.11457963 C9.15618371,2.10687905 9.29402411,2.10302876 9.43301961,2.10302876 C13.4812152,2.10302876 16.763203,5.38501652 16.763203,9.43321212 Z" id="Path" fill="#F68E00"></path>
                        </g>
                        <path d="M13.345341,7.18849267 L12.0616926,7.18849267 C11.9885755,6.90191553 11.875146,6.63139411 11.7286424,6.38258833 L13.345341,6.38258833 C13.7706441,6.38258833 14.1153991,6.0378333 14.1153991,5.61253019 C14.1153991,5.18722709 13.7706441,4.84247206 13.345341,4.84247206 L9.04210211,4.84247206 L6.07006274,4.84247206 C5.64475964,4.84247206 5.30000461,5.18722709 5.30000461,5.61253019 C5.30000461,6.0378333 5.64475964,6.38258833 6.07006274,6.38258833 L9.04210211,6.38258833 C9.6315046,6.38258833 10.1460574,6.7080534 10.4163478,7.18849267 L6.07006274,7.18849267 C5.64475964,7.18849267 5.30000461,7.53324769 5.30000461,7.9585508 C5.30000461,8.3838539 5.64475964,8.72860893 6.07006274,8.72860893 L10.4163478,8.72860893 C10.1460574,9.2090482 9.6315046,9.53447477 9.04214061,9.53447477 L6.07010125,9.53447477 C5.76280955,9.53447477 5.48493407,9.71717106 5.36314938,9.99928185 C5.24132618,10.2813927 5.29892653,10.6089369 5.50961443,10.8326003 L9.69753708,15.2777993 C9.84904602,15.438626 10.0533809,15.5197901 10.2581779,15.5197901 C10.4475737,15.5197901 10.6373545,15.4503309 10.7860913,15.3102188 C11.0956546,15.0185978 11.1101317,14.531228 10.8185107,14.2216646 L7.85351738,11.074591 L9.04210211,11.074591 C10.4945858,11.074591 11.7179771,10.0755561 12.0616926,8.72860893 L13.345341,8.72860893 C13.7706441,8.72860893 14.1153991,8.3838539 14.1153991,7.9585508 C14.1153991,7.53324769 13.7706441,7.18849267 13.345341,7.18849267 Z" id="Path" fill="#F68E00"></path>
                        <path d="M13.3079521,7.18849267 L12.0243037,7.18849267 C11.9511867,6.90191553 11.8377571,6.63139411 11.6912536,6.38258833 L13.3079521,6.38258833 C13.7332552,6.38258833 14.0780103,6.0378333 14.0780103,5.61253019 C14.0780103,5.18722709 13.7332552,4.84247206 13.3079521,4.84247206 L9.00475178,4.84247206 L6.03271241,4.84247206 C5.60740931,4.84247206 5.26265428,5.18722709 5.26265428,5.61253019 C5.26265428,6.0378333 5.60740931,6.38258833 6.03271241,6.38258833 L9.00475178,6.38258833 C9.59415427,6.38258833 10.1087071,6.7080534 10.3789975,7.18849267 L6.03271241,7.18849267 C5.60740931,7.18849267 5.26265428,7.53324769 5.26265428,7.9585508 C5.26265428,8.3838539 5.60740931,8.72860893 6.03271241,8.72860893 L10.3789975,8.72860893 C10.1087071,9.2090482 9.59415427,9.53447477 9.00479028,9.53447477 L6.03275092,9.53447477 C5.72545922,9.53447477 5.44758374,9.71717106 5.32579905,9.99928185 C5.20397585,10.2813927 5.2615762,10.6089369 5.47226411,10.8326003 L9.66018676,15.2777993 C9.81169569,15.438626 10.0160306,15.5197901 10.2208276,15.5197901 C10.4102234,15.5197901 10.6000042,15.4503309 10.7487409,15.3102188 C11.0583043,15.0185978 11.0728199,14.531228 10.7811604,14.2216646 L7.81624405,11.074591 L9.00482878,11.074591 C10.4573124,11.074591 11.6807038,10.0755561 12.0244192,8.72860893 L13.3080676,8.72860893 C13.7333707,8.72860893 14.0781258,8.3838539 14.0781258,7.9585508 C14.0781258,7.53324769 13.7332552,7.18849267 13.3079521,7.18849267 Z" id="Path" fill="#FEDB41"></path>
                    </g>
                </g>
            </g>
        </g>
    </g>
</svg>