<?xml version="1.0" encoding="UTF-8"?>
<svg width="17px" height="15px" viewBox="0 0 17 15" version="1.1" xmlns="http://www.w3.org/2000/svg" xmlns:xlink="http://www.w3.org/1999/xlink">
    <title>Benefits_home</title>
    <defs>
        <linearGradient x1="39.0850623%" y1="93.0398926%" x2="58.6435305%" y2="-14.2105082%" id="linearGradient-1">
            <stop stop-color="#4753DA" offset="0%"></stop>
            <stop stop-color="#7E72EA" offset="43.2683839%"></stop>
            <stop stop-color="#C79CFF" offset="100%"></stop>
        </linearGradient>
    </defs>
    <g id="Page-1" stroke="none" stroke-width="1" fill="none" fill-rule="evenodd">
        <g id="Dashboard01" transform="translate(-126.000000, -311.000000)" fill-rule="nonzero">
            <g id="Benefits_home" transform="translate(126.000000, 311.000000)">
                <path d="M17,6.47597766 C17,5.80345087 16.4536356,5.25826018 15.779661,5.25826018 L11.3050847,5.25826018 L11.3050847,2.46765763 C11.3050847,1.70851226 11.3050847,0.19504165 9.30922034,0.00177973858 C9.19516,-0.00890886217 9.08187046,0.0288914082 8.9971942,0.105890609 C8.91251795,0.182889811 8.86430588,0.291948827 8.86440678,0.406264894 L8.86440678,3.16459793 C8.86439537,3.23970264 8.84350185,3.31333154 8.80405085,3.37729259 L7.6440678,5.25826018 L7.69491525,5.25826018 L5.20338983,6.88188349 L5,9.76513404 L5.20338983,13.3763767 C5.20338983,14.2730791 5.93187566,15 6.83050847,15 L14.9661017,15 C15.6400763,15 16.1864407,14.4548093 16.1864407,13.7822825 C16.1864407,13.1097557 15.6400763,12.564565 14.9661017,12.564565 L15.3728814,12.564565 C16.046856,12.564565 16.5932203,12.0193744 16.5932203,11.3468476 C16.5932203,10.6743208 16.046856,10.1291301 15.3728814,10.1291301 L15.779661,10.1291301 C16.4536356,10.1291301 17,9.58393941 17,8.91141261 C17,8.23888582 16.4536356,7.69369514 15.779661,7.69369514 C16.4536356,7.69369514 17,7.14850445 17,6.47597766 L17,6.47597766 Z" id="Path" fill="#EABB9F"></path>
                <rect id="Rectangle" fill="url(#linearGradient-1)" x="0" y="5" width="5" height="10" rx="2.5"></rect>
                <circle id="Oval" fill="#FFFFFF" cx="2.5" cy="13.5" r="1"></circle>
            </g>
        </g>
    </g>
</svg>