<?xml version="1.0" encoding="UTF-8"?>
<svg width="79px" height="79px" viewBox="0 0 79 79" version="1.1" xmlns="http://www.w3.org/2000/svg" xmlns:xlink="http://www.w3.org/1999/xlink">
    <title>Champion</title>
    <defs>
        <linearGradient x1="80.0030147%" y1="6.57893407%" x2="50%" y2="100%" id="linearGradient-1">
            <stop stop-color="#FFFEF8" offset="0%"></stop>
            <stop stop-color="#FEEC9C" offset="100%"></stop>
        </linearGradient>
        <linearGradient x1="50%" y1="0%" x2="50%" y2="100%" id="linearGradient-2">
            <stop stop-color="#DCBA60" offset="0%"></stop>
            <stop stop-color="#E9D485" offset="100%"></stop>
        </linearGradient>
        <linearGradient x1="50%" y1="100%" x2="85.2943105%" y2="14.7590199%" id="linearGradient-3">
            <stop stop-color="#F4DD7B" offset="0%"></stop>
            <stop stop-color="#FFFFFF" offset="100%"></stop>
        </linearGradient>
        <circle id="path-4" cx="30.3293595" cy="30.3293595" r="30.3293595"></circle>
        <linearGradient x1="50%" y1="100%" x2="51.6755352%" y2="6.57893407%" id="linearGradient-6">
            <stop stop-color="#FFF6C7" offset="0%"></stop>
            <stop stop-color="#FBDA5F" offset="100%"></stop>
        </linearGradient>
        <linearGradient x1="50%" y1="100%" x2="51.6747835%" y2="6.57893407%" id="linearGradient-7">
            <stop stop-color="#FFF6C7" offset="0%"></stop>
            <stop stop-color="#FBDA5F" offset="100%"></stop>
        </linearGradient>
        <linearGradient x1="50%" y1="100%" x2="51.6747509%" y2="6.57893407%" id="linearGradient-8">
            <stop stop-color="#FFF6C7" offset="0%"></stop>
            <stop stop-color="#FBDA5F" offset="100%"></stop>
        </linearGradient>
        <linearGradient x1="50%" y1="100%" x2="86.0472226%" y2="12.9406257%" id="linearGradient-9">
            <stop stop-color="#A99DF1" offset="0%"></stop>
            <stop stop-color="#F4F2FF" offset="100%"></stop>
        </linearGradient>
        <linearGradient x1="80.0030147%" y1="6.57893407%" x2="50%" y2="100%" id="linearGradient-10">
            <stop stop-color="#E8B61B" offset="0%"></stop>
            <stop stop-color="#FEEC9C" offset="100%"></stop>
        </linearGradient>
        <linearGradient x1="50%" y1="100%" x2="80.0030147%" y2="6.57893407%" id="linearGradient-11">
            <stop stop-color="#FFF6C7" offset="0%"></stop>
            <stop stop-color="#FBDA5F" offset="100%"></stop>
        </linearGradient>
        <circle id="path-12" cx="23.2283228" cy="23.2283228" r="23.2283228"></circle>
        <filter x="-25.8%" y="-21.5%" width="151.7%" height="151.7%" filterUnits="objectBoundingBox" id="filter-14">
            <feMorphology radius="2.5" operator="dilate" in="SourceAlpha" result="shadowSpreadOuter1"></feMorphology>
            <feOffset dx="0" dy="2" in="shadowSpreadOuter1" result="shadowOffsetOuter1"></feOffset>
            <feGaussianBlur stdDeviation="2.5" in="shadowOffsetOuter1" result="shadowBlurOuter1"></feGaussianBlur>
            <feComposite in="shadowBlurOuter1" in2="SourceAlpha" operator="out" result="shadowBlurOuter1"></feComposite>
            <feColorMatrix values="0 0 0 0 0.617867069   0 0 0 0 0.421505148   0 0 0 0 0.0776736437  0 0 0 0.458978933 0" type="matrix" in="shadowBlurOuter1"></feColorMatrix>
        </filter>
        <linearGradient x1="50%" y1="100%" x2="51.6741716%" y2="6.57893407%" id="linearGradient-15">
            <stop stop-color="#FFF6C7" offset="0%"></stop>
            <stop stop-color="#FBDA5F" offset="100%"></stop>
        </linearGradient>
        <linearGradient x1="308.136704%" y1="40.1730245%" x2="308.136704%" y2="106.783986%" id="linearGradient-16">
            <stop stop-color="#FFFFFF" offset="0%"></stop>
            <stop stop-color="#F5F5F5" stop-opacity="0.549415428" offset="64.7510797%"></stop>
            <stop stop-color="#EDEDED" stop-opacity="0.372379543" offset="100%"></stop>
        </linearGradient>
        <linearGradient x1="50%" y1="56.1145842%" x2="80.0030147%" y2="44.6899647%" id="linearGradient-17">
            <stop stop-color="#F7D278" offset="0%"></stop>
            <stop stop-color="#FFF6D5" offset="100%"></stop>
        </linearGradient>
        <path d="M14.567605,51.4292608 C22.7778714,48.114184 31.2042076,46.4566457 39.8466137,46.4566457 C48.3797331,46.4566457 56.9489314,48.0725286 65.5542086,51.3042946 C69.1733858,52.6635028 71.005456,56.6992799 69.6462508,60.3184582 C69.5589489,60.5509183 69.4593397,60.7785685 69.3478456,61.0004432 L67.94611,63.7899148 C66.2102534,67.2442889 62.0027405,68.6374239 58.5483658,66.9015683 C58.5298564,66.8922672 58.5113884,66.8828839 58.4929623,66.8734188 C53.6232687,64.371959 47.5082563,63.1212292 40.1479251,63.1212292 C32.7836416,63.1212292 26.495947,64.3733026 21.2848413,66.8774494 C17.8002939,68.55192 13.6180852,67.0845582 11.9436185,63.6000089 C11.8771906,63.461773 11.8153237,63.3213913 11.7581179,63.1790911 L10.6936022,60.5310913 C9.25315051,56.9479453 10.98665,52.8751507 14.567605,51.4292608 Z" id="path-18"></path>
        <filter x="-10.2%" y="-19.1%" width="120.4%" height="158.9%" filterUnits="objectBoundingBox" id="filter-19">
            <feMorphology radius="0.5" operator="dilate" in="SourceAlpha" result="shadowSpreadOuter1"></feMorphology>
            <feOffset dx="0" dy="2" in="shadowSpreadOuter1" result="shadowOffsetOuter1"></feOffset>
            <feGaussianBlur stdDeviation="1.5" in="shadowOffsetOuter1" result="shadowBlurOuter1"></feGaussianBlur>
            <feComposite in="shadowBlurOuter1" in2="SourceAlpha" operator="out" result="shadowBlurOuter1"></feComposite>
            <feColorMatrix values="0 0 0 0 0.0455861852   0 0 0 0 0.0455861852   0 0 0 0 0.0455861852  0 0 0 0.410387479 0" type="matrix" in="shadowBlurOuter1"></feColorMatrix>
        </filter>
        <filter x="-80.4%" y="-93.8%" width="260.7%" height="287.5%" filterUnits="objectBoundingBox" id="filter-20">
            <feOffset dx="0" dy="2" in="SourceAlpha" result="shadowOffsetOuter1"></feOffset>
            <feGaussianBlur stdDeviation="1" in="shadowOffsetOuter1" result="shadowBlurOuter1"></feGaussianBlur>
            <feColorMatrix values="0 0 0 0 0   0 0 0 0 0   0 0 0 0 0  0 0 0 0.5 0" type="matrix" in="shadowBlurOuter1" result="shadowMatrixOuter1"></feColorMatrix>
            <feMerge>
                <feMergeNode in="shadowMatrixOuter1"></feMergeNode>
                <feMergeNode in="SourceGraphic"></feMergeNode>
            </feMerge>
        </filter>
        <filter x="-80.4%" y="-93.8%" width="260.7%" height="287.5%" filterUnits="objectBoundingBox" id="filter-21">
            <feOffset dx="0" dy="2" in="SourceAlpha" result="shadowOffsetOuter1"></feOffset>
            <feGaussianBlur stdDeviation="1" in="shadowOffsetOuter1" result="shadowBlurOuter1"></feGaussianBlur>
            <feColorMatrix values="0 0 0 0 0   0 0 0 0 0   0 0 0 0 0  0 0 0 0.5 0" type="matrix" in="shadowBlurOuter1" result="shadowMatrixOuter1"></feColorMatrix>
            <feMerge>
                <feMergeNode in="shadowMatrixOuter1"></feMergeNode>
                <feMergeNode in="SourceGraphic"></feMergeNode>
            </feMerge>
        </filter>
        <filter x="-80.4%" y="-93.8%" width="260.7%" height="287.5%" filterUnits="objectBoundingBox" id="filter-22">
            <feOffset dx="0" dy="2" in="SourceAlpha" result="shadowOffsetOuter1"></feOffset>
            <feGaussianBlur stdDeviation="1" in="shadowOffsetOuter1" result="shadowBlurOuter1"></feGaussianBlur>
            <feColorMatrix values="0 0 0 0 0   0 0 0 0 0   0 0 0 0 0  0 0 0 0.5 0" type="matrix" in="shadowBlurOuter1" result="shadowMatrixOuter1"></feColorMatrix>
            <feMerge>
                <feMergeNode in="shadowMatrixOuter1"></feMergeNode>
                <feMergeNode in="SourceGraphic"></feMergeNode>
            </feMerge>
        </filter>
        <linearGradient x1="80.0030147%" y1="49.0811059%" x2="24.7038795%" y2="50%" id="linearGradient-23">
            <stop stop-color="#E8DA97" offset="0%"></stop>
            <stop stop-color="#FCF2C9" offset="100%"></stop>
        </linearGradient>
    </defs>
    <g id="Page-1" stroke="none" stroke-width="1" fill="none" fill-rule="evenodd">
        <g id="Group-9-Copy-3">
            <circle id="Oval" stroke="url(#linearGradient-2)" fill="url(#linearGradient-1)" cx="40.1281128" cy="38.3978398" r="30.8130813"></circle>
            <g id="Group-7" opacity="0.699999988" transform="translate(39.786143, 39.333968) rotate(70.000000) translate(-39.786143, -39.333968) translate(9.281193, 8.829018)">
                <mask id="mask-5" fill="white">
                    <use xlink:href="#path-4"></use>
                </mask>
                <use id="Mask" fill="url(#linearGradient-3)" xlink:href="#path-4"></use>
                <g mask="url(#mask-5)" id="Rectangle">
                    <g transform="translate(-10.375834, -4.788846)">
                        <polygon fill="url(#linearGradient-6)" points="30.498094 0 46.0055994 0 41.8702646 65.6217205 38.2518467 65.6217205"></polygon>
                        <polygon fill="url(#linearGradient-7)" transform="translate(53.764704, 40.047051) rotate(30.000000) translate(-53.764704, -40.047051) " points="46.0117398 7.23490103 61.5176673 7.23216802 57.3711836 72.8612971 53.7531338 72.8619348"></polygon>
                        <polygon fill="url(#linearGradient-8)" transform="translate(23.256066, 41.080740) rotate(-30.000000) translate(-23.256066, -41.080740) " points="15.5031023 8.26553823 31.0090298 8.26827123 26.8856856 73.8959427 23.2676358 73.895305"></polygon>
                    </g>
                </g>
            </g>
            <circle id="Oval" fill="url(#linearGradient-9)" cx="40.1281128" cy="38.3978398" r="23.2283228"></circle>
            <g id="Group-7" transform="translate(16.899790, 15.169517)">
                <mask id="mask-13" fill="white">
                    <use xlink:href="#path-12"></use>
                </mask>
                <g id="Mask">
                    <use fill="black" fill-opacity="1" filter="url(#filter-14)" xlink:href="#path-12"></use>
                    <circle stroke="url(#linearGradient-11)" stroke-width="2" fill="url(#linearGradient-10)" fill-rule="evenodd" cx="23.2283228" cy="23.2283228" r="24.2283228"></circle>
                </g>
                <g mask="url(#mask-13)" fill="url(#linearGradient-15)" id="Rectangle">
                    <g transform="translate(-7.941307, -3.970653)">
                        <polygon points="23.4268555 0 35.3388159 0 32.1622932 50.4272991 29.3828357 50.4272991"></polygon>
                        <polygon transform="translate(41.294796, 30.772564) rotate(30.000000) translate(-41.294796, -30.772564) " points="35.3388159 5.55891487 47.2507764 5.55891487 44.0742536 55.986214 41.2947961 55.986214"></polygon>
                        <polygon transform="translate(17.867941, 31.566695) rotate(-30.000000) translate(-17.867941, -31.566695) " points="11.9119604 6.35304556 23.8239209 6.35304556 20.6473981 56.7803447 17.8679406 56.7803447"></polygon>
                    </g>
                </g>
            </g>
            <g id="Group-8" opacity="0.600000024" transform="translate(23.062406, 20.384038)" fill="url(#linearGradient-16)" fill-rule="nonzero">
                <path d="M31.9090149,11.318287 C32.1652628,11.087238 32.5464568,11.1240392 32.7607074,11.4003086 C32.9747972,11.6766648 32.9408453,12.0879009 32.6847583,12.3189499 C32.6780819,12.3250226 32.622055,12.3765968 32.5246861,12.472566 L32.4138331,12.5832924 C31.35949,13.6495563 27.5110628,17.8967049 25.7868208,24.6451826 C25.6991253,24.9953148 25.356469,25.196593 25.0432592,25.1005974 C24.7213603,25.004949 24.5323724,24.6457901 24.6211138,24.2985222 C26.7240366,16.0680723 31.6983042,11.5083687 31.9090149,11.318287 Z M0.140907423,11.4001859 C0.355118885,11.1240093 0.735617624,11.087261 0.991561725,11.3183494 C1.01654734,11.3409222 1.10854933,11.4250604 1.25482389,11.5695957 L1.39319609,11.7082469 C2.65210429,12.9864792 6.49425155,17.3291649 8.27539473,24.3105545 C8.49394831,25.121275 7.31200601,25.4806783 7.11033847,24.6575345 C5.11312213,16.8293726 0.264657963,12.3638939 0.21592968,12.3196744 C-0.0395319625,12.0879779 -0.0731432205,11.6763626 0.140907423,11.4001859 Z M15.049868,9.71344226 C15.3387184,9.52631232 15.7183646,9.61527154 15.9001206,9.91379241 C15.9414437,9.98159929 16.9119615,11.605894 16.9119615,14.247633 C16.9119615,14.6015935 16.6349647,14.8886 16.293349,14.8886 C15.9517333,14.8886 15.6747365,14.6015935 15.6747365,14.247633 C15.6747365,11.9984915 14.8605388,10.6092607 14.8523894,10.5954435 C14.6731853,10.2953874 14.7610175,9.90040161 15.049868,9.71344226 Z M26.6534048,8.22129532 C26.9078512,7.99255669 27.2959372,8.01721315 27.5203863,8.27643916 C27.7449171,8.53566517 27.7206413,8.93125139 27.4662765,9.15999002 C26.5493539,9.9845653 25.7605945,11.4460436 25.7527477,11.4607042 C25.5894377,11.7669107 25.2114871,11.8743662 24.9195235,11.7103508 L24.982,11.739 L25.0941078,12.1428147 C25.1046132,12.1805987 25.1253835,12.2105795 25.151607,12.2257239 L25.7642503,12.5791275 C25.8508199,12.6290783 25.8508199,12.8056261 25.7642503,12.8555256 L25.151607,13.2089292 C25.1253835,13.2240736 25.1045731,13.2540031 25.0941078,13.2918384 L24.848874,14.17468 C24.8142301,14.2994288 24.6916934,14.2994288 24.6570496,14.17468 L24.4118158,13.2918384 C24.4013104,13.2540544 24.3805401,13.2240736 24.3543166,13.2089292 L23.7416733,12.8555256 C23.6551037,12.8055748 23.6551037,12.629027 23.7416733,12.5791275 L24.3543166,12.2257239 C24.3805401,12.2105795 24.4013505,12.18065 24.4118158,12.1428147 L24.6296614,11.3549719 C24.5790791,11.196982 24.5899645,11.0189532 24.6740681,10.8615356 L24.6740681,10.8615356 L24.7018264,10.8105449 C24.8617526,10.5203397 25.6661352,9.1090908 26.6534048,8.22129532 Z M5.3809936,8.27649693 C5.6053556,8.01728237 5.99351413,7.99246041 6.24795454,8.22135553 C7.32914237,9.19366003 8.19111749,10.7937602 8.22724426,10.8613959 C8.38956956,11.1650068 8.27963627,11.5451659 7.98179468,11.7105068 C7.68975627,11.8742651 7.31197806,11.7668977 7.14875368,11.4606213 C7.14082541,11.4459614 6.35208466,9.98454765 5.43518377,9.16000878 C5.18082509,8.93128025 5.15654986,8.5357115 5.3809936,8.27649693 Z M12.2417755,7.22764392 L12.4870092,8.11048553 C12.4975147,8.14826953 12.5182849,8.17825031 12.5445084,8.19339472 L13.1571518,8.54679832 C13.2437214,8.59674917 13.2437214,8.77329696 13.1571518,8.82319648 L12.5445084,9.17660008 C12.5182849,9.19174448 12.4974746,9.22167393 12.4870092,9.25950926 L12.2417755,10.1423509 C12.2071316,10.2670997 12.0845949,10.2670997 12.049951,10.1423509 L11.8047173,9.25950926 C11.7942118,9.22172526 11.7734415,9.19174448 11.747218,9.17660008 L11.1345747,8.82319648 C11.0480051,8.77324562 11.0480051,8.59669784 11.1345747,8.54679832 L11.747218,8.19339472 C11.7734415,8.17825031 11.7942519,8.14832087 11.8047173,8.11048553 L12.049951,7.22764392 C12.0845949,7.10294645 12.2071316,7.10294645 12.2417755,7.22764392 Z M3.96390682,1.79409651 L4.66458304,4.08951488 C4.69458167,4.18783479 4.75398405,4.265659 4.82893814,4.30506618 L6.57931147,5.22390681 C6.82660896,5.35371286 6.82660896,5.81273712 6.57931147,5.94264218 L4.82893814,6.86148281 C4.75398405,6.90079097 4.69458167,6.9787142 4.66458304,7.0769351 L3.96390682,9.37235347 C3.86490284,9.69662104 3.51486217,9.69662104 3.41585819,9.37235347 L2.71518197,7.0769351 C2.68518334,6.97861519 2.62578095,6.90079097 2.55082687,6.86148281 L0.800453534,5.94264218 C0.553156045,5.81283614 0.553156045,5.35371286 0.800453534,5.22390681 L2.55082687,4.30506618 C2.62578095,4.26575802 2.68518334,4.18783479 2.71518197,4.08951488 L3.41585819,1.79409651 C3.51486217,1.46982894 3.86490284,1.46982894 3.96390682,1.79409651 Z M32.0307628,3.88113926 L32.5562637,5.38197001 C32.5787753,5.44620281 32.6232831,5.49717013 32.6794763,5.52291562 L33.9922834,6.12370174 C34.1777897,6.20861819 34.1777897,6.50874943 33.9922834,6.59357862 L32.6794763,7.19436474 C32.6232831,7.22011022 32.5786894,7.27099028 32.5562637,7.33531035 L32.0307628,8.83614109 C31.9565259,9.04821406 31.6939473,9.04821406 31.6197104,8.83614109 L31.0942095,7.33531035 C31.0716978,7.27107755 31.0271901,7.22011022 30.9709969,7.19436474 L29.6581897,6.59357862 C29.4726834,6.50866216 29.4726834,6.20853092 29.6581897,6.12370174 L30.9709969,5.52291562 C31.0271901,5.49717013 31.0717837,5.44629008 31.0942095,5.38197001 L31.6197104,3.88113926 C31.6939473,3.66915357 31.9565259,3.66915357 32.0307628,3.88113926 Z M21.5243146,6.51376249 L21.5243146,8.06465832 L19.9868636,8.06465832 L19.9868636,6.51376249 L21.5243146,6.51376249 Z M23.9626091,2.33541848 C24.161724,1.46323322 25.0059921,0.923320516 25.8483347,1.12948969 C26.6906773,1.33565887 27.2121164,2.20983786 27.0130015,3.08202311 C26.8138866,3.95420837 25.9696185,4.49412108 25.1272759,4.2879519 C24.2849332,4.08178272 23.7634942,3.20760373 23.9626091,2.33541848 Z M13.9908045,2.17125416 C14.4153599,2.17125416 14.75953,2.51843402 14.75953,2.94670208 C14.75953,3.37497014 14.4153599,3.72214999 13.9908045,3.72214999 C13.5662491,3.72214999 13.222079,3.37497014 13.222079,2.94670208 C13.222079,2.51843402 13.5662491,2.17125416 13.9908045,2.17125416 Z M9.83968667,2.17125416 L9.83968667,3.72214999 L8.30223563,3.72214999 L8.30223563,2.17125416 L9.83968667,2.17125416 Z M19.00656,0.0935230979 L19.2517938,0.976364715 C19.2622992,1.01414871 19.2830695,1.0441295 19.309293,1.0592739 L19.9219363,1.4126775 C20.008506,1.46262835 20.008506,1.63917614 19.9219363,1.68907566 L19.309293,2.04247926 C19.2830695,2.05762366 19.2622591,2.08755311 19.2517938,2.12538844 L19.00656,3.00823006 C18.9719162,3.13297886 18.8493795,3.13297886 18.8147356,3.00823006 L18.5695018,2.12538844 C18.5589964,2.08760444 18.5382261,2.05762366 18.5120026,2.04247926 L17.8993593,1.68907566 C17.8127897,1.6391248 17.8127897,1.46257702 17.8993593,1.4126775 L18.5120026,1.0592739 C18.5382261,1.0441295 18.5590365,1.01420005 18.5695018,0.976364715 L18.8147356,0.0935230979 C18.8493795,-0.031174366 18.9719162,-0.031174366 19.00656,0.0935230979 Z" id="Combined-Shape"></path>
            </g>
            <g id="Coupon_bg">
                <use fill="black" fill-opacity="1" filter="url(#filter-19)" xlink:href="#path-18"></use>
                <use stroke-opacity="0.629813668" stroke="#FFFAF4" stroke-width="1" fill="url(#linearGradient-17)" fill-rule="evenodd" xlink:href="#path-18"></use>
            </g>
            <g id="gem" filter="url(#filter-20)" transform="translate(27.512081, 56.081124) rotate(-43.000000) translate(-27.512081, -56.081124) translate(22.534583, 51.814698)" fill-rule="nonzero">
                <path d="M7.03702247,0.00379740541 L2.54066999,0.00379740541 C2.43617587,0.00379740541 2.33961327,0.0595425686 2.28736621,0.15004428 L0.0391899721,4.04399358 C-0.0130570886,4.13449529 -0.0130570886,4.24598562 0.0391899721,4.33648733 L2.28736621,8.23045533 C2.33961327,8.32095704 2.43617587,8.37670221 2.54066999,8.37670221 L7.03702247,8.37670221 C7.14151659,8.37670221 7.23807919,8.32095704 7.29032625,8.23045533 L9.53850249,4.33648733 C9.59074955,4.24598562 9.59074955,4.13449529 9.53850249,4.04399358 L7.29032625,0.15004428 C7.23807919,0.0595425686 7.14151659,0.00379740541 7.03702247,0.00379740541 Z" id="Path" fill="#FFD45D"></path>
                <path d="M9.57769246,4.19024045 L7.66067616,4.19024045 L6.22475184,6.67731652 L7.18326935,8.33749353 C7.22700498,8.31223985 7.26421207,8.27568748 7.29032625,8.23043663 L9.53850249,4.33646862 C9.56463537,4.29123647 9.57769246,4.24072911 9.57769246,4.19024045 Z" id="Path" fill="#FF6500"></path>
                <path d="M6.22475184,6.67731652 L3.35294062,6.67731652 L2.39442312,8.33749353 C2.43815875,8.36274721 2.48842293,8.3766835 2.54066999,8.3766835 L7.03702247,8.3766835 C7.08926953,8.3766835 7.13953371,8.36274721 7.18326935,8.33749353 L6.22475184,6.67731652 Z" id="Path" fill="#FF9416"></path>
                <path d="M3.35294062,6.67731652 L1.9170163,4.19024045 L0,4.19024045 C0,4.24072911 0.0130570886,4.29123647 0.0391899721,4.33648733 L2.28736621,8.23045533 C2.3134991,8.27570619 2.35068748,8.31225855 2.39442312,8.33751223 L3.35294062,6.67731652 Z" id="Path" fill="#FFC13F"></path>
                <path d="M3.35294062,1.70316439 L2.39442312,0.0429686711 C2.35068748,0.0682223524 2.31348039,0.104774718 2.28736621,0.150025573 L0.0391899721,4.04401228 C0.0130570886,4.08924443 0,4.1397518 0,4.19024045 L1.9170163,4.19024045 L3.35294062,1.70316439 Z" id="Path" fill="#FFD45D"></path>
                <path d="M3.35294062,1.70316439 L6.22475184,1.70316439 L7.18326935,0.0429686711 C7.13953371,0.0177149898 7.08926953,0.00377869898 7.03702247,0.00377869898 L2.54066999,0.00377869898 C2.48842293,0.00377869898 2.43815875,0.0177149898 2.39442312,0.0429686711 L3.35294062,1.70316439 Z" id="Path" fill="#FFC13F"></path>
                <path d="M6.22475184,1.70316439 L7.66067616,4.19024045 L9.57769246,4.19024045 C9.57769246,4.1397518 9.56463537,4.08924443 9.53850249,4.04401228 L7.29032625,0.150025573 C7.26421207,0.104774718 7.22700498,0.0682223524 7.18326935,0.0429686711 L6.22475184,1.70316439 Z" id="Path" fill="#FF9416"></path>
                <polygon id="Path" fill="#FF7B05" points="6.22477055 1.70316439 3.35292191 1.70316439 1.9170163 4.19024045 3.35292191 6.67731652 6.22477055 6.67731652 7.66067616 4.19024045"></polygon>
                <path d="M3.40468261,1.52902622 L3.58774374,1.39230092 C3.62940296,1.36119213 3.6845121,1.4076589 3.66088588,1.45397602 L3.55706519,1.65750199 C3.54597228,1.67925757 3.55253823,1.70583941 3.57247929,1.71992535 L3.75907593,1.85176827 C3.80153953,1.88177339 3.77437779,1.94855534 3.72302864,1.94038063 L3.49737297,1.90452041 C3.47326038,1.90068559 3.44998958,1.91514566 3.44275019,1.93847258 L3.37501421,2.15668309 C3.35960011,2.20632996 3.28769259,2.20112957 3.2795927,2.14978042 L3.24395695,1.92410604 C3.24014084,1.89999345 3.21920835,1.88233458 3.19479646,1.88265259 L2.96633482,1.88566432 C2.91434965,1.88635646 2.89706491,1.816357 2.94340073,1.7927869 L3.14702023,1.68915327 C3.16877581,1.67807906 3.17910176,1.65271314 3.17124506,1.62959199 L3.09778491,1.41325212 C3.08106136,1.3640168 3.1422875,1.32596792 3.17904564,1.36274476 L3.34051955,1.52438703 C3.35780429,1.54165306 3.38511568,1.54363595 3.40468261,1.52902622 Z" id="Path" fill="#FFFFFF"></path>
            </g>
            <g id="gem-copy-2" filter="url(#filter-21)" transform="translate(40.831153, 54.210170) rotate(43.000000) translate(-40.831153, -54.210170) translate(35.853655, 49.943743)" fill-rule="nonzero">
                <path d="M7.03702247,0.00379740541 L2.54066999,0.00379740541 C2.43617587,0.00379740541 2.33961327,0.0595425686 2.28736621,0.15004428 L0.0391899721,4.04399358 C-0.0130570886,4.13449529 -0.0130570886,4.24598562 0.0391899721,4.33648733 L2.28736621,8.23045533 C2.33961327,8.32095704 2.43617587,8.37670221 2.54066999,8.37670221 L7.03702247,8.37670221 C7.14151659,8.37670221 7.23807919,8.32095704 7.29032625,8.23045533 L9.53850249,4.33648733 C9.59074955,4.24598562 9.59074955,4.13449529 9.53850249,4.04399358 L7.29032625,0.15004428 C7.23807919,0.0595425686 7.14151659,0.00379740541 7.03702247,0.00379740541 Z" id="Path" fill="#FFD45D"></path>
                <path d="M9.57769246,4.19024045 L7.66067616,4.19024045 L6.22475184,6.67731652 L7.18326935,8.33749353 C7.22700498,8.31223985 7.26421207,8.27568748 7.29032625,8.23043663 L9.53850249,4.33646862 C9.56463537,4.29123647 9.57769246,4.24072911 9.57769246,4.19024045 Z" id="Path" fill="#FF6500"></path>
                <path d="M6.22475184,6.67731652 L3.35294062,6.67731652 L2.39442312,8.33749353 C2.43815875,8.36274721 2.48842293,8.3766835 2.54066999,8.3766835 L7.03702247,8.3766835 C7.08926953,8.3766835 7.13953371,8.36274721 7.18326935,8.33749353 L6.22475184,6.67731652 Z" id="Path" fill="#FF9416"></path>
                <path d="M3.35294062,6.67731652 L1.9170163,4.19024045 L0,4.19024045 C0,4.24072911 0.0130570886,4.29123647 0.0391899721,4.33648733 L2.28736621,8.23045533 C2.3134991,8.27570619 2.35068748,8.31225855 2.39442312,8.33751223 L3.35294062,6.67731652 Z" id="Path" fill="#FFC13F"></path>
                <path d="M3.35294062,1.70316439 L2.39442312,0.0429686711 C2.35068748,0.0682223524 2.31348039,0.104774718 2.28736621,0.150025573 L0.0391899721,4.04401228 C0.0130570886,4.08924443 0,4.1397518 0,4.19024045 L1.9170163,4.19024045 L3.35294062,1.70316439 Z" id="Path" fill="#FFD45D"></path>
                <path d="M3.35294062,1.70316439 L6.22475184,1.70316439 L7.18326935,0.0429686711 C7.13953371,0.0177149898 7.08926953,0.00377869898 7.03702247,0.00377869898 L2.54066999,0.00377869898 C2.48842293,0.00377869898 2.43815875,0.0177149898 2.39442312,0.0429686711 L3.35294062,1.70316439 Z" id="Path" fill="#FFC13F"></path>
                <path d="M6.22475184,1.70316439 L7.66067616,4.19024045 L9.57769246,4.19024045 C9.57769246,4.1397518 9.56463537,4.08924443 9.53850249,4.04401228 L7.29032625,0.150025573 C7.26421207,0.104774718 7.22700498,0.0682223524 7.18326935,0.0429686711 L6.22475184,1.70316439 Z" id="Path" fill="#FF9416"></path>
                <polygon id="Path" fill="#FF7B05" points="6.22477055 1.70316439 3.35292191 1.70316439 1.9170163 4.19024045 3.35292191 6.67731652 6.22477055 6.67731652 7.66067616 4.19024045"></polygon>
                <path d="M3.40468261,1.52902622 L3.58774374,1.39230092 C3.62940296,1.36119213 3.6845121,1.4076589 3.66088588,1.45397602 L3.55706519,1.65750199 C3.54597228,1.67925757 3.55253823,1.70583941 3.57247929,1.71992535 L3.75907593,1.85176827 C3.80153953,1.88177339 3.77437779,1.94855534 3.72302864,1.94038063 L3.49737297,1.90452041 C3.47326038,1.90068559 3.44998958,1.91514566 3.44275019,1.93847258 L3.37501421,2.15668309 C3.35960011,2.20632996 3.28769259,2.20112957 3.2795927,2.14978042 L3.24395695,1.92410604 C3.24014084,1.89999345 3.21920835,1.88233458 3.19479646,1.88265259 L2.96633482,1.88566432 C2.91434965,1.88635646 2.89706491,1.816357 2.94340073,1.7927869 L3.14702023,1.68915327 C3.16877581,1.67807906 3.17910176,1.65271314 3.17124506,1.62959199 L3.09778491,1.41325212 C3.08106136,1.3640168 3.1422875,1.32596792 3.17904564,1.36274476 L3.34051955,1.52438703 C3.35780429,1.54165306 3.38511568,1.54363595 3.40468261,1.52902622 Z" id="Path" fill="#FFFFFF"></path>
            </g>
            <g id="gem-copy-2" filter="url(#filter-22)" transform="translate(53.831153, 56.210170) rotate(43.000000) translate(-53.831153, -56.210170) translate(48.853655, 51.943743)" fill-rule="nonzero">
                <path d="M7.03702247,0.00379740541 L2.54066999,0.00379740541 C2.43617587,0.00379740541 2.33961327,0.0595425686 2.28736621,0.15004428 L0.0391899721,4.04399358 C-0.0130570886,4.13449529 -0.0130570886,4.24598562 0.0391899721,4.33648733 L2.28736621,8.23045533 C2.33961327,8.32095704 2.43617587,8.37670221 2.54066999,8.37670221 L7.03702247,8.37670221 C7.14151659,8.37670221 7.23807919,8.32095704 7.29032625,8.23045533 L9.53850249,4.33648733 C9.59074955,4.24598562 9.59074955,4.13449529 9.53850249,4.04399358 L7.29032625,0.15004428 C7.23807919,0.0595425686 7.14151659,0.00379740541 7.03702247,0.00379740541 Z" id="Path" fill="#FFD45D"></path>
                <path d="M9.57769246,4.19024045 L7.66067616,4.19024045 L6.22475184,6.67731652 L7.18326935,8.33749353 C7.22700498,8.31223985 7.26421207,8.27568748 7.29032625,8.23043663 L9.53850249,4.33646862 C9.56463537,4.29123647 9.57769246,4.24072911 9.57769246,4.19024045 Z" id="Path" fill="#FF6500"></path>
                <path d="M6.22475184,6.67731652 L3.35294062,6.67731652 L2.39442312,8.33749353 C2.43815875,8.36274721 2.48842293,8.3766835 2.54066999,8.3766835 L7.03702247,8.3766835 C7.08926953,8.3766835 7.13953371,8.36274721 7.18326935,8.33749353 L6.22475184,6.67731652 Z" id="Path" fill="#FF9416"></path>
                <path d="M3.35294062,6.67731652 L1.9170163,4.19024045 L0,4.19024045 C0,4.24072911 0.0130570886,4.29123647 0.0391899721,4.33648733 L2.28736621,8.23045533 C2.3134991,8.27570619 2.35068748,8.31225855 2.39442312,8.33751223 L3.35294062,6.67731652 Z" id="Path" fill="#FFC13F"></path>
                <path d="M3.35294062,1.70316439 L2.39442312,0.0429686711 C2.35068748,0.0682223524 2.31348039,0.104774718 2.28736621,0.150025573 L0.0391899721,4.04401228 C0.0130570886,4.08924443 0,4.1397518 0,4.19024045 L1.9170163,4.19024045 L3.35294062,1.70316439 Z" id="Path" fill="#FFD45D"></path>
                <path d="M3.35294062,1.70316439 L6.22475184,1.70316439 L7.18326935,0.0429686711 C7.13953371,0.0177149898 7.08926953,0.00377869898 7.03702247,0.00377869898 L2.54066999,0.00377869898 C2.48842293,0.00377869898 2.43815875,0.0177149898 2.39442312,0.0429686711 L3.35294062,1.70316439 Z" id="Path" fill="#FFC13F"></path>
                <path d="M6.22475184,1.70316439 L7.66067616,4.19024045 L9.57769246,4.19024045 C9.57769246,4.1397518 9.56463537,4.08924443 9.53850249,4.04401228 L7.29032625,0.150025573 C7.26421207,0.104774718 7.22700498,0.0682223524 7.18326935,0.0429686711 L6.22475184,1.70316439 Z" id="Path" fill="#FF9416"></path>
                <polygon id="Path" fill="#FF7B05" points="6.22477055 1.70316439 3.35292191 1.70316439 1.9170163 4.19024045 3.35292191 6.67731652 6.22477055 6.67731652 7.66067616 4.19024045"></polygon>
                <path d="M3.40468261,1.52902622 L3.58774374,1.39230092 C3.62940296,1.36119213 3.6845121,1.4076589 3.66088588,1.45397602 L3.55706519,1.65750199 C3.54597228,1.67925757 3.55253823,1.70583941 3.57247929,1.71992535 L3.75907593,1.85176827 C3.80153953,1.88177339 3.77437779,1.94855534 3.72302864,1.94038063 L3.49737297,1.90452041 C3.47326038,1.90068559 3.44998958,1.91514566 3.44275019,1.93847258 L3.37501421,2.15668309 C3.35960011,2.20632996 3.28769259,2.20112957 3.2795927,2.14978042 L3.24395695,1.92410604 C3.24014084,1.89999345 3.21920835,1.88233458 3.19479646,1.88265259 L2.96633482,1.88566432 C2.91434965,1.88635646 2.89706491,1.816357 2.94340073,1.7927869 L3.14702023,1.68915327 C3.16877581,1.67807906 3.17910176,1.65271314 3.17124506,1.62959199 L3.09778491,1.41325212 C3.08106136,1.3640168 3.1422875,1.32596792 3.17904564,1.36274476 L3.34051955,1.52438703 C3.35780429,1.54165306 3.38511568,1.54363595 3.40468261,1.52902622 Z" id="Path" fill="#FFFFFF"></path>
            </g>
            <path d="M10.6862663,52.9877428 C19.0572078,48.2916666 28.6812768,45.8055086 39.5584731,45.5292688 C50.4356695,45.2530291 60.4468631,47.7391871 69.5920538,52.9877428 L69.5920538,52.9877428 C69.8286975,53.3741941 69.9631856,53.6504339 69.9955181,53.8164621 C69.9955181,53.8164621 69.9955181,53.8164621 69.9955181,53.8164621 C70.0633859,54.1649646 69.8358865,54.5024994 69.487384,54.5703671 C69.3348845,54.6000651 69.1767895,54.573532 69.0423408,54.4956756 C60.1508195,49.3467926 50.3819391,46.7723478 39.7356958,46.7723478 C29.0979314,46.7723478 19.4612708,49.3426935 10.8257143,54.4833849 C10.6471974,54.5896219 10.4163508,54.5310589 10.3100895,54.3525565 C10.2508099,54.2529762 10.2407428,54.1316296 10.282802,54.023642 L10.6862663,52.9877428 Z" id="Coupon_bg" fill="url(#linearGradient-23)"></path>
        </g>
    </g>
</svg>