<?xml version="1.0" encoding="UTF-8"?>
<svg width="35px" height="30px" viewBox="0 0 35 30" version="1.1" xmlns="http://www.w3.org/2000/svg" xmlns:xlink="http://www.w3.org/1999/xlink">
    <title>gem_home</title>
    <g id="Page-1" stroke="none" stroke-width="1" fill="none" fill-rule="evenodd">
        <g id="SITE-05" transform="translate(-846.000000, -104.000000)" fill-rule="nonzero">
            <g id="Group-8" transform="translate(811.000000, 22.000000)">
                <g transform="translate(0.000000, -2.000000)" id="Group-7">
                    <g id="Group-11" transform="translate(0.000000, 2.000000)">
                        <g id="Group-3" transform="translate(0.000000, -2.000000)">
                            <g id="Group-5" transform="translate(27.000000, 72.000000)">
                                <g id="gem_home" transform="translate(8.000000, 12.000000)">
                                    <path d="M25.3482091,0 L9.15179092,0 C8.77539016,0 8.42755974,0.199734135 8.23935936,0.524000492 L0.141150284,14.475966 C-0.0470500948,14.8002324 -0.0470500948,15.1997006 0.141150284,15.523967 L8.23935936,29.4759995 C8.42755974,29.8002659 8.77539016,30 9.15179092,30 L25.3482091,30 C25.7246098,30 26.0724403,29.8002659 26.2606406,29.4759995 L34.3588497,15.523967 C34.5470501,15.1997006 34.5470501,14.8002324 34.3588497,14.475966 L26.2606406,0.524000492 C26.0724403,0.199734135 25.7246098,0 25.3482091,0 Z" id="Path" fill="#FFD45D"></path>
                                    <path d="M34.5,15 L27.6390984,15 L22.5,23.9953857 L25.9304843,30 C26.0870118,29.9086612 26.2201741,29.7764567 26.3136353,29.612791 L34.3597411,15.5288856 C34.4532694,15.3652876 34.5,15.18261 34.5,15 Z" id="Path" fill="#FF6500"></path>
                                    <path d="M22.1974219,24 L12.3025781,24 L9,29.8616309 C9.15069141,29.9507948 9.32387695,30 9.50389453,30 L24.9961055,30 C25.176123,30 25.3493086,29.9507948 25.5,29.8616309 L22.1974219,24 Z" id="Path" fill="#FF9416"></path>
                                    <path d="M12,23.9953451 L6.86090158,15 L0,15 C0,15.1826092 0.0467306405,15.365286 0.140258871,15.5289509 L8.18636465,29.6127928 C8.27989288,29.7764577 8.41298817,29.9086616 8.56951573,30 L12,23.9953451 Z" id="Path" fill="#FFC13F"></path>
                                    <path d="M12,6.00465488 L8.56951573,0 C8.41298817,0.0913384122 8.27982593,0.223542307 8.18636465,0.38720721 L0.140258871,14.4711168 C0.0467306405,14.634714 0,14.8173908 0,15 L6.86090158,15 L12,6.00465488 Z" id="Path" fill="#FFD45D"></path>
                                    <path d="M12.3025781,6 L22.1974219,6 L25.5,0.138367549 C25.3493086,0.0492046893 25.176123,0 24.9961055,0 L9.50389453,0 C9.32387695,0 9.15069141,0.0492046893 9,0.138367549 L12.3025781,6 Z" id="Path" fill="#FFC13F"></path>
                                    <path d="M22.5,6.00465488 L27.6390984,15 L34.5,15 C34.5,14.8173908 34.4532694,14.634714 34.3597411,14.4711168 L26.3136353,0.38720721 C26.2201741,0.223542307 26.0870118,0.0913384122 25.9304843,0 L22.5,6.00465488 Z" id="Path" fill="#FF9416"></path>
                                    <polygon id="Path" fill="#FF7B05" points="21.7500342 6 11.2499658 6 6 15 11.2499658 24 21.7500342 24 27 15"></polygon>
                                    <path d="M12.1960232,5.14388651 L12.8319864,4.65742753 C12.9767125,4.54674464 13.1681644,4.71207014 13.0860857,4.8768632 L12.7254076,5.60099423 C12.6868703,5.67839904 12.7096808,5.77297535 12.778957,5.82309214 L13.4272027,6.29217996 C13.5747233,6.39893604 13.4803621,6.63654154 13.3019727,6.6074565 L12.518034,6.47986834 C12.4342657,6.46622432 12.3534218,6.51767223 12.3282718,6.60066777 L12.0929537,7.37704539 C12.0394044,7.55368544 11.7895942,7.53518282 11.7614548,7.35248616 L11.6376545,6.54955264 C11.6243972,6.46376174 11.5516767,6.40093273 11.4668686,6.40206418 L10.6731818,6.41277972 C10.4925829,6.4152423 10.4325348,6.16618915 10.5935077,6.08232839 L11.3008917,5.71360725 C11.3764716,5.67420601 11.4123445,5.58395585 11.3850499,5.50169244 L11.1298458,4.73197043 C11.0717474,4.55679462 11.28445,4.42141939 11.4121495,4.5522688 L11.9731176,5.12738059 C12.0331657,5.18881192 12.1280468,5.19586688 12.1960232,5.14388651 Z" id="Path" fill="#FFFFFF"></path>
                                </g>
                            </g>
                        </g>
                    </g>
                </g>
            </g>
        </g>
    </g>
</svg>