<?xml version="1.0" encoding="UTF-8"?>
<svg width="42px" height="43px" viewBox="0 0 42 43" version="1.1" xmlns="http://www.w3.org/2000/svg" xmlns:xlink="http://www.w3.org/1999/xlink">
    <title>invitation</title>
    <g id="Page-1" stroke="none" stroke-width="1" fill="none" fill-rule="evenodd">
        <g id="Dashboard01" transform="translate(-44.000000, -373.000000)" fill-rule="nonzero">
            <g id="Group-10" transform="translate(26.000000, 363.000000)">
                <g id="invitation" transform="translate(18.000000, 10.000000)">
                    <path d="M41.6131841,35.3571114 C41.5318703,36.4006578 41.4365517,37.4442043 41.3290104,38.4878351 C41.3045654,38.7261405 41.2791867,38.9643615 41.2529592,39.2026669 C41.0693667,40.8827919 39.7157225,42.2002671 38.0211209,42.3333906 C26.673953,43.2222031 15.3259362,43.2222031 3.97885318,42.3333906 C2.28425155,42.2003515 0.930692211,40.8828763 0.74701488,39.2026669 C0.720787386,38.9643615 0.695408679,38.7261405 0.670963637,38.4878351 C0.563422427,37.4442887 0.468103738,36.4015864 0.38679002,35.35804 C0.38679002,35.35804 0.385941234,35.3571958 0.38679002,35.3571958 C-0.229683389,27.5035002 -0.108985993,19.6507332 0.74701488,11.7979662 C0.930607332,10.1178413 2.28425155,8.800366 3.97885318,8.6672425 C15.3260211,7.77758583 26.6740378,7.77758583 38.0211209,8.6672425 C39.7157225,8.80028159 41.0692819,10.1177568 41.2529592,11.7979662 C42.1090449,19.6506488 42.2296575,27.5035002 41.6131841,35.3571114 L41.6131841,35.3571114 Z" id="Path" fill="#E7ECF1"></path>
                    <g id="Group" transform="translate(0.000000, 8.000000)" fill="#C6D0DA">
                        <path d="M4.69011609,33.9795833 C4.4471222,33.9621667 4.20504684,33.9438333 3.96297149,33.9246667 C2.29633401,33.7938333 0.964460285,32.4925833 0.784427699,30.83375 C-0.195230143,21.8164167 -0.195230143,12.79825 0.784427699,3.781 C0.964460285,2.12216667 2.29633401,0.82175 3.96297149,0.690083333 C4.20504684,0.670916667 4.4471222,0.652583333 4.69011609,0.635166667 C3.8459002,1.21691667 3.26213035,2.14925 3.14497556,3.22725 C2.12506925,12.6143333 2.12506925,22.0005833 3.14497556,31.3876667 C3.26204684,32.4655 3.8459002,33.3978333 4.69011609,33.9795833 Z" id="Path"></path>
                        <path d="M31.9491874,16.7665833 C28.4455662,19.8575 10.2999348,17.9945833 6.28502444,13.6669167 C2.87058452,9.98641667 0.574668024,6.17416667 0.784427699,3.78091667 C0.964460285,2.12208333 2.29633401,0.821666667 3.96297149,0.69 C15.1266619,-0.187416667 26.2903523,-0.187416667 37.4541263,0.69 C39.1207637,0.821666667 40.4526375,2.12208333 40.6326701,3.78091667 C40.9026354,6.86141667 37.0214969,12.2905833 31.9491874,16.7665833 L31.9491874,16.7665833 Z" id="Path"></path>
                        <path d="M40.9876415,27.0380833 C40.9076456,28.06825 40.8138717,29.0984167 40.7080733,30.1286667 C40.2599124,27.5411667 37.7824603,23.65225 34.056721,19.7899167 C33.8089674,19.53325 33.8167332,19.1263333 34.0739226,18.8790833 C34.330277,18.6326667 34.7388574,18.6404167 34.985776,18.8970833 C37.2921303,21.2871667 39.6569369,24.285 40.9876415,27.0380833 Z" id="Path"></path>
                        <path d="M7.36029328,19.7899167 C3.63547251,23.65225 1.15718534,27.5411667 0.708940937,30.1286667 C0.603142566,29.0985 0.509368635,28.0691667 0.429372709,27.039 C0.429372709,27.039 0.428537678,27.0381667 0.429372709,27.0381667 C1.7601609,24.285 4.12496741,21.2871667 6.43123829,18.8971667 C6.67815682,18.6405 7.08673727,18.63275 7.34309165,18.8791667 C7.60028106,19.1263333 7.60804684,19.53325 7.36029328,19.7899167 L7.36029328,19.7899167 Z" id="Path"></path>
                    </g>
                    <path d="M37.7566114,11.788107 C36.0783002,16.2825578 34.2726285,20.7232868 32.3413964,25.1093676 C28.7453089,28.232563 24.5653008,30.8966804 20.8041419,32 C15.8275744,30.5405834 10.1207847,26.3501917 6,21.9773308 C8.77441602,15.2364966 11.8404067,8.61986267 15.1987434,2.12936572 C16.0616398,0.461124184 18.0144701,-0.372575564 19.8407114,0.159759534 C25.539359,1.82008593 30.9483174,4.13602148 36.0657012,7.10680836 C37.7054444,8.05856154 38.4132115,10.0317885 37.7566114,11.788107 Z" id="Path" fill="#F4DD45"></path>
                    <path d="M33.119049,21.7488336 C33.4171908,21.4898722 33.7108127,21.2273035 34,20.9622183 C33.4162527,22.3590331 32.8192016,23.7497241 32.210467,25.1352141 C28.6322538,28.2466945 24.4730223,30.9008189 20.7305583,32 C15.7787267,30.5460576 10.1003024,26.371384 6,22.0149256 C6.41412372,21.0070143 6.83455823,20.0026263 7.26292385,19 C11.3311607,23.2203925 16.8283632,27.2011176 21.6391402,28.6137034 C25.381519,27.5144384 29.5408358,24.860314 33.119049,21.7488336 L33.119049,21.7488336 Z" id="Path" fill="#EAB14D"></path>
                    <path d="M19.61387,8.14871388 L21.5561006,8.06177101 C22.1121335,8.0369187 22.6195892,7.75582219 22.9131008,7.31016962 L23.9381717,5.75356252 C24.6772438,4.63134806 26.4614495,4.79461727 26.9573799,6.02983334 L27.6453137,7.74319497 C27.8422687,8.23372647 28.2827922,8.60152456 28.8233726,8.72675125 L30.7115623,9.16420014 C32.0728312,9.47955906 32.4593991,11.1286586 31.3656031,11.9547365 L29.8485289,13.1005968 C29.4142376,13.4286634 29.1790356,13.9370499 29.2195877,14.4600744 L29.3614772,16.2870007 C29.4637538,17.604173 27.9184212,18.4600094 26.7465092,17.7353514 L25.1209262,16.73016 C24.6555592,16.4423879 24.0696458,16.3887423 23.554165,16.5867565 L21.7536532,17.2784389 C20.4555601,17.7770936 19.1140124,16.6570507 19.4835057,15.3830683 L19.9959985,13.6159806 C20.1426689,13.1100873 20.015805,12.5685644 19.6565563,12.1678711 L18.401918,10.7684207 C17.4973935,9.75944914 18.2135857,8.21136744 19.61387,8.14871388 Z" id="Path" fill="#DA4A54"></path>
                    <path d="M27.3580436,26 C27.2724477,26 27.1856066,25.9830951 27.1020864,25.9473252 L11.3853351,19.209602 C11.0606356,19.0703608 10.912026,18.6985337 11.0535787,18.3790547 C11.1951314,18.0595758 11.5731311,17.9134746 11.8979136,18.0527158 L27.6146649,24.7904389 C27.9393644,24.9296801 28.087974,25.3015073 27.9464213,25.6209862 C27.8412323,25.8583088 27.6054495,26 27.3580436,26 L27.3580436,26 Z" id="Path" fill="#F6F1F1"></path>
                    <path d="M19.3745857,26 C19.2911955,26 19.2065921,25.9834671 19.1252241,25.9484844 L10.3754057,22.182971 C10.0590731,22.0467941 9.91429292,21.6831496 10.0521981,21.3707013 C10.1901032,21.0583328 10.5582816,20.915367 10.8747759,21.0515439 L19.6245943,24.8170573 C19.9409269,24.9532343 20.0857071,25.3168787 19.9478019,25.629327 C19.8454043,25.8614269 19.6156972,26 19.3745857,26 L19.3745857,26 Z" id="Path" fill="#F6F1F1"></path>
                </g>
            </g>
        </g>
    </g>
</svg>