<?xml version="1.0" encoding="UTF-8"?>
<svg width="79px" height="79px" viewBox="0 0 79 79" version="1.1" xmlns="http://www.w3.org/2000/svg" xmlns:xlink="http://www.w3.org/1999/xlink">
    <title>master</title>
    <defs>
        <linearGradient x1="80.0030147%" y1="6.57893407%" x2="50%" y2="100%" id="linearGradient-1">
            <stop stop-color="#F0EEFF" offset="0%"></stop>
            <stop stop-color="#8C7DF0" offset="100%"></stop>
        </linearGradient>
        <linearGradient x1="50%" y1="0%" x2="50%" y2="100%" id="linearGradient-2">
            <stop stop-color="#C8CAFE" offset="0%"></stop>
            <stop stop-color="#BFACF4" offset="100%"></stop>
        </linearGradient>
        <linearGradient x1="50%" y1="100%" x2="86.0472226%" y2="12.9406257%" id="linearGradient-3">
            <stop stop-color="#A99DF1" offset="0%"></stop>
            <stop stop-color="#F4F2FF" offset="100%"></stop>
        </linearGradient>
        <circle id="path-4" cx="30.3951906" cy="30.3951906" r="30.3951906"></circle>
        <linearGradient x1="50%" y1="100%" x2="51.6755352%" y2="6.57893407%" id="linearGradient-6">
            <stop stop-color="#CEC7FF" offset="0%"></stop>
            <stop stop-color="#C2B7FF" offset="100%"></stop>
        </linearGradient>
        <linearGradient x1="50%" y1="100%" x2="51.6747835%" y2="6.57893407%" id="linearGradient-7">
            <stop stop-color="#CEC7FF" offset="0%"></stop>
            <stop stop-color="#C2B7FF" offset="100%"></stop>
        </linearGradient>
        <linearGradient x1="50%" y1="100%" x2="51.6747509%" y2="6.57893407%" id="linearGradient-8">
            <stop stop-color="#CEC7FF" offset="0%"></stop>
            <stop stop-color="#C2B7FF" offset="100%"></stop>
        </linearGradient>
        <linearGradient x1="50%" y1="0%" x2="50%" y2="100%" id="linearGradient-9">
            <stop stop-color="#FFFFFF" offset="0%"></stop>
            <stop stop-color="#7E81E5" offset="100%"></stop>
        </linearGradient>
        <circle id="path-10" cx="23.2948718" cy="23.2948718" r="23.2948718"></circle>
        <filter x="-19.9%" y="-15.6%" width="139.9%" height="139.9%" filterUnits="objectBoundingBox" id="filter-12">
            <feMorphology radius="1.29" operator="dilate" in="SourceAlpha" result="shadowSpreadOuter1"></feMorphology>
            <feOffset dx="0" dy="2" in="shadowSpreadOuter1" result="shadowOffsetOuter1"></feOffset>
            <feGaussianBlur stdDeviation="2" in="shadowOffsetOuter1" result="shadowBlurOuter1"></feGaussianBlur>
            <feComposite in="shadowBlurOuter1" in2="SourceAlpha" operator="out" result="shadowBlurOuter1"></feComposite>
            <feColorMatrix values="0 0 0 0 0.216319237   0 0 0 0 0.204738816   0 0 0 0 0.426392044  0 0 0 0.458978933 0" type="matrix" in="shadowBlurOuter1"></feColorMatrix>
        </filter>
        <linearGradient x1="50%" y1="100%" x2="51.6741716%" y2="6.57893407%" id="linearGradient-13">
            <stop stop-color="#CEC7FF" offset="0%"></stop>
            <stop stop-color="#C2B7FF" offset="100%"></stop>
        </linearGradient>
        <linearGradient x1="308.136704%" y1="40.1730245%" x2="308.136704%" y2="106.783986%" id="linearGradient-14">
            <stop stop-color="#FFFFFF" offset="0%"></stop>
            <stop stop-color="#F5F5F5" stop-opacity="0.549415428" offset="64.7510797%"></stop>
            <stop stop-color="#EDEDED" stop-opacity="0.372379543" offset="100%"></stop>
        </linearGradient>
        <linearGradient x1="6.34024936%" y1="55.6393516%" x2="86.443004%" y2="51.7850944%" id="linearGradient-15">
            <stop stop-color="#8A8DFF" offset="0%"></stop>
            <stop stop-color="#6052E5" offset="100%"></stop>
        </linearGradient>
        <path d="M13.4173232,52.1204633 C21.8716736,48.4333168 30.5620871,46.5897436 39.488564,46.5897436 C48.3309283,46.5897436 57.2129676,48.3987372 66.134682,52.0167244 C68.9649508,53.1644706 70.3289034,56.3892895 69.1811561,59.2195578 C69.1304017,59.3447147 69.0750793,59.4679703 69.0153004,59.5890766 L66.3244004,65.0405757 C64.9725726,67.7792424 61.6565723,68.9034992 58.917905,67.5516728 C58.812065,67.4994295 58.7079248,67.4438109 58.6056444,67.3849027 C53.7101639,64.5653594 47.4358771,63.1555878 39.782784,63.1555878 C32.1097912,63.1555878 25.6337096,64.5727004 20.354539,67.4069255 C17.6636755,68.8515644 14.3111873,67.841303 12.8665458,65.1504408 C12.764837,64.9609929 12.6742643,64.7657741 12.595289,64.5657789 L10.484502,59.22047 C9.39054574,56.450175 10.6871999,53.311136 13.4173232,52.1204633 Z" id="path-16"></path>
        <filter x="-7.4%" y="-11.1%" width="114.8%" height="140.8%" filterUnits="objectBoundingBox" id="filter-17">
            <feMorphology radius="0.395" operator="dilate" in="SourceAlpha" result="shadowSpreadOuter1"></feMorphology>
            <feOffset dx="0" dy="2" in="shadowSpreadOuter1" result="shadowOffsetOuter1"></feOffset>
            <feGaussianBlur stdDeviation="1" in="shadowOffsetOuter1" result="shadowBlurOuter1"></feGaussianBlur>
            <feComposite in="shadowBlurOuter1" in2="SourceAlpha" operator="out" result="shadowBlurOuter1"></feComposite>
            <feColorMatrix values="0 0 0 0 0.0455861852   0 0 0 0 0.0455861852   0 0 0 0 0.0455861852  0 0 0 0.410387479 0" type="matrix" in="shadowBlurOuter1"></feColorMatrix>
        </filter>
        <filter x="-72.7%" y="-88.9%" width="245.5%" height="277.8%" filterUnits="objectBoundingBox" id="filter-18">
            <feOffset dx="0" dy="2" in="SourceAlpha" result="shadowOffsetOuter1"></feOffset>
            <feGaussianBlur stdDeviation="1" in="shadowOffsetOuter1" result="shadowBlurOuter1"></feGaussianBlur>
            <feColorMatrix values="0 0 0 0 0   0 0 0 0 0   0 0 0 0 0  0 0 0 0.5 0" type="matrix" in="shadowBlurOuter1" result="shadowMatrixOuter1"></feColorMatrix>
            <feMerge>
                <feMergeNode in="shadowMatrixOuter1"></feMergeNode>
                <feMergeNode in="SourceGraphic"></feMergeNode>
            </feMerge>
        </filter>
        <linearGradient x1="6.34024936%" y1="50.934648%" x2="86.443004%" y2="50.2958558%" id="linearGradient-19">
            <stop stop-color="#D1D2FF" offset="0%"></stop>
            <stop stop-color="#988FEF" offset="100%"></stop>
        </linearGradient>
    </defs>
    <g id="Page-1" stroke="none" stroke-width="1" fill="none" fill-rule="evenodd">
        <g id="Dashboard01" transform="translate(-27.000000, -252.000000)">
            <g id="Coupon_bg" transform="translate(27.000000, 241.000000)">
                <g id="Group-9" transform="translate(0.000000, 11.000000)">
                    <circle id="Oval" stroke="url(#linearGradient-2)" stroke-width="0.79" fill="url(#linearGradient-1)" cx="40.5128205" cy="38.4871795" r="31.0598291"></circle>
                    <g id="Group-7" opacity="0.699999988" transform="translate(39.743560, 39.328134) rotate(70.000000) translate(-39.743560, -39.328134) translate(9.243560, 8.828134)">
                        <mask id="mask-5" fill="white">
                            <use xlink:href="#path-4"></use>
                        </mask>
                        <use id="Mask" fill="url(#linearGradient-3)" xlink:href="#path-4"></use>
                        <g mask="url(#mask-5)" id="Rectangle">
                            <g transform="translate(-10.398355, -4.799241)">
                                <polygon fill="url(#linearGradient-6)" points="30.5642914 0 46.1054565 0 41.9611458 65.7641552 38.334874 65.7641552"></polygon>
                                <polygon fill="url(#linearGradient-7)" transform="translate(53.881402, 40.133975) rotate(30.000000) translate(-53.881402, -40.133975) " points="46.1116102 7.25060469 61.651194 7.24786575 57.4957102 73.0194456 53.8698073 73.0200847"></polygon>
                                <polygon fill="url(#linearGradient-8)" transform="translate(23.306544, 41.169908) rotate(-30.000000) translate(-23.306544, -41.169908) " points="15.5367525 8.28347893 31.0763363 8.28621786 26.9440421 74.056337 23.3181392 74.0556979"></polygon>
                            </g>
                        </g>
                    </g>
                    <circle id="Oval" fill="url(#linearGradient-3)" cx="39.5" cy="38.8247863" r="23.2948718"></circle>
                    <g id="Group-7" transform="translate(16.205128, 15.529915)">
                        <mask id="mask-11" fill="white">
                            <use xlink:href="#path-10"></use>
                        </mask>
                        <g id="Mask">
                            <use fill="black" fill-opacity="1" filter="url(#filter-12)" xlink:href="#path-10"></use>
                            <use stroke="url(#linearGradient-9)" stroke-width="1.58" fill="url(#linearGradient-3)" fill-rule="evenodd" xlink:href="#path-10"></use>
                        </g>
                        <g mask="url(#mask-11)" fill="url(#linearGradient-13)" id="Rectangle">
                            <g transform="translate(-7.964059, -3.982029)">
                                <polygon points="23.4939733 0 35.4400614 0 32.2544379 50.571773 29.4670173 50.571773"></polygon>
                                <polygon transform="translate(41.413105, 30.860728) rotate(30.000000) translate(-41.413105, -30.860728) " points="35.4400614 5.57484111 47.3861495 5.57484111 44.200526 56.1466141 41.4131054 56.1466141"></polygon>
                                <polygon transform="translate(17.919132, 31.657133) rotate(-30.000000) translate(-17.919132, -31.657133) " points="11.9460881 6.37124699 23.8921762 6.37124699 20.7065527 56.9430199 17.9191321 56.9430199"></polygon>
                            </g>
                        </g>
                    </g>
                    <g id="Group-8" opacity="0.600000024" transform="translate(22.957265, 20.256410)" fill="url(#linearGradient-14)" fill-rule="nonzero">
                        <path d="M0.139376911,11.6423089 C0.351261646,11.3602666 0.727627475,11.3227379 0.980791557,11.5587342 C1.18909716,11.753032 6.10658873,16.413871 8.18550885,24.8268744 C8.40168855,25.6548135 7.2325843,26.0218499 7.03310723,25.1812238 C5.25848494,17.9997953 1.20803354,13.5895221 0.367626871,12.7340516 L0.256766036,12.6230938 C0.24809757,12.6145932 0.24068242,12.607374 0.234557435,12.6014413 L0.21358429,12.5813259 C-0.0391025733,12.3447085 -0.0723487517,11.9243511 0.139376911,11.6423089 Z M31.5624248,11.5586706 C31.8158894,11.3227144 32.1929429,11.3602972 32.4048664,11.6424342 C32.6166307,11.9246597 32.5830477,12.3446299 32.3297422,12.5805861 C32.3264403,12.5836869 32.3109347,12.5984047 32.2842157,12.6245982 L32.1714087,12.7374647 C31.320659,13.6031965 27.2791254,18.0065373 25.5067289,25.1686095 C25.4199859,25.526178 25.0810516,25.7317311 24.7712438,25.6336967 C24.4528413,25.5360169 24.2659061,25.16923 24.3536837,24.8145866 C26.4337649,16.4093342 31.3540028,11.7527893 31.5624248,11.5586706 Z M14.886399,9.9197413 C15.172112,9.728637 15.5476345,9.81948558 15.7274163,10.1243466 C15.7682906,10.1935936 16.7282667,11.8523859 16.7282667,14.5502315 C16.7282667,14.9117096 16.4542786,15.2048116 16.1163735,15.2048116 C15.7784684,15.2048116 15.5044803,14.9117096 15.5044803,14.5502315 C15.5044803,12.2533216 14.6991263,10.8345856 14.6910654,10.8204749 C14.5138077,10.514046 14.600686,10.1106714 14.886399,9.9197413 Z M26.3639002,8.39590338 C26.6155829,8.16230669 26.9994536,8.18748681 27.2214647,8.45221839 C27.4435567,8.71694998 27.4195445,9.12093786 27.1679427,9.35453456 C26.2609795,10.1966226 25.4807874,11.6891405 25.4730259,11.7041124 C25.3114898,12.0168224 24.9376444,12.1265601 24.648852,11.9590612 L24.7095579,11.988 L24.82154,12.40071 C24.8319313,12.4392965 24.852476,12.469914 24.8784147,12.48538 L25.4844036,12.8462894 C25.5700329,12.8973011 25.5700329,13.0775985 25.4844036,13.1285578 L24.8784147,13.4894672 C24.852476,13.5049333 24.8318917,13.5354984 24.82154,13.5741373 L24.5789699,14.4757291 C24.5447023,14.6031274 24.4234966,14.6031274 24.389229,14.4757291 L24.146659,13.5741373 C24.1362676,13.5355508 24.115723,13.5049333 24.0897843,13.4894672 L23.4837954,13.1285578 C23.3981661,13.0775461 23.3981661,12.8972487 23.4837954,12.8462894 L24.0897843,12.48538 C24.115723,12.469914 24.1363073,12.4393489 24.146659,12.40071 L24.3620197,11.5957515 C24.3121226,11.4345014 24.3229385,11.2528521 24.4060627,11.0922184 C24.4417979,11.0231432 25.2943498,9.38890203 26.3639002,8.39590338 Z M5.3225462,8.45227739 C5.54447122,8.1875575 5.92841364,8.16220836 6.18009036,8.39596487 C7.24953452,9.38891967 8.10214702,11.0230036 8.13788139,11.0920758 C8.29844354,11.4021349 8.18970432,11.790368 7.89509784,11.9592206 C7.6062315,12.1264568 7.23255665,12.016809 7.07110518,11.7040279 C7.06326302,11.6890565 6.28308944,10.1966046 5.37614776,9.35455372 C5.12455189,9.12096734 5.10054033,8.71699729 5.3225462,8.45227739 Z M12.1088075,7.3811483 L12.3513775,8.28274016 C12.3617689,8.32132664 12.3823135,8.35194417 12.4082522,8.36741021 L13.0142411,8.72831958 C13.0998704,8.77933132 13.0998704,8.95962872 13.0142411,9.01058803 L12.4082522,9.37149739 C12.3823135,9.38696344 12.3617292,9.41752854 12.3513775,9.45616744 L12.1088075,10.3577593 C12.0745399,10.4851576 11.9533342,10.4851576 11.9190666,10.3577593 L11.6764965,9.45616744 C11.6661052,9.41758097 11.6455605,9.38696344 11.6196218,9.37149739 L11.0136329,9.01058803 C10.9280036,8.95957629 10.9280036,8.77927889 11.0136329,8.72831958 L11.6196218,8.36741021 C11.6455605,8.35194417 11.6661448,8.32137906 11.6764965,8.28274016 L11.9190666,7.3811483 C11.9533342,7.25380245 12.0745399,7.25380245 12.1088075,7.3811483 Z M3.92085156,1.83220045 L4.61391716,4.17637008 C4.64358995,4.27677816 4.70234712,4.35625525 4.77648707,4.39649937 L6.50784815,5.33485481 C6.75245954,5.46741774 6.75245954,5.936191 6.50784815,6.06885504 L4.77648707,7.00721048 C4.70234712,7.04735349 4.64358995,7.1269317 4.61391716,7.22723866 L3.92085156,9.57140829 C3.82292295,9.90256282 3.47668435,9.90256282 3.37875574,9.57140829 L2.68569014,7.22723866 C2.65601735,7.12683058 2.59726018,7.04735349 2.52312023,7.00721048 L0.791759149,6.06885504 C0.547147761,5.93629211 0.547147761,5.46741774 0.791759149,5.33485481 L2.52312023,4.39649937 C2.59726018,4.35635636 2.65601735,4.27677816 2.68569014,4.17637008 L3.37875574,1.83220045 C3.47668435,1.50104591 3.82292295,1.50104591 3.92085156,1.83220045 Z M31.6828503,3.96356887 L32.2026433,5.49627503 C32.2249104,5.56187204 32.2689348,5.61392184 32.3245176,5.64021412 L33.6230652,6.25376004 C33.8065566,6.34047999 33.8065566,6.64698557 33.6230652,6.7336164 L32.3245176,7.34716232 C32.2689348,7.3734546 32.2248254,7.42541527 32.2026433,7.49110141 L31.6828503,9.02380757 C31.6094197,9.24038464 31.3496932,9.24038464 31.2762627,9.02380757 L30.7564697,7.49110141 C30.7342025,7.4255044 30.6901782,7.3734546 30.6345954,7.34716232 L29.3360477,6.7336164 C29.1525564,6.64689645 29.1525564,6.34039087 29.3360477,6.25376004 L30.6345954,5.64021412 C30.6901782,5.61392184 30.7342875,5.56196116 30.7564697,5.49627503 L31.2762627,3.96356887 C31.3496932,3.74708093 31.6094197,3.74708093 31.6828503,3.96356887 Z M21.2905213,6.6521051 L21.2905213,8.23593964 L19.7697698,8.23593964 L19.7697698,6.6521051 L21.2905213,6.6521051 Z M23.7023314,2.38501929 C23.8992836,1.49431012 24.7343814,0.942930468 25.5675747,1.15347837 C26.4007679,1.36402627 26.9165432,2.25677152 26.719591,3.14748069 C26.5226389,4.03818986 25.6875411,4.58956951 24.8543478,4.37902161 C24.0211546,4.1684737 23.5053793,3.27572846 23.7023314,2.38501929 Z M13.8388388,2.21736837 C14.2587828,2.21736837 14.5992146,2.57192181 14.5992146,3.00928564 C14.5992146,3.44664947 14.2587828,3.80120291 13.8388388,3.80120291 C13.4188949,3.80120291 13.0784631,3.44664947 13.0784631,3.00928564 C13.0784631,2.57192181 13.4188949,2.21736837 13.8388388,2.21736837 Z M9.73280973,2.21736837 L9.73280973,3.80120291 L8.21205821,3.80120291 L8.21205821,2.21736837 L9.73280973,2.21736837 Z M18.8001141,0.0955093892 L19.0426842,0.997101246 C19.0530755,1.03568772 19.0736202,1.06630525 19.0995589,1.0817713 L19.7055478,1.44268066 C19.7911771,1.4936924 19.7911771,1.6739898 19.7055478,1.72494911 L19.0995589,2.08585848 C19.0736202,2.10132452 19.0530359,2.13188962 19.0426842,2.17052853 L18.8001141,3.07212038 C18.7658466,3.19951866 18.6446408,3.19951866 18.6103733,3.07212038 L18.3678032,2.17052853 C18.3574119,2.13194205 18.3368672,2.10132452 18.3109285,2.08585848 L17.7049396,1.72494911 C17.6193103,1.67393737 17.6193103,1.49363997 17.7049396,1.44268066 L18.3109285,1.0817713 C18.3368672,1.06630525 18.3574515,1.03574015 18.3678032,0.997101246 L18.6103733,0.0955093892 C18.6446408,-0.0318364631 18.7658466,-0.0318364631 18.8001141,0.0955093892 Z" id="Combined-Shape"></path>
                    </g>
                    <g id="Coupon_bg">
                        <use fill="black" fill-opacity="1" filter="url(#filter-17)" xlink:href="#path-16"></use>
                        <use stroke-opacity="0.629813668" stroke="#BCB9F5" stroke-width="0.79" fill="url(#linearGradient-15)" fill-rule="evenodd" xlink:href="#path-16"></use>
                    </g>
                    <g id="gem" filter="url(#filter-18)" transform="translate(35.786325, 49.290598)" fill-rule="nonzero">
                        <path d="M7.4415009,0.00397743056 L2.68670423,0.00397743056 C2.57620393,0.00397743056 2.47409105,0.0623653274 2.4188409,0.15715749 L0.0414425581,4.23570883 C-0.0138075921,4.33050099 -0.0138075921,4.44727679 0.0414425581,4.54206895 L2.4188409,8.62063988 C2.47409105,8.71543204 2.57620393,8.77381994 2.68670423,8.77381994 L7.4415009,8.77381994 C7.5520012,8.77381994 7.65411408,8.71543204 7.70936423,8.62063988 L10.0867626,4.54206895 C10.1420127,4.44727679 10.1420127,4.33050099 10.0867626,4.23570883 L7.70936423,0.15715749 C7.65411408,0.0623653274 7.5520012,0.00397743056 7.4415009,0.00397743056 Z" id="Path" fill="#FFD45D"></path>
                        <path d="M10.1282051,4.38888889 L8.10100135,4.38888889 L6.58254207,6.99387078 L7.59615385,8.73275248 C7.64240335,8.70630159 7.68174905,8.66801637 7.70936423,8.62062029 L10.0867626,4.54204936 C10.1143975,4.49467287 10.1282051,4.44177108 10.1282051,4.38888889 Z" id="Path" fill="#FF6500"></path>
                        <path d="M6.58254207,6.99387078 L3.54566306,6.99387078 L2.53205128,8.73275248 C2.57830078,8.75920337 2.63145408,8.77380035 2.68670423,8.77380035 L7.4415009,8.77380035 C7.49675105,8.77380035 7.54990435,8.75920337 7.59615385,8.73275248 L6.58254207,6.99387078 Z" id="Path" fill="#FF9416"></path>
                        <path d="M3.54566306,6.99387078 L2.02720378,4.38888889 L0,4.38888889 C0,4.44177108 0.0138075921,4.49467287 0.0414425581,4.54206895 L2.4188409,8.62063988 C2.44647586,8.66803596 2.48580178,8.70632118 2.53205128,8.73277207 L3.54566306,6.99387078 Z" id="Path" fill="#FFC13F"></path>
                        <path d="M3.54566306,1.78390699 L2.53205128,0.0450057044 C2.48580178,0.0714565972 2.44645608,0.109741815 2.4188409,0.157137897 L0.0414425581,4.23572842 C0.0138075921,4.28310491 0,4.3360067 0,4.38888889 L2.02720378,4.38888889 L3.54566306,1.78390699 Z" id="Path" fill="#FFD45D"></path>
                        <path d="M3.54566306,1.78390699 L6.58254207,1.78390699 L7.59615385,0.0450057044 C7.54990435,0.0185548115 7.49675105,0.0039578373 7.4415009,0.0039578373 L2.68670423,0.0039578373 C2.63145408,0.0039578373 2.57830078,0.0185548115 2.53205128,0.0450057044 L3.54566306,1.78390699 Z" id="Path" fill="#FFC13F"></path>
                        <path d="M6.58254207,1.78390699 L8.10100135,4.38888889 L10.1282051,4.38888889 C10.1282051,4.3360067 10.1143975,4.28310491 10.0867626,4.23572842 L7.70936423,0.157137897 C7.68174905,0.109741815 7.64240335,0.0714565972 7.59615385,0.0450057044 L6.58254207,1.78390699 Z" id="Path" fill="#FF9416"></path>
                        <polygon id="Path" fill="#FF7B05" points="6.58256185 1.78390699 3.54564328 1.78390699 2.02720378 4.38888889 3.54564328 6.99387078 6.58256185 6.99387078 8.10100135 4.38888889"></polygon>
                        <path d="M3.60037911,1.60151339 L3.79396234,1.4583063 C3.83801608,1.42572272 3.89629282,1.47439236 3.87130859,1.52290526 L3.76152043,1.73607986 C3.74978991,1.75886682 3.75673327,1.78670883 3.77782051,1.80146255 L3.97514248,1.9395558 C4.02004682,1.97098338 3.99132387,2.0409313 3.93702324,2.03236905 L3.69839719,1.99480878 C3.67289864,1.99079216 3.64829026,2.00593775 3.64063477,2.03037054 L3.56900541,2.25892584 C3.55270533,2.31092634 3.47666466,2.30547941 3.46809921,2.25169593 L3.43041516,2.01532292 C3.42637971,1.99006721 3.40424404,1.97157118 3.37842899,1.97190427 L3.13683569,1.97505878 C3.08186248,1.97578373 3.06358423,1.90246577 3.11258338,1.87777827 L3.32790665,1.76923165 C3.35091271,1.75763244 3.36183218,1.73106399 3.35352389,1.70684673 L3.27584135,1.48025074 C3.25815655,1.4286813 3.32290189,1.38882862 3.36177284,1.42734896 L3.53252804,1.59665427 C3.55080629,1.61473884 3.5796875,1.61681572 3.60037911,1.60151339 Z" id="Path" fill="#FFFFFF"></path>
                    </g>
                    <path d="M10.5682221,53.1205622 C18.8906933,48.595999 28.459036,46.200642 39.2732501,45.9344912 C50.0874642,45.6683404 60.04069,48.0636974 69.1329273,53.1205622 L69.1329273,53.1205622 C69.3682007,53.4928993 69.5019101,53.7590501 69.5340554,53.9190145 C69.5340554,53.9190145 69.5340554,53.9190145 69.5340554,53.9190145 C69.6022048,54.2581457 69.3825306,54.5883118 69.0433994,54.6564612 C68.8964832,54.6859844 68.7438509,54.6618544 68.6132066,54.5884509 C59.7659906,49.6176051 50.0447419,47.1321697 39.4494466,47.1321697 C28.866066,47.1321697 19.2793506,49.6120183 10.6893002,54.5717153 C10.514392,54.6727421 10.2907123,54.6128122 10.1897146,54.4378871 C10.1335378,54.3405906 10.1251971,54.222873 10.1670939,54.1186276 L10.5682221,53.1205622 Z" id="Coupon_bg" fill="url(#linearGradient-19)"></path>
                </g>
            </g>
        </g>
    </g>
</svg>