<?xml version="1.0" encoding="UTF-8"?>
<svg width="80px" height="80px" viewBox="0 0 80 80" version="1.1" xmlns="http://www.w3.org/2000/svg" xmlns:xlink="http://www.w3.org/1999/xlink">
    <title>Novice</title>
    <defs>
        <linearGradient x1="80.0030147%" y1="6.57893407%" x2="50%" y2="100%" id="linearGradient-1">
            <stop stop-color="#E7E7E7" offset="0%"></stop>
            <stop stop-color="#C1C1C1" offset="100%"></stop>
        </linearGradient>
        <linearGradient x1="50%" y1="0%" x2="50%" y2="100%" id="linearGradient-2">
            <stop stop-color="#C7C7C7" offset="0%"></stop>
            <stop stop-color="#BCBBBF" offset="97.8965493%"></stop>
        </linearGradient>
        <linearGradient x1="50%" y1="100%" x2="86.0472226%" y2="12.9406257%" id="linearGradient-3">
            <stop stop-color="#D4D4D4" offset="0%"></stop>
            <stop stop-color="#F4F2FF" offset="100%"></stop>
        </linearGradient>
        <circle id="path-4" cx="30.3794906" cy="30.3794906" r="30.3794906"></circle>
        <linearGradient x1="50%" y1="100%" x2="51.6755352%" y2="6.57893407%" id="linearGradient-6">
            <stop stop-color="#ABA8BC" offset="0%"></stop>
            <stop stop-color="#989898" offset="100%"></stop>
        </linearGradient>
        <linearGradient x1="50%" y1="100%" x2="51.6747835%" y2="6.57893407%" id="linearGradient-7">
            <stop stop-color="#ABA8BC" offset="0%"></stop>
            <stop stop-color="#989898" offset="100%"></stop>
        </linearGradient>
        <linearGradient x1="50%" y1="100%" x2="51.6747509%" y2="6.57893407%" id="linearGradient-8">
            <stop stop-color="#ABA8BC" offset="0%"></stop>
            <stop stop-color="#989898" offset="100%"></stop>
        </linearGradient>
        <linearGradient x1="50%" y1="100%" x2="86.0472226%" y2="12.9406257%" id="linearGradient-9">
            <stop stop-color="#A99DF1" offset="0%"></stop>
            <stop stop-color="#F4F2FF" offset="100%"></stop>
        </linearGradient>
        <linearGradient x1="80.0030147%" y1="6.57893407%" x2="50%" y2="100%" id="linearGradient-10">
            <stop stop-color="#DFDFDF" offset="0%"></stop>
            <stop stop-color="#000000" offset="100%"></stop>
        </linearGradient>
        <circle id="path-11" cx="23.3842132" cy="23.3842132" r="23.3842132"></circle>
        <linearGradient x1="50%" y1="100%" x2="51.6741716%" y2="6.57893407%" id="linearGradient-13">
            <stop stop-color="#CFCFCF" offset="0%"></stop>
            <stop stop-color="#A2A2A2" offset="100%"></stop>
        </linearGradient>
        <linearGradient x1="50%" y1="100%" x2="51.6741716%" y2="6.57893407%" id="linearGradient-14">
            <stop stop-color="#EAE9F6" offset="0%"></stop>
            <stop stop-color="#9C9AA2" offset="100%"></stop>
        </linearGradient>
        <linearGradient x1="308.136704%" y1="40.1730245%" x2="308.136704%" y2="106.783986%" id="linearGradient-15">
            <stop stop-color="#FFFFFF" offset="0%"></stop>
            <stop stop-color="#F5F5F5" stop-opacity="0.549415428" offset="64.7510797%"></stop>
            <stop stop-color="#EDEDED" stop-opacity="0.372379543" offset="100%"></stop>
        </linearGradient>
        <linearGradient x1="6.34024936%" y1="55.2783683%" x2="86.443004%" y2="51.6708278%" id="linearGradient-16">
            <stop stop-color="#484848" offset="0%"></stop>
            <stop stop-color="#919191" offset="100%"></stop>
        </linearGradient>
        <path d="M14.5492421,51.361419 C22.7557778,48.0329371 31.1784273,46.3686962 39.8171906,46.3686962 C48.3472636,46.3686962 56.9134275,47.9913226 65.5156823,51.2365754 C69.1328366,52.6011664 70.9588976,56.6396699 69.5943045,60.2568234 C69.5091493,60.482546 69.4123819,60.7037155 69.3043898,60.9194463 L67.8907141,63.74348 C66.1601674,67.2005204 61.9547959,68.600116 58.4977572,66.869566 C58.4742391,66.8577932 58.4507876,66.8458879 58.4274037,66.8338507 C53.5655148,64.3311255 47.4624425,63.079763 40.1181868,63.079763 C32.7697921,63.079763 26.4944681,64.3325364 21.292215,66.8380834 C17.8091474,68.5156197 13.6256499,67.0519513 11.9481104,63.5688852 C11.8793254,63.4260673 11.8154115,63.2809541 11.7564794,63.1337967 L10.6819206,60.450552 C9.24913895,56.8728191 10.9778511,52.8099364 14.5492421,51.361419 Z" id="path-17"></path>
        <filter x="-25.3%" y="-62.2%" width="150.6%" height="245.3%" filterUnits="objectBoundingBox" id="filter-18">
            <feMorphology radius="1.5" operator="dilate" in="SourceAlpha" result="shadowSpreadOuter1"></feMorphology>
            <feOffset dx="0" dy="2" in="shadowSpreadOuter1" result="shadowOffsetOuter1"></feOffset>
            <feGaussianBlur stdDeviation="3.5" in="shadowOffsetOuter1" result="shadowBlurOuter1"></feGaussianBlur>
            <feComposite in="shadowBlurOuter1" in2="SourceAlpha" operator="out" result="shadowBlurOuter1"></feComposite>
            <feColorMatrix values="0 0 0 0 0.0455861852   0 0 0 0 0.0455861852   0 0 0 0 0.0455861852  0 0 0 0.410387479 0" type="matrix" in="shadowBlurOuter1"></feColorMatrix>
        </filter>
        <filter x="-80.0%" y="-88.9%" width="260.0%" height="277.8%" filterUnits="objectBoundingBox" id="filter-19">
            <feOffset dx="0" dy="2" in="SourceAlpha" result="shadowOffsetOuter1"></feOffset>
            <feGaussianBlur stdDeviation="1" in="shadowOffsetOuter1" result="shadowBlurOuter1"></feGaussianBlur>
            <feColorMatrix values="0 0 0 0 0   0 0 0 0 0   0 0 0 0 0  0 0 0 0.5 0" type="matrix" in="shadowBlurOuter1" result="shadowMatrixOuter1"></feColorMatrix>
            <feMerge>
                <feMergeNode in="shadowMatrixOuter1"></feMergeNode>
                <feMergeNode in="SourceGraphic"></feMergeNode>
            </feMerge>
        </filter>
        <linearGradient x1="6.34024936%" y1="50.9431959%" x2="86.443004%" y2="50.2985616%" id="linearGradient-20">
            <stop stop-color="#6F6F76" offset="0%"></stop>
            <stop stop-color="#E3E3E3" offset="100%"></stop>
        </linearGradient>
    </defs>
    <g id="Page-1" stroke="none" stroke-width="1" fill="none" fill-rule="evenodd">
        <g id="Novice">
            <circle id="Oval" stroke="url(#linearGradient-2)" fill="url(#linearGradient-1)" cx="39.8264463" cy="38.3740934" r="30.7792208"></circle>
            <g id="Group-7" opacity="0.699999988" transform="translate(39.643284, 39.566347) rotate(70.000000) translate(-39.643284, -39.566347) translate(8.957333, 8.880397)">
                <mask id="mask-5" fill="white">
                    <use xlink:href="#path-4"></use>
                </mask>
                <use id="Mask" fill="url(#linearGradient-3)" xlink:href="#path-4"></use>
                <g mask="url(#mask-5)" id="Rectangle">
                    <g transform="translate(-10.392984, -4.796762)">
                        <polygon fill="url(#linearGradient-6)" points="30.5485041 0 46.0816417 0 41.9394717 65.7301861 38.3150729 65.7301861"></polygon>
                        <polygon fill="url(#linearGradient-7)" transform="translate(53.853571, 40.113245) rotate(30.000000) translate(-53.853571, -40.113245) " points="46.0877923 7.24685954 61.6193494 7.24412202 57.466012 72.981729 53.841982 72.9823677"></polygon>
                        <polygon fill="url(#linearGradient-8)" transform="translate(23.294506, 41.148643) rotate(-30.000000) translate(-23.294506, -41.148643) " points="15.5287273 8.27920027 31.0602844 8.28193779 26.9301247 74.0180847 23.3060947 74.017446"></polygon>
                    </g>
                </g>
            </g>
            <circle id="Oval" fill="url(#linearGradient-9)" cx="40.0263114" cy="38.5739585" r="23.3842132"></circle>
            <g id="Group-7" transform="translate(16.642098, 15.189745)">
                <mask id="mask-12" fill="white">
                    <use xlink:href="#path-11"></use>
                </mask>
                <circle stroke="url(#linearGradient-2)" stroke-width="2" cx="23.3842132" cy="23.3842132" r="24.3842132"></circle>
                <g mask="url(#mask-12)" id="Rectangle">
                    <g transform="translate(-7.994603, -3.997301)">
                        <polygon fill="url(#linearGradient-13)" points="23.5840783 0 35.5759825 0 32.3781413 50.7657278 29.5800304 50.7657278"></polygon>
                        <polygon fill="url(#linearGradient-14)" transform="translate(41.571935, 30.979086) rotate(30.000000) translate(-41.571935, -30.979086) " points="35.5759825 5.59622196 47.5678867 5.59622196 44.3700455 56.3619497 41.5719346 56.3619497"></polygon>
                        <polygon fill="url(#linearGradient-13)" transform="translate(17.987856, 31.778546) rotate(-30.000000) translate(-17.987856, -31.778546) " points="11.9919042 6.39568224 23.9838084 6.39568224 20.7859673 57.16141 17.9878563 57.16141"></polygon>
                    </g>
                </g>
            </g>
            <g id="Group-8" opacity="0.600000024" transform="translate(23.037780, 20.386237)" fill="url(#linearGradient-15)" fill-rule="nonzero">
                <path d="M31.7647139,11.3446344 C32.019803,11.1130475 32.3992731,11.1499344 32.6125549,11.4268469 C32.8256764,11.7038464 32.7918781,12.1160398 32.5369492,12.3476267 C32.4715951,12.4074809 27.6558967,16.8773169 25.670206,24.7025531 C25.582907,25.0535004 25.2418004,25.2552472 24.930007,25.1590281 C24.6095638,25.0631571 24.4214306,24.7031621 24.5097707,24.3550858 C26.6031835,16.1054766 31.5549561,11.5351586 31.7647139,11.3446344 Z M0.140270202,11.426724 C0.353512944,11.1499044 0.732290967,11.1130706 0.987077622,11.3446969 C1.19671829,11.5353968 6.14572692,16.1099293 8.23797121,24.3671461 C8.45553644,25.1797539 7.2789392,25.5399937 7.07818364,24.7149339 C5.08999925,16.868549 0.26346111,12.3926754 0.214953189,12.3483529 C-0.0393531885,12.116117 -0.0728124476,11.7035435 0.140270202,11.426724 Z M14.9818085,9.7360538 C15.2693527,9.54848825 15.647282,9.63765455 15.828216,9.93687033 C15.8693523,10.0048351 16.8354811,11.6329109 16.8354811,14.2807995 C16.8354811,14.635584 16.559737,14.9232586 16.2196662,14.9232586 C15.8795954,14.9232586 15.6038513,14.635584 15.6038513,14.2807995 C15.6038513,12.0264224 14.7933356,10.6339576 14.785223,10.6201082 C14.6068293,10.3193536 14.6942643,9.92344837 14.9818085,9.7360538 Z M26.532871,8.24043335 C26.7861668,8.01116225 27.1724978,8.03587611 27.3959318,8.29570556 C27.6194472,8.55553501 27.5952812,8.9520421 27.3420668,9.1813132 C26.4292907,10.007808 25.6440983,11.4726884 25.636287,11.4873831 C25.4737156,11.7943024 25.0974741,11.9020081 24.8068308,11.7376109 L24.868,11.765 L24.9806256,12.1710815 C24.9910835,12.2089534 25.0117599,12.239004 25.0378648,12.2541837 L25.6477376,12.6084099 C25.7339157,12.6584771 25.7339157,12.8354358 25.6477376,12.8854515 L25.0378648,13.2396778 C25.0117599,13.2548574 24.9910436,13.2848566 24.9806256,13.32278 L24.7365009,14.2076767 C24.7020136,14.3327159 24.5800311,14.3327159 24.5455439,14.2076767 L24.3014191,13.32278 C24.2909612,13.284908 24.2702849,13.2548574 24.2441799,13.2396778 L23.6343072,12.8854515 C23.548129,12.8353844 23.548129,12.6584256 23.6343072,12.6084099 L24.2441799,12.2541837 C24.2702849,12.239004 24.2910011,12.2090049 24.3014191,12.1710815 L24.517636,11.3793691 C24.4680202,11.2215189 24.4791208,11.043928 24.5624855,10.8868197 C24.5984497,10.8190236 25.4564657,9.21504427 26.532871,8.24043335 Z M5.35665933,8.29576347 C5.58000671,8.03594549 5.96640988,8.01106574 6.21969964,8.2404937 C7.29599806,9.21506159 8.1540751,10.8188866 8.1900385,10.8866797 C8.35162972,11.1909974 8.24219357,11.5720415 7.94569891,11.7377673 C7.65498117,11.9019068 7.27891137,11.7942894 7.11642514,11.4873001 C7.10853271,11.472606 6.32335886,10.0077903 5.41060443,9.18133201 C5.15739604,8.95207103 5.13323058,8.55558144 5.35665933,8.29576347 Z M12.1864149,7.24446887 L12.4305397,8.12936562 C12.4409976,8.16723757 12.461674,8.19728814 12.4877789,8.2124678 L13.0976517,8.56669407 C13.1838298,8.61676121 13.1838298,8.79371998 13.0976517,8.84373565 L12.4877789,9.19796193 C12.461674,9.21314158 12.4409577,9.2431407 12.4305397,9.28106411 L12.1864149,10.1659609 C12.1519277,10.2910001 12.0299452,10.2910001 11.995458,10.1659609 L11.7513332,9.28106411 C11.7408753,9.24319216 11.7201989,9.21314158 11.694094,9.19796193 L11.0842212,8.84373565 C10.9980431,8.79366852 10.9980431,8.61670975 11.0842212,8.56669407 L11.694094,8.2124678 C11.7201989,8.19728814 11.7409152,8.16728903 11.7513332,8.12936562 L11.995458,7.24446887 C12.0299452,7.11948112 12.1519277,7.11948112 12.1864149,7.24446887 Z M3.94598099,1.79827292 L4.64348856,4.0990347 C4.67335153,4.19758348 4.73248529,4.27558886 4.80710041,4.31508777 L6.54955809,5.23606734 C6.79573723,5.36617555 6.79573723,5.82626837 6.54955809,5.95647582 L4.80710041,6.87745539 C4.73248529,6.91685505 4.67335153,6.99495968 4.64348856,7.09340922 L3.94598099,9.394171 C3.84742473,9.71919343 3.49896703,9.71919343 3.40041078,9.394171 L2.7029032,7.09340922 C2.67304023,6.99486044 2.61390648,6.91685505 2.53929135,6.87745539 L0.796833672,5.95647582 C0.550654527,5.82636761 0.550654527,5.36617555 0.796833672,5.23606734 L2.53929135,4.31508777 C2.61390648,4.27568811 2.67304023,4.19758348 2.7029032,4.0990347 L3.40041078,1.79827292 C3.49896703,1.47325049 3.84742473,1.47325049 3.94598099,1.79827292 Z M31.8859112,3.89017401 L32.4090357,5.39449848 C32.4314455,5.45888081 32.475752,5.50996678 32.5316911,5.5357722 L33.8385614,6.13795686 C34.0232287,6.22307099 34.0232287,6.5239009 33.8385614,6.60892755 L32.5316911,7.21111222 C32.475752,7.23691763 32.43136,7.28791613 32.4090357,7.35238593 L31.8859112,8.8567104 C31.8120101,9.06927704 31.5506189,9.06927704 31.4767177,8.8567104 L30.9535933,7.35238593 C30.9311834,7.2880036 30.8868769,7.23691763 30.8309379,7.21111222 L29.5240676,6.60892755 C29.3394002,6.52381342 29.3394002,6.22298352 29.5240676,6.13795686 L30.8309379,5.5357722 C30.8868769,5.50996678 30.931269,5.45896828 30.9535933,5.39449848 L31.4767177,3.89017401 C31.5506189,3.67769485 31.8120101,3.67769485 31.8859112,3.89017401 Z M21.426976,6.52892562 L21.426976,8.08343172 L19.8964777,8.08343172 L19.8964777,6.52892562 L21.426976,6.52892562 Z M23.8542438,2.34085501 C24.0524583,1.46663943 24.8929084,0.925469878 25.7314417,1.13211899 C26.569975,1.3387681 27.089056,2.21498205 26.8908416,3.08919763 C26.6926271,3.96341321 25.852177,4.50458276 25.0136437,4.29793365 C24.1751104,4.09128454 23.6560294,3.21507059 23.8542438,2.34085501 Z M13.9275344,2.17630854 C14.3501698,2.17630854 14.6927835,2.52429658 14.6927835,2.95356159 C14.6927835,3.3828266 14.3501698,3.73081464 13.9275344,3.73081464 C13.504899,3.73081464 13.1622852,3.3828266 13.1622852,2.95356159 C13.1622852,2.52429658 13.504899,2.17630854 13.9275344,2.17630854 Z M9.79518902,2.17630854 L9.79518902,3.73081464 L8.26469073,3.73081464 L8.26469073,2.17630854 L9.79518902,2.17630854 Z M18.9206074,0.0937408067 L19.1647321,0.978637556 C19.17519,1.01650951 19.1958664,1.04656008 19.2219713,1.06173974 L19.8318441,1.41596601 C19.9180222,1.46603315 19.9180222,1.64299192 19.8318441,1.6930076 L19.2219713,2.04723387 C19.1958664,2.06241352 19.1751501,2.09241264 19.1647321,2.13033605 L18.9206074,3.0152328 C18.8861202,3.140272 18.7641376,3.140272 18.7296504,3.0152328 L18.4855257,2.13033605 C18.4750677,2.0924641 18.4543914,2.06241352 18.4282865,2.04723387 L17.8184137,1.6930076 C17.7322356,1.64294046 17.7322356,1.46598169 17.8184137,1.41596601 L18.4282865,1.06173974 C18.4543914,1.04656008 18.4751076,1.01656097 18.4855257,0.978637556 L18.7296504,0.0937408067 C18.7641376,-0.0312469356 18.8861202,-0.0312469356 18.9206074,0.0937408067 Z" id="Combined-Shape"></path>
            </g>
            <g id="Coupon_bg">
                <use fill="black" fill-opacity="1" filter="url(#filter-18)" xlink:href="#path-17"></use>
                <use stroke-opacity="0.629813668" stroke="#C5C5C7" stroke-width="1" fill="url(#linearGradient-16)" fill-rule="evenodd" xlink:href="#path-17"></use>
            </g>
            <g id="gem" filter="url(#filter-19)" transform="translate(40.197165, 54.401592) rotate(-50.000000) translate(-40.197165, -54.401592) translate(35.197165, 49.901592)" fill-rule="nonzero">
                <path d="M7.04865392,0.00380368211 L2.54486944,0.00380368211 C2.44020261,0.00380368211 2.3434804,0.059640986 2.29114698,0.150292287 L0.0392547489,4.05067787 C-0.0130786705,4.14132917 -0.0130786705,4.25300377 0.0392547489,4.34365507 L2.29114698,8.24405939 C2.3434804,8.33471069 2.44020261,8.390548 2.54486944,8.390548 L7.04865392,8.390548 C7.15332075,8.390548 7.25004296,8.33471069 7.30237638,8.24405939 L9.55426861,4.34365507 C9.60660203,4.25300377 9.60660203,4.14132917 9.55426861,4.05067787 L7.30237638,0.150292287 C7.25004296,0.059640986 7.15332075,0.00380368211 7.04865392,0.00380368211 Z" id="Path" fill="#FFD45D"></path>
                <path d="M9.59352336,4.19716647 L7.67333844,4.19716647 L6.23504069,6.68835341 L7.19514252,8.35127451 C7.23895044,8.32597909 7.27621903,8.2893663 7.30237638,8.24404065 L9.55426861,4.34363634 C9.58044469,4.29832942 9.59352336,4.24773858 9.59352336,4.19716647 Z" id="Path" fill="#FF6500"></path>
                <path d="M6.23504069,6.68835341 L3.35848267,6.68835341 L2.39838084,8.35127451 C2.44218876,8.37656993 2.49253603,8.39052926 2.54486944,8.39052926 L7.04865392,8.39052926 C7.10098733,8.39052926 7.15133459,8.37656993 7.19514252,8.35127451 L6.23504069,6.68835341 Z" id="Path" fill="#FF9416"></path>
                <path d="M3.35848267,6.68835341 L1.92018492,4.19716647 L0,4.19716647 C0,4.24773858 0.0130786705,4.29832942 0.0392547489,4.34365507 L2.29114698,8.24405939 C2.31732306,8.28938504 2.35457291,8.32599782 2.39838084,8.35129325 L3.35848267,6.68835341 Z" id="Path" fill="#FFC13F"></path>
                <path d="M3.35848267,1.70597953 L2.39838084,0.0430396937 C2.35457291,0.0683351166 2.31730433,0.104947899 2.29114698,0.15027355 L0.0392547489,4.0506966 C0.0130786705,4.09600352 0,4.14659436 0,4.19716647 L1.92018492,4.19716647 L3.35848267,1.70597953 Z" id="Path" fill="#FFD45D"></path>
                <path d="M3.35848267,1.70597953 L6.23504069,1.70597953 L7.19514252,0.0430396937 C7.15133459,0.0177442707 7.10098733,0.00378494476 7.04865392,0.00378494476 L2.54486944,0.00378494476 C2.49253603,0.00378494476 2.44218876,0.0177442707 2.39838084,0.0430396937 L3.35848267,1.70597953 Z" id="Path" fill="#FFC13F"></path>
                <path d="M6.23504069,1.70597953 L7.67333844,4.19716647 L9.59352336,4.19716647 C9.59352336,4.14659436 9.58044469,4.09600352 9.55426861,4.0506966 L7.30237638,0.15027355 C7.27621903,0.104947899 7.23895044,0.0683351166 7.19514252,0.0430396937 L6.23504069,1.70597953 Z" id="Path" fill="#FF9416"></path>
                <polygon id="Path" fill="#FF7B05" points="6.23505943 1.70597953 3.35846393 1.70597953 1.92018492 4.19716647 3.35846393 6.68835341 6.23505943 6.68835341 7.67333844 4.19716647"></polygon>
                <path d="M3.41031018,1.53155354 L3.59367389,1.39460225 C3.63540197,1.36344203 3.6906022,1.40998561 3.66693693,1.45637929 L3.56294464,1.66024166 C3.55183339,1.6820332 3.5584102,1.70865897 3.57838421,1.7227682 L3.76528928,1.85482904 C3.80782307,1.88488375 3.78061644,1.9517761 3.72918241,1.94358787 L3.50315375,1.90766837 C3.47900131,1.90382722 3.45569204,1.91831119 3.44844069,1.94167666 L3.38059274,2.16024785 C3.36515317,2.20997678 3.29312679,2.2047678 3.28501352,2.15333377 L3.24931887,1.92728638 C3.24549645,1.90313393 3.22452935,1.88544588 3.20007711,1.88576441 L2.97123785,1.88878112 C2.91916675,1.88947441 2.90185344,1.81935924 2.94826586,1.79575018 L3.15222192,1.69194526 C3.17401346,1.68085275 3.18435647,1.6554449 3.17648679,1.63228554 L3.10290521,1.41558808 C3.08615402,1.36627137 3.14748137,1.3281596 3.18430026,1.36499723 L3.34604107,1.52690668 C3.36335438,1.54420125 3.39071091,1.54618741 3.41031018,1.53155354 Z" id="Path" fill="#FFFFFF"></path>
            </g>
            <path d="M10.4926473,53.2939183 C18.8666534,48.431153 28.4942457,45.8567478 39.3754242,45.5707028 C50.2566028,45.2846578 60.2714614,47.859063 69.4200002,53.2939183 L69.4200002,53.2939183 C69.6567305,53.6940868 69.7912679,53.9801318 69.8236122,54.1520534 C69.8236122,54.1520534 69.8236122,54.1520534 69.8236122,54.1520534 C69.8907242,54.5087767 69.6559478,54.8523631 69.2992244,54.9194751 C69.1413192,54.9491825 68.9780015,54.9200172 68.840139,54.8374913 C59.9533935,49.5177563 50.1909111,46.8579054 39.5527118,46.8579054 C28.9191256,46.8579054 19.2854911,49.5154499 10.6518081,54.8305389 C10.4705301,54.942087 10.2331362,54.8856079 10.1215513,54.7043526 C10.0590642,54.6028501 10.0470591,54.4781461 10.0890353,54.3665871 L10.4926473,53.2939183 Z" id="Coupon_bg" fill="url(#linearGradient-20)"></path>
        </g>
    </g>
</svg>