<?xml version="1.0" encoding="UTF-8"?>
<svg width="29px" height="35px" viewBox="0 0 29 35" version="1.1" xmlns="http://www.w3.org/2000/svg" xmlns:xlink="http://www.w3.org/1999/xlink">
    <title>Rank__home</title>
    <g id="Page-1" stroke="none" stroke-width="1" fill="none" fill-rule="evenodd">
        <g id="Dashboard01" transform="translate(-247.000000, -150.000000)" fill-rule="nonzero">
            <g id="Group-5" transform="translate(234.000000, 140.000000)">
                <g id="Rank__home" transform="translate(13.000000, 10.000000)">
                    <g id="Group" transform="translate(0.000000, 24.742713)" fill="#E35D25">
                        <path d="M4.2288926,0.0430853115 L0.0471761068,5.41984187 L4.87312688,4.81658153 L6.07964756,9.03933794 L10.302404,3.61006085 L10.3217363,3.58531813 C9.48563051,2.74136068 8.56988619,1.9806707 7.58783141,1.31228754 C6.51155637,0.782067683 5.38652168,0.357350761 4.2288926,0.0430853115 Z" id="Path"></path>
                        <path d="M23.6149075,0.0430853115 C22.4572784,0.356756936 21.3321777,0.780880033 20.2560347,1.30991223 C19.2739139,1.97770157 18.3588294,2.73898538 17.5227236,3.58294283 L21.7641525,9.03933794 L22.9706732,4.81658153 L27.79669,5.41984187 L23.6149075,0.0430853115 Z" id="Path"></path>
                    </g>
                    <path d="M26.5901693,15.0812446 C26.5901693,12.553595 28.1652574,9.57958684 26.9840733,7.54058932 C25.7661379,5.4346875 22.3614086,5.32733711 20.2560347,4.10933581 C18.2152557,2.92637019 16.4495497,0 13.9219,0 C11.3942504,0 9.62854442,2.92696402 7.58776542,4.10755434 C5.48179763,5.32614946 2.07766213,5.4346875 0.859726813,7.53887382 C-0.321457332,9.57965282 1.25363081,12.553661 1.25363081,15.0812446 C1.25363081,17.6088283 -0.321457332,20.5829024 0.859726813,22.6218999 C2.07766213,24.7278677 5.48245743,24.8352181 7.58776542,26.0532194 C9.62854442,27.236185 11.3942504,30.1625552 13.9219,30.1625552 C16.4495497,30.1625552 18.2152557,27.2355912 20.2560347,26.0550009 C22.3620025,24.8364057 25.7661379,24.7278677 26.9840733,22.6236814 C28.1652574,20.5829024 26.5901693,17.6088942 26.5901693,15.0812446 Z" id="Path" fill="#FFA511"></path>
                    <circle id="Oval" fill="#FFDC13" cx="13.9219" cy="15.0812446" r="10.2552938"></circle>
                    <g id="Group-4" transform="translate(6.717122, 8.008939)">
                        <path d="M14.624029,5.03639663 C14.476929,4.58923992 14.0847438,4.2832906 13.6189269,4.23629992 L10.0394102,3.71846107 L8.44590786,0.611898656 C8.22517603,0.211889522 7.78387583,0 7.34265734,0 C6.90143886,0 6.46005693,0.211889522 6.23940683,0.611898656 L4.64590447,3.71846107 L1.06638774,4.23629992 C0.600570853,4.2832906 0.208385725,4.58923992 0.0612856556,5.03639663 C-0.0859778578,5.46001878 0.0367689775,5.93071006 0.379839027,6.23665938 L2.97860691,8.66079789 L2.36568996,12.0732312 C2.29222164,12.5203879 2.46383839,12.9675446 2.85602352,13.2265817 C3.22385541,13.4854619 3.73870566,13.5323741 4.13097251,13.3206415 L7.34265734,11.6967566 L10.5543422,13.3206415 C10.9465273,13.5323741 11.4614593,13.5089965 11.8292912,13.2265817 C12.2214763,12.9676231 12.393093,12.5204663 12.3196247,12.0732312 L11.7067078,8.66079789 L14.3054757,6.23665938 C14.6485457,5.93071006 14.7712925,5.46001878 14.624029,5.03639663 Z" id="Path" fill="#FDBF00"></path>
                        <path d="M10.0190614,13.3206668 L7.34265734,11.6967788 L7.34265734,0 C7.71040751,0 8.07815769,0.211889924 8.26203277,0.611899818 L9.5899514,3.71846812 L12.572882,4.23630795 C12.9610628,4.28329872 13.2878837,4.58924863 13.4104671,5.03640619 C13.5331867,5.46002914 13.4308976,5.93072131 13.1450059,6.23667122 L10.979366,8.66081433 L11.4901302,12.0732541 C11.5513538,12.5204117 11.4083398,12.9675692 11.0815189,13.2266068 C10.7749923,13.5089437 10.3458823,13.5323998 10.0190614,13.3206668 Z" id="Path" fill="#FF9F00"></path>
                    </g>
                    <path d="M26.9840733,7.5406553 C26.9581429,7.49539263 26.923767,7.456794 26.8978367,7.41397261 C26.0098702,9.10426282 24.9571502,10.7023122 23.7549182,12.1856873 C25.3559367,17.6149644 22.2522108,23.314432 16.8229337,24.9155165 C13.2552984,25.9669828 9.39754645,25.0036005 6.74321414,22.397566 C4.93409292,22.7462733 3.09594025,22.9223754 1.25363081,22.9236291 C1.18850799,22.9236291 1.12516664,22.9194063 1.05997784,22.9188125 C2.41548265,24.7394143 5.58433143,24.896844 7.58776542,26.0557267 C9.62854442,27.2356572 11.3942504,30.1626872 13.9219,30.1626872 C16.4495497,30.1626872 18.2152557,27.2357232 20.2560347,26.0551328 C22.3620025,24.8365377 25.7661379,24.7279997 26.9840733,22.6238134 C28.1652574,20.5830344 26.5901693,17.6089602 26.5901693,15.0813766 C26.5901693,12.5537929 28.1652574,9.57965282 26.9840733,7.5406553 Z" id="Path" fill="#F08015"></path>
                    <path d="M17.4883477,17.9461209 L18.1953295,20.1214343 C18.2984572,20.438141 18.1247303,20.7784028 17.8080236,20.8815304 C17.6240038,20.9412429 17.4231589,20.9093083 17.2669169,20.7958877 L15.2399939,19.3227395 C12.5869152,20.7898175 9.71840996,21.8280217 6.74136669,22.3993475 C10.7752867,26.3693323 17.263288,26.3174716 21.232679,22.2835516 C23.8471591,19.626844 24.8129826,15.7599867 23.7548523,12.1857533 C21.959587,14.4026345 19.8482088,16.343255 17.4883477,17.9461209 Z" id="Path" fill="#E5AF17" opacity="0.400000006"></path>
                    <g id="Group" transform="translate(4.024815, 24.162785)" fill="#CE4A13">
                        <path d="M18.6441953,4.18998873 C20.2078029,4.19117638 21.7521441,4.54166516 23.1631385,5.21552471 L19.5900928,0.621759565 C18.4324637,0.93543119 17.307363,1.35955429 16.23122,1.88858649 C15.2490992,2.55637583 14.3340147,3.31765963 13.4979089,4.16161709 L14.2634155,5.14670698 C15.6375928,4.5157348 17.1318547,4.18939491 18.6441953,4.18998873 Z" id="Path"></path>
                        <path d="M3.56295072,1.89221542 C2.48674166,1.36318322 1.36170698,0.939060121 0.2040779,0.625388497 L0.0176827925,0.866679437 C2.05364521,2.33679249 3.26016589,4.69493803 3.26135354,7.20622446 C3.26016589,7.52114971 3.23964593,7.83482134 3.2010473,8.14730531 L6.27765525,4.18998873 L6.29698756,4.16524602 C5.46074982,3.32135454 4.54507149,2.56059858 3.56295072,1.89221542 Z" id="Path"></path>
                    </g>
                </g>
            </g>
        </g>
    </g>
</svg>