<?xml version="1.0" encoding="UTF-8"?>
<svg width="33px" height="33px" viewBox="0 0 33 33" version="1.1" xmlns="http://www.w3.org/2000/svg" xmlns:xlink="http://www.w3.org/1999/xlink">
    <title>rupee_home</title>
    <g id="Page-1" stroke="none" stroke-width="1" fill="none" fill-rule="evenodd">
        <g id="Dashboard01" transform="translate(-244.000000, -84.000000)" fill-rule="nonzero">
            <g id="Group-5" transform="translate(234.000000, 72.000000)">
                <g id="rupee_home" transform="translate(10.000000, 12.000000)">
                    <g id="Group">
                        <path d="M32.768,16.384 C32.768,25.4326491 25.4326491,32.768 16.384,32.768 C11.6139154,32.768 7.31996996,30.7296967 4.32604473,27.4763024 C3.53961273,26.6223282 2.84345992,25.6840934 2.25096098,24.6776477 C0.820537469,22.2447909 0,19.4100245 0,16.384 C0,7.33535086 7.33535086,0 16.384,0 C19.4106932,0 22.2454596,0.820537469 24.6776477,2.25162971 C25.6840934,2.84345992 26.6216594,3.53961273 27.4756336,4.32671347 C30.7290279,7.31930122 32.768,11.6139154 32.768,16.384 Z" id="Path" fill="#F0CD00"></path>
                        <path d="M32.768,16.384 C32.768,25.2286851 25.7603291,32.4363076 16.993886,32.7566315 C8.22744294,32.4363076 1.21977208,25.2286851 1.21977208,16.384 C1.21977208,7.53931494 8.22744294,0.331692408 16.993886,0.0113684898 C25.7603291,0.331692408 32.768,7.53931494 32.768,16.384 Z" id="Path" fill="#FFDE50"></path>
                        <path d="M27.4756336,4.32671347 L4.32604473,27.4763024 C3.53961273,26.6223282 2.84345992,25.6840934 2.25096098,24.6776477 L24.6776477,2.25162971 C25.6840934,2.84345992 26.6216594,3.53961273 27.4756336,4.32671347 Z" id="Path" fill="#FFEA94"></path>
                        <path d="M31.6378384,10.3941433 L10.3934746,31.6385071 C8.88949029,31.0473456 7.49384098,30.2401829 6.24531331,29.2551367 L29.2551367,6.24531331 C30.2401829,7.49384098 31.0473456,8.88949029 31.6378384,10.3941433 Z" id="Path" fill="#FFEA94"></path>
                        <path d="M29.1153711,16.384 C29.1153711,23.4150766 23.4150766,29.1153711 16.384,29.1153711 C13.9350936,29.1153711 11.6480209,28.4238994 9.70668408,27.2255269 C8.86073469,26.7039138 8.08099004,26.0853342 7.38149355,25.3858377 C6.86723657,24.8722495 6.39644735,24.313856 5.97581322,23.7180134 C5.39668898,22.8974759 4.91185633,22.0053838 4.53803363,21.0577868 C3.98432131,19.6567876 3.67269094,18.13341 3.65396637,16.5404839 C3.6526289,16.4883226 3.6526289,16.4361613 3.6526289,16.384 C3.6526289,9.35292343 9.35225469,3.6526289 16.384,3.6526289 C16.4361613,3.6526289 16.4889913,3.6526289 16.5411527,3.65396637 C18.1340787,3.67269094 19.6567876,3.98499004 21.0577868,4.53803363 C22.0053838,4.91252506 22.8974759,5.39668898 23.7180134,5.97581322 C24.313856,6.39711608 24.8715807,6.86723657 25.3858377,7.38149355 C26.0853342,8.08032131 26.7039138,8.86073469 27.2255269,9.70668408 C28.4238994,11.6480209 29.1153711,13.9350936 29.1153711,16.384 Z" id="Path" fill="#FAA300"></path>
                        <path d="M25.3858377,7.38149355 L7.38149355,25.3858377 C6.86723657,24.8722495 6.39644735,24.313856 5.97581322,23.7180134 C5.39668898,22.8974759 4.91185633,22.0053838 4.53803363,21.0577868 C3.98432131,19.6567876 3.67269094,18.13341 3.65396637,16.5404839 C3.6526289,16.4883226 3.6526289,16.4361613 3.6526289,16.384 C3.6526289,9.35292343 9.35225469,3.6526289 16.384,3.6526289 C16.4361613,3.6526289 16.4889913,3.6526289 16.5411527,3.65396637 C18.1340787,3.67269094 19.6567876,3.98499004 21.0577868,4.53803363 C22.0053838,4.91252506 22.8974759,5.39668898 23.7180134,5.97581322 C24.313856,6.39711608 24.8715807,6.86723657 25.3858377,7.38149355 Z" id="Path" fill="#FFBD00"></path>
                        <path d="M29.1150367,16.384 C29.1150367,23.4150766 23.4147422,29.1153711 16.3836656,29.1153711 C16.1422524,29.1153711 15.9028454,29.1086838 15.6647758,29.0953091 C22.3614851,28.7228238 27.6765884,23.1736633 27.6765884,16.384 C27.6765884,9.59433665 22.3614851,4.04517616 15.6647758,3.67269094 C15.9028454,3.65931624 16.1422524,3.6526289 16.3836656,3.6526289 C23.4147422,3.6526289 29.1150367,9.35292343 29.1150367,16.384 Z" id="Path" fill="#F68E00"></path>
                    </g>
                    <path d="M22.441908,12.4852767 L20.2124134,12.4852767 C20.0854207,11.9875375 19.8884114,11.5176845 19.6339579,11.0855481 L22.441908,11.0855481 C23.1805923,11.0855481 23.7793774,10.4867631 23.7793774,9.74807876 C23.7793774,9.00939442 23.1805923,8.41060937 22.441908,8.41060937 L14.9678616,8.41060937 L9.80589845,8.41060937 C9.06721411,8.41060937 8.46842906,9.00939442 8.46842906,9.74807876 C8.46842906,10.4867631 9.06721411,11.0855481 9.80589845,11.0855481 L14.9678616,11.0855481 C15.9915606,11.0855481 16.8852577,11.6508296 17.3547094,12.4852767 L9.80589845,12.4852767 C9.06721411,12.4852767 8.46842906,13.0840618 8.46842906,13.8227461 C8.46842906,14.5614305 9.06721411,15.1602155 9.80589845,15.1602155 L17.3547094,15.1602155 C16.8852577,15.9946627 15.9915606,16.5598772 14.9679284,16.5598772 L9.80596532,16.5598772 C9.27224816,16.5598772 8.78962233,16.8771918 8.57810155,17.3671737 C8.36651389,17.8571557 8.4665566,18.4260483 8.83248823,18.8145162 L16.1062486,26.5351252 C16.3693957,26.8144556 16.7242932,26.9554249 17.0799932,26.9554249 C17.4089438,26.9554249 17.7385631,26.8347852 17.9968953,26.5914326 C18.534558,26.084933 18.5597025,25.2384486 18.0532028,24.7007859 L12.9034776,19.234816 L14.9678616,19.234816 C17.4905963,19.234816 19.6154339,17.4996501 20.2124134,15.1602155 L22.441908,15.1602155 C23.1805923,15.1602155 23.7793774,14.5614305 23.7793774,13.8227461 C23.7793774,13.0840618 23.1805923,12.4852767 22.441908,12.4852767 Z" id="Path" fill="#F68E00"></path>
                    <path d="M23.1138116,12.4852767 L20.884317,12.4852767 C20.7573243,11.9875375 20.560315,11.5176845 20.3058615,11.0855481 L23.1138116,11.0855481 C23.8524959,11.0855481 24.451281,10.4867631 24.451281,9.74807876 C24.451281,9.00939442 23.8524959,8.41060937 23.1138116,8.41060937 L15.639832,8.41060937 L10.4778689,8.41060937 C9.73918459,8.41060937 9.14039954,9.00939442 9.14039954,9.74807876 C9.14039954,10.4867631 9.73918459,11.0855481 10.4778689,11.0855481 L15.639832,11.0855481 C16.6635311,11.0855481 17.5572281,11.6508296 18.0266799,12.4852767 L10.4778689,12.4852767 C9.73918459,12.4852767 9.14039954,13.0840618 9.14039954,13.8227461 C9.14039954,14.5614305 9.73918459,15.1602155 10.4778689,15.1602155 L18.0266799,15.1602155 C17.5572281,15.9946627 16.6635311,16.5598772 15.6398989,16.5598772 L10.4779358,16.5598772 C9.94421864,16.5598772 9.46159282,16.8771918 9.25007203,17.3671737 C9.03848438,17.8571557 9.13852709,18.4260483 9.50445871,18.8145162 L16.7782191,26.5351252 C17.0413662,26.8144556 17.3962637,26.9554249 17.7519637,26.9554249 C18.0809143,26.9554249 18.4105336,26.8347852 18.6688658,26.5914326 C19.2065285,26.084933 19.2317398,25.2384486 18.7251733,24.7007859 L13.5755818,19.234816 L15.6399658,19.234816 C18.1627005,19.234816 20.2875382,17.4996501 20.8845176,15.1602155 L23.1140122,15.1602155 C23.8526966,15.1602155 24.4514816,14.5614305 24.4514816,13.8227461 C24.4514816,13.0840618 23.8524959,12.4852767 23.1138116,12.4852767 Z" id="Path" fill="#FEDB41"></path>
                </g>
            </g>
        </g>
    </g>
</svg>