<?xml version="1.0" encoding="UTF-8"?>
<svg width="176px" height="194px" viewBox="0 0 176 194" version="1.1" xmlns="http://www.w3.org/2000/svg" xmlns:xlink="http://www.w3.org/1999/xlink">
    <title>welcome_gift</title>
    <defs>
        <linearGradient x1="25.9666929%" y1="93.0398926%" x2="69.3325492%" y2="-14.9591082%" id="linearGradient-1">
            <stop stop-color="#4753DA" offset="0%"></stop>
            <stop stop-color="#C86FF2" offset="100%"></stop>
        </linearGradient>
        <linearGradient x1="18.4558302%" y1="93.0398926%" x2="74.979803%" y2="-14.2105082%" id="linearGradient-2">
            <stop stop-color="#4753DA" offset="0%"></stop>
            <stop stop-color="#C79CFF" offset="100%"></stop>
        </linearGradient>
        <linearGradient x1="308.136704%" y1="70.6002837%" x2="308.136704%" y2="106.783986%" id="linearGradient-3">
            <stop stop-color="#EDEDED" offset="0%"></stop>
            <stop stop-color="#FFFFFF" offset="100%"></stop>
        </linearGradient>
        <linearGradient x1="308.136704%" y1="70.6002837%" x2="308.136704%" y2="106.783986%" id="linearGradient-4">
            <stop stop-color="#6DF0EA" offset="0%"></stop>
            <stop stop-color="#FFFFFF" offset="100%"></stop>
        </linearGradient>
        <linearGradient x1="308.136704%" y1="70.6002837%" x2="308.136704%" y2="106.783986%" id="linearGradient-5">
            <stop stop-color="#EDEDED" offset="0%"></stop>
            <stop stop-color="#FFFFFF" offset="100%"></stop>
        </linearGradient>
        <linearGradient x1="50%" y1="98.0079233%" x2="80.0030147%" y2="8.30889598%" id="linearGradient-6">
            <stop stop-color="#FFF6C7" offset="0%"></stop>
            <stop stop-color="#FBDA5F" offset="100%"></stop>
        </linearGradient>
        <linearGradient x1="6.34024936%" y1="93.0398926%" x2="85.1201886%" y2="-14.9591082%" id="linearGradient-7">
            <stop stop-color="#FFB21D" offset="0%"></stop>
            <stop stop-color="#C8331E" offset="100%"></stop>
        </linearGradient>
        <linearGradient x1="22.0577596%" y1="93.0398926%" x2="72.4769207%" y2="-14.9591082%" id="linearGradient-8">
            <stop stop-color="#4753DA" offset="0%"></stop>
            <stop stop-color="#C86FF2" offset="100%"></stop>
        </linearGradient>
        <linearGradient x1="308.136704%" y1="70.6002837%" x2="308.136704%" y2="106.783986%" id="linearGradient-9">
            <stop stop-color="#EDEDED" offset="0%"></stop>
            <stop stop-color="#FFFFFF" offset="100%"></stop>
        </linearGradient>
        <linearGradient x1="50%" y1="100%" x2="60.9373752%" y2="6.57893407%" id="linearGradient-10">
            <stop stop-color="#FFF6C7" offset="0%"></stop>
            <stop stop-color="#FBDA5F" offset="100%"></stop>
        </linearGradient>
        <linearGradient x1="308.136704%" y1="70.6002837%" x2="308.136704%" y2="106.783986%" id="linearGradient-11">
            <stop stop-color="#EDEDED" offset="0%"></stop>
            <stop stop-color="#FFFFFF" offset="100%"></stop>
        </linearGradient>
        <linearGradient x1="308.136704%" y1="70.6002837%" x2="308.136704%" y2="105.747886%" id="linearGradient-12">
            <stop stop-color="#5746D9" offset="0%"></stop>
            <stop stop-color="#5B78E1" offset="100%"></stop>
        </linearGradient>
    </defs>
    <g id="Page-1" stroke="none" stroke-width="1" fill="none" fill-rule="evenodd">
        <g id="SITE-02" transform="translate(-947.000000, -108.000000)" fill-rule="nonzero">
            <g id="Group-8" transform="translate(811.000000, 22.000000)">
                <g transform="translate(0.000000, -2.000000)" id="Group-7">
                    <g id="Group-11" transform="translate(0.000000, 2.000000)">
                        <g id="welcome_gift" transform="translate(136.000000, 86.000000)">
                            <g id="Group-8">
                                <path d="M24.1125963,20.9405326 C24.2616857,21.442755 24.5569081,21.8402846 24.9294206,22.0415781 L33.6285574,26.7350567 C34.857595,27.3981117 34.857595,29.7428279 33.6285574,30.4063887 L24.9294206,35.0998672 C24.5569081,35.300655 24.2616857,35.6986903 24.1125963,36.200407 L20.630323,47.9255054 C20.1382856,49.5818785 18.3986272,49.5818785 17.9065898,47.9255054 L14.4243165,36.200407 C14.275227,35.6981846 13.9800046,35.300655 13.6074922,35.0998672 L4.9083554,30.4063887 C3.67931777,29.7433337 3.67931777,27.3981117 4.9083554,26.7350567 L13.6074922,22.0415781 C13.9800046,21.8407903 14.275227,21.442755 14.4243165,20.9405326 L17.9065898,9.21543418 C18.3986272,7.55906109 20.1382856,7.55906109 20.630323,9.21543418 L24.1125963,20.9405326 Z" id="Path" fill="url(#linearGradient-1)" opacity="0.186896188"></path>
                                <path d="M165.12073,20.7342229 L167.694554,28.2987031 C167.804812,28.6224489 168.022804,28.8793342 168.29803,29.0090965 L174.72796,32.0371759 C175.636541,32.4651714 175.636541,33.9778915 174.72796,34.4054472 L168.29803,37.4335266 C168.022804,37.5632889 167.804391,37.8197343 167.694554,38.14392 L165.12073,45.7084002 C164.757129,46.7772894 163.471059,46.7772894 163.107458,45.7084002 L160.533634,38.14392 C160.423376,37.8201742 160.205384,37.5632889 159.930158,37.4335266 L153.500228,34.4054472 C152.591647,33.9774517 152.591647,32.4647316 153.500228,32.0371759 L159.930158,29.0090965 C160.205384,28.8793342 160.423797,28.6228888 160.533634,28.2987031 L163.107458,20.7342229 C163.471059,19.6657736 164.757129,19.6657736 165.12073,20.7342229 Z" id="Path" fill="url(#linearGradient-2)" opacity="0.272716704"></path>
                                <path d="M98.2040659,0.48080218 L99.5666784,5.0194903 C99.6250506,5.21373782 99.7404582,5.36786899 99.886166,5.44572635 L103.290246,7.262574 C103.77126,7.51937133 103.77126,8.42700338 103.290246,8.68353678 L99.886166,10.5003844 C99.7404582,10.5782418 99.6248278,10.732109 99.5666784,10.9266205 L98.2040659,15.4653086 C98.0115713,16.1066421 97.3307106,16.1066421 97.138216,15.4653086 L95.7756035,10.9266205 C95.7172313,10.732373 95.6018237,10.5782418 95.4561159,10.5003844 L92.0520355,8.68353678 C91.5710217,8.42673946 91.5710217,7.5191074 92.0520355,7.262574 L95.4561159,5.44572635 C95.6018237,5.36786899 95.7174541,5.21400174 95.7756035,5.0194903 L97.138216,0.48080218 C97.3307106,-0.160267393 98.0115713,-0.160267393 98.2040659,0.48080218 Z" id="Path-Copy" fill="url(#linearGradient-3)"></path>
                                <path d="M63.6537303,36.3599968 L65.0163428,40.8986849 C65.074715,41.0929324 65.1901227,41.2470636 65.3358304,41.324921 L68.7399108,43.1417686 C69.2209246,43.398566 69.2209246,44.306198 68.7399108,44.5627314 L65.3358304,46.3795791 C65.1901227,46.4574364 65.0744922,46.6113037 65.0163428,46.8058151 L63.6537303,51.3445032 C63.4612357,51.9858367 62.780375,51.9858367 62.5878804,51.3445032 L61.225268,46.8058151 C61.1668957,46.6115676 61.0514881,46.4574364 60.9057803,46.3795791 L57.5016999,44.5627314 C57.0206862,44.3059341 57.0206862,43.398302 57.5016999,43.1417686 L60.9057803,41.324921 C61.0514881,41.2470636 61.1671185,41.0931964 61.225268,40.8986849 L62.5878804,36.3599968 C62.780375,35.7189272 63.4612357,35.7189272 63.6537303,36.3599968 Z" id="Path-Copy-3" fill="url(#linearGradient-3)"></path>
                                <path d="M127.438965,56.2928827 L128.801578,60.8315708 C128.85995,61.0258184 128.975358,61.1799495 129.121065,61.2578069 L132.525146,63.0746545 C133.006159,63.3314519 133.006159,64.2390839 132.525146,64.4956173 L129.121065,66.312465 C128.975358,66.3903223 128.859727,66.5441896 128.801578,66.738701 L127.438965,71.2773891 C127.246471,71.9187226 126.56561,71.9187226 126.373115,71.2773891 L125.010503,66.738701 C124.952131,66.5444535 124.836723,66.3903223 124.691015,66.312465 L121.286935,64.4956173 C120.805921,64.23882 120.805921,63.3311879 121.286935,63.0746545 L124.691015,61.2578069 C124.836723,61.1799495 124.952353,61.0260823 125.010503,60.8315708 L126.373115,56.2928827 C126.56561,55.6518131 127.246471,55.6518131 127.438965,56.2928827 Z" id="Path-Copy-2" fill="url(#linearGradient-3)"></path>
                                <path d="M1.10597723,62.9598743 C1.35556021,63.182997 26.1890661,85.7148897 36.4186732,125.214195 C37.4516008,129.36761 43.5054293,127.554134 42.3860126,123.463404 C31.6209965,81.8959397 6.15735541,58.8673907 5.07871216,57.9073929 C3.76778377,56.7413682 1.81889493,56.9267924 0.721718298,58.3203234 C-0.374634633,59.7138544 -0.202480041,61.7907811 1.10597723,62.9598743 Z" id="Path" fill="url(#linearGradient-4)" opacity="0.183587937"></path>
                                <path d="M127.902708,60.7180709 C129.416819,61.5964076 131.376854,61.020961 132.223773,59.3811613 C132.264465,59.3026508 136.354938,51.4761313 141.110059,47.0603595 C142.429183,45.8354167 142.555076,43.7169703 141.390669,42.3287612 C140.226686,40.9405521 138.214089,40.8085117 136.894541,42.0334545 C131.286991,47.2405769 126.817143,55.81027 126.629787,56.1724891 C125.789227,57.7971219 126.358926,59.8317047 127.902708,60.7180709 Z" id="Path" fill="url(#linearGradient-5)"></path>
                                <ellipse id="Oval" fill="url(#linearGradient-6)" transform="translate(130.987853, 13.753612) rotate(-76.700416) translate(-130.987853, -13.753612) " cx="130.987853" cy="13.7536115" rx="8.22987956" ry="8.06426772"></ellipse>
                                <circle id="Oval" fill="url(#linearGradient-7)" opacity="0.33286903" cx="71.7583893" cy="15.9463087" r="3.98657718"></circle>
                                <path d="M27.6550834,47.06046 C32.4100917,51.4760368 36.5004669,59.3022107 36.5415826,59.3807178 C37.3880572,61.0208911 39.3471986,61.5958663 40.8616971,60.7189066 C42.4062906,59.8334717 42.9763999,57.7976405 42.134588,56.1717412 C41.9472361,55.8095381 37.4770705,47.2406694 31.8700774,42.033777 C30.5505605,40.8079961 28.5375872,40.9409228 27.3740556,42.3290706 C26.2101001,43.7172184 26.3359904,45.8355712 27.6550834,47.06046 L27.6550834,47.06046 Z" id="Path" fill="url(#linearGradient-8)" opacity="0.110373361"></path>
                                <path d="M80.8302036,72.5143678 C80.8302036,74.2983977 82.3693037,75.7449664 84.2674508,75.7449664 C86.165598,75.7449664 87.704698,74.2983977 87.704698,72.5143678 C87.704698,59.1994868 82.3121305,51.0127243 82.0825234,50.6709643 C81.0726176,49.1663608 78.9631586,48.717989 77.3581952,49.6611604 C75.7532317,50.6034721 75.2652021,52.5942775 76.2609289,54.1066189 C76.30621,54.1762606 80.8302036,61.1782553 80.8302036,72.5143678 L80.8302036,72.5143678 Z" id="Path" fill="url(#linearGradient-9)"></path>
                                <path d="M128.515967,127.4498 C130.120206,127.934174 131.875268,126.918565 132.324439,125.151869 C142.541215,85.7590278 167.318949,63.2575292 167.655208,62.9562187 C168.966869,61.7903924 169.140768,59.7153792 168.044215,58.3209424 C166.946838,56.9269435 164.994388,56.7412521 163.681903,57.9070784 C162.602657,58.8661917 137.124795,81.8735241 126.353767,123.402692 C125.899239,125.154935 126.867222,126.967177 128.515967,127.4498 L128.515967,127.4498 Z" id="Path" fill="url(#linearGradient-10)"></path>
                                <polygon id="Path" fill="url(#linearGradient-11)" points="103.651007 33.2214765 111.624161 33.2214765 111.624161 41.1946309 103.651007 41.1946309"></polygon>
                                <polygon id="Path" fill="url(#linearGradient-12)" opacity="0.214107695" points="42.5234899 11.9597315 50.4966443 11.9597315 50.4966443 19.9328859 42.5234899 19.9328859"></polygon>
                            </g>
                            <g id="present" transform="translate(16.000000, 49.000000)">
                                <path d="M27.72,45.5882353 C10.08,45.5882353 0,23.3529412 0,23.3529412 L12.6,23.3529412 L12.6,11 L63,53 L27.72,45.5882353 Z" id="Shape" fill="#F29C1F"></path>
                                <path d="M82,53 L132.4,11 L132.4,23.3529412 L145,23.3529412 C145,23.3529412 134.92,45.5882353 117.28,45.5882353 L82,53 Z" id="Shape" fill="#F29C1F"></path>
                                <path d="M77,45.3918104 L74.4450724,30.2440276 C74.4450724,30.2440276 69.600042,1.50110965 45.7456442,0.00905304193 C44.3868956,-0.0587331347 43.0362865,0.255204437 41.8464161,0.915395381 C37.7201955,3.14716872 28.1890294,9.31736559 24.5319267,20.2818357 C23.542736,23.2048488 23.9470834,26.4204919 25.6290575,29.0069586 C29.6468262,35.1620077 38.8072377,46.6440271 51.4507243,47 L77,45.3918104 Z" id="Shape" fill="#F0C419"></path>
                                <path d="M61.2469193,37 C51.2595545,30.4779281 47.9350663,17.3416436 47.02228,12.4880666 C46.9423237,12.0559516 47.0807588,11.6105878 47.386311,11.3169312 C47.6918635,11.0232747 48.1190366,10.9250506 48.509612,11.0586397 C59.2777103,14.3184304 63.9227268,28.2416469 65,32.069224 L61.2469193,37 Z" id="Shape" fill="#F29C1F"></path>
                                <path d="M68,45.3840563 L70.5549566,30.2439438 C70.5549566,30.2439438 75.4000422,1.52159256 99.2547111,0.00909381453 C100.613813,-0.0589051546 101.964746,0.255505069 103.153984,0.916593064 C107.280251,3.16013287 116.811526,9.33616943 120.46867,20.2841395 C121.45695,23.2061865 121.052737,26.4196061 119.371526,29.0062157 C115.285614,35.2679605 105.870359,47.0377216 92.888758,47 L68,45.3840563 Z" id="Shape" fill="#F0C419"></path>
                                <path d="M80,32.069224 C81.0772732,28.2416469 85.7222897,14.3184304 96.490388,11.0586397 C96.8809634,10.9250506 97.3081365,11.0232747 97.613689,11.3169312 C97.9192412,11.6105878 98.0576763,12.0559516 97.97772,12.4880666 C97.0649337,17.3416436 93.7404455,30.4779281 83.7530807,37 L80,32.069224 Z" id="Shape" fill="#F29C1F"></path>
                                <path d="M70.4,29 L75.6,29 C81.3437614,29 86,33.7756293 86,39.6666667 L86,45 L60,45 L60,39.6666667 C60,33.7756293 64.6562386,29 70.4,29 Z" id="Shape" fill="#F3D55B"></path>
                                <path d="M127,68 L127,140.032258 C127,142.775866 124.802125,145 122.090909,145 L23.9090909,145 C21.1978749,145 19,142.775866 19,140.032258 L19,68 L127,68 Z" id="Shape" fill="#E64C3C"></path>
                                <polygon id="Rectangle-path" fill="#C03A2B" points="19 68 127 68 127 76 19 76"></polygon>
                                <polygon id="Rectangle-path" fill="#F29C1F" points="63 68 84 68 84 145 63 145"></polygon>
                                <g id="Group" transform="translate(26.000000, 80.000000)" fill="#C03A2B">
                                    <path d="M2.49646216,9.9879952 C1.1177043,9.9879952 0,8.87005063 0,7.4909964 L0,2.4969988 C0,1.11794457 1.1177043,0 2.49646216,0 C3.87522001,0 4.99292432,1.11794457 4.99292432,2.4969988 L4.99292432,7.4909964 C4.99292432,8.87005063 3.87522001,9.9879952 2.49646216,9.9879952 Z" id="Shape"></path>
                                    <path d="M2.49646216,57.4309724 C1.1177043,57.4309724 0,56.3130278 0,54.9339736 L0,17.4789916 C0,16.0999374 1.1177043,14.9819928 2.49646216,14.9819928 C3.87522001,14.9819928 4.99292432,16.0999374 4.99292432,17.4789916 L4.99292432,54.9339736 C4.99292432,56.3130278 3.87522001,57.4309724 2.49646216,57.4309724 Z" id="Shape"></path>
                                    <path d="M92.3690999,9.9879952 C90.990342,9.9879952 89.8726377,8.87005063 89.8726377,7.4909964 L89.8726377,2.4969988 C89.8726377,1.11794457 90.990342,0 92.3690999,0 C93.7478577,0 94.865562,1.11794457 94.865562,2.4969988 L94.865562,7.4909964 C94.865562,8.87005063 93.7478577,9.9879952 92.3690999,9.9879952 Z" id="Shape"></path>
                                    <path d="M92.3690999,57.4309724 C90.990342,57.4309724 89.8726377,56.3130278 89.8726377,54.9339736 L89.8726377,17.4789916 C89.8726377,16.0999374 90.990342,14.9819928 92.3690999,14.9819928 C93.7478577,14.9819928 94.865562,16.0999374 94.865562,17.4789916 L94.865562,54.9339736 C94.865562,56.3130278 93.7478577,57.4309724 92.3690999,57.4309724 Z" id="Shape"></path>
                                </g>
                                <path d="M17.9583333,45 L127.041667,45 C129.780079,45 132,47.3281193 132,50.2 L132,68.4 C132,69.8359402 130.890039,71 129.520833,71 L15.4791667,71 C14.1099607,71 13,69.8359402 13,68.4 L13,50.2 C13,47.3281193 15.2199214,45 17.9583333,45 Z" id="Shape" fill="#E64C3C"></path>
                                <polygon id="Rectangle-path" fill="#F0C419" points="58 45 87 45 87 71 58 71"></polygon>
                            </g>
                        </g>
                    </g>
                </g>
            </g>
        </g>
    </g>
</svg>