<?xml version="1.0" encoding="UTF-8"?>
<svg width="13px" height="15px" viewBox="0 0 13 15" version="1.1" xmlns="http://www.w3.org/2000/svg" xmlns:xlink="http://www.w3.org/1999/xlink">
    <title>copy</title>
    <g id="Page-1" stroke="none" stroke-width="1" fill="none" fill-rule="evenodd" opacity="0.5">
        <g id="Dashboard03" transform="translate(-370.000000, -822.000000)" fill="#FFFFFF" fill-rule="nonzero">
            <g id="Coupon_bg" transform="translate(28.000000, 717.000000)">
                <g id="copy-(1)" transform="translate(342.000000, 105.000000)">
                    <path d="M8.17401392,15 L2.41299304,15 C1.08243004,15 0,13.9486313 0,12.65625 L0,4.71679688 C0,3.4244156 1.08243004,2.37304688 2.41299304,2.37304688 L8.17401392,2.37304688 C9.50457692,2.37304688 10.587007,3.4244156 10.587007,4.71679688 L10.587007,12.65625 C10.587007,13.9486313 9.50457692,15 8.17401392,15 Z M2.41299304,3.54492188 C1.74777043,3.54492188 1.20649652,4.07066344 1.20649652,4.71679688 L1.20649652,12.65625 C1.20649652,13.3023834 1.74777043,13.828125 2.41299304,13.828125 L8.17401392,13.828125 C8.83923653,13.828125 9.38051044,13.3023834 9.38051044,12.65625 L9.38051044,4.71679688 C9.38051044,4.07066344 8.83923653,3.54492188 8.17401392,3.54492188 L2.41299304,3.54492188 Z M13,11.1914062 L13,2.34375 C13,1.05136872 11.91757,0 10.587007,0 L3.89095128,0 C3.55775087,0 3.28770302,0.262298584 3.28770302,0.5859375 C3.28770302,0.909576416 3.55775087,1.171875 3.89095128,1.171875 L10.587007,1.171875 C11.2522296,1.171875 11.7935035,1.69761656 11.7935035,2.34375 L11.7935035,11.1914062 C11.7935035,11.5150452 12.0635513,11.7773438 12.3967517,11.7773438 C12.7299521,11.7773438 13,11.5150452 13,11.1914062 Z" id="copy"></path>
                </g>
            </g>
        </g>
    </g>
</svg>