<?xml version="1.0" encoding="UTF-8"?>
<svg width="37px" height="37px" viewBox="0 0 37 37" version="1.1" xmlns="http://www.w3.org/2000/svg" xmlns:xlink="http://www.w3.org/1999/xlink">
    <title>Exparing soon</title>
    <defs>
        <linearGradient x1="7.30065447%" y1="93.0398926%" x2="84.3476324%" y2="-14.9591082%" id="linearGradient-1">
            <stop stop-color="#FF9F00" offset="0%"></stop>
            <stop stop-color="#FFD400" offset="100%"></stop>
        </linearGradient>
    </defs>
    <g id="Page-1" stroke="none" stroke-width="1" fill="none" fill-rule="evenodd">
        <g id="Dashboard03" transform="translate(-259.000000, -456.000000)" fill-rule="nonzero">
            <g id="Group-11" transform="translate(234.000000, 433.000000)">
                <g id="Exparing-soon" transform="translate(25.000000, 23.000000)">
                    <path d="M14.1457047,1.96254735 C16.9922279,1.22800247 19.9807779,1.23089008 22.8219203,1.97011982 C23.5048043,2.14457701 24.1758116,2.36212668 24.8343527,2.62283166 C27.0200782,3.49760499 29.0010553,4.8107689 30.6479825,6.47439989 C32.3012904,8.11684244 33.5942131,10.0821795 34.4430515,12.2405573 C34.7040882,12.8923897 34.9230778,13.5600998 35.0986924,14.2396269 C35.4304914,15.608497 35.5983465,16.9960979 35.6025597,18.3893485 C35.7109723,21.4949593 34.964082,24.5066156 33.5183962,27.138932 C32.0706765,29.7749515 29.9221433,32.0305856 27.2299724,33.6187265 C24.5389874,35.2061679 21.5195133,36 18.5,36 C15.4804867,36 12.4610126,35.2061679 9.77002756,33.6187265 C7.07785671,32.0305856 4.92932346,29.7749515 3.48160383,27.138932 C2.03582956,24.5064546 1.28893637,21.494591 1.39744821,18.3885798 C1.40167847,17.0087417 1.56969342,15.634201 1.89799447,14.2933651 C2.05809682,13.6056617 2.27214446,12.9314761 2.53822745,12.2762254 C4.20728476,7.90226064 7.60763667,4.39950735 11.946624,2.58764365 C12.6833147,2.31002353 13.407785,2.10538735 14.1457047,1.96254735 Z" id="Shape" stroke="url(#linearGradient-1)" stroke-width="2" fill="#3E5959"></path>
                    <path d="M18.3881325,2.41773469 C16.6802728,2.51159833 15.338903,2.68535417 14.3640234,2.93900222 C13.6714615,3.07127782 12.9916068,3.26245368 12.3319555,3.51042188 C8.23970915,5.21925207 5.0335729,8.5250048 3.46475001,12.6531364 C3.21703729,13.2624595 3.01800381,13.8902433 2.86949779,14.5306582 C2.5585662,15.8000642 2.40009475,17.1016443 2.39740121,18.4081487 C2.18707694,24.2642798 5.20938466,29.7673219 10.2781195,32.7574237 C11.8584588,33.689683 14.5617965,34.4341646 18.3881325,34.9908683 L18.3881325,2.41773469 Z" id="Path" fill="#4A696F"></path>
                    <path d="M30.0253145,20.6791609 L20.2344418,20.6791609 C19.4651802,20.6845856 18.72582,20.383192 18.181848,19.8423653 C17.6414506,19.3007494 17.3451779,18.564329 17.3608104,17.8015808 L17.3608104,13.2302235 C17.3608104,12.7117602 17.7835401,12.2914626 18.3050036,12.2914626 C18.8264671,12.2914626 19.2491968,12.7117602 19.2491968,13.2302235 L19.2491968,17.7607651 C19.2470393,18.0151328 19.351095,18.2589957 19.5365599,18.434224 C19.7071067,18.6122167 19.9463116,18.7088346 20.1933899,18.699526 L30.0253145,18.699526 C30.5535356,18.7103579 30.979139,19.1335126 30.9900486,19.6586947 C30.9914875,19.9069965 30.8870718,20.1442877 30.7026705,20.3117457 C30.5508927,20.5165269 30.3204837,20.6495431 30.0663664,20.6791609 L30.0253145,20.6791609 Z" id="Path" fill="#FFFFFF"></path>
                    <path d="M37,6.62640398 C36.9748459,8.1901521 36.3956529,9.69296361 35.3675483,10.862069 C33.6101492,6.68003559 30.3575196,3.32079524 26.2580645,1.45400539 C28.2280399,-0.152015053 30.9424067,-0.454104787 33.2110997,0.680181974 C34.3361782,1.20508922 35.287764,2.04640477 35.9520063,3.10347108 C36.6274597,4.15995444 36.9909848,5.38904318 37,6.64676775 L37,6.62640398 Z" id="Path" fill="#FF9F00"></path>
                    <path d="M10.7419355,1.59560989 C6.66920215,3.41041728 3.4225784,6.72030988 1.65260546,10.862069 C0.589172454,9.67567446 0,8.12937185 0,6.52544794 C0.044135395,2.90838034 2.94571923,-0.000216739879 6.50965321,0 C8.06438925,-0.00675041918 9.56855335,0.560311921 10.7419355,1.59560989 Z" id="Path" fill="#FDBF00"></path>
                </g>
            </g>
        </g>
    </g>
</svg>