<?xml version="1.0" encoding="UTF-8"?>
<svg width="33px" height="43px" viewBox="0 0 33 43" version="1.1" xmlns="http://www.w3.org/2000/svg" xmlns:xlink="http://www.w3.org/1999/xlink">
    <title>Unclaimed</title>
    <defs>
        <polygon id="path-1" points="0 0.0596582031 32.147611 0.0596582031 32.147611 26.8261719 0 26.8261719"></polygon>
        <linearGradient x1="38.7331266%" y1="32.743951%" x2="33.4870496%" y2="20.2537555%" id="linearGradient-3">
            <stop stop-color="#FDBF00" offset="0%"></stop>
            <stop stop-color="#FFE470" offset="100%"></stop>
        </linearGradient>
        <linearGradient x1="50%" y1="72.1718944%" x2="80.0030147%" y2="30.7454542%" id="linearGradient-4">
            <stop stop-color="#FFD400" offset="0%"></stop>
            <stop stop-color="#FBDA5F" offset="100%"></stop>
        </linearGradient>
        <linearGradient x1="50%" y1="0%" x2="50%" y2="100%" id="linearGradient-5">
            <stop stop-color="#FDBF00" offset="0%"></stop>
            <stop stop-color="#FF9F00" offset="100%"></stop>
        </linearGradient>
    </defs>
    <g id="Page-1" stroke="none" stroke-width="1" fill="none" fill-rule="evenodd">
        <g id="Dashboard03" transform="translate(-157.000000, -453.000000)">
            <g id="Group-6" transform="translate(131.000000, 433.000000)">
                <g id="Unclaimed" transform="translate(26.000000, 20.000000)">
                    <g id="Group-4" transform="translate(0.000000, 15.093750)">
                        <mask id="mask-2" fill="white">
                            <use xlink:href="#path-1"></use>
                        </mask>
                        <g id="Clip-2"></g>
                        <path d="M3.58590182,0.0596582031 C1.63572924,0.0596582031 1.68553696e-14,1.8828848 1.68553696e-14,4.21667419 L1.68553696e-14,20.6985981 C1.68553696e-14,22.9594102 1.57277659,24.8556141 3.58590182,24.8556141 L28.5617092,24.8556141 C30.5119618,24.8556141 32.147691,23.0323875 32.147691,20.6985981 L32.147691,4.21667419 C32.147691,1.95576935 30.5748344,0.0596582031 28.5617092,0.0596582031 L3.58590182,0.0596582031" id="Fill-1" fill="url(#linearGradient-3)" mask="url(#mask-2)"></path>
                        <path d="M3.57829753,4.35781388 C1.62760574,4.35781388 -0.00855900187,5.93230997 -0.00855900187,7.94771622 L-0.00855900187,22.1812026 C-0.00855900187,24.1335873 1.56463632,25.7710248 3.57829753,25.7710248 L28.5607545,25.7710248 C30.5115263,25.7710248 32.147691,24.1965287 32.147691,22.1812026 L32.147691,7.94771622 C32.147691,5.99533146 30.5744157,4.35781388 28.5607545,4.35781388 L3.57829753,4.35781388" id="Fill-3" fill="url(#linearGradient-4)" mask="url(#mask-2)"></path>
                    </g>
                    <path d="M15.75004,0 C8.88597609,0 3.28125,5.54161329 3.28125,12.46875 L8.63407648,12.46875 C8.63407648,8.56431872 11.8456763,5.35272923 15.75004,5.35272923 C19.6544038,5.35272923 22.8660837,8.56431872 22.8660837,12.46875 L28.21875,12.46875 C28.21875,5.54161329 22.614104,0 15.75004,0" id="Fill-5" fill="#4A696F"></path>
                    <path d="M3.28125,36.75 L28.21875,36.75 L28.21875,34.9867772 L3.28125,34.9867772 L3.28125,36.75 Z M3.28125,33.1605393 L28.21875,33.1605393 L28.21875,31.3973165 L3.28125,31.3973165 L3.28125,33.1605393 Z M3.28125,29.6340136 L28.21875,29.6340136 L28.21875,27.8707908 L3.28125,27.8707908 L3.28125,29.6340136 Z M3.28125,26.0444728 L28.21875,26.0444728 L28.21875,24.28125 L3.28125,24.28125 L3.28125,26.0444728 Z" id="Fill-6" fill="url(#linearGradient-5)"></path>
                    <path d="M3.28125,14.09375 L3.28125,15.7344123 C3.28125,16.5546689 4.46880771,17.375 5.90628973,17.375 C7.34377176,17.375 8.53125,16.5546689 8.53125,15.7344123 L8.53125,14.09375 C8.53125,14.9140811 7.34377176,15.7344123 5.90628973,15.7344123 C4.46880771,15.7344123 3.28125,14.9140811 3.28125,14.09375" id="Fill-7" fill="#293939"></path>
                    <path d="M22.96875,14.09375 L22.96875,15.7344123 C22.96875,16.5546689 24.1562462,17.375 25.59375,17.375 C27.0312538,17.375 28.21875,16.5546689 28.21875,15.7344123 L28.21875,14.09375 C28.21875,14.9140811 27.0312538,15.7344123 25.59375,15.7344123 C24.1562462,15.7344123 22.96875,14.9140811 22.96875,14.09375" id="Fill-8" fill="#293939"></path>
                    <path d="M15.75004,2.625 C15.120291,2.625 14.490542,2.68966092 13.923808,2.81906504 C13.4830237,2.88380822 13.0421594,3.01321234 12.66439,3.14261645 C12.2864606,3.27202056 11.9086912,3.40142467 11.5308418,3.59548971 C11.3418771,3.6602329 11.1529924,3.78955474 10.9640277,3.85429793 C10.7121281,3.98370204 10.5232434,4.17784934 10.2713438,4.30717119 C10.0823791,4.4365753 9.83047948,4.56597941 9.64159482,4.69538353 C9.38969522,4.88944856 9.13779562,5.08359586 8.94891095,5.34240409 L8.82296115,5.60121231 C8.50804661,5.92468146 8.25614701,6.18348968 8.00432748,6.57170202 C7.75242788,6.95991435 7.50052828,7.28346577 7.31164361,7.73633903 L7.31164361,7.80108222 C7.12267888,8.25395547 6.93371414,8.70682873 6.80784441,9.15978426 C6.36698008,10.2596781 5.10756214,10.9713596 3.72211434,10.9713596 L3.4071998,10.9713596 L3.28125,12.7830171 L3.28125,16.40625 L8.63407648,16.40625 L8.63407648,12.7830171 C8.63407648,12.2654007 8.69701135,11.7477842 8.82296115,11.2948287 C9.51564502,7.93040406 12.3494755,5.4718082 15.75004,5.4718082 C19.6544038,5.4718082 22.8660837,8.77148966 22.8660837,12.7830171 L22.8660837,16.40625 L28.21875,16.40625 L28.21875,12.7830171 L28.0928803,10.9713596 L27.7779657,10.9713596 C26.3295831,10.9713596 25.1331,10.1949349 24.6922357,9.15978426 C24.5662859,8.70682873 24.3774012,8.18921229 24.1884365,7.80108222 L24.1884365,7.73633903 C23.9995518,7.34812669 23.7476522,6.95991435 23.4957526,6.57170202 C23.243853,6.18348968 22.9920335,5.92468146 22.6771189,5.60121231 L22.4882343,5.34240409 C22.2362546,5.14825679 22.0473699,4.88944856 21.7955504,4.69538353 C21.6065857,4.56597941 21.3546861,4.4365753 21.1657213,4.30717119 C20.9768366,4.17784934 20.724937,3.98370204 20.4730374,3.85429793 C20.2841528,3.72489382 20.095188,3.6602329 19.9063034,3.59548971 C19.528454,3.40142467 19.1506046,3.27202056 18.7728352,3.14261645 C18.3319709,3.01321234 17.9541215,2.88380822 17.5132572,2.81906504 C17.009458,2.68966092 16.379789,2.625 15.75004,2.625" id="Fill-9" fill="#293939"></path>
                </g>
            </g>
        </g>
    </g>
</svg>