<?xml version="1.0" encoding="UTF-8"?>
<svg width="67px" height="66px" viewBox="0 0 67 66" version="1.1" xmlns="http://www.w3.org/2000/svg" xmlns:xlink="http://www.w3.org/1999/xlink">
    <title>Group 2</title>
    <defs>
        <linearGradient x1="80.0030147%" y1="6.57893407%" x2="50%" y2="100%" id="linearGradient-1">
            <stop stop-color="#F0EEFF" offset="0%"></stop>
            <stop stop-color="#8C7DF0" offset="100%"></stop>
        </linearGradient>
        <linearGradient x1="50%" y1="0%" x2="50%" y2="100%" id="linearGradient-2">
            <stop stop-color="#C8CAFE" offset="0%"></stop>
            <stop stop-color="#BFACF4" offset="100%"></stop>
        </linearGradient>
        <linearGradient x1="50%" y1="100%" x2="86.0472226%" y2="12.9406257%" id="linearGradient-3">
            <stop stop-color="#A99DF1" offset="0%"></stop>
            <stop stop-color="#F4F2FF" offset="100%"></stop>
        </linearGradient>
        <circle id="path-4" cx="25.7051559" cy="25.9868687" r="25.0471761"></circle>
        <linearGradient x1="50%" y1="100%" x2="51.6755352%" y2="6.57893407%" id="linearGradient-6">
            <stop stop-color="#CEC7FF" offset="0%"></stop>
            <stop stop-color="#C2B7FF" offset="100%"></stop>
        </linearGradient>
        <linearGradient x1="50%" y1="100%" x2="51.6747835%" y2="6.57893407%" id="linearGradient-7">
            <stop stop-color="#CEC7FF" offset="0%"></stop>
            <stop stop-color="#C2B7FF" offset="100%"></stop>
        </linearGradient>
        <linearGradient x1="50%" y1="100%" x2="51.6747509%" y2="6.57893407%" id="linearGradient-8">
            <stop stop-color="#CEC7FF" offset="0%"></stop>
            <stop stop-color="#C2B7FF" offset="100%"></stop>
        </linearGradient>
        <linearGradient x1="50%" y1="0%" x2="50%" y2="100%" id="linearGradient-9">
            <stop stop-color="#FFFFFF" offset="0%"></stop>
            <stop stop-color="#7E81E5" offset="100%"></stop>
        </linearGradient>
        <circle id="path-10" cx="19.1961538" cy="19.1961538" r="19.1961538"></circle>
        <filter x="-30.9%" y="-25.7%" width="161.8%" height="161.8%" filterUnits="objectBoundingBox" id="filter-12">
            <feMorphology radius="2.36" operator="dilate" in="SourceAlpha" result="shadowSpreadOuter1"></feMorphology>
            <feOffset dx="0" dy="2" in="shadowSpreadOuter1" result="shadowOffsetOuter1"></feOffset>
            <feGaussianBlur stdDeviation="2.5" in="shadowOffsetOuter1" result="shadowBlurOuter1"></feGaussianBlur>
            <feComposite in="shadowBlurOuter1" in2="SourceAlpha" operator="out" result="shadowBlurOuter1"></feComposite>
            <feColorMatrix values="0 0 0 0 0.216319237   0 0 0 0 0.204738816   0 0 0 0 0.426392044  0 0 0 0.458978933 0" type="matrix" in="shadowBlurOuter1"></feColorMatrix>
        </filter>
        <linearGradient x1="50%" y1="100%" x2="51.6741716%" y2="6.57893407%" id="linearGradient-13">
            <stop stop-color="#CEC7FF" offset="0%"></stop>
            <stop stop-color="#C2B7FF" offset="100%"></stop>
        </linearGradient>
        <linearGradient x1="308.136704%" y1="40.1730245%" x2="308.136704%" y2="106.783986%" id="linearGradient-14">
            <stop stop-color="#FFFFFF" offset="0%"></stop>
            <stop stop-color="#F5F5F5" stop-opacity="0.549415428" offset="64.7510797%"></stop>
            <stop stop-color="#EDEDED" stop-opacity="0.372379543" offset="100%"></stop>
        </linearGradient>
        <path d="M39.8580842,39.7038704 C40.2513161,39.7038704 40.5790094,39.5655861 40.841164,39.2890176 C41.1187395,39.027814 41.2575273,38.7013096 41.2575273,38.3095042 L41.2575273,38.2864568 C41.2575273,37.9023339 41.1187395,37.5719882 40.841164,37.2954197 C40.5790094,37.0188512 40.2513161,36.8805669 39.8580842,36.8805669 L32.3288488,36.8805669 C32.3288488,36.127686 32.7529225,35.3325516 33.6010698,34.4951636 C34.1253791,33.9958038 35.1161694,33.2890176 36.5734408,32.3748051 C38.0538434,31.468275 39.0831859,30.7153941 39.6614682,30.1161623 C40.6484033,29.1174427 41.1418708,28.0034863 41.1418708,26.7742929 C41.1418708,25.3760855 40.6445481,24.1814632 39.6499025,23.1904261 C38.655257,22.199389 37.4524298,21.7038704 36.0414211,21.7038704 L31.3920315,21.7038704 C31.0065099,21.7038704 30.6749614,21.8383134 30.3973859,22.1071995 C30.1198104,22.383768 29.9810227,22.7141137 29.9810227,23.0982366 L29.9810227,23.121284 C29.9810227,23.5054069 30.1198104,23.8357526 30.3973859,24.1123211 C30.6749614,24.3812071 31.0065099,24.5156502 31.3920315,24.5156502 L36.0414211,24.5156502 C36.6659659,24.5156502 37.2018409,24.7384414 37.6490458,25.184024 C38.0885404,25.6219242 38.3082876,26.1520138 38.3082876,26.7742929 C38.3082876,27.4580317 37.8880692,28.149453 37.0476322,28.8485567 C36.7469255,29.0867129 35.7368591,29.758928 34.0174331,30.865202 C32.5987138,31.7640496 31.5539505,32.6052788 30.8831431,33.3888896 C29.9039184,34.5335759 29.4143061,35.8127052 29.4143061,37.2262776 L29.4143061,38.3095042 C29.4143061,38.7013096 29.5530938,39.027814 29.8306693,39.2890176 C30.1082448,39.5655861 30.4359381,39.7038704 30.8137492,39.7038704 L39.8580842,39.7038704 Z" id="path-15"></path>
        <filter x="-20.5%" y="-13.5%" width="141.0%" height="143.7%" filterUnits="objectBoundingBox" id="filter-16">
            <feMorphology radius="0.93" operator="dilate" in="SourceAlpha" result="shadowSpreadOuter1"></feMorphology>
            <feOffset dx="0" dy="3" in="shadowSpreadOuter1" result="shadowOffsetOuter1"></feOffset>
            <feComposite in="shadowOffsetOuter1" in2="SourceAlpha" operator="out" result="shadowOffsetOuter1"></feComposite>
            <feColorMatrix values="0 0 0 0 0.440778071   0 0 0 0 0.416154419   0 0 0 0 0.887459575  0 0 0 1 0" type="matrix" in="shadowOffsetOuter1"></feColorMatrix>
        </filter>
    </defs>
    <g id="Page-1" stroke="none" stroke-width="1" fill="none" fill-rule="evenodd">
        <g id="Dashboard08" transform="translate(-186.000000, -413.000000)">
            <g id="Group-2" transform="translate(186.000000, 413.000000)">
                <circle id="Oval" stroke="url(#linearGradient-2)" stroke-width="0.93" fill="url(#linearGradient-1)" cx="34.3846154" cy="32.7153846" r="25.5948718"></circle>
                <g id="Group-7" opacity="0.699999988" transform="translate(33.719819, 33.109382) rotate(70.000000) translate(-33.719819, -33.109382) translate(8.219819, 7.109382)">
                    <mask id="mask-5" fill="white">
                        <use xlink:href="#path-4"></use>
                    </mask>
                    <use id="Mask" fill="url(#linearGradient-3)" xlink:href="#path-4"></use>
                    <g mask="url(#mask-5)" id="Rectangle">
                        <g transform="translate(-7.568771, -3.954817)">
                            <polygon fill="url(#linearGradient-6)" points="25.1865237 0 37.9932306 0 34.5781088 54.1929937 31.5898771 54.1929937"></polygon>
                            <polygon fill="url(#linearGradient-7)" transform="translate(44.401004, 33.072428) rotate(30.000000) translate(-44.401004, -33.072428) " points="37.9983016 5.97486538 50.8037055 5.97260836 47.3793764 60.1717204 44.3914488 60.172247"></polygon>
                            <polygon fill="url(#linearGradient-8)" transform="translate(19.205773, 33.926089) rotate(-30.000000) translate(-19.205773, -33.926089) " points="12.8030707 6.82600605 25.6084746 6.82826308 22.2032549 61.0261714 19.2153274 61.0256447"></polygon>
                        </g>
                    </g>
                </g>
                <circle id="Oval" fill="url(#linearGradient-3)" cx="34.55" cy="32.9935897" r="19.1961538"></circle>
                <g id="Group-7" transform="translate(15.353846, 13.797436)">
                    <mask id="mask-11" fill="white">
                        <use xlink:href="#path-10"></use>
                    </mask>
                    <g id="Mask">
                        <use fill="black" fill-opacity="1" filter="url(#filter-12)" xlink:href="#path-10"></use>
                        <circle stroke="url(#linearGradient-9)" stroke-width="1.86" fill="url(#linearGradient-3)" fill-rule="evenodd" cx="19.1961538" cy="19.1961538" r="20.1261538"></circle>
                    </g>
                    <g mask="url(#mask-11)" fill="url(#linearGradient-13)" id="Rectangle">
                        <g transform="translate(-6.562788, -3.281394)">
                            <polygon points="19.3602235 0 29.204405 0 26.5792899 41.6737015 24.2823143 41.6737015"></polygon>
                            <polygon transform="translate(34.126496, 25.430802) rotate(30.000000) translate(-34.126496, -25.430802) " points="29.204405 4.59395135 39.0485865 4.59395135 36.4234714 46.2676529 34.1264957 46.2676529"></polygon>
                            <polygon transform="translate(14.766272, 26.087081) rotate(-30.000000) translate(-14.766272, -26.087081) " points="9.84418146 5.25023011 19.6883629 5.25023011 17.0632479 46.9239316 14.7662722 46.9239316"></polygon>
                        </g>
                    </g>
                </g>
                <g id="Group-8" opacity="0.600000024" transform="translate(20.917949, 17.692308)" fill="url(#linearGradient-14)" fill-rule="nonzero">
                    <path d="M0.114853632,9.59385201 C0.289457382,9.36143492 0.599601882,9.33050934 0.808221903,9.52498227 C0.820937041,9.53684236 0.854944951,9.56889809 0.907717671,9.6209102 L1.00063436,9.71386574 C1.85150083,10.5767698 5.22248669,14.2961653 6.74527375,20.4586016 C6.92341676,21.1408653 5.96001567,21.4433219 5.79563646,20.7506034 C4.25814615,14.5287855 0.647658897,10.831145 0.21777935,10.4081501 L0.17600427,10.3676496 C-0.0322225003,10.1726649 -0.0596190347,9.8262691 0.114853632,9.59385201 Z M26.0090361,9.52492982 C26.2179038,9.33048998 26.528615,9.36146011 26.7032507,9.59395524 C26.8777552,9.82652341 26.8500811,10.1726 26.6413445,10.3670399 C26.5878324,10.4172933 22.6447252,14.1701577 21.0188361,20.7402086 C20.9473555,21.0348631 20.6680564,21.2042493 20.4127591,21.123464 C20.1503793,21.0429709 19.9963353,20.7407199 20.0686684,20.4484758 C21.592306,14.2917171 24.9651745,10.5757483 25.8165162,9.71363927 L25.9094848,9.62076937 C25.962287,9.56880518 25.9963139,9.53677898 26.0090361,9.52492982 Z M12.2671465,8.1743691 C12.5025885,8.01688948 12.812038,8.09175331 12.9601873,8.34297421 C12.9938698,8.40003724 13.7849388,9.76696606 13.7849388,11.9901275 C13.7849388,12.2880037 13.5591587,12.5295347 13.2807078,12.5295347 C13.0022569,12.5295347 12.7764768,12.2880037 12.7764768,11.9901275 C12.7764768,10.0973574 12.1128243,8.92824714 12.1061817,8.9166192 C11.9601124,8.6641063 12.0317045,8.33170516 12.2671465,8.1743691 Z M21.7251886,6.9186495 C21.9325879,6.72615399 22.2489168,6.74690369 22.4318652,6.96505592 C22.6148802,7.18320815 22.595093,7.51611462 22.3877604,7.70861012 C21.6403768,8.4025333 20.997459,9.6324436 20.9910631,9.64478126 C20.8579492,9.90247007 20.5498816,9.9928995 20.3119021,9.85487195 L20.362,9.878 L20.4542057,10.2188129 C20.4627687,10.2506101 20.4796986,10.2758405 20.5010734,10.2885853 L21.0004389,10.5859929 C21.0710018,10.6280292 21.0710018,10.7766034 21.0004389,10.8185964 L20.5010734,11.116004 C20.4796986,11.1287488 20.462736,11.153936 20.4542057,11.1857764 L20.2543157,11.9287337 C20.2260775,12.0337164 20.1261979,12.0337164 20.0979596,11.9287337 L19.8980696,11.1857764 C19.8895066,11.1539792 19.8725768,11.1287488 19.851202,11.116004 L19.3518365,10.8185964 C19.2812736,10.7765601 19.2812736,10.627986 19.3518365,10.5859929 L19.851202,10.2885853 C19.8725768,10.2758405 19.8895393,10.2506533 19.8980696,10.2188129 L20.0748351,9.55319787 C20.0345243,9.42089126 20.0437258,9.2721605 20.1118314,9.14054958 C20.1412791,9.08362811 20.843825,7.73693066 21.7251886,6.9186495 Z M4.38604756,6.96510454 C4.56892502,6.74696194 4.88531301,6.72607296 5.09270737,6.91870017 C5.97398351,7.7369452 6.67657938,9.08351309 6.70602631,9.14043205 C6.83833765,9.39593647 6.74873103,9.71586025 6.50596037,9.85500327 C6.26791988,9.99281443 5.95999288,9.90245909 5.8269487,9.64471156 C5.82048636,9.63237445 5.17758383,8.40251845 4.43021796,7.70862591 C4.22289022,7.51613891 4.20310348,7.18324713 4.38604756,6.96510454 Z M9.97827045,6.08243993 L10.1781605,6.82539727 C10.1867234,6.85719448 10.2036533,6.88242488 10.2250281,6.89516968 L10.7243936,7.19257727 C10.7949565,7.23461353 10.7949565,7.38318771 10.7243936,7.42518077 L10.2250281,7.72258836 C10.2036533,7.73533316 10.1866908,7.76052035 10.1781605,7.79236077 L9.97827045,8.53531811 C9.95003222,8.64030074 9.85015258,8.64030074 9.82191435,8.53531811 L9.62202433,7.79236077 C9.61346135,7.76056356 9.59653149,7.73533316 9.57515672,7.72258836 L9.07579118,7.42518077 C9.0052283,7.38314451 9.0052283,7.23457032 9.07579118,7.19257727 L9.57515672,6.89516968 C9.59653149,6.88242488 9.61349403,6.85723768 9.62202433,6.82539727 L9.82191435,6.08243993 C9.85015258,5.9775005 9.95003222,5.9775005 9.97827045,6.08243993 Z M3.23098021,1.50982594 L3.80210136,3.44154041 C3.82655324,3.52428175 3.87497212,3.58977489 3.93606719,3.62293809 L5.36279639,4.39619048 C5.56436856,4.50542905 5.56436856,4.89172195 5.36279639,5.00104384 L3.93606719,5.77429623 C3.87497212,5.8073761 3.82655324,5.87295257 3.80210136,5.95561059 L3.23098021,7.88732506 C3.15028207,8.16021316 2.86496394,8.16021316 2.78426581,7.88732506 L2.21314466,5.95561059 C2.18869278,5.87286925 2.1402739,5.8073761 2.07917883,5.77429623 L0.652449628,5.00104384 C0.450877459,4.89180527 0.450877459,4.50542905 0.652449628,4.39619048 L2.07917883,3.62293809 C2.1402739,3.58985822 2.18869278,3.52428175 2.21314466,3.44154041 L2.78426581,1.50982594 C2.86496394,1.23693783 3.15028207,1.23693783 3.23098021,1.50982594 Z M26.1082728,3.26618144 L26.5366086,4.52920892 C26.5549578,4.58326417 26.5912361,4.62615584 26.6370392,4.64782201 L27.7071082,5.15341492 C27.8583144,5.22487655 27.8583144,5.47745267 27.7071082,5.54884086 L26.6370392,6.05443376 C26.5912361,6.07609993 26.5548878,6.11891816 26.5366086,6.17304686 L26.1082728,7.43607434 C26.0477623,7.61454481 25.8337345,7.61454481 25.7732241,7.43607434 L25.3448883,6.17304686 C25.326539,6.1189916 25.2902608,6.07609993 25.2444577,6.05443376 L24.1743887,5.54884086 C24.0231825,5.47737922 24.0231825,5.22480311 24.1743887,5.15341492 L25.2444577,4.64782201 C25.2902608,4.62615584 25.3266091,4.58333762 25.3448883,4.52920892 L25.7732241,3.26618144 C25.8337345,3.08778441 26.0477623,3.08778441 26.1082728,3.26618144 Z M17.5444675,5.48167142 L17.5444675,6.78683128 L16.2912913,6.78683128 L16.2912913,5.48167142 L17.5444675,5.48167142 Z M19.5319212,1.96537665 C19.6942198,1.2313872 20.3823827,0.777022449 21.0689761,0.950524582 C21.7555695,1.12402671 22.1805945,1.859694 22.0182959,2.59368346 C21.8559974,3.32767291 21.1678345,3.78203766 20.4812411,3.60853553 C19.7946476,3.43503339 19.3696227,2.69936611 19.5319212,1.96537665 Z M11.4039039,1.82722381 C11.749959,1.82722381 12.030492,2.11939379 12.030492,2.47980374 C12.030492,2.84021368 11.749959,3.13238367 11.4039039,3.13238367 C11.0578488,3.13238367 10.7773158,2.84021368 10.7773158,2.47980374 C10.7773158,2.11939379 11.0578488,1.82722381 11.4039039,1.82722381 Z M8.02032802,1.82722381 L8.02032802,3.13238367 L6.76715177,3.13238367 L6.76715177,1.82722381 L8.02032802,1.82722381 Z M15.492246,0.0787045726 L15.692136,0.821661913 C15.700699,0.853459122 15.7176288,0.878689516 15.7390036,0.891434321 L16.2383691,1.18884191 C16.308932,1.23087817 16.308932,1.37945235 16.2383691,1.42144541 L15.7390036,1.718853 C15.7176288,1.7315978 15.7006663,1.75678499 15.692136,1.78862541 L15.492246,2.53158275 C15.4640077,2.63656538 15.3641281,2.63656538 15.3358899,2.53158275 L15.1359998,1.78862541 C15.1274369,1.7568282 15.110507,1.7315978 15.0891322,1.718853 L14.5897667,1.42144541 C14.5192038,1.37940915 14.5192038,1.23083496 14.5897667,1.18884191 L15.0891322,0.891434321 C15.110507,0.878689516 15.1274695,0.853502325 15.1359998,0.821661913 L15.3358899,0.0787045726 C15.3641281,-0.0262348575 15.4640077,-0.0262348575 15.492246,0.0787045726 Z" id="Combined-Shape"></path>
                </g>
                <g id="Lv2" fill-rule="nonzero">
                    <use fill="black" fill-opacity="1" filter="url(#filter-16)" xlink:href="#path-15"></use>
                    <use stroke="#FFFFFF" stroke-width="1.86" fill="#FFFFFF" xlink:href="#path-15"></use>
                </g>
            </g>
        </g>
    </g>
</svg>