<?xml version="1.0" encoding="UTF-8"?>
<svg width="67px" height="66px" viewBox="0 0 67 66" version="1.1" xmlns="http://www.w3.org/2000/svg" xmlns:xlink="http://www.w3.org/1999/xlink">
    <title>buy</title>
    <defs>
        <linearGradient x1="80.0030147%" y1="6.57893407%" x2="50%" y2="100%" id="linearGradient-1">
            <stop stop-color="#FFFFFF" offset="0%"></stop>
            <stop stop-color="#FFFFFF" offset="99.2505054%"></stop>
        </linearGradient>
        <linearGradient x1="50%" y1="0%" x2="50%" y2="100%" id="linearGradient-2">
            <stop stop-color="#E1E1E1" offset="0%"></stop>
            <stop stop-color="#BABABA" offset="100%"></stop>
        </linearGradient>
        <linearGradient x1="50%" y1="100%" x2="86.0472226%" y2="12.9406257%" id="linearGradient-3">
            <stop stop-color="#BDC1C1" offset="0%"></stop>
            <stop stop-color="#FFFFFF" offset="100%"></stop>
        </linearGradient>
        <circle id="path-4" cx="25.0471761" cy="25.0471761" r="25.0471761"></circle>
        <linearGradient x1="50%" y1="100%" x2="51.6755352%" y2="6.57893407%" id="linearGradient-6">
            <stop stop-color="#B8BABB" offset="0%"></stop>
            <stop stop-color="#ACACAC" offset="100%"></stop>
        </linearGradient>
        <linearGradient x1="50%" y1="100%" x2="51.6747835%" y2="6.57893407%" id="linearGradient-7">
            <stop stop-color="#B8BABB" offset="0%"></stop>
            <stop stop-color="#ACACAC" offset="100%"></stop>
        </linearGradient>
        <linearGradient x1="50%" y1="100%" x2="51.6747509%" y2="6.57893407%" id="linearGradient-8">
            <stop stop-color="#B8BABB" offset="0%"></stop>
            <stop stop-color="#ACACAC" offset="100%"></stop>
        </linearGradient>
        <linearGradient x1="50%" y1="100%" x2="86.0472226%" y2="12.9406257%" id="linearGradient-9">
            <stop stop-color="#A99DF1" offset="0%"></stop>
            <stop stop-color="#F4F2FF" offset="100%"></stop>
        </linearGradient>
        <linearGradient x1="50%" y1="100%" x2="86.0472226%" y2="12.9406257%" id="linearGradient-10">
            <stop stop-color="#E7E7E7" offset="0%"></stop>
            <stop stop-color="#F0F0F0" offset="100%"></stop>
        </linearGradient>
        <linearGradient x1="50%" y1="0%" x2="50%" y2="100%" id="linearGradient-11">
            <stop stop-color="#FFFFFF" offset="0%"></stop>
            <stop stop-color="#BEBEBE" offset="100%"></stop>
        </linearGradient>
        <circle id="path-12" cx="19.1961538" cy="19.1961538" r="19.1961538"></circle>
        <filter x="-30.9%" y="-25.7%" width="161.8%" height="161.8%" filterUnits="objectBoundingBox" id="filter-14">
            <feMorphology radius="2.36" operator="dilate" in="SourceAlpha" result="shadowSpreadOuter1"></feMorphology>
            <feOffset dx="0" dy="2" in="shadowSpreadOuter1" result="shadowOffsetOuter1"></feOffset>
            <feGaussianBlur stdDeviation="2.5" in="shadowOffsetOuter1" result="shadowBlurOuter1"></feGaussianBlur>
            <feComposite in="shadowBlurOuter1" in2="SourceAlpha" operator="out" result="shadowBlurOuter1"></feComposite>
            <feColorMatrix values="0 0 0 0 0.216319237   0 0 0 0 0.204738816   0 0 0 0 0.426392044  0 0 0 0.458978933 0" type="matrix" in="shadowBlurOuter1"></feColorMatrix>
        </filter>
        <linearGradient x1="50%" y1="100%" x2="51.6741716%" y2="6.57893407%" id="linearGradient-15">
            <stop stop-color="#D8D8D8" offset="0%"></stop>
            <stop stop-color="#DEDEDE" offset="100%"></stop>
        </linearGradient>
        <linearGradient x1="308.136704%" y1="40.1730245%" x2="308.136704%" y2="106.783986%" id="linearGradient-16">
            <stop stop-color="#FFFFFF" offset="0%"></stop>
            <stop stop-color="#F5F5F5" stop-opacity="0.549415428" offset="64.7510797%"></stop>
            <stop stop-color="#EDEDED" stop-opacity="0.372379543" offset="100%"></stop>
        </linearGradient>
        <path d="M12.850342,22.3076923 C14.3723898,22.3076923 15.6724724,21.7852851 16.7505897,20.7404708 C17.8287069,19.6956565 18.3677656,18.4395745 18.3677656,16.972225 C18.3677656,15.212942 17.7652883,13.8877179 16.5603337,12.9965527 C17.5829596,12.1668472 18.0942726,10.9607013 18.0942726,9.37811484 C18.0942726,7.97990742 17.5829596,6.78528514 16.5603337,5.79424801 C15.5297804,4.80321087 14.2931165,4.30769231 12.850342,4.30769231 L12.850342,4.30769231 L9.52086218,4.30769231 C9.13242288,4.30769231 8.79551123,4.44213533 8.51012725,4.71102137 C8.22474327,4.98758987 8.08205128,5.31793559 8.08205128,5.7020585 L8.08205128,5.7020585 L8.08205128,5.72510588 C8.08205128,6.1092288 8.22474327,6.43957451 8.51012725,6.71614301 C8.79551123,6.98502906 9.13242288,7.11947208 9.52086218,7.11947208 L9.52086218,7.11947208 L12.850342,7.11947208 C13.4845286,7.11947208 14.0315145,7.34226337 14.4912998,7.78784596 C14.9431578,8.22574608 15.1690868,8.75583571 15.1690868,9.37811484 C15.1690868,10.0080764 14.9431578,10.5420073 14.4912998,10.9799074 C14.0394419,11.4101251 13.4924559,11.6252339 12.850342,11.6252339 L12.850342,11.6252339 L10.0440661,11.6367576 C9.64769951,11.6367576 9.3068242,11.7712006 9.02144022,12.0400867 C8.74398357,12.3166552 8.60525525,12.6470009 8.60525525,13.0311238 L8.60525525,13.0311238 L8.60525525,13.0541712 C8.60525525,13.4382941 8.74398357,13.7647986 9.02144022,14.0336846 C9.3068242,14.3102531 9.64769951,14.4485374 10.0440661,14.4485374 L10.0440661,14.4485374 L12.850342,14.4485374 C13.5717292,14.4485374 14.1860975,14.694376 14.6934468,15.1860534 C15.1928688,15.6777307 15.4425798,16.2731212 15.4425798,16.972225 C15.4425798,17.6713287 15.1928688,18.2667192 14.6934468,18.7583965 C14.1860975,19.2423914 13.5717292,19.4843889 12.850342,19.4843889 L12.850342,19.4843889 L9.52086218,19.4843889 C9.13242288,19.4843889 8.79551123,19.6226731 8.51012725,19.8992416 C8.22474327,20.1758101 8.08205128,20.5061558 8.08205128,20.8902787 L8.08205128,20.8902787 L8.08205128,20.9133261 C8.08205128,21.3051315 8.22474327,21.631636 8.51012725,21.8928396 C8.79551123,22.1694081 9.13242288,22.3076923 9.52086218,22.3076923 L9.52086218,22.3076923 L12.850342,22.3076923 Z" id="path-17"></path>
        <filter x="-23.6%" y="-13.5%" width="147.3%" height="143.7%" filterUnits="objectBoundingBox" id="filter-18">
            <feMorphology radius="0.93" operator="dilate" in="SourceAlpha" result="shadowSpreadOuter1"></feMorphology>
            <feOffset dx="0" dy="3" in="shadowSpreadOuter1" result="shadowOffsetOuter1"></feOffset>
            <feComposite in="shadowOffsetOuter1" in2="SourceAlpha" operator="out" result="shadowOffsetOuter1"></feComposite>
            <feColorMatrix values="0 0 0 0 0.549019608   0 0 0 0 0.545098039   0 0 0 0 0.564705882  0 0 0 1 0" type="matrix" in="shadowOffsetOuter1"></feColorMatrix>
        </filter>
    </defs>
    <g id="mobile" stroke="none" stroke-width="1" fill="none" fill-rule="evenodd">
        <g id="buy" transform="translate(0.848010, 0.194389)">
            <circle id="Oval" stroke="url(#linearGradient-2)" stroke-width="0.93" fill="url(#linearGradient-1)" cx="33.5366057" cy="31.5209955" r="25.5948718"></circle>
            <g id="Group-7" opacity="0.699999988" transform="translate(32.683675, 32.683675) rotate(70.000000) translate(-32.683675, -32.683675) translate(7.183675, 7.183675)">
                <mask id="mask-5" fill="white">
                    <use xlink:href="#path-4"></use>
                </mask>
                <use id="Mask" fill="url(#linearGradient-3)" xlink:href="#path-4"></use>
                <g mask="url(#mask-5)" id="Rectangle">
                    <g transform="translate(-8.568771, -3.954817)">
                        <polygon fill="url(#linearGradient-6)" points="25.1865237 0 37.9932306 0 34.5781088 54.1929937 31.5898771 54.1929937"></polygon>
                        <polygon fill="url(#linearGradient-7)" transform="translate(44.401004, 33.072428) rotate(30.000000) translate(-44.401004, -33.072428) " points="37.9983016 5.97486538 50.8037055 5.97260836 47.3793764 60.1717204 44.3914488 60.172247"></polygon>
                        <polygon fill="url(#linearGradient-8)" transform="translate(19.205773, 33.926089) rotate(-30.000000) translate(-19.205773, -33.926089) " points="12.8030707 6.82600605 25.6084746 6.82826308 22.2032549 61.0261714 19.2153274 61.0256447"></polygon>
                    </g>
                </g>
            </g>
            <circle id="Oval" fill="url(#linearGradient-9)" cx="33.7019903" cy="31.7992006" r="19.1961538"></circle>
            <g id="Group-7" transform="translate(14.505836, 12.603047)">
                <mask id="mask-13" fill="white">
                    <use xlink:href="#path-12"></use>
                </mask>
                <g id="Mask">
                    <use fill="black" fill-opacity="1" filter="url(#filter-14)" xlink:href="#path-12"></use>
                    <circle stroke="url(#linearGradient-11)" stroke-width="1.86" fill="url(#linearGradient-10)" fill-rule="evenodd" cx="19.1961538" cy="19.1961538" r="20.1261538"></circle>
                </g>
                <g mask="url(#mask-13)" fill="url(#linearGradient-15)" id="Rectangle">
                    <g transform="translate(-6.477596, -3.281394)">
                        <polygon points="19.2750323 0 29.1192138 0 26.4940987 41.6737015 24.1971231 41.6737015"></polygon>
                        <polygon transform="translate(34.041305, 25.430802) rotate(30.000000) translate(-34.041305, -25.430802) " points="29.1192138 4.59395135 38.9633953 4.59395135 36.3382802 46.2676529 34.0413045 46.2676529"></polygon>
                        <polygon transform="translate(14.681081, 26.087081) rotate(-30.000000) translate(-14.681081, -26.087081) " points="9.75899026 5.25023011 19.6031717 5.25023011 16.9780567 46.9239316 14.681081 46.9239316"></polygon>
                    </g>
                </g>
            </g>
            <g id="Group-8" transform="translate(20.069939, 16.497919)" fill-rule="nonzero">
                <path d="M0.114853632,9.59385201 C0.289457382,9.36143492 0.599601882,9.33050934 0.808221903,9.52498227 C0.820937041,9.53684236 0.854944951,9.56889809 0.907717671,9.6209102 L1.00063436,9.71386574 C1.85150083,10.5767698 5.22248669,14.2961653 6.74527375,20.4586016 C6.92341676,21.1408653 5.96001567,21.4433219 5.79563646,20.7506034 C4.25814615,14.5287855 0.647658897,10.831145 0.21777935,10.4081501 L0.17600427,10.3676496 C-0.0322225003,10.1726649 -0.0596190347,9.8262691 0.114853632,9.59385201 Z M26.0090361,9.52492982 C26.2179038,9.33048998 26.528615,9.36146011 26.7032507,9.59395524 C26.8777552,9.82652341 26.8500811,10.1726 26.6413445,10.3670399 C26.5878324,10.4172933 22.6447252,14.1701577 21.0188361,20.7402086 C20.9473555,21.0348631 20.6680564,21.2042493 20.4127591,21.123464 C20.1503793,21.0429709 19.9963353,20.7407199 20.0686684,20.4484758 C21.592306,14.2917171 24.9651745,10.5757483 25.8165162,9.71363927 L25.9094848,9.62076937 C25.962287,9.56880518 25.9963139,9.53677898 26.0090361,9.52492982 Z M12.2671465,8.1743691 C12.5025885,8.01688948 12.812038,8.09175331 12.9601873,8.34297421 C12.9938698,8.40003724 13.7849388,9.76696606 13.7849388,11.9901275 C13.7849388,12.2880037 13.5591587,12.5295347 13.2807078,12.5295347 C13.0022569,12.5295347 12.7764768,12.2880037 12.7764768,11.9901275 C12.7764768,10.0973574 12.1128243,8.92824714 12.1061817,8.9166192 C11.9601124,8.6641063 12.0317045,8.33170516 12.2671465,8.1743691 Z M21.7251886,6.9186495 C21.9325879,6.72615399 22.2489168,6.74690369 22.4318652,6.96505592 C22.6148802,7.18320815 22.595093,7.51611462 22.3877604,7.70861012 C21.6403768,8.4025333 20.997459,9.6324436 20.9910631,9.64478126 C20.8579492,9.90247007 20.5498816,9.9928995 20.3119021,9.85487195 L20.362,9.878 L20.4542057,10.2188129 C20.4627687,10.2506101 20.4796986,10.2758405 20.5010734,10.2885853 L21.0004389,10.5859929 C21.0710018,10.6280292 21.0710018,10.7766034 21.0004389,10.8185964 L20.5010734,11.116004 C20.4796986,11.1287488 20.462736,11.153936 20.4542057,11.1857764 L20.2543157,11.9287337 C20.2260775,12.0337164 20.1261979,12.0337164 20.0979596,11.9287337 L19.8980696,11.1857764 C19.8895066,11.1539792 19.8725768,11.1287488 19.851202,11.116004 L19.3518365,10.8185964 C19.2812736,10.7765601 19.2812736,10.627986 19.3518365,10.5859929 L19.851202,10.2885853 C19.8725768,10.2758405 19.8895393,10.2506533 19.8980696,10.2188129 L20.0748351,9.55319787 C20.0345243,9.42089126 20.0437258,9.2721605 20.1118314,9.14054958 C20.1412791,9.08362811 20.843825,7.73693066 21.7251886,6.9186495 Z M4.38604756,6.96510454 C4.56892502,6.74696194 4.88531301,6.72607296 5.09270737,6.91870017 C5.97398351,7.7369452 6.67657938,9.08351309 6.70602631,9.14043205 C6.83833765,9.39593647 6.74873103,9.71586025 6.50596037,9.85500327 C6.26791988,9.99281443 5.95999288,9.90245909 5.8269487,9.64471156 C5.82048636,9.63237445 5.17758383,8.40251845 4.43021796,7.70862591 C4.22289022,7.51613891 4.20310348,7.18324713 4.38604756,6.96510454 Z M9.97827045,6.08243993 L10.1781605,6.82539727 C10.1867234,6.85719448 10.2036533,6.88242488 10.2250281,6.89516968 L10.7243936,7.19257727 C10.7949565,7.23461353 10.7949565,7.38318771 10.7243936,7.42518077 L10.2250281,7.72258836 C10.2036533,7.73533316 10.1866908,7.76052035 10.1781605,7.79236077 L9.97827045,8.53531811 C9.95003222,8.64030074 9.85015258,8.64030074 9.82191435,8.53531811 L9.62202433,7.79236077 C9.61346135,7.76056356 9.59653149,7.73533316 9.57515672,7.72258836 L9.07579118,7.42518077 C9.0052283,7.38314451 9.0052283,7.23457032 9.07579118,7.19257727 L9.57515672,6.89516968 C9.59653149,6.88242488 9.61349403,6.85723768 9.62202433,6.82539727 L9.82191435,6.08243993 C9.85015258,5.9775005 9.95003222,5.9775005 9.97827045,6.08243993 Z M3.23098021,1.50982594 L3.80210136,3.44154041 C3.82655324,3.52428175 3.87497212,3.58977489 3.93606719,3.62293809 L5.36279639,4.39619048 C5.56436856,4.50542905 5.56436856,4.89172195 5.36279639,5.00104384 L3.93606719,5.77429623 C3.87497212,5.8073761 3.82655324,5.87295257 3.80210136,5.95561059 L3.23098021,7.88732506 C3.15028207,8.16021316 2.86496394,8.16021316 2.78426581,7.88732506 L2.21314466,5.95561059 C2.18869278,5.87286925 2.1402739,5.8073761 2.07917883,5.77429623 L0.652449628,5.00104384 C0.450877459,4.89180527 0.450877459,4.50542905 0.652449628,4.39619048 L2.07917883,3.62293809 C2.1402739,3.58985822 2.18869278,3.52428175 2.21314466,3.44154041 L2.78426581,1.50982594 C2.86496394,1.23693783 3.15028207,1.23693783 3.23098021,1.50982594 Z M26.1082728,3.26618144 L26.5366086,4.52920892 C26.5549578,4.58326417 26.5912361,4.62615584 26.6370392,4.64782201 L27.7071082,5.15341492 C27.8583144,5.22487655 27.8583144,5.47745267 27.7071082,5.54884086 L26.6370392,6.05443376 C26.5912361,6.07609993 26.5548878,6.11891816 26.5366086,6.17304686 L26.1082728,7.43607434 C26.0477623,7.61454481 25.8337345,7.61454481 25.7732241,7.43607434 L25.3448883,6.17304686 C25.326539,6.1189916 25.2902608,6.07609993 25.2444577,6.05443376 L24.1743887,5.54884086 C24.0231825,5.47737922 24.0231825,5.22480311 24.1743887,5.15341492 L25.2444577,4.64782201 C25.2902608,4.62615584 25.3266091,4.58333762 25.3448883,4.52920892 L25.7732241,3.26618144 C25.8337345,3.08778441 26.0477623,3.08778441 26.1082728,3.26618144 Z M17.5444675,5.48167142 L17.5444675,6.78683128 L16.2912913,6.78683128 L16.2912913,5.48167142 L17.5444675,5.48167142 Z M19.5319212,1.96537665 C19.6942198,1.2313872 20.3823827,0.777022449 21.0689761,0.950524582 C21.7555695,1.12402671 22.1805945,1.859694 22.0182959,2.59368346 C21.8559974,3.32767291 21.1678345,3.78203766 20.4812411,3.60853553 C19.7946476,3.43503339 19.3696227,2.69936611 19.5319212,1.96537665 Z M11.4039039,1.82722381 C11.749959,1.82722381 12.030492,2.11939379 12.030492,2.47980374 C12.030492,2.84021368 11.749959,3.13238367 11.4039039,3.13238367 C11.0578488,3.13238367 10.7773158,2.84021368 10.7773158,2.47980374 C10.7773158,2.11939379 11.0578488,1.82722381 11.4039039,1.82722381 Z M8.02032802,1.82722381 L8.02032802,3.13238367 L6.76715177,3.13238367 L6.76715177,1.82722381 L8.02032802,1.82722381 Z M15.492246,0.0787045726 L15.692136,0.821661913 C15.700699,0.853459122 15.7176288,0.878689516 15.7390036,0.891434321 L16.2383691,1.18884191 C16.308932,1.23087817 16.308932,1.37945235 16.2383691,1.42144541 L15.7390036,1.718853 C15.7176288,1.7315978 15.7006663,1.75678499 15.692136,1.78862541 L15.492246,2.53158275 C15.4640077,2.63656538 15.3641281,2.63656538 15.3358899,2.53158275 L15.1359998,1.78862541 C15.1274369,1.7568282 15.110507,1.7315978 15.0891322,1.718853 L14.5897667,1.42144541 C14.5192038,1.37940915 14.5192038,1.23083496 14.5897667,1.18884191 L15.0891322,0.891434321 C15.110507,0.878689516 15.1274695,0.853502325 15.1359998,0.821661913 L15.3358899,0.0787045726 C15.3641281,-0.0262348575 15.4640077,-0.0262348575 15.492246,0.0787045726 Z" id="Combined-Shape" fill="url(#linearGradient-16)"></path>
                <g id="Lv3">
                    <use fill="black" fill-opacity="1" filter="url(#filter-18)" xlink:href="#path-17"></use>
                    <use stroke="#FFFFFF" stroke-width="1.86" fill="#FFFFFF" xlink:href="#path-17"></use>
                </g>
            </g>
        </g>
    </g>
</svg>