<?xml version="1.0" encoding="UTF-8"?>
<svg width="65px" height="65px" viewBox="0 0 65 65" version="1.1" xmlns="http://www.w3.org/2000/svg" xmlns:xlink="http://www.w3.org/1999/xlink">
    <title>Group 3</title>
    <defs>
        <linearGradient x1="80.0030147%" y1="6.57893407%" x2="50%" y2="100%" id="linearGradient-1">
            <stop stop-color="#FFFEF8" offset="0%"></stop>
            <stop stop-color="#FEEC9C" offset="100%"></stop>
        </linearGradient>
        <linearGradient x1="50%" y1="0%" x2="50%" y2="100%" id="linearGradient-2">
            <stop stop-color="#DCBA60" offset="0%"></stop>
            <stop stop-color="#E9D485" offset="100%"></stop>
        </linearGradient>
        <linearGradient x1="50%" y1="100%" x2="85.2943105%" y2="14.7590199%" id="linearGradient-3">
            <stop stop-color="#F4DD7B" offset="0%"></stop>
            <stop stop-color="#FFFFFF" offset="100%"></stop>
        </linearGradient>
        <circle id="path-4" cx="24.9929279" cy="24.9929279" r="24.9929279"></circle>
        <linearGradient x1="50%" y1="100%" x2="51.6755352%" y2="6.57893407%" id="linearGradient-6">
            <stop stop-color="#FFF6C7" offset="0%"></stop>
            <stop stop-color="#FBDA5F" offset="100%"></stop>
        </linearGradient>
        <linearGradient x1="50%" y1="100%" x2="51.6747835%" y2="6.57893407%" id="linearGradient-7">
            <stop stop-color="#FFF6C7" offset="0%"></stop>
            <stop stop-color="#FBDA5F" offset="100%"></stop>
        </linearGradient>
        <linearGradient x1="50%" y1="100%" x2="51.6747509%" y2="6.57893407%" id="linearGradient-8">
            <stop stop-color="#FFF6C7" offset="0%"></stop>
            <stop stop-color="#FBDA5F" offset="100%"></stop>
        </linearGradient>
        <linearGradient x1="50%" y1="100%" x2="86.0472226%" y2="12.9406257%" id="linearGradient-9">
            <stop stop-color="#A99DF1" offset="0%"></stop>
            <stop stop-color="#F4F2FF" offset="100%"></stop>
        </linearGradient>
        <linearGradient x1="80.0030147%" y1="6.57893407%" x2="50%" y2="100%" id="linearGradient-10">
            <stop stop-color="#E8B61B" offset="0%"></stop>
            <stop stop-color="#FEEC9C" offset="100%"></stop>
        </linearGradient>
        <linearGradient x1="50%" y1="100%" x2="80.0030147%" y2="6.57893407%" id="linearGradient-11">
            <stop stop-color="#FFF6C7" offset="0%"></stop>
            <stop stop-color="#FBDA5F" offset="100%"></stop>
        </linearGradient>
        <circle id="path-12" cx="19.1413141" cy="19.1413141" r="19.1413141"></circle>
        <filter x="-31.0%" y="-25.8%" width="162.0%" height="162.0%" filterUnits="objectBoundingBox" id="filter-14">
            <feMorphology radius="2.36" operator="dilate" in="SourceAlpha" result="shadowSpreadOuter1"></feMorphology>
            <feOffset dx="0" dy="2" in="shadowSpreadOuter1" result="shadowOffsetOuter1"></feOffset>
            <feGaussianBlur stdDeviation="2.5" in="shadowOffsetOuter1" result="shadowBlurOuter1"></feGaussianBlur>
            <feComposite in="shadowBlurOuter1" in2="SourceAlpha" operator="out" result="shadowBlurOuter1"></feComposite>
            <feColorMatrix values="0 0 0 0 0.617867069   0 0 0 0 0.421505148   0 0 0 0 0.0776736437  0 0 0 0.458978933 0" type="matrix" in="shadowBlurOuter1"></feColorMatrix>
        </filter>
        <linearGradient x1="50%" y1="100%" x2="51.6741716%" y2="6.57893407%" id="linearGradient-15">
            <stop stop-color="#FFF6C7" offset="0%"></stop>
            <stop stop-color="#FBDA5F" offset="100%"></stop>
        </linearGradient>
        <linearGradient x1="308.136704%" y1="40.1730245%" x2="308.136704%" y2="106.783986%" id="linearGradient-16">
            <stop stop-color="#FFFFFF" offset="0%"></stop>
            <stop stop-color="#F5F5F5" stop-opacity="0.549415428" offset="64.7510797%"></stop>
            <stop stop-color="#EDEDED" stop-opacity="0.372379543" offset="100%"></stop>
        </linearGradient>
        <path d="M32.7682907,39 C34.2903386,39 35.5904211,38.4775928 36.6685384,37.4327785 C37.7466557,36.3879641 38.2857143,35.1318822 38.2857143,33.6645327 C38.2857143,31.9052497 37.683237,30.5800256 36.4782824,29.6888604 C37.5009083,28.8591549 38.0122213,27.653009 38.0122213,26.0704225 C38.0122213,24.6722151 37.5009083,23.4775928 36.4782824,22.4865557 C35.4477291,21.4955186 34.2110652,21 32.7682907,21 L32.7682907,21 L29.4388109,21 C29.0503716,21 28.71346,21.134443 28.428076,21.4033291 C28.142692,21.6798976 28,22.0102433 28,22.3943662 L28,22.3943662 L28,22.4174136 C28,22.8015365 28.142692,23.1318822 28.428076,23.4084507 C28.71346,23.6773367 29.0503716,23.8117798 29.4388109,23.8117798 L29.4388109,23.8117798 L32.7682907,23.8117798 C33.4024773,23.8117798 33.9494633,24.0345711 34.4092486,24.4801536 C34.8611065,24.9180538 35.0870355,25.4481434 35.0870355,26.0704225 C35.0870355,26.7003841 34.8611065,27.234315 34.4092486,27.6722151 C33.9573906,28.1024328 33.4104046,28.3175416 32.7682907,28.3175416 L32.7682907,28.3175416 L29.9620149,28.3290653 C29.5656482,28.3290653 29.2247729,28.4635083 28.9393889,28.7323944 C28.6619323,29.0089629 28.523204,29.3393086 28.523204,29.7234315 L28.523204,29.7234315 L28.523204,29.7464789 C28.523204,30.1306018 28.6619323,30.4571063 28.9393889,30.7259923 C29.2247729,31.0025608 29.5656482,31.1408451 29.9620149,31.1408451 L29.9620149,31.1408451 L32.7682907,31.1408451 C33.489678,31.1408451 34.1040462,31.3866837 34.6113955,31.8783611 C35.1108175,32.3700384 35.3605285,32.9654289 35.3605285,33.6645327 C35.3605285,34.3636364 35.1108175,34.9590269 34.6113955,35.4507042 C34.1040462,35.9346991 33.489678,36.1766965 32.7682907,36.1766965 L32.7682907,36.1766965 L29.4388109,36.1766965 C29.0503716,36.1766965 28.71346,36.3149808 28.428076,36.5915493 C28.142692,36.8681178 28,37.1984635 28,37.5825864 L28,37.5825864 L28,37.6056338 C28,37.9974392 28.142692,38.3239437 28.428076,38.5851472 C28.71346,38.8617157 29.0503716,39 29.4388109,39 L29.4388109,39 L32.7682907,39 Z" id="path-17"></path>
        <filter x="-23.6%" y="-13.5%" width="147.3%" height="143.7%" filterUnits="objectBoundingBox" id="filter-18">
            <feMorphology radius="0.93" operator="dilate" in="SourceAlpha" result="shadowSpreadOuter1"></feMorphology>
            <feOffset dx="0" dy="3" in="shadowSpreadOuter1" result="shadowOffsetOuter1"></feOffset>
            <feComposite in="shadowOffsetOuter1" in2="SourceAlpha" operator="out" result="shadowOffsetOuter1"></feComposite>
            <feColorMatrix values="0 0 0 0 0.847058824   0 0 0 0 0.658823529   0 0 0 0 0.309803922  0 0 0 1 0" type="matrix" in="shadowOffsetOuter1"></feColorMatrix>
        </filter>
    </defs>
    <g id="Page-1" stroke="none" stroke-width="1" fill="none" fill-rule="evenodd">
        <g id="Dashboard08" transform="translate(-328.000000, -412.000000)">
            <g id="Group-10" transform="translate(298.000000, 399.000000)">
                <g id="Group-3" transform="translate(30.000000, 13.000000)">
                    <circle id="Oval" stroke="url(#linearGradient-2)" stroke-width="0.93" fill="url(#linearGradient-1)" cx="33.0675968" cy="31.6417642" r="25.3915392"></circle>
                    <g id="Group-7" opacity="0.699999988" transform="translate(32.868050, 32.236787) rotate(70.000000) translate(-32.868050, -32.236787) translate(7.868050, 7.236787)">
                        <mask id="mask-5" fill="white">
                            <use xlink:href="#path-4"></use>
                        </mask>
                        <use id="Mask" fill="url(#linearGradient-3)" xlink:href="#path-4"></use>
                        <g mask="url(#mask-5)" id="Rectangle">
                            <g transform="translate(-8.550212, -3.946252)">
                                <polygon fill="url(#linearGradient-6)" points="25.1319736 0 37.9109433 0 34.5032181 54.0756203 31.5214585 54.0756203"></polygon>
                                <polygon fill="url(#linearGradient-7)" transform="translate(44.304838, 33.000798) rotate(30.000000) translate(-44.304838, -33.000798) " points="37.9160033 5.96192477 50.6936727 5.95967264 47.2767602 60.041398 44.295304 60.0419235"></polygon>
                                <polygon fill="url(#linearGradient-8)" transform="translate(19.164176, 33.852610) rotate(-30.000000) translate(-19.164176, -33.852610) " points="12.7753413 6.81122201 25.5530107 6.81347414 22.1551662 60.8939983 19.17371 60.8934728"></polygon>
                            </g>
                        </g>
                    </g>
                    <circle id="Oval" fill="url(#linearGradient-9)" cx="33.0675968" cy="31.6417642" r="19.1413141"></circle>
                    <g id="Group-7" transform="translate(13.926283, 12.500450)">
                        <mask id="mask-13" fill="white">
                            <use xlink:href="#path-12"></use>
                        </mask>
                        <g id="Mask">
                            <use fill="black" fill-opacity="1" filter="url(#filter-14)" xlink:href="#path-12"></use>
                            <circle stroke="url(#linearGradient-11)" stroke-width="1.86" fill="url(#linearGradient-10)" fill-rule="evenodd" cx="19.1413141" cy="19.1413141" r="20.0713141"></circle>
                        </g>
                        <g mask="url(#mask-13)" fill="url(#linearGradient-15)" id="Rectangle">
                            <g transform="translate(-6.544039, -3.272020)">
                                <polygon points="19.3049151 0 29.1209736 0 26.503358 41.5546478 24.2129444 41.5546478"></polygon>
                                <polygon transform="translate(34.029003, 25.358151) rotate(30.000000) translate(-34.029003, -25.358151) " points="29.1209736 4.58082731 38.9370322 4.58082731 36.3194166 46.1354751 34.0290029 46.1354751"></polygon>
                                <polygon transform="translate(14.724088, 26.012555) rotate(-30.000000) translate(-14.724088, -26.012555) " points="9.81605853 5.23523122 19.6321171 5.23523122 17.0145015 46.789879 14.7240878 46.789879"></polygon>
                            </g>
                        </g>
                    </g>
                    <g id="Group-8" opacity="0.600000024" transform="translate(19.004590, 16.797480)" fill="url(#linearGradient-16)" fill-rule="nonzero">
                        <path d="M0.116114851,9.39433043 C0.292635942,9.16674688 0.606186169,9.13646445 0.817097067,9.32689296 C0.836379213,9.34431312 0.904096187,9.40622846 1.01162243,9.51184826 L1.13209896,9.63200693 C2.15258868,10.6644635 5.34398153,14.2502788 6.81934426,20.0331278 C6.99944348,20.7012026 6.02546318,20.9973691 5.85927891,20.319057 C4.21347153,13.8682551 0.218091562,10.1884746 0.17793699,10.1520355 C-0.0325763387,9.96110583 -0.0602737171,9.62191399 0.116114851,9.39433043 Z M26.2946439,9.32684161 C26.5058052,9.13644549 26.8199283,9.16677154 26.9964817,9.39443151 C27.1729025,9.62216301 27.1449244,9.96104235 26.9338957,10.1514385 C26.879796,10.2006468 22.8933891,13.8754635 21.249646,20.3088783 C21.1773804,20.597405 20.8950144,20.7632684 20.6369136,20.6841632 C20.3716526,20.6053441 20.215917,20.309379 20.2890444,20.0232126 C22.0219593,13.2409052 26.1210076,9.48347853 26.2946439,9.32684161 Z M12.4018532,8.00436824 C12.6398806,7.8501637 12.9527283,7.9234706 13.1025044,8.16946691 C13.1365568,8.22534321 13.9363126,9.56384426 13.9363126,11.740771 C13.9363126,12.0324524 13.7080532,12.2689602 13.4265446,12.2689602 C13.145036,12.2689602 12.9167766,12.0324524 12.9167766,11.740771 C12.9167766,9.88736455 12.2458364,8.74256802 12.2391209,8.7311819 C12.0914476,8.48392047 12.1638258,8.15843221 12.4018532,8.00436824 Z M21.9637551,6.77476361 C22.1734318,6.5862714 22.4932343,6.60658957 22.6781917,6.82020493 C22.8632165,7.03382028 22.843212,7.35980336 22.6336026,7.54829557 C21.8780119,8.22778735 21.2280342,9.43211944 21.2215681,9.44420051 C21.0869924,9.69653022 20.7755419,9.785079 20.5349491,9.64992198 L20.585,9.672 L20.6788154,10.0062941 C20.6874724,10.0374301 20.7045882,10.0621357 20.7261977,10.0746155 L21.2310468,10.365838 C21.3023845,10.407 21.3023845,10.5524843 21.2310468,10.593604 L20.7261977,10.8848265 C20.7045882,10.8973063 20.6874394,10.9219696 20.6788154,10.9531479 L20.4767304,11.6806541 C20.448182,11.7834534 20.3472056,11.7834534 20.3186573,11.6806541 L20.1165723,10.9531479 C20.1079153,10.9220119 20.0907995,10.8973063 20.06919,10.8848265 L19.5643409,10.593604 C19.4930031,10.552442 19.4930031,10.4069577 19.5643409,10.365838 L20.06919,10.0746155 C20.0907995,10.0621357 20.1079483,10.0374724 20.1165723,10.0062941 L20.2956817,9.35579685 C20.2544649,9.22592286 20.263602,9.07975205 20.3326814,8.95045524 C20.3624524,8.89471756 21.0727131,7.57602713 21.9637551,6.77476361 Z M4.43421118,6.82025254 C4.61909683,6.60664661 4.93895911,6.58619206 5.14863089,6.77481323 C6.03958441,7.57604137 6.74989555,8.89460494 6.77966584,8.95034016 C6.91343011,9.2005309 6.82283951,9.51380129 6.57740296,9.65005057 C6.33674852,9.7849957 6.02544015,9.69651947 5.890935,9.44413226 C5.8844017,9.43205172 5.23443939,8.22777281 4.47886662,7.54831104 C4.2692622,7.35982714 4.24925817,7.03385846 4.43421118,6.82025254 Z M10.0878428,5.95594454 L10.2899278,6.68345074 C10.2985849,6.71458667 10.3157006,6.73929235 10.3373101,6.7517721 L10.8421592,7.04299456 C10.913497,7.0841566 10.913497,7.22964091 10.8421592,7.27076064 L10.3373101,7.5619831 C10.3157006,7.57446286 10.2985518,7.59912624 10.2899278,7.63030447 L10.0878428,8.35781066 C10.0592945,8.46060999 9.95831807,8.46060999 9.92976976,8.35781066 L9.72768472,7.63030447 C9.71902771,7.59916854 9.70191194,7.57446286 9.68030246,7.5619831 L9.17545333,7.27076064 C9.1041156,7.22959861 9.1041156,7.08411429 9.17545333,7.04299456 L9.68030246,6.7517721 C9.70191194,6.73929235 9.71906076,6.71462897 9.72768472,6.68345074 L9.92976976,5.95594454 C9.95831807,5.85318752 10.0592945,5.85318752 10.0878428,5.95594454 Z M3.26645992,1.47842636 L3.8438526,3.36996732 C3.86857299,3.45098791 3.91752357,3.515119 3.97928953,3.54759251 L5.42168578,4.30476372 C5.62547143,4.41173047 5.62547143,4.7899897 5.42168578,4.89703805 L3.97928953,5.65420925 C3.91752357,5.68660117 3.86857299,5.75081386 3.8438526,5.83175285 L3.26645992,7.72329381 C3.18487563,7.99050671 2.89642439,7.99050671 2.8148401,7.72329381 L2.23744742,5.83175285 C2.21272703,5.75073227 2.16377645,5.68660117 2.10201049,5.65420925 L0.659614241,4.89703805 C0.455828589,4.7900713 0.455828589,4.41173047 0.659614241,4.30476372 L2.10201049,3.54759251 C2.16377645,3.51520059 2.21272703,3.45098791 2.23744742,3.36996732 L2.8148401,1.47842636 C2.89642439,1.21121347 3.18487563,1.21121347 3.26645992,1.47842636 Z M26.3949703,3.19825526 L26.8280097,4.43501579 C26.8465604,4.48794687 26.8832371,4.52994653 26.9295431,4.55116211 L28.0113627,5.04624029 C28.1642292,5.11621575 28.1642292,5.36353909 28.0113627,5.43344263 L26.9295431,5.92852081 C26.8832371,5.9497364 26.8464896,5.99166414 26.8280097,6.04466713 L26.3949703,7.28142766 C26.3337954,7.45618652 26.1174173,7.45618652 26.0562424,7.28142766 L25.623203,6.04466713 C25.6046523,5.99173606 25.5679756,5.9497364 25.5216696,5.92852081 L24.43985,5.43344263 C24.2869834,5.36346717 24.2869834,5.11614383 24.43985,5.04624029 L25.5216696,4.55116211 C25.5679756,4.52994653 25.6047231,4.48801879 25.623203,4.43501579 L26.0562424,3.19825526 C26.1174173,3.02356832 26.3337954,3.02356832 26.3949703,3.19825526 Z M17.7371251,5.3676701 L17.7371251,6.64568679 L16.4701876,6.64568679 L16.4701876,5.3676701 L17.7371251,5.3676701 Z M19.7464032,1.92450308 C19.9104839,1.20577826 20.6062036,0.760862856 21.3003366,0.930756697 C21.9944695,1.10065054 22.4241617,1.82101829 22.260081,2.5397431 C22.0960002,3.25846791 21.4002805,3.70338332 20.7061476,3.53348948 C20.0120146,3.36359563 19.5823224,2.64322789 19.7464032,1.92450308 Z M11.5291313,1.78922337 C11.8789864,1.78922337 12.1626,2.07531715 12.1626,2.42823171 C12.1626,2.78114628 11.8789864,3.06724006 11.5291313,3.06724006 C11.1792762,3.06724006 10.8956625,2.78114628 10.8956625,2.42823171 C10.8956625,2.07531715 11.1792762,1.78922337 11.5291313,1.78922337 Z M8.10840003,1.78922337 L8.10840003,3.06724006 L6.84146252,3.06724006 L6.84146252,1.78922337 L8.10840003,1.78922337 Z M15.6623678,0.077067768 L15.8644529,0.804573961 C15.8731099,0.835709889 15.8902256,0.860415571 15.9118351,0.872895325 L16.4166843,1.16411778 C16.488022,1.20527982 16.488022,1.35076414 16.4166843,1.39188387 L15.9118351,1.68310633 C15.8902256,1.69558608 15.8730768,1.72024946 15.8644529,1.75142769 L15.6623678,2.47893388 C15.6338195,2.58173321 15.5328431,2.58173321 15.5042948,2.47893388 L15.3022097,1.75142769 C15.2935527,1.72029176 15.276437,1.69558608 15.2548275,1.68310633 L14.7499784,1.39188387 C14.6786406,1.35072183 14.6786406,1.20523752 14.7499784,1.16411778 L15.2548275,0.872895325 C15.276437,0.860415571 15.2935858,0.835752193 15.3022097,0.804573961 L15.5042948,0.077067768 C15.5328431,-0.025689256 15.6338195,-0.025689256 15.6623678,0.077067768 Z" id="Combined-Shape"></path>
                    </g>
                    <g id="Lv3" fill-rule="nonzero">
                        <use fill="black" fill-opacity="1" filter="url(#filter-18)" xlink:href="#path-17"></use>
                        <use stroke="#FFFFFF" stroke-width="1.86" fill="#FFFFFF" xlink:href="#path-17"></use>
                    </g>
                </g>
            </g>
        </g>
    </g>
</svg>