<?xml version="1.0" encoding="UTF-8"?>
<svg width="34px" height="51px" viewBox="0 0 34 51" version="1.1" xmlns="http://www.w3.org/2000/svg" xmlns:xlink="http://www.w3.org/1999/xlink">
    <title>reward4</title>
    <defs>
        <polygon id="path-1" points="0.19090535 0.0218106996 17.2470782 0.0218106996 17.2470782 13.7528601 0.19090535 13.7528601"></polygon>
        <polygon id="path-3" points="0.101584362 0.0218106996 6.51866255 0.0218106996 6.51866255 13.7528601 0.101584362 13.7528601"></polygon>
        <polygon id="path-5" points="0.140164609 0.0218106996 6.5572428 0.0218106996 6.5572428 13.7528601 0.140164609 13.7528601"></polygon>
        <polygon id="path-7" points="0.0792798354 0.0218106996 6.49635802 0.0218106996 6.49635802 13.7528601 0.0792798354 13.7528601"></polygon>
        <polygon id="path-9" points="0.00835390947 0.0218106996 6.4254321 0.0218106996 6.4254321 13.7528601 0.00835390947 13.7528601"></polygon>
        <polygon id="path-11" points="0 0.125946502 33.8248354 0.125946502 33.8248354 33.9506173 0 33.9506173"></polygon>
    </defs>
    <g id="Page-1" stroke="none" stroke-width="1" fill="none" fill-rule="evenodd">
        <g id="Dashboard08" transform="translate(-377.000000, -1044.000000)">
            <g id="reward4" transform="translate(377.000000, 1044.000000)">
                <polygon id="Fill-1" fill="#892020" points="16.542963 0.205781893 11.3707407 13.9368519 23.0083951 13.9368519 28.6114815 0.205781893"></polygon>
                <g id="Group-126" transform="translate(0.000000, 0.183951)">
                    <path d="M23.9318107,14.3121605 L10.2622634,14.3121605 L10.2622634,13.698786 C10.2622634,13.0315021 10.8032099,12.4905556 11.4704938,12.4905556 L22.7235802,12.4905556 C23.3908642,12.4905556 23.9318107,13.0315021 23.9318107,13.698786 L23.9318107,14.3121605 Z M23.5416872,11.372037 L10.9396296,11.372037 C10.1122634,11.372037 9.44127572,12.0428189 9.44127572,12.8703909 L9.44127572,20.8954938 L25.0402469,20.8954938 L25.0402469,12.8703909 C25.0402469,12.0428189 24.3692593,11.372037 23.5416872,11.372037 L23.5416872,11.372037 Z" id="Fill-2" fill="#8D85CF"></path>
                    <g id="Group-6" transform="translate(5.761317, 0.000000)">
                        <mask id="mask-2" fill="white">
                            <use xlink:href="#path-1"></use>
                        </mask>
                        <g id="Clip-5"></g>
                        <polygon id="Fill-4" fill="#FA342B" mask="url(#mask-2)" points="0.19090535 0.0217901235 5.60942387 13.7528601 17.2470782 13.7528601 11.9513992 0.0217901235"></polygon>
                    </g>
                    <g id="Group-9" transform="translate(6.995885, 0.000000)">
                        <mask id="mask-4" fill="white">
                            <use xlink:href="#path-3"></use>
                        </mask>
                        <g id="Clip-8"></g>
                        <polygon id="Fill-7" fill="#FF740D" mask="url(#mask-4)" points="6.51866255 13.7528601 0.98882716 0.0217901235 0.101584362 0.0217901235 5.63141975 13.7528601"></polygon>
                    </g>
                    <g id="Group-12" transform="translate(9.670782, 0.000000)">
                        <mask id="mask-6" fill="white">
                            <use xlink:href="#path-5"></use>
                        </mask>
                        <g id="Clip-11"></g>
                        <polygon id="Fill-10" fill="#FF740D" mask="url(#mask-6)" points="6.5572428 13.7528601 1.02740741 0.0217901235 0.140164609 0.0217901235 5.67 13.7528601"></polygon>
                    </g>
                    <g id="Group-15" transform="translate(12.345679, 0.000000)">
                        <mask id="mask-8" fill="white">
                            <use xlink:href="#path-7"></use>
                        </mask>
                        <g id="Clip-14"></g>
                        <polygon id="Fill-13" fill="#FF740D" mask="url(#mask-8)" points="6.49635802 13.7528601 0.966522634 0.0217901235 0.0792798354 0.0217901235 5.60911523 13.7528601"></polygon>
                    </g>
                    <g id="Group-18" transform="translate(15.226337, 0.000000)">
                        <mask id="mask-10" fill="white">
                            <use xlink:href="#path-9"></use>
                        </mask>
                        <g id="Clip-17"></g>
                        <polygon id="Fill-16" fill="#FF740D" mask="url(#mask-10)" points="6.4254321 13.7528601 0.895596708 0.0217901235 0.00835390947 0.0217901235 5.5381893 13.7528601"></polygon>
                    </g>
                    <g id="Group-21" transform="translate(0.000000, 15.843621)">
                        <mask id="mask-12" fill="white">
                            <use xlink:href="#path-11"></use>
                        </mask>
                        <g id="Clip-20"></g>
                        <path d="M33.8248354,17.0382922 C33.8248354,26.3788272 26.2528189,33.9506379 16.9124897,33.9506379 C7.57195473,33.9506379 -6.17283951e-05,26.3788272 -6.17283951e-05,17.0382922 C-6.17283951e-05,7.6977572 7.57195473,0.125946502 16.9124897,0.125946502 C26.2528189,0.125946502 33.8248354,7.6977572 33.8248354,17.0382922" id="Fill-19" fill="#7F75D7" mask="url(#mask-12)"></path>
                    </g>
                    <path d="M16.912428,15.9695062 C16.7447325,15.9695062 16.5772428,15.9719753 16.4107819,15.9769136 C25.5190123,16.2423457 32.8212757,23.7092181 32.8212757,32.8818519 C32.8212757,42.0544856 25.5190123,49.5215638 16.4107819,49.7869959 C16.5772428,49.7917284 16.7447325,49.7941975 16.912428,49.7941975 C26.252963,49.7941975 33.8247737,42.2223868 33.8247737,32.8818519 C33.8247737,23.5415226 26.252963,15.9695062 16.912428,15.9695062" id="Fill-22" fill="#8D85CF"></path>
                    <path d="M30.7050617,32.8819136 C30.7050617,40.4994033 24.5297531,46.6745062 16.9124691,46.6745062 C9.29477366,46.6745062 3.11987654,40.4994033 3.11987654,32.8819136 C3.11987654,25.2644239 9.29477366,19.089321 16.9124691,19.089321 C24.5297531,19.089321 30.7050617,25.2644239 30.7050617,32.8819136" id="Fill-24" fill="#A8A2F1"></path>
                    <text id="4" font-family="HelveticaNeue-CondensedBlack, Helvetica Neue" font-size="16" font-style="condensed" font-weight="700" line-spacing="17" letter-spacing="-0.0399999991" fill="#FFFFFF">
                        <tspan x="11.9997885" y="39.4160494">4</tspan>
                    </text>
                    <path d="M15.2261523,42.4694239 C15.7652469,42.8937037 15.9090741,43.5984362 15.9090741,43.5984362 C15.9090741,43.5984362 15.1788272,43.6155144 14.6395267,43.1912346 C14.1004321,42.7671605 13.9566049,42.0622222 13.9566049,42.0622222 C13.9566049,42.0622222 14.6870576,42.045144 15.2261523,42.4694239" id="Fill-28" fill="#FFFFFF"></path>
                    <path d="M14.5740947,43.5718724 C15.2251235,43.3459465 15.9090741,43.5984156 15.9090741,43.5984156 C15.9090741,43.5984156 15.5376749,44.2173457 14.8868519,44.4434774 C14.2356173,44.6694033 13.5516667,44.4169342 13.5516667,44.4169342 C13.5516667,44.4169342 13.9232716,43.7980041 14.5740947,43.5718724" id="Fill-30" fill="#FFFFFF"></path>
                    <path d="M13.1217078,41.8989506 C13.5963992,42.3921605 13.6402263,43.1096502 13.6402263,43.1096502 C13.6402263,43.1096502 12.9143004,43.0277572 12.4398148,42.5345473 C11.9651235,42.0413374 11.9212963,41.3238477 11.9212963,41.3238477 C11.9212963,41.3238477 12.6470165,41.4057407 13.1217078,41.8989506" id="Fill-32" fill="#FFFFFF"></path>
                    <path d="M12.3217695,42.9026337 C12.998107,42.7668313 13.6400823,43.1096296 13.6400823,43.1096296 C13.6400823,43.1096296 13.1855556,43.6725926 12.5092181,43.8081893 C11.8328807,43.9439918 11.1909053,43.6011934 11.1909053,43.6011934 C11.1909053,43.6011934 11.6452263,43.0384362 12.3217695,42.9026337" id="Fill-34" fill="#FFFFFF"></path>
                    <path d="M11.4653704,41.0797119 C11.8548765,41.6406173 11.7826543,42.3558436 11.7826543,42.3558436 C11.7826543,42.3558436 11.0791564,42.1618107 10.6896502,41.6011111 C10.3005556,41.0402058 10.372572,40.3247737 10.372572,40.3247737 C10.372572,40.3247737 11.0758642,40.5188066 11.4653704,41.0797119" id="Fill-36" fill="#FFFFFF"></path>
                    <path d="M10.5141358,41.94607 C11.2038477,41.9174691 11.7826543,42.3559465 11.7826543,42.3559465 C11.7826543,42.3559465 11.2433539,42.8409259 10.553642,42.8695267 C9.86393004,42.8981276 9.28512346,42.4596502 9.28512346,42.4596502 C9.28512346,42.4596502 9.82421811,41.9748765 10.5141358,41.94607" id="Fill-38" fill="#FFFFFF"></path>
                    <path d="M9.91773663,39.8316872 C10.157037,40.46893 9.91074074,41.1454733 9.91074074,41.1454733 C9.91074074,41.1454733 9.27617284,40.7893004 9.03687243,40.1522634 C8.79757202,39.5150206 9.04386831,38.8382716 9.04386831,38.8382716 C9.04386831,38.8382716 9.67843621,39.1946502 9.91773663,39.8316872" id="Fill-40" fill="#FFFFFF"></path>
                    <path d="M8.78123457,40.4450617 C9.45716049,40.581893 9.91065844,41.1454733 9.91065844,41.1454733 C9.91065844,41.1454733 9.26786008,41.4872428 8.59193416,41.3502058 C7.91580247,41.2133745 7.46230453,40.6497942 7.46230453,40.6497942 C7.46230453,40.6497942 8.10510288,40.3080247 8.78123457,40.4450617" id="Fill-42" fill="#FFFFFF"></path>
                    <path d="M8.74788066,38.3859259 C8.82853909,39.0606173 8.42730453,39.6614403 8.42730453,39.6614403 C8.42730453,39.6614403 7.89561728,39.1684362 7.81516461,38.4937449 C7.73471193,37.8190535 8.13574074,37.2182305 8.13574074,37.2182305 C8.13574074,37.2182305 8.66742798,37.7112346 8.74788066,38.3859259" id="Fill-44" fill="#FFFFFF"></path>
                    <path d="M7.49683128,38.7191975 C8.12111111,39.0087037 8.42728395,39.6613786 8.42728395,39.6613786 C8.42728395,39.6613786 7.72090535,39.8447119 7.09662551,39.5552058 C6.47213992,39.2659053 6.16576132,38.6130247 6.16576132,38.6130247 C6.16576132,38.6130247 6.87234568,38.4296914 7.49683128,38.7191975" id="Fill-46" fill="#FFFFFF"></path>
                    <path d="M7.74960905,36.5659259 C7.69220165,37.2428807 7.17779835,37.7531687 7.17779835,37.7531687 C7.17779835,37.7531687 6.75619342,37.1659259 6.81360082,36.4889712 C6.87100823,35.8120165 7.38561728,35.3017284 7.38561728,35.3017284 C7.38561728,35.3017284 7.80701646,35.8889712 7.74960905,36.5659259" id="Fill-48" fill="#FFFFFF"></path>
                    <path d="M6.45596708,36.647716 C7.00946502,37.0536831 7.17777778,37.7532716 7.17777778,37.7532716 C7.17777778,37.7532716 6.44835391,37.7946296 5.89485597,37.3888683 C5.34135802,36.9829012 5.17325103,36.2833128 5.17325103,36.2833128 C5.17325103,36.2833128 5.9026749,36.241749 6.45596708,36.647716" id="Fill-50" fill="#FFFFFF"></path>
                    <path d="M7.23419753,34.8307202 C7.06855967,35.4901852 6.47843621,35.9138477 6.47843621,35.9138477 C6.47843621,35.9138477 6.15703704,35.2683745 6.32246914,34.6089095 C6.488107,33.9494444 7.07823045,33.5257819 7.07823045,33.5257819 C7.07823045,33.5257819 7.40004115,34.1712551 7.23419753,34.8307202" id="Fill-52" fill="#FFFFFF"></path>
                    <path d="M5.94376543,34.7099588 C6.42504115,35.1969959 6.47853909,35.9138683 6.47853909,35.9138683 C6.47853909,35.9138683 5.75179012,35.8412346 5.2705144,35.3541975 C4.78944444,34.8673663 4.73574074,34.1502881 4.73574074,34.1502881 C4.73574074,34.1502881 5.46248971,34.2229218 5.94376543,34.7099588" id="Fill-54" fill="#FFFFFF"></path>
                    <path d="M7.17833333,32.8967901 C6.8550823,33.4969959 6.17812757,33.7669547 6.17812757,33.7669547 C6.17812757,33.7669547 6.02524691,33.0640741 6.34849794,32.4638683 C6.67174897,31.8636626 7.3487037,31.5937037 7.3487037,31.5937037 C7.3487037,31.5937037 7.50158436,32.2965844 7.17833333,32.8967901" id="Fill-56" fill="#FFFFFF"></path>
                    <path d="M5.95623457,32.4715021 C6.30314815,33.0587449 6.17804527,33.7669753 6.17804527,33.7669753 C6.17804527,33.7669753 5.49080247,33.5231481 5.14409465,32.9356996 C4.79738683,32.3484568 4.92228395,31.6400206 4.92228395,31.6400206 C4.92228395,31.6400206 5.60932099,31.8842593 5.95623457,32.4715021" id="Fill-58" fill="#FFFFFF"></path>
                    <path d="M7.52314815,30.9448765 C7.06532922,31.4535185 6.343107,31.5594856 6.343107,31.5594856 C6.343107,31.5594856 6.3622428,30.8407613 6.81985597,30.3321193 C7.27746914,29.8236831 7.99989712,29.717716 7.99989712,29.717716 C7.99989712,29.717716 7.98076132,30.4362346 7.52314815,30.9448765" id="Fill-60" fill="#FFFFFF"></path>
                    <path d="M6.43687243,30.2488272 C6.63358025,30.899856 6.34304527,31.5595267 6.34304527,31.5595267 C6.34304527,31.5595267 5.73337449,31.1632305 5.53646091,30.5122016 C5.33975309,29.8611728 5.63049383,29.2017078 5.63049383,29.2017078 C5.63049383,29.2017078 6.24016461,29.5975926 6.43687243,30.2488272" id="Fill-62" fill="#FFFFFF"></path>
                    <path d="M8.22985597,29.3401646 C7.66668724,29.7327572 6.93849794,29.6739095 6.93849794,29.6739095 C6.93849794,29.6739095 7.12368313,28.9784362 7.68685185,28.5858436 C8.2504321,28.193251 8.97841564,28.2520988 8.97841564,28.2520988 C8.97841564,28.2520988 8.79302469,28.947572 8.22985597,29.3401646" id="Fill-64" fill="#FFFFFF"></path>
                    <path d="M7.3332716,28.4188683 C7.37421811,29.0968519 6.93841564,29.6740123 6.93841564,29.6740123 C6.93841564,29.6740123 6.43676955,29.1515844 6.39561728,28.4733951 C6.35487654,27.7954115 6.79067901,27.2184568 6.79067901,27.2184568 C6.79067901,27.2184568 7.29253086,27.740679 7.3332716,28.4188683" id="Fill-66" fill="#FFFFFF"></path>
                    <path d="M9.11337449,27.8882922 C8.49403292,28.1882922 7.78477366,28.0166872 7.78477366,28.0166872 C7.78477366,28.0166872 8.07942387,27.3588683 8.69876543,27.0590741 C9.318107,26.7590741 10.027572,26.930679 10.027572,26.930679 C10.027572,26.930679 9.73292181,27.5882922 9.11337449,27.8882922" id="Fill-68" fill="#FFFFFF"></path>
                    <path d="M8.37654321,26.8388889 C8.30781893,27.5148148 7.78477366,28.0166667 7.78477366,28.0166667 C7.78477366,28.0166667 7.37325103,27.4226337 7.44197531,26.7469136 C7.51069959,26.0709877 8.03374486,25.5691358 8.03374486,25.5691358 C8.03374486,25.5691358 8.44526749,26.162963 8.37654321,26.8388889" id="Fill-70" fill="#FFFFFF"></path>
                    <path d="M18.9700412,42.3781893 C18.4309465,42.8024691 18.2871193,43.5072016 18.2871193,43.5072016 C18.2871193,43.5072016 19.0173663,43.5242798 19.5566667,43.1 C20.0957613,42.6757202 20.2395885,41.9709877 20.2395885,41.9709877 C20.2395885,41.9709877 19.5091358,41.9539095 18.9700412,42.3781893" id="Fill-72" fill="#FFFFFF"></path>
                    <path d="M19.6218724,43.4806379 C18.9710494,43.2545062 18.2870988,43.5071811 18.2870988,43.5071811 C18.2870988,43.5071811 18.6584979,44.1261111 19.309321,44.3522428 C19.9605556,44.5781687 20.6443004,44.3256996 20.6443004,44.3256996 C20.6443004,44.3256996 20.2729012,43.7067695 19.6218724,43.4806379" id="Fill-74" fill="#FFFFFF"></path>
                    <path d="M20.8080247,41.8989506 C20.3333333,42.3921605 20.2895062,43.1096502 20.2895062,43.1096502 C20.2895062,43.1096502 21.0152263,43.0277572 21.4899177,42.5345473 C21.9646091,42.0413374 22.0084362,41.3238477 22.0084362,41.3238477 C22.0084362,41.3238477 21.282716,41.4057407 20.8080247,41.8989506" id="Fill-76" fill="#FFFFFF"></path>
                    <path d="M21.607963,42.9026337 C20.9316255,42.7668313 20.2896502,43.1096296 20.2896502,43.1096296 C20.2896502,43.1096296 20.7439712,43.6725926 21.4203086,43.8081893 C22.0966461,43.9439918 22.7388272,43.6011934 22.7388272,43.6011934 C22.7388272,43.6011934 22.2843004,43.0384362 21.607963,42.9026337" id="Fill-78" fill="#FFFFFF"></path>
                    <path d="M22.461749,41.0109053 C22.0722428,41.5718107 22.144465,42.2872428 22.144465,42.2872428 C22.144465,42.2872428 22.8477572,42.0932099 23.2372634,41.5323045 C23.6265638,40.9713992 23.5545473,40.2559671 23.5545473,40.2559671 C23.5545473,40.2559671 22.8510494,40.45 22.461749,41.0109053" id="Fill-80" fill="#FFFFFF"></path>
                    <path d="M23.4129835,41.8773457 C22.7232716,41.8487449 22.144465,42.2872222 22.144465,42.2872222 C22.144465,42.2872222 22.6837654,42.7722016 23.3734774,42.8008025 C24.0629835,42.8294033 24.6419959,42.3909259 24.6419959,42.3909259 C24.6419959,42.3909259 24.1026955,41.9059465 23.4129835,41.8773457" id="Fill-82" fill="#FFFFFF"></path>
                    <path d="M23.9561317,39.7957202 C23.7168313,40.432963 23.9631276,41.1095062 23.9631276,41.1095062 C23.9631276,41.1095062 24.5976955,40.7533333 24.8369959,40.1162963 C25.0762963,39.4790535 24.83,38.8023045 24.83,38.8023045 C24.83,38.8023045 24.1954321,39.1586831 23.9561317,39.7957202" id="Fill-84" fill="#FFFFFF"></path>
                    <path d="M25.0926337,40.4090947 C24.4167078,40.5459259 23.9632099,41.1095062 23.9632099,41.1095062 C23.9632099,41.1095062 24.6060082,41.4512757 25.2821399,41.3142387 C25.9580658,41.1774074 26.4115638,40.6138272 26.4115638,40.6138272 C26.4115638,40.6138272 25.7687654,40.2720576 25.0926337,40.4090947" id="Fill-86" fill="#FFFFFF"></path>
                    <path d="M25.1901029,38.2535185 C25.1094444,38.9282099 25.510679,39.5288272 25.510679,39.5288272 C25.510679,39.5288272 26.0423663,39.035823 26.1228189,38.3613374 C26.2034774,37.6866461 25.8022428,37.085823 25.8022428,37.085823 C25.8022428,37.085823 25.2705556,37.5788272 25.1901029,38.2535185" id="Fill-88" fill="#FFFFFF"></path>
                    <path d="M26.4413374,38.5867695 C25.8168519,38.8762757 25.510679,39.5289506 25.510679,39.5289506 C25.510679,39.5289506 26.2170576,39.712284 26.8415432,39.4227778 C27.465823,39.1334774 27.7722016,38.4805967 27.7722016,38.4805967 C27.7722016,38.4805967 27.0656173,38.2972634 26.4413374,38.5867695" id="Fill-90" fill="#FFFFFF"></path>
                    <path d="M26.0750206,36.532284 C26.132428,37.2092387 26.647037,37.7195267 26.647037,37.7195267 C26.647037,37.7195267 27.0684362,37.132284 27.0110288,36.4553292 C26.9538272,35.7783745 26.4392181,35.2680864 26.4392181,35.2680864 C26.4392181,35.2680864 26.0178189,35.8553292 26.0750206,36.532284" id="Fill-92" fill="#FFFFFF"></path>
                    <path d="M27.3686626,36.6139506 C26.8151646,37.0199177 26.6470576,37.7195062 26.6470576,37.7195062 C26.6470576,37.7195062 27.3764815,37.76107 27.9299794,37.3551029 C28.4834774,36.9491358 28.6513786,36.2495473 28.6513786,36.2495473 C28.6513786,36.2495473 27.9221605,36.2081893 27.3686626,36.6139506" id="Fill-94" fill="#FFFFFF"></path>
                    <path d="M26.5904321,34.7938477 C26.75607,35.4533128 27.3461934,35.8769753 27.3461934,35.8769753 C27.3461934,35.8769753 27.6677984,35.2315021 27.5023663,34.5722428 C27.3367284,33.9127778 26.7466049,33.4891152 26.7466049,33.4891152 C26.7466049,33.4891152 26.4247942,34.1343827 26.5904321,34.7938477" id="Fill-96" fill="#FFFFFF"></path>
                    <path d="M27.8808642,34.6731893 C27.3995885,35.1600206 27.3460905,35.8770988 27.3460905,35.8770988 C27.3460905,35.8770988 28.0730453,35.804465 28.5541152,35.317428 C29.0353909,34.8305967 29.0888889,34.1135185 29.0888889,34.1135185 C29.0888889,34.1135185 28.3621399,34.1861523 27.8808642,34.6731893" id="Fill-98" fill="#FFFFFF"></path>
                    <path d="M26.6372634,32.9244239 C26.9605144,33.5246296 27.6374691,33.7945885 27.6374691,33.7945885 C27.6374691,33.7945885 27.7903498,33.0917078 27.4670988,32.4915021 C27.1438477,31.8912963 26.466893,31.6213374 26.466893,31.6213374 C26.466893,31.6213374 26.3140123,32.3242181 26.6372634,32.9244239" id="Fill-100" fill="#FFFFFF"></path>
                    <path d="M27.8593621,32.4990329 C27.5124486,33.0862757 27.6375514,33.7947119 27.6375514,33.7947119 C27.6375514,33.7947119 28.3247942,33.550679 28.6712963,32.9634362 C29.0182099,32.3759877 28.893107,31.6677572 28.893107,31.6677572 C28.893107,31.6677572 28.20607,31.9117901 27.8593621,32.4990329" id="Fill-102" fill="#FFFFFF"></path>
                    <path d="M26.2759671,30.9712963 C26.733786,31.4799383 27.4560082,31.5859053 27.4560082,31.5859053 C27.4560082,31.5859053 27.4368724,30.8673868 26.9792593,30.3587449 C26.5216461,29.8501029 25.7992181,29.7441358 25.7992181,29.7441358 C25.7992181,29.7441358 25.8183539,30.4626543 26.2759671,30.9712963" id="Fill-104" fill="#FFFFFF"></path>
                    <path d="M27.3622428,30.2752469 C27.165535,30.9264815 27.45607,31.5859465 27.45607,31.5859465 C27.45607,31.5859465 28.0657407,31.189856 28.2626543,30.5388272 C28.4593621,29.8875926 28.1686214,29.2281276 28.1686214,29.2281276 C28.1686214,29.2281276 27.5589506,29.6242181 27.3622428,30.2752469" id="Fill-106" fill="#FFFFFF"></path>
                    <path d="M25.5893621,29.3938272 C26.1527366,29.7864198 26.8807202,29.727572 26.8807202,29.727572 C26.8807202,29.727572 26.695535,29.0320988 26.1323663,28.6395062 C25.568786,28.2469136 24.8408025,28.3057613 24.8408025,28.3057613 C24.8408025,28.3057613 25.0261934,29.0012346 25.5893621,29.3938272" id="Fill-108" fill="#FFFFFF"></path>
                    <path d="M26.4859465,28.472428 C26.445,29.1504115 26.8808025,29.727572 26.8808025,29.727572 C26.8808025,29.727572 27.3826543,29.205144 27.4236008,28.5271605 C27.4643416,27.8489712 27.0285391,27.2720165 27.0285391,27.2720165 C27.0285391,27.2720165 26.5266872,27.7944444 26.4859465,28.472428" id="Fill-110" fill="#FFFFFF"></path>
                    <path d="M24.6541975,27.9527984 C25.2737449,28.2527984 25.9830041,28.0811934 25.9830041,28.0811934 C25.9830041,28.0811934 25.6881481,27.4233745 25.0690123,27.1235802 C24.4496708,26.8235802 23.7402058,26.9951852 23.7402058,26.9951852 C23.7402058,26.9951852 24.034856,27.6527984 24.6541975,27.9527984" id="Fill-112" fill="#FFFFFF"></path>
                    <path d="M25.3912346,26.9033951 C25.4599588,27.579321 25.9830041,28.0811728 25.9830041,28.0811728 C25.9830041,28.0811728 26.3945267,27.4871399 26.3258025,26.8114198 C26.2570782,26.1354938 25.7340329,25.633642 25.7340329,25.633642 C25.7340329,25.633642 25.3225103,26.2274691 25.3912346,26.9033951" id="Fill-114" fill="#FFFFFF"></path>
                    <path d="M24.15607,25.8804115 C24.1278807,25.9094239 24.0963992,25.9382305 24.0589506,25.9666255 C24.0484568,25.974856 24.0371399,25.9806173 24.0260288,25.9876132 C26.1908436,27.830823 27.5540123,30.498107 27.5540123,33.4608642 C27.5540123,39.0094239 22.7737654,43.5236214 16.898251,43.5236214 C11.0227366,43.5236214 6.24248971,39.0094239 6.24248971,33.4608642 C6.24248971,30.6295885 7.48755144,28.0680658 9.48734568,26.2378189 C9.43055556,26.2211523 9.37314815,26.1987243 9.31553498,26.1701235 C7.31430041,28.0265021 6.07109053,30.6088066 6.07109053,33.4608642 C6.07109053,39.0987243 10.9280864,43.6855556 16.898251,43.6855556 C22.8682099,43.6855556 27.7252058,39.0987243 27.7252058,33.4608642 C27.7252058,30.457572 26.3466049,27.7526337 24.15607,25.8804115" id="Fill-116" fill="#FFFFFF"></path>
                    <path d="M10.5474897,26.6043827 C9.87279835,26.7473868 9.22670782,26.4115844 9.22670782,26.4115844 C9.22670782,26.4115844 9.67485597,25.8438889 10.3497531,25.7008848 C11.0244444,25.5578807 11.6703292,25.8936831 11.6703292,25.8936831 C11.6703292,25.8936831 11.2221811,26.4613786 10.5474897,26.6043827" id="Fill-118" fill="#FFFFFF"></path>
                    <path d="M10.091358,25.4104115 C9.85781893,26.0497119 9.22674897,26.4116461 9.22674897,26.4116461 C9.22674897,26.4116461 8.97386831,25.7371605 9.20740741,25.0978601 C9.4409465,24.4587654 10.0720165,24.0968313 10.0720165,24.0968313 C10.0720165,24.0968313 10.3246914,24.7713169 10.091358,25.4104115" id="Fill-120" fill="#FFFFFF"></path>
                    <path d="M23.2938272,26.6043827 C23.9685185,26.7473868 24.6146091,26.4115844 24.6146091,26.4115844 C24.6146091,26.4115844 24.1664609,25.8438889 23.4915638,25.7008848 C22.8168724,25.5578807 22.1709877,25.8936831 22.1709877,25.8936831 C22.1709877,25.8936831 22.6191358,26.4613786 23.2938272,26.6043827" id="Fill-122" fill="#FFFFFF"></path>
                    <path d="M23.7499588,25.4104115 C23.9834979,26.0497119 24.6145679,26.4116461 24.6145679,26.4116461 C24.6145679,26.4116461 24.8674486,25.7371605 24.6339095,25.0978601 C24.4003704,24.4587654 23.7693004,24.0968313 23.7693004,24.0968313 C23.7693004,24.0968313 23.5166255,24.7713169 23.7499588,25.4104115" id="Fill-124" fill="#FFFFFF"></path>
                </g>
            </g>
        </g>
    </g>
</svg>