<?xml version="1.0" encoding="UTF-8"?>
<svg width="33px" height="50px" viewBox="0 0 33 50" version="1.1" xmlns="http://www.w3.org/2000/svg" xmlns:xlink="http://www.w3.org/1999/xlink">
    <title>reward1</title>
    <defs>
        <polygon id="path-1" points="0.183051852 0.0209382716 16.5569778 0.0209382716 16.5569778 13.2027457 0.183051852 13.2027457"></polygon>
        <polygon id="path-3" points="0.0358716049 0.0209382716 6.39024198 0.0209382716 6.39024198 13.2027457 0.0358716049 13.2027457"></polygon>
        <polygon id="path-5" points="0.0835160494 0.0209382716 6.43788642 0.0209382716 6.43788642 13.2027457 0.0835160494 13.2027457"></polygon>
        <polygon id="path-7" points="0.187871605 0.0209382716 6.54224198 0.0209382716 6.54224198 13.2027457 0.187871605 13.2027457"></polygon>
        <polygon id="path-9" points="0.179377778 0.0209382716 6.53374815 0.0209382716 6.53374815 13.2027457 0.179377778 13.2027457"></polygon>
        <polygon id="path-11" points="0 0.120908642 32.4716444 0.120908642 32.4716444 32.5925926 0 32.5925926"></polygon>
        <polygon id="path-13" points="0.0201876543 0.184019753 29.9038025 0.184019753 29.9038025 26.0739951 0.0201876543 26.0739951"></polygon>
    </defs>
    <g id="Page-1" stroke="none" stroke-width="1" fill="none" fill-rule="evenodd">
        <g id="Dashboard08" transform="translate(-377.000000, -753.000000)">
            <g id="Group-9" transform="translate(26.999789, 753.000000)">
                <g id="reward1" transform="translate(350.000000, 0.000000)">
                    <polygon id="Fill-1" fill="#AA312F" points="15.8812444 0.197550617 10.9159111 13.3793778 22.0878617 13.3793778 27.4670222 0.197550617"></polygon>
                    <g id="Group-127" transform="translate(0.000000, 0.176593)">
                        <path d="M22.9745383,13.7396741 L9.85177284,13.7396741 L9.85177284,13.1508346 C9.85177284,12.510242 10.3710815,11.9909333 11.0116741,11.9909333 L21.814637,11.9909333 C22.4552296,11.9909333 22.9745383,12.510242 22.9745383,13.1508346 L22.9745383,13.7396741 Z M22.6000198,10.9171556 L10.5020444,10.9171556 C9.70757531,10.9171556 9.06362469,11.5611062 9.06362469,12.3555753 L9.06362469,20.0596741 L24.038637,20.0596741 L24.038637,12.3555753 C24.038637,11.5611062 23.3944889,10.9171556 22.6000198,10.9171556 L22.6000198,10.9171556 Z" id="Fill-2" fill="#F28F0E"></path>
                        <g id="Group-6" transform="translate(5.530864, 0.000000)">
                            <mask id="mask-2" fill="white">
                                <use xlink:href="#path-1"></use>
                            </mask>
                            <g id="Clip-5"></g>
                            <polygon id="Fill-4" fill="#FA342B" mask="url(#mask-2)" points="0.183051852 0.0209185185 5.38502716 13.2027457 16.5569778 13.2027457 11.4733235 0.0209185185"></polygon>
                        </g>
                        <g id="Group-9" transform="translate(7.111111, 0.000000)">
                            <mask id="mask-4" fill="white">
                                <use xlink:href="#path-3"></use>
                            </mask>
                            <g id="Clip-8"></g>
                            <polygon id="Fill-7" fill="#FCE0E0" mask="url(#mask-4)" points="6.39024198 13.2027457 0.681995062 0.0209185185 0.0358716049 0.0209185185 5.74411852 13.2027457"></polygon>
                        </g>
                        <g id="Group-12" transform="translate(9.481481, 0.000000)">
                            <mask id="mask-6" fill="white">
                                <use xlink:href="#path-5"></use>
                            </mask>
                            <g id="Clip-11"></g>
                            <polygon id="Fill-10" fill="#FCE0E0" mask="url(#mask-6)" points="6.43788642 13.2027457 0.729639506 0.0209185185 0.0835160494 0.0209185185 5.79176296 13.2027457"></polygon>
                        </g>
                        <g id="Group-15" transform="translate(12.049383, 0.000000)">
                            <mask id="mask-8" fill="white">
                                <use xlink:href="#path-7"></use>
                            </mask>
                            <g id="Clip-14"></g>
                            <polygon id="Fill-13" fill="#FCE0E0" mask="url(#mask-8)" points="6.54224198 13.2027457 0.833995062 0.0209185185 0.187871605 0.0209185185 5.89631605 13.2027457"></polygon>
                        </g>
                        <g id="Group-18" transform="translate(14.419753, 0.000000)">
                            <mask id="mask-10" fill="white">
                                <use xlink:href="#path-9"></use>
                            </mask>
                            <g id="Clip-17"></g>
                            <polygon id="Fill-16" fill="#FCE0E0" mask="url(#mask-10)" points="6.53374815 13.2027457 0.825501235 0.0209185185 0.179377778 0.0209185185 5.88782222 13.2027457"></polygon>
                        </g>
                        <g id="Group-21" transform="translate(0.000000, 15.209877)">
                            <mask id="mask-12" fill="white">
                                <use xlink:href="#path-11"></use>
                            </mask>
                            <g id="Clip-20"></g>
                            <path d="M32.4716444,16.3567605 C32.4716444,25.3236741 25.2027062,32.5926123 16.2359901,32.5926123 C7.26887901,32.5926123 -5.92592593e-05,25.3236741 -5.92592593e-05,16.3567605 C-5.92592593e-05,7.38984691 7.26887901,0.120908642 16.2359901,0.120908642 C25.2027062,0.120908642 32.4716444,7.38984691 32.4716444,16.3567605" id="Fill-19" fill="#FFB10F" mask="url(#mask-12)"></path>
                        </g>
                        <g id="Group-24" transform="translate(2.567901, 21.728395)">
                            <mask id="mask-14" fill="white">
                                <use xlink:href="#path-13"></use>
                            </mask>
                            <g id="Clip-23"></g>
                            <path d="M26.7228049,0.184019753 C28.3605333,2.71913086 29.3112494,5.73957531 29.3112494,8.98224198 C29.3112494,17.9491556 22.0421136,25.2180938 13.0753975,25.2180938 C7.72428642,25.2180938 2.97821235,22.6294519 0.0201876543,18.6363654 C2.91144691,23.1116247 7.94374321,26.0739951 13.6679901,26.0739951 C22.6347062,26.0739951 29.903842,18.8050568 29.903842,9.83834074 C29.903842,6.22234074 28.7216198,2.88248889 26.7228049,0.184019753" id="Fill-22" fill="#FF930F" mask="url(#mask-14)"></path>
                        </g>
                        <path d="M29.4766617,31.566637 C29.4766617,38.8794272 23.548563,44.8075259 16.2359704,44.8075259 C8.92298272,44.8075259 2.99508148,38.8794272 2.99508148,31.566637 C2.99508148,24.2538469 8.92298272,18.3257481 16.2359704,18.3257481 C23.548563,18.3257481 29.4766617,24.2538469 29.4766617,31.566637" id="Fill-25" fill="#FFCD01"></path>
                        <path d="M14.6170864,40.5753284 C15.1346173,40.982637 15.2724938,41.6591802 15.2724938,41.6591802 C15.2724938,41.6591802 14.5716543,41.6755753 14.0539259,41.2682667 C13.5363951,40.860958 13.398321,40.1844148 13.398321,40.1844148 C13.398321,40.1844148 14.099358,40.1680198 14.6170864,40.5753284" id="Fill-27" fill="#FFF375"></path>
                        <path d="M13.9911309,41.633679 C14.615921,41.4165926 15.2725136,41.6591605 15.2725136,41.6591605 C15.2725136,41.6591605 14.9161679,42.2533333 14.2911802,42.4704198 C13.6661926,42.6873086 13.0096,42.4449383 13.0096,42.4449383 C13.0096,42.4449383 13.3661432,41.8507654 13.9911309,41.633679" id="Fill-29" fill="#FFF375"></path>
                        <path d="M12.596642,40.0276741 C13.0525432,40.5011556 13.0946173,41.1899457 13.0946173,41.1899457 C13.0946173,41.1899457 12.3977284,41.1111309 11.9422222,40.6376494 C11.4865185,40.1643654 11.4442469,39.4753778 11.4442469,39.4753778 C11.4442469,39.4753778 12.1409383,39.5541926 12.596642,40.0276741" id="Fill-31" fill="#FFF375"></path>
                        <path d="M11.8287012,40.9912296 C12.4779852,40.8608593 13.094479,41.1899457 13.094479,41.1899457 C13.094479,41.1899457 12.6581333,41.7301926 12.0088494,41.860563 C11.3595654,41.9909333 10.7432691,41.6618469 10.7432691,41.6618469 C10.7432691,41.6618469 11.1794173,41.1214025 11.8287012,40.9912296" id="Fill-33" fill="#FFF375"></path>
                        <path d="M11.0067556,39.2411259 C11.380484,39.7795951 11.3111506,40.4664099 11.3111506,40.4664099 C11.3111506,40.4664099 10.6359901,40.2801383 10.2620642,39.7416691 C9.8883358,39.2032 9.9574716,38.5163852 9.9574716,38.5163852 C9.9574716,38.5163852 10.6328296,38.7026568 11.0067556,39.2411259" id="Fill-35" fill="#FFF375"></path>
                        <path d="M10.0933531,40.0729086 C10.7554765,40.0454519 11.3111309,40.4663901 11.3111309,40.4663901 C11.3111309,40.4663901 10.7936,40.9317728 10.131279,40.9594272 C9.46935309,40.986884 8.91350123,40.5659457 8.91350123,40.5659457 C8.91350123,40.5659457 9.43122963,40.1003654 10.0933531,40.0729086" id="Fill-37" fill="#FFF375"></path>
                        <path d="M9.52102716,38.0431012 C9.75075556,38.6546568 9.51431111,39.3043358 9.51431111,39.3043358 C9.51431111,39.3043358 8.90512593,38.9624099 8.67539753,38.3508543 C8.4454716,37.7391012 8.68191605,37.0894222 8.68191605,37.0894222 C8.68191605,37.0894222 9.29110123,37.4313481 9.52102716,38.0431012" id="Fill-39" fill="#FFF375"></path>
                        <path d="M8.42978765,38.631842 C9.07887407,38.7633975 9.5142321,39.3044346 9.5142321,39.3044346 C9.5142321,39.3044346 8.89714568,39.6323358 8.24805926,39.5009778 C7.59897284,39.3694222 7.16381235,38.8283852 7.16381235,38.8283852 C7.16381235,38.8283852 7.78070123,38.5002864 8.42978765,38.631842" id="Fill-41" fill="#FFF375"></path>
                        <path d="M8.39794568,36.6551901 C8.47537778,37.3026963 8.08999506,37.8794864 8.08999506,37.8794864 C8.08999506,37.8794864 7.57957531,37.4062025 7.50253827,36.7584988 C7.42510617,36.1109926 7.81029136,35.5342025 7.81029136,35.5342025 C7.81029136,35.5342025 8.32071111,36.0074864 8.39794568,36.6551901" id="Fill-43" fill="#FFF375"></path>
                        <path d="M7.19676049,36.9750123 C7.79626667,37.2529383 8.08999506,37.8795062 8.08999506,37.8795062 C8.08999506,37.8795062 7.41206914,38.0557037 6.81256296,37.7775802 C6.21325432,37.4998519 5.91913086,36.873284 5.91913086,36.873284 C5.91913086,36.873284 6.59745185,36.6970864 7.19676049,36.9750123" id="Fill-45" fill="#FFF375"></path>
                        <path d="M7.43962469,34.9079901 C7.38451358,35.5578667 6.89048889,36.0477432 6.89048889,36.0477432 C6.89048889,36.0477432 6.48594568,35.4839901 6.54105679,34.8341136 C6.5961679,34.184237 7.08999506,33.6943605 7.08999506,33.6943605 C7.08999506,33.6943605 7.4947358,34.2581136 7.43962469,34.9079901" id="Fill-47" fill="#FFF375"></path>
                        <path d="M6.1977284,34.9863901 C6.72908642,35.3761185 6.89046914,36.0477235 6.89046914,36.0477235 C6.89046914,36.0477235 6.19041975,36.0876247 5.6588642,35.6978963 C5.1277037,35.3081679 4.96632099,34.636563 4.96632099,34.636563 C4.96632099,34.636563 5.6665679,34.5968593 6.1977284,34.9863901" id="Fill-49" fill="#FFF375"></path>
                        <path d="M6.94482963,33.2420938 C6.78581728,33.8751802 6.21929877,34.2818963 6.21929877,34.2818963 C6.21929877,34.2818963 5.91055802,33.662242 6.06937284,33.0291556 C6.22858272,32.3962667 6.7949037,31.9893531 6.7949037,31.9893531 C6.7949037,31.9893531 7.10384198,32.6090074 6.94482963,33.2420938" id="Fill-51" fill="#FFF375"></path>
                        <path d="M5.70601481,33.126163 C6.16803951,33.5937185 6.21939753,34.281916 6.21939753,34.281916 C6.21939753,34.281916 5.52152099,34.2123852 5.05969383,33.7448296 C4.59766914,33.2772741 4.54631111,32.5890765 4.54631111,32.5890765 C4.54631111,32.5890765 5.24399012,32.6586074 5.70601481,33.126163" id="Fill-53" fill="#FFF375"></path>
                        <path d="M6.89100247,31.3856 C6.58087901,31.9617975 5.93080494,32.220958 5.93080494,32.220958 C5.93080494,32.220958 5.78403951,31.5461926 6.09436049,30.9699951 C6.40468148,30.3937975 7.05455802,30.134637 7.05455802,30.134637 C7.05455802,30.134637 7.20132346,30.8094025 6.89100247,31.3856" id="Fill-55" fill="#FFF375"></path>
                        <path d="M5.71798519,30.9772444 C6.05082469,31.5409975 5.93072593,32.2210963 5.93072593,32.2210963 C5.93072593,32.2210963 5.27117037,31.9868247 4.93833086,31.4228741 C4.60529383,30.859121 4.72539259,30.1792198 4.72539259,30.1792198 C4.72539259,30.1792198 5.38494815,30.4134914 5.71798519,30.9772444" id="Fill-57" fill="#FFF375"></path>
                        <path d="M7.22202469,29.5116642 C6.78271605,29.9999605 6.08918519,30.1016889 6.08918519,30.1016889 C6.08918519,30.1016889 6.10755556,29.4119111 6.54706173,28.9234173 C6.98637037,28.4353185 7.67990123,28.3335901 7.67990123,28.3335901 C7.67990123,28.3335901 7.66153086,29.0233679 7.22202469,29.5116642" id="Fill-59" fill="#FFF375"></path>
                        <path d="M6.1792,28.8434568 C6.36823704,29.4684444 6.08912593,30.1017284 6.08912593,30.1017284 C6.08912593,30.1017284 5.50384198,29.7214815 5.31500247,29.0962963 C5.12616296,28.4713086 5.40507654,27.8382222 5.40507654,27.8382222 C5.40507654,27.8382222 5.99036049,28.2184691 6.1792,28.8434568" id="Fill-61" fill="#FFF375"></path>
                        <path d="M7.90066173,27.9711605 C7.35982222,28.3480494 6.66095802,28.2915556 6.66095802,28.2915556 C6.66095802,28.2915556 6.8387358,27.6240988 7.37937778,27.2470123 C7.92041481,26.870321 8.61927901,26.9268148 8.61927901,26.9268148 C8.61927901,26.9268148 8.4413037,27.5942716 7.90066173,27.9711605" id="Fill-63" fill="#FFF375"></path>
                        <path d="M7.03992099,27.0866963 C7.0790321,27.7375605 6.66085926,28.2916346 6.66085926,28.2916346 C6.66085926,28.2916346 6.17908148,27.7901037 6.13977284,27.1392395 C6.10066173,26.4881778 6.5190321,25.9343012 6.5190321,25.9343012 C6.5190321,25.9343012 7.00080988,26.4358321 7.03992099,27.0866963" id="Fill-65" fill="#FFF375"></path>
                        <path d="M8.74883951,26.5773432 C8.1542716,26.8653432 7.47318519,26.7006025 7.47318519,26.7006025 C7.47318519,26.7006025 7.75624691,26.0690963 8.35061728,25.7812938 C8.94538272,25.4932938 9.6262716,25.6580346 9.6262716,25.6580346 C9.6262716,25.6580346 9.34340741,26.2893432 8.74883951,26.5773432" id="Fill-67" fill="#FFF375"></path>
                        <path d="M8.04128395,25.5700148 C7.97530864,26.2189037 7.47318519,26.7006815 7.47318519,26.7006815 C7.47318519,26.7006815 7.07812346,26.1304099 7.14409877,25.481521 C7.2102716,24.8328296 7.71239506,24.3510519 7.71239506,24.3510519 C7.71239506,24.3510519 8.10745679,24.9211259 8.04128395,25.5700148" id="Fill-69" fill="#FFF375"></path>
                        <path d="M18.2112198,40.4876444 C17.6934914,40.8949531 17.5556148,41.5714963 17.5556148,41.5714963 C17.5556148,41.5714963 18.2564543,41.5878914 18.7741827,41.1805827 C19.2919111,40.7734716 19.4297877,40.0967309 19.4297877,40.0967309 C19.4297877,40.0967309 18.7287506,40.0803358 18.2112198,40.4876444" id="Fill-71" fill="#FFF375"></path>
                        <path d="M18.8369975,41.5460938 C18.2122074,41.3290074 17.5556148,41.5713778 17.5556148,41.5713778 C17.5556148,41.5713778 17.9119605,42.1657481 18.5369481,42.382637 C19.1619358,42.5997235 19.8185284,42.3573531 19.8185284,42.3573531 C19.8185284,42.3573531 19.4619852,41.7629827 18.8369975,41.5460938" id="Fill-73" fill="#FFF375"></path>
                        <path d="M19.975684,40.0276741 C19.5197827,40.5011556 19.4777086,41.1899457 19.4777086,41.1899457 C19.4777086,41.1899457 20.1745975,41.1111309 20.6301037,40.6376494 C21.0858074,40.1643654 21.1278815,39.4753778 21.1278815,39.4753778 C21.1278815,39.4753778 20.4313877,39.5541926 19.975684,40.0276741" id="Fill-75" fill="#FFF375"></path>
                        <path d="M20.7436247,40.9912296 C20.0943407,40.8608593 19.4778469,41.1899457 19.4778469,41.1899457 C19.4778469,41.1899457 19.9141926,41.7301926 20.5634765,41.860563 C21.2127605,41.9909333 21.8292543,41.6618469 21.8292543,41.6618469 C21.8292543,41.6618469 21.3929086,41.1214025 20.7436247,40.9912296" id="Fill-77" fill="#FFF375"></path>
                        <path d="M21.5630815,39.1751506 C21.1893531,39.7136198 21.2586864,40.4004346 21.2586864,40.4004346 C21.2586864,40.4004346 21.9338469,40.2139654 22.3077728,39.6754963 C22.6815012,39.1372247 22.6123654,38.4504099 22.6123654,38.4504099 C22.6123654,38.4504099 21.9370074,38.6366815 21.5630815,39.1751506" id="Fill-79" fill="#FFF375"></path>
                        <path d="M22.4764642,40.0068543 C21.8143407,39.9793975 21.2586864,40.4003358 21.2586864,40.4003358 C21.2586864,40.4003358 21.7762173,40.865916 22.4385383,40.8933728 C23.1004642,40.9208296 23.656316,40.4998914 23.656316,40.4998914 C23.656316,40.4998914 23.1385877,40.0345086 22.4764642,40.0068543" id="Fill-81" fill="#FFF375"></path>
                        <path d="M22.9978667,38.0085728 C22.7679407,38.6201284 23.0045827,39.2698074 23.0045827,39.2698074 C23.0045827,39.2698074 23.6135704,38.9278815 23.8434963,38.3163259 C24.0732247,37.7045728 23.8367802,37.0548938 23.8367802,37.0548938 C23.8367802,37.0548938 23.2275951,37.3968198 22.9978667,38.0085728" id="Fill-83" fill="#FFF375"></path>
                        <path d="M24.0889284,38.5973136 C23.439842,38.7288691 23.0046815,39.2699062 23.0046815,39.2699062 C23.0046815,39.2699062 23.6215704,39.5978074 24.2706568,39.4662519 C24.9197432,39.3348938 25.3551012,38.7938568 25.3551012,38.7938568 C25.3551012,38.7938568 24.7380148,38.465758 24.0889284,38.5973136" id="Fill-85" fill="#FFF375"></path>
                        <path d="M24.1822815,36.5279605 C24.1050469,37.1756642 24.4902321,37.7524543 24.4902321,37.7524543 C24.4902321,37.7524543 25.0006519,37.2791704 25.0778864,36.6314667 C25.155121,35.983763 24.7701333,35.4069728 24.7701333,35.4069728 C24.7701333,35.4069728 24.2597136,35.8804543 24.1822815,36.5279605" id="Fill-87" fill="#FFF375"></path>
                        <path d="M25.3834864,36.8479012 C24.7841778,37.1258272 24.4902519,37.7523951 24.4902519,37.7523951 C24.4902519,37.7523951 25.1683753,37.9283951 25.767684,37.6504691 C26.3671901,37.3727407 26.661116,36.7461728 26.661116,36.7461728 C26.661116,36.7461728 25.9829926,36.5699753 25.3834864,36.8479012" id="Fill-89" fill="#FFF375"></path>
                        <path d="M25.0320198,34.8755753 C25.0871309,35.5254519 25.5811556,36.0153284 25.5811556,36.0153284 C25.5811556,36.0153284 25.9856988,35.4515753 25.9305877,34.8016988 C25.8754765,34.1518222 25.3814519,33.6619457 25.3814519,33.6619457 C25.3814519,33.6619457 24.9769086,34.2256988 25.0320198,34.8755753" id="Fill-91" fill="#FFF375"></path>
                        <path d="M26.273916,34.9540938 C25.742558,35.3438222 25.5811753,36.0154272 25.5811753,36.0154272 C25.5811753,36.0154272 26.2812247,36.0551309 26.8127802,35.6656 C27.3439407,35.2758716 27.5053235,34.6042667 27.5053235,34.6042667 C27.5053235,34.6042667 26.8050765,34.5643654 26.273916,34.9540938" id="Fill-93" fill="#FFF375"></path>
                        <path d="M25.5268148,33.2067951 C25.6858272,33.8398815 26.2523457,34.2465975 26.2523457,34.2465975 C26.2523457,34.2465975 26.5610864,33.6269432 26.4022716,32.9938568 C26.2430617,32.3609679 25.6767407,31.9540543 25.6767407,31.9540543 C25.6767407,31.9540543 25.3678025,32.5737086 25.5268148,33.2067951" id="Fill-95" fill="#FFF375"></path>
                        <path d="M26.7656296,33.0908444 C26.3036049,33.5584 26.2522469,34.2465975 26.2522469,34.2465975 C26.2522469,34.2465975 26.9501235,34.1768691 27.4119506,33.7093136 C27.8739753,33.2419556 27.9253333,32.553758 27.9253333,32.553758 C27.9253333,32.553758 27.2276543,32.6232889 26.7656296,33.0908444" id="Fill-97" fill="#FFF375"></path>
                        <path d="M25.5717531,31.4120296 C25.8820741,31.9882272 26.5319506,32.2473877 26.5319506,32.2473877 C26.5319506,32.2473877 26.678716,31.5726222 26.3683951,30.9964247 C26.0580741,30.4202272 25.4081975,30.1610667 25.4081975,30.1610667 C25.4081975,30.1610667 25.2614321,30.8358321 25.5717531,31.4120296" id="Fill-99" fill="#FFF375"></path>
                        <path d="M26.7447901,31.0037531 C26.4119506,31.5675062 26.5320494,32.2474074 26.5320494,32.2474074 C26.5320494,32.2474074 27.1916049,32.0133333 27.5244444,31.4493827 C27.8574815,30.8856296 27.7373827,30.2055309 27.7373827,30.2055309 C27.7373827,30.2055309 27.0778272,30.44 26.7447901,31.0037531" id="Fill-101" fill="#FFF375"></path>
                        <path d="M25.2249284,29.5371259 C25.664237,30.0254222 26.3577679,30.1271506 26.3577679,30.1271506 C26.3577679,30.1271506 26.3393975,29.4371753 25.9000889,28.948879 C25.4607802,28.4607802 24.7672494,28.3590519 24.7672494,28.3590519 C24.7672494,28.3590519 24.7856198,29.0488296 25.2249284,29.5371259" id="Fill-103" fill="#FFF375"></path>
                        <path d="M26.2677531,28.8689185 C26.0789136,29.4939062 26.3578272,30.1271901 26.3578272,30.1271901 C26.3578272,30.1271901 26.9431111,29.7467457 27.1319506,29.121758 C27.3207901,28.4967704 27.0418765,27.863684 27.0418765,27.863684 C27.0418765,27.863684 26.4565926,28.2437333 26.2677531,28.8689185" id="Fill-105" fill="#FFF375"></path>
                        <path d="M24.5657679,28.0226568 C25.1064099,28.3995457 25.8052741,28.3430519 25.8052741,28.3430519 C25.8052741,28.3430519 25.6276938,27.6755951 25.0868543,27.2985086 C24.5460148,26.9216198 23.8471506,26.9781136 23.8471506,26.9781136 C23.8471506,26.9781136 24.0249284,27.6457679 24.5657679,28.0226568" id="Fill-107" fill="#FFF375"></path>
                        <path d="M25.4263111,27.1382123 C25.3872,27.7890765 25.8053728,28.3431506 25.8053728,28.3431506 C25.8053728,28.3431506 26.2871506,27.8416198 26.3264593,27.190558 C26.3655704,26.5396938 25.9473975,25.9858173 25.9473975,25.9858173 C25.9473975,25.9858173 25.4654222,26.4873481 25.4263111,27.1382123" id="Fill-109" fill="#FFF375"></path>
                        <path d="M23.6680099,26.6392691 C24.2625778,26.9272691 24.9436642,26.7625284 24.9436642,26.7625284 C24.9436642,26.7625284 24.6606025,26.1310222 24.0662321,25.8432198 C23.4714667,25.5552198 22.7905778,25.7199605 22.7905778,25.7199605 C22.7905778,25.7199605 23.073442,26.3512691 23.6680099,26.6392691" id="Fill-111" fill="#FFF375"></path>
                        <path d="M24.3755852,25.6319407 C24.4415605,26.2808296 24.943684,26.7626074 24.943684,26.7626074 C24.943684,26.7626074 25.3387457,26.1923358 25.2725728,25.5434469 C25.2065975,24.8947556 24.7044741,24.4129778 24.7044741,24.4129778 C24.7044741,24.4129778 24.3094123,24.9830519 24.3755852,25.6319407" id="Fill-113" fill="#FFF375"></path>
                        <path d="M23.1898074,24.6497778 C23.1627457,24.6776296 23.1323259,24.705284 23.0965728,24.7325432 C23.0863012,24.7404444 23.0756346,24.7459753 23.0649679,24.7526914 C25.1431901,26.5221728 26.4516346,29.082963 26.4516346,31.9270123 C26.4516346,37.2538272 21.8625975,41.5872593 16.2223012,41.5872593 C10.5816099,41.5872593 5.99257284,37.2538272 5.99257284,31.9270123 C5.99257284,29.2089877 7.18802963,26.7499259 9.1078321,24.9928889 C9.05331358,24.9768889 8.99820247,24.955358 8.94289383,24.9279012 C7.02170864,26.7100247 5.82802963,29.1892346 5.82802963,31.9270123 C5.82802963,37.339358 10.4909432,41.742716 16.2223012,41.742716 C21.9532642,41.742716 26.6161778,37.339358 26.6161778,31.9270123 C26.6161778,29.0438519 25.292721,26.4473086 23.1898074,24.6497778" id="Fill-115" fill="#FFF375"></path>
                        <path d="M10.1255704,25.3449086 C9.47766914,25.4821926 8.85761975,25.1598222 8.85761975,25.1598222 C8.85761975,25.1598222 9.28784198,24.6148346 9.93554568,24.4775506 C10.5834469,24.3402667 11.2034963,24.662637 11.2034963,24.662637 C11.2034963,24.662637 10.7732741,25.2076247 10.1255704,25.3449086" id="Fill-117" fill="#FFF375"></path>
                        <path d="M9.68750617,24.1986765 C9.46350617,24.8122074 8.85767901,25.1598617 8.85767901,25.1598617 C8.85767901,25.1598617 8.61491358,24.5123556 8.83891358,23.8986272 C9.06311111,23.2848988 9.66893827,22.937442 9.66893827,22.937442 C9.66893827,22.937442 9.9117037,23.5849481 9.68750617,24.1986765" id="Fill-119" fill="#FFF375"></path>
                        <path d="M22.3620741,25.3449086 C23.0097778,25.4821926 23.6300247,25.1598222 23.6300247,25.1598222 C23.6300247,25.1598222 23.1996049,24.6148346 22.5519012,24.4775506 C21.9041975,24.3402667 21.2839506,24.662637 21.2839506,24.662637 C21.2839506,24.662637 21.7143704,25.2076247 22.3620741,25.3449086" id="Fill-121" fill="#FFF375"></path>
                        <path d="M22.7999605,24.1986765 C23.024158,24.8122074 23.6299852,25.1598617 23.6299852,25.1598617 C23.6299852,25.1598617 23.8725531,24.5123556 23.6485531,23.8986272 C23.4243556,23.2848988 22.8185284,22.937442 22.8185284,22.937442 C22.8185284,22.937442 22.575763,23.5849481 22.7999605,24.1986765" id="Fill-123" fill="#FFF375"></path>
                        <polygon id="Fill-125" fill="#FFF375" points="15.6574025 25.7586765 17.9408593 25.7586765 17.9408593 36.7575901 15.2625383 36.7575901 15.2625383 28.7232198 13.2190815 30.1164049 11.9187358 28.2122074"></polygon>
                    </g>
                </g>
            </g>
        </g>
    </g>
</svg>