<?xml version="1.0" encoding="UTF-8"?>
<svg width="39px" height="35px" viewBox="0 0 39 35" version="1.1" xmlns="http://www.w3.org/2000/svg" xmlns:xlink="http://www.w3.org/1999/xlink">
    <title>rule</title>
    <g id="Page-1" stroke="none" stroke-width="1" fill="none" fill-rule="evenodd">
        <g id="Dashboard08" transform="translate(-41.000000, -1416.000000)" fill-rule="nonzero">
            <g id="Group-5" transform="translate(27.000000, 1159.000000)">
                <g id="Coupon_bg" transform="translate(0.000000, 235.000000)">
                    <g id="rule" transform="translate(14.000000, 22.000000)">
                        <rect id="Rectangle" fill="#F06423" x="0" y="8.45" width="39" height="26" rx="1.3"></rect>
                        <rect id="Rectangle" fill="#FAA51E" x="0" y="8.45" width="39" height="24.7" rx="1.3"></rect>
                        <path d="M2.6,5.85 L16.9,5.85 C18.3359403,5.85 19.5,7.01405965 19.5,8.45 L19.5,31.85 L2.6,31.85 C1.88202983,31.85 1.3,31.2679702 1.3,30.55 L1.3,7.15 C1.3,6.43202983 1.88202983,5.85 2.6,5.85 Z" id="Path" fill="#738CA0"></path>
                        <path d="M20.8,5.85 L37.7,5.85 L37.7,29.25 C37.7,30.6859403 36.5359403,31.85 35.1,31.85 L20.8,31.85 C20.0820298,31.85 19.5,31.2679702 19.5,30.55 L19.5,7.15 C19.5,6.43202983 20.0820298,5.85 20.8,5.85 Z" id="Path" fill="#738CA0" transform="translate(28.600000, 18.850000) rotate(-180.000000) translate(-28.600000, -18.850000) "></path>
                        <path d="M19.5,31.85 C19.5,30.4140597 18.3359403,29.25 16.9,29.25 L2.6,29.25 C1.88202983,29.25 1.3,28.6679702 1.3,27.95 L1.3,7.15 C1.3,6.43202983 1.88202983,5.85 2.6,5.85 L16.9,5.85 C18.3359403,5.85 19.5,7.01405965 19.5,8.45 L19.5,31.85 Z" id="Path" fill="#D7E6E6"></path>
                        <path d="M19.5,31.85 C19.5,30.4140597 20.6640597,29.25 22.1,29.25 L36.4,29.25 C37.1179702,29.25 37.7,28.6679702 37.7,27.95 L37.7,7.15 C37.7,6.43202983 37.1179702,5.85 36.4,5.85 L22.1,5.85 C20.6640597,5.85 19.5,7.01405965 19.5,8.45 L19.5,31.85 Z" id="Path" fill="#AAC3D7"></path>
                        <circle id="Oval" fill="#91BE41" cx="10.4" cy="5.85" r="5.85"></circle>
                        <path d="M9.31669375,8.5583071 C9.05801833,8.55864719 8.80987691,8.45586412 8.62720625,8.2727125 L7.32720625,6.9727125 C7.07978757,6.72662124 6.98275658,6.36706276 7.07277987,6.0299089 C7.16280315,5.69275505 7.42615224,5.42942148 7.7633114,5.33941806 C8.10047056,5.24941464 8.46002332,5.34646682 8.7061,5.5939 L9.31669375,6.2044125 L11.8772063,3.6439 C12.2582563,3.26489428 12.8741468,3.26571351 13.2541873,3.64573158 C13.6342277,4.02574966 13.6350833,4.64164009 13.2561,5.0227125 L10.0061,8.2727125 C9.82344921,8.45584414 9.57534102,8.55862556 9.31669375,8.5583071 L9.31669375,8.5583071 Z" id="Path" fill="#D7E6E6"></path>
                        <circle id="Oval" fill="#F05555" cx="28.6" cy="5.85" r="5.85"></circle>
                        <path d="M29.9788938,5.85 L31.2394063,4.58940625 C31.6148812,4.20776544 31.612385,3.59475579 31.2338146,3.21618538 C30.8552442,2.83761496 30.2422346,2.83511885 29.8605937,3.21059375 L28.6,4.47110625 L27.3394063,3.21059375 C26.9577654,2.83511885 26.3447558,2.83761496 25.9661854,3.21618538 C25.587615,3.59475579 25.5851188,4.20776544 25.9605938,4.58940625 L27.2211063,5.85 L25.9605938,7.11059375 C25.7109382,7.35621582 25.6121998,7.71686862 25.7019263,8.05540559 C25.7916527,8.39394256 26.0560574,8.65834727 26.3945944,8.74807372 C26.7331314,8.83780017 27.0937842,8.73906184 27.3394063,8.48940625 L28.6,7.22889375 L29.8605937,8.48940625 C30.2422346,8.86488115 30.8552442,8.86238504 31.2338146,8.48381462 C31.612385,8.10524421 31.6148812,7.49223456 31.2394063,7.11059375 L29.9788938,5.85 Z" id="Path" fill="#D7E6E6"></path>
                        <rect id="Rectangle" fill="#AAC3D7" x="7.15" y="13.65" width="9.75" height="1.95" rx="0.975"></rect>
                        <circle id="Oval" fill="#AAC3D7" cx="4.875" cy="14.625" r="1"></circle>
                        <rect id="Rectangle" fill="#AAC3D7" x="7.15" y="18.85" width="9.75" height="1.95" rx="0.975"></rect>
                        <circle id="Oval" fill="#AAC3D7" cx="4.875" cy="19.825" r="1"></circle>
                        <rect id="Rectangle" fill="#AAC3D7" x="7.15" y="24.05" width="9.75" height="1.95" rx="0.975"></rect>
                        <circle id="Oval" fill="#AAC3D7" cx="4.875" cy="25.025" r="1"></circle>
                        <g id="Group" transform="translate(22.100000, 13.650000)" fill="#738CA0">
                            <rect id="Rectangle" x="3.25" y="0" width="9.75" height="1.95" rx="0.975"></rect>
                            <circle id="Oval" cx="0.975" cy="0.975" r="1"></circle>
                            <rect id="Rectangle" x="3.25" y="5.2" width="9.75" height="1.95" rx="0.975"></rect>
                            <circle id="Oval" cx="0.975" cy="6.175" r="1"></circle>
                            <rect id="Rectangle" x="3.25" y="10.4" width="9.75" height="1.95" rx="0.975"></rect>
                            <circle id="Oval" cx="0.975" cy="11.375" r="1"></circle>
                        </g>
                    </g>
                </g>
            </g>
        </g>
    </g>
</svg>