<?xml version="1.0" encoding="UTF-8"?>
<svg width="31px" height="31px" viewBox="0 0 31 31" version="1.1" xmlns="http://www.w3.org/2000/svg" xmlns:xlink="http://www.w3.org/1999/xlink">
    <title>rupee_home</title>
    <g id="Page-1" stroke="none" stroke-width="1" fill="none" fill-rule="evenodd">
        <g id="Dashboard08" transform="translate(-268.000000, -264.000000)" fill-rule="nonzero">
            <g id="Group-15" transform="translate(1.000000, 253.000000)">
                <g id="Group-13" transform="translate(267.000000, 7.000000)">
                    <g id="rupee_home" transform="translate(0.000000, 4.000000)">
                        <g id="Group">
                            <path d="M30.7820606,15.3910303 C30.7820606,23.8912765 23.8912765,30.7820606 15.3910303,30.7820606 C10.9100418,30.7820606 6.87633542,28.8672908 4.06386021,25.8110719 C3.32509075,25.0088537 2.67112901,24.1274817 2.1145391,23.1820327 C0.770807926,20.8966217 0,18.2336594 0,15.3910303 C0,6.89078414 6.89078414,0 15.3910303,0 C18.2342876,0 20.8972499,0.770807926 23.1820327,2.11516731 C24.1274817,2.67112901 25.0082255,3.32509075 25.8104437,4.06448841 C28.8666626,6.87570721 30.7820606,10.9100418 30.7820606,15.3910303 Z" id="Path" fill="#F0CD00"></path>
                            <path d="M30.7820606,15.3910303 C30.7820606,23.6996738 24.1990971,30.4704708 15.9639536,30.7713811 C7.72881003,30.4704708 1.1458465,23.6996738 1.1458465,15.3910303 C1.1458465,7.08238676 7.72881003,0.311589838 15.9639536,0.0106794904 C24.1990971,0.311589838 30.7820606,7.08238676 30.7820606,15.3910303 Z" id="Path" fill="#FFDE50"></path>
                            <path d="M25.8104437,4.06448841 L4.06386021,25.8110719 C3.32509075,25.0088537 2.67112901,24.1274817 2.1145391,23.1820327 L23.1820327,2.11516731 C24.1274817,2.67112901 25.0082255,3.32509075 25.8104437,4.06448841 Z" id="Path" fill="#FFEA94"></path>
                            <path d="M29.7203936,9.76419527 L9.76356706,29.7210218 C8.3507333,29.1656883 7.0396688,28.4074445 5.86680947,27.4820981 L27.4820981,5.86680947 C28.4074445,7.0396688 29.1656883,8.3507333 29.7203936,9.76419527 Z" id="Path" fill="#FFEA94"></path>
                            <path d="M27.3508032,15.3910303 C27.3508032,21.995981 21.995981,27.3508032 15.3910303,27.3508032 C13.0905424,27.3508032 10.9420802,26.7012389 9.1184002,25.5754949 C8.32372047,25.0854948 7.59123307,24.5044049 6.93413031,23.8473021 C6.45104042,23.3648404 6.00878387,22.840289 5.61364273,22.280558 C5.06961692,21.5097501 4.61416806,20.6717242 4.26300129,19.7815573 C3.74284729,18.4654671 3.45010361,17.0344154 3.43251386,15.5380303 C3.43125745,15.4890303 3.43125745,15.4400303 3.43125745,15.3910303 C3.43125745,8.78607958 8.78545138,3.43125745 15.3910303,3.43125745 C15.4400303,3.43125745 15.4896585,3.43125745 15.5386586,3.43251386 C17.0350436,3.45010361 18.4654671,3.74347549 19.7815573,4.26300129 C20.6717242,4.61479627 21.5097501,5.06961692 22.280558,5.61364273 C22.840289,6.00941208 23.3642122,6.45104042 23.8473021,6.93413031 C24.5044049,7.59060486 25.0854948,8.32372047 25.5754949,9.1184002 C26.7012389,10.9420802 27.3508032,13.0905424 27.3508032,15.3910303 Z" id="Path" fill="#FAA300"></path>
                            <path d="M23.8473021,6.93413031 L6.93413031,23.8473021 C6.45104042,23.3648404 6.00878387,22.840289 5.61364273,22.280558 C5.06961692,21.5097501 4.61416806,20.6717242 4.26300129,19.7815573 C3.74284729,18.4654671 3.45010361,17.0344154 3.43251386,15.5380303 C3.43125745,15.4890303 3.43125745,15.4400303 3.43125745,15.3910303 C3.43125745,8.78607958 8.78545138,3.43125745 15.3910303,3.43125745 C15.4400303,3.43125745 15.4896585,3.43125745 15.5386586,3.43251386 C17.0350436,3.45010361 18.4654671,3.74347549 19.7815573,4.26300129 C20.6717242,4.61479627 21.5097501,5.06961692 22.280558,5.61364273 C22.840289,6.00941208 23.3642122,6.45104042 23.8473021,6.93413031 Z" id="Path" fill="#FFBD00"></path>
                            <path d="M27.3504891,15.3910303 C27.3504891,21.995981 21.9956669,27.3508032 15.3907162,27.3508032 C15.1639341,27.3508032 14.9390366,27.3445211 14.7153955,27.331957 C21.0062435,26.9820466 25.9992194,21.7691989 25.9992194,15.3910303 C25.9992194,9.0128617 21.0062435,3.80001397 14.7153955,3.45010361 C14.9390366,3.4375395 15.1639341,3.43125745 15.3907162,3.43125745 C21.9956669,3.43125745 27.3504891,8.78607958 27.3504891,15.3910303 Z" id="Path" fill="#F68E00"></path>
                        </g>
                        <path d="M21.7739774,11.7285933 L19.6796036,11.7285933 C19.5603075,11.2610201 19.3752382,10.819643 19.136206,10.4136967 L21.7739774,10.4136967 C22.467893,10.4136967 23.030388,9.8512017 23.030388,9.15728611 C23.030388,8.46337051 22.467893,7.90087547 21.7739774,7.90087547 L14.7529034,7.90087547 L9.90378658,7.90087547 C9.20987099,7.90087547 8.64737594,8.46337051 8.64737594,9.15728611 C8.64737594,9.8512017 9.20987099,10.4136967 9.90378658,10.4136967 L14.7529034,10.4136967 C15.7145601,10.4136967 16.5540937,10.9447187 16.9950939,11.7285933 L9.90378658,11.7285933 C9.20987099,11.7285933 8.64737594,12.2910883 8.64737594,12.9850039 C8.64737594,13.6789195 9.20987099,14.2414146 9.90378658,14.2414146 L16.9950939,14.2414146 C16.5540937,15.0252892 15.7145601,15.5562483 14.7529663,15.5562483 L9.9038494,15.5562483 C9.40247874,15.5562483 8.94910296,15.8543317 8.75040162,16.3146178 C8.55163745,16.7749038 8.64561697,17.3093181 8.98937092,17.6742425 L15.8222973,24.9269358 C16.0694961,25.1893371 16.4028847,25.3217628 16.7370271,25.3217628 C17.0460413,25.3217628 17.3556837,25.2084346 17.5983594,24.9798306 C18.1034365,24.5040279 18.127057,23.7088456 17.6512543,23.2037686 L12.8136336,18.0690696 L14.7529034,18.0690696 C17.1227452,18.0690696 19.1188048,16.4390652 19.6796036,14.2414146 L21.7739774,14.2414146 C22.467893,14.2414146 23.030388,13.6789195 23.030388,12.9850039 C23.030388,12.2910883 22.467893,11.7285933 21.7739774,11.7285933 Z" id="Path" fill="#F68E00"></path>
                        <path d="M21.7129745,11.7285933 L19.6186008,11.7285933 C19.4993046,11.2610201 19.3142353,10.819643 19.0752032,10.4136967 L21.7129745,10.4136967 C22.4068901,10.4136967 22.9693852,9.8512017 22.9693852,9.15728611 C22.9693852,8.46337051 22.4068901,7.90087547 21.7129745,7.90087547 L14.6919634,7.90087547 L9.84284657,7.90087547 C9.14893098,7.90087547 8.58643593,8.46337051 8.58643593,9.15728611 C8.58643593,9.8512017 9.14893098,10.4136967 9.84284657,10.4136967 L14.6919634,10.4136967 C15.6536201,10.4136967 16.4931537,10.9447187 16.9341538,11.7285933 L9.84284657,11.7285933 C9.14893098,11.7285933 8.58643593,12.2910883 8.58643593,12.9850039 C8.58643593,13.6789195 9.14893098,14.2414146 9.84284657,14.2414146 L16.9341538,14.2414146 C16.4931537,15.0252892 15.6536201,15.5562483 14.6920262,15.5562483 L9.84290939,15.5562483 C9.34153873,15.5562483 8.88816295,15.8543317 8.68946161,16.3146178 C8.49069744,16.7749038 8.58467696,17.3093181 8.92843091,17.6742425 L15.7613573,24.9269358 C16.0085561,25.1893371 16.3419447,25.3217628 16.6760871,25.3217628 C16.9851013,25.3217628 17.2947437,25.2084346 17.5374194,24.9798306 C18.0424965,24.5040279 18.0661798,23.7088456 17.5903143,23.2037686 L12.7528192,18.0690696 L14.6920891,18.0690696 C17.0619308,18.0690696 19.0579904,16.4390652 19.6187893,14.2414146 L21.713163,14.2414146 C22.4070786,14.2414146 22.9695736,13.6789195 22.9695736,12.9850039 C22.9695736,12.2910883 22.4068901,11.7285933 21.7129745,11.7285933 Z" id="Path" fill="#FEDB41"></path>
                    </g>
                </g>
            </g>
        </g>
    </g>
</svg>