<?xml version="1.0" encoding="UTF-8"?>
<svg width="22px" height="22px" viewBox="0 0 22 22" version="1.1" xmlns="http://www.w3.org/2000/svg" xmlns:xlink="http://www.w3.org/1999/xlink">
    <title>share</title>
    <defs>
        <filter id="filter-1">
            <feColorMatrix in="SourceGraphic" type="matrix" values="0 0 0 0 1.000000 0 0 0 0 1.000000 0 0 0 0 1.000000 0 0 0 1.000000 0"></feColorMatrix>
        </filter>
    </defs>
    <g id="Page-1" stroke="none" stroke-width="1" fill="none" fill-rule="evenodd">
        <g id="share" transform="translate(-401.000000, -18.000000)" filter="url(#filter-1)">
            <g transform="translate(401.000000, 18.000000)">
                <path d="M21.813354,6.11168796 L16.0355073,0.200745306 C15.8470302,0.00817147365 15.5581298,-0.0522784644 15.3066643,0.0474558859 C15.0542223,0.148152283 14.8888573,0.388989824 14.8888573,0.65692563 L14.8888573,3.50304197 L14.6666887,3.50304197 C9.88803072,3.50304197 6,7.33335334 6,12.0410703 L6,13.3546131 C6,13.6592678 6.21777401,13.9132536 6.51904432,13.9825225 C6.56803532,13.9947086 6.61686357,14 6.66569182,14 C6.91732004,14 7.15820607,13.8545675 7.27458007,13.6260764 C8.5244205,11.1627026 11.037285,9.63285498 13.832865,9.63285498 L14.8888573,9.63285498 L14.8888573,12.4788109 C14.8888573,12.7469071 15.0542223,12.9877447 15.3066643,13.087479 C15.5565022,13.1881754 15.8470302,13.1269238 16.0355073,12.9341896 L21.813354,7.0232469 C22.0622153,6.76845937 22.0622153,6.36743758 21.813354,6.11168796 L21.813354,6.11168796 Z" id="Path" fill="#FFFFFF" fill-rule="nonzero"></path>
                <path d="M19.25,22 L2.74999999,22 C1.23384094,22 0,20.7214583 0,19.1499826 L0,5.8500174 C0,4.2787157 1.23384094,3 2.74999999,3 L5.5,3 C6.00689696,3 6.41661074,3.42461501 6.41661074,3.9499478 C6.41661074,4.4752806 6.00689696,4.89989561 5.5,4.89989561 L2.74999999,4.89989561 C2.24394224,4.89989561 1.83322145,5.32555435 1.83322145,5.8500174 L1.83322145,19.1499826 C1.83322145,19.6744457 2.24394224,20.1001044 2.74999999,20.1001044 L19.25,20.1001044 C19.7558899,20.1001044 20.1666107,19.6744457 20.1666107,19.1499826 L20.1666107,11.5500522 C20.1666107,11.0247194 20.5763245,10.5999304 21.0832215,10.5999304 C21.5902863,10.5999304 22,11.0247194 22,11.5500522 L22,19.1499826 C22,20.7214583 20.766159,22 19.25,22 L19.25,22 Z" id="Path" fill="#FFFFFF" fill-rule="nonzero"></path>
            </g>
        </g>
    </g>
</svg>