<?xml version="1.0" encoding="UTF-8"?>
<svg width="28px" height="24px" viewBox="0 0 28 24" version="1.1" xmlns="http://www.w3.org/2000/svg" xmlns:xlink="http://www.w3.org/1999/xlink">
    <title>gem_small</title>
    <g id="Page-1" stroke="none" stroke-width="1" fill="none" fill-rule="evenodd">
        <g id="Dashboard02" transform="translate(-46.000000, -400.000000)" fill-rule="nonzero">
            <g id="Coupon_bg" transform="translate(28.000000, 381.000000)">
                <g id="gem_small" transform="translate(18.000000, 19.000000)">
                    <path d="M20.2785673,0 L7.32143274,0 C7.02031213,0 6.74204779,0.159787308 6.59148749,0.419200393 L0.112920227,11.5807728 C-0.0376400758,11.8401859 -0.0376400758,12.1597605 0.112920227,12.4191736 L6.59148749,23.5807996 C6.74204779,23.8402127 7.02031213,24 7.32143274,24 L20.2785673,24 C20.5796879,24 20.8579522,23.8402127 21.0085125,23.5807996 L27.4870798,12.4191736 C27.6376401,12.1597605 27.6376401,11.8401859 27.4870798,11.5807728 L21.0085125,0.419200393 C20.8579522,0.159787308 20.5796879,0 20.2785673,0 Z" id="Path" fill="#FFD45D"></path>
                    <path d="M27.6,12 L22.1112787,12 L18,19.1963086 L20.7443874,24 C20.8696095,23.9269289 20.9761393,23.8211653 21.0509083,23.6902328 L27.4877929,12.4231085 C27.5626155,12.2922301 27.6,12.146088 27.6,12 Z" id="Path" fill="#FF6500"></path>
                    <path d="M17.7579375,19.2 L9.8420625,19.2 L7.2,23.8893047 C7.32055312,23.9606358 7.45910156,24 7.60311562,24 L19.9968844,24 C20.1408984,24 20.2794469,23.9606358 20.4,23.8893047 L17.7579375,19.2 Z" id="Path" fill="#FF9416"></path>
                    <path d="M9.6,19.1962761 L5.48872127,12 L0,12 C0,12.1460873 0.0373845124,12.2922288 0.112207097,12.4231607 L6.54909172,23.6902342 C6.6239143,23.8211662 6.73039054,23.9269293 6.85561259,24 L9.6,19.1962761 Z" id="Path" fill="#FFC13F"></path>
                    <path d="M9.6,4.8037239 L6.85561259,0 C6.73039054,0.0730707298 6.62386075,0.178833845 6.54909172,0.309765768 L0.112207097,11.5768934 C0.0373845124,11.7077712 0,11.8539127 0,12 L5.48872127,12 L9.6,4.8037239 Z" id="Path" fill="#FFD45D"></path>
                    <path d="M9.8420625,4.8 L17.7579375,4.8 L20.4,0.110694039 C20.2794469,0.0393637514 20.1408984,0 19.9968844,0 L7.60311562,0 C7.45910156,0 7.32055312,0.0393637514 7.2,0.110694039 L9.8420625,4.8 Z" id="Path" fill="#FFC13F"></path>
                    <path d="M18,4.8037239 L22.1112787,12 L27.6,12 C27.6,11.8539127 27.5626155,11.7077712 27.4877929,11.5768934 L21.0509083,0.309765768 C20.9761393,0.178833845 20.8696095,0.0730707298 20.7443874,0 L18,4.8037239 Z" id="Path" fill="#FF9416"></path>
                    <polygon id="Path" fill="#FF7B05" points="17.4000274 4.8 8.99997264 4.8 4.8 12 8.99997264 19.2 17.4000274 19.2 21.6 12"></polygon>
                    <path d="M9.75681856,4.11510921 L10.2655891,3.72594203 C10.38137,3.63739571 10.5345315,3.76965611 10.4688686,3.90149056 L10.1803261,4.48079538 C10.1494963,4.54271924 10.1677446,4.61838028 10.2231656,4.65847371 L10.7417622,5.03374397 C10.8597786,5.11914883 10.7842897,5.30923323 10.6415781,5.2859652 L10.0144272,5.18389467 C9.94741255,5.17297946 9.88273745,5.21413779 9.86261746,5.28053421 L9.674363,5.90163631 C9.63152354,6.04294835 9.43167539,6.02814626 9.40916388,5.88198893 L9.31012363,5.23964211 C9.29951774,5.1710094 9.24134134,5.12074618 9.17349487,5.12165135 L8.53854548,5.13022378 C8.39406629,5.13219384 8.34602787,4.93295132 8.47480619,4.86586271 L9.04071335,4.5708858 C9.10117729,4.5393648 9.12987557,4.46716468 9.10803992,4.40135395 L8.90387663,3.78557635 C8.8573979,3.64543569 9.02755997,3.53713551 9.1297196,3.64181504 L9.57849412,4.10190447 C9.62653254,4.15104954 9.7024374,4.1566935 9.75681856,4.11510921 Z" id="Path" fill="#FFFFFF"></path>
                </g>
            </g>
        </g>
    </g>
</svg>