<?xml version="1.0" encoding="UTF-8"?>
<svg width="45px" height="39px" viewBox="0 0 45 39" version="1.1" xmlns="http://www.w3.org/2000/svg" xmlns:xlink="http://www.w3.org/1999/xlink">
    <title>gem-D-02</title>
    <g id="Page-1" stroke="none" stroke-width="1" fill="none" fill-rule="evenodd">
        <g id="Dashboard02" transform="translate(-203.000000, -94.000000)" fill-rule="nonzero">
            <g id="Coupon_bg" transform="translate(28.000000, 63.000000)">
                <g id="gem-D-02" transform="translate(175.000000, 31.000000)">
                    <path d="M32.9526718,0 L11.8973282,0 C11.4080072,0 10.9558277,0.259654375 10.7111672,0.681200639 L0.18349537,18.8187558 C-0.0611651232,19.2403021 -0.0611651232,19.7596108 0.18349537,20.1811571 L10.7111672,38.3187994 C10.9558277,38.7403456 11.4080072,39 11.8973282,39 L32.9526718,39 C33.4419928,39 33.8941723,38.7403456 34.1388328,38.3187994 L44.6665046,20.1811571 C44.9111651,19.7596108 44.9111651,19.2403021 44.6665046,18.8187558 L34.1388328,0.681200639 C33.8941723,0.259654375 33.4419928,0 32.9526718,0 Z" id="Path" fill="#FFD45D"></path>
                    <path d="M44.85,18.972973 L35.9049001,18.972973 L29.2046512,30.9830285 L33.6772447,39 C33.8813221,38.8780503 34.0549362,38.7015395 34.1767891,38.4830237 L44.6671334,19.6791067 C44.7890736,19.4606813 44.85,19.216782 44.85,18.972973 Z" id="Path" fill="#FF6500"></path>
                    <path d="M28.9926241,31.6216216 L15.8573759,31.6216216 L11.4732558,38.8298434 C11.6732963,38.9394909 11.9031973,39 12.1421678,39 L32.7078322,39 C32.9468027,39 33.1767037,38.9394909 33.3767442,38.8298434 L28.9926241,31.6216216 Z" id="Path" fill="#FF9416"></path>
                    <path d="M15.6453488,30.9829743 L8.94509989,18.972973 L0,18.972973 C0,19.2167809 0.060926431,19.4606791 0.18286658,19.6791939 L10.6732109,38.483026 C10.795151,38.7015408 10.9686779,38.8780509 11.1727553,39 L15.6453488,30.9829743 Z" id="Path" fill="#FFC13F"></path>
                    <path d="M15.6453488,8.0170257 L11.1727553,0 C10.9686779,0.121949123 10.7950638,0.298459188 10.6732109,0.51697395 L0.18286658,19.3208964 C0.060926431,19.5393209 0,19.7832191 0,20.027027 L8.94509989,20.027027 L15.6453488,8.0170257 Z" id="Path" fill="#FFD45D"></path>
                    <path d="M15.8573759,7.37837838 L28.9926241,7.37837838 L33.3767442,0.170154689 C33.1767037,0.0605084693 32.9468027,0 32.7078322,0 L12.1421678,0 C11.9031973,0 11.6732963,0.0605084693 11.4732558,0.170154689 L15.8573759,7.37837838 Z" id="Path" fill="#FFC13F"></path>
                    <path d="M29.2046512,8.0170257 L35.9049001,20.027027 L44.85,20.027027 C44.85,19.7832191 44.7890736,19.5393209 44.6671334,19.3208964 L34.1767891,0.51697395 C34.0549362,0.298459188 33.8813221,0.121949123 33.6772447,0 L29.2046512,8.0170257 Z" id="Path" fill="#FF9416"></path>
                    <polygon id="Path" fill="#FF7B05" points="28.6831837 8.43243243 15.123793 8.43243243 8.34418605 20.027027 15.123793 31.6216216 28.6831837 31.6216216 35.4627907 20.027027"></polygon>
                    <path d="M15.9179578,6.17519186 L16.8023904,5.49151978 C17.0036607,5.33596544 17.2699123,5.56831479 17.1557657,5.79991584 L16.6541716,6.81761351 C16.6005778,6.92639866 16.6323002,7.05931671 16.7286425,7.12975111 L17.6301563,7.78900967 C17.8353128,7.93904525 17.704085,8.2729773 17.4559992,8.23210102 L16.3657775,8.05278793 C16.2492811,8.03361256 16.1368517,8.10591774 16.1018757,8.22256011 L15.7746194,9.31368541 C15.7001485,9.56193629 15.352738,9.53593262 15.3136047,9.27916974 L15.1414358,8.15072262 C15.1229989,8.03015164 15.0218666,7.9418514 14.9039242,7.94344155 L13.8001459,7.95850123 C13.5489873,7.96196216 13.4654787,7.61194151 13.6893433,7.49408314 L14.6731005,6.97588046 C14.7782094,6.92050574 14.8280976,6.79366768 14.7901392,6.67805424 L14.4352274,5.59628277 C14.3544301,5.35008973 14.6502351,5.15983265 14.8278265,5.34372912 L15.6079636,6.15199434 C15.6914723,6.23833027 15.8234232,6.24824534 15.9179578,6.17519186 Z" id="Path" fill="#FFFFFF"></path>
                </g>
            </g>
        </g>
    </g>
</svg>