<?xml version="1.0" encoding="UTF-8"?>
<svg width="24px" height="31px" viewBox="0 0 24 31" version="1.1" xmlns="http://www.w3.org/2000/svg" xmlns:xlink="http://www.w3.org/1999/xlink">
    <title>price-tag</title>
    <g id="Page-1" stroke="none" stroke-width="1" fill="none" fill-rule="evenodd">
        <g id="Dashboard02" transform="translate(-47.000000, -320.000000)">
            <g id="Coupon_bg" transform="translate(28.000000, 308.000000)">
                <g id="price-tag" transform="translate(19.000000, 12.000000)">
                    <path d="M11.0411787,6.64285714 L6.6227556,8.81147797 C6.22575577,9.01222765 5.91037019,9.34679013 5.73098822,9.75700714 L0.218849364,23.6809148 C-0.350937966,24.981307 0.230223331,26.5013472 1.51705456,27.0757973 L6.99973,29.5238095 L11.0714286,29.5238095 L11.0411787,6.64285714 Z" id="Path" fill="#645FBC" fill-rule="nonzero"></path>
                    <path d="M23.6190476,25.485244 L23.6190476,28.2116402 C23.6190476,29.7294994 22.3492456,31 20.8309354,31 L9.36895077,31 C7.85064053,31 6.64285714,29.7294994 6.64285714,28.2116402 L6.64285714,12.1630805 C6.64285714,11.6843501 6.77854226,11.2304671 7.08330713,10.8612263 L10.5295232,6.68525479 C10.9211513,6.21061399 11.4795668,5.9047619 12.0950444,5.9047619 L18.1048417,5.9047619 C18.7203193,5.9047619 19.2787348,6.21061399 19.6704249,6.68525479 L23.116641,10.8612263 C23.4213439,11.2304671 23.6190476,11.6844121 23.6190476,12.1630805 L23.6190476,23.3165197 L23.6190476,25.485244 L23.6190476,25.485244 Z" id="Path" fill="#837DF0" fill-rule="nonzero"></path>
                    <g id="Group" transform="translate(10.333333, 15.500000)" fill="#554ECA">
                        <path d="M3.64739893,1.07578312 L3.64746136,1.07508756 L3.6313564,1.05877345 C3.62286696,1.04998406 3.61425268,1.0412579 3.60557597,1.03265821 L2.95975459,0.378070141 L2.86811862,0.562900216 C2.65444699,0.485250085 2.42448314,0.442631039 2.18478141,0.442631039 L2.12235909,0.442631039 C1.00368858,0.442631039 0.0936334891,1.36456826 0.0936334891,2.49770372 C0.0936334891,2.73242464 0.133209244,2.95778707 0.205057341,3.16810005 L0.0154183145,3.26661707 L0.684211116,3.94561308 C0.687020121,3.94845857 0.689829125,3.95136729 0.69263813,3.95421277 L0.701626945,3.96331833 L0.701939056,3.96312863 C1.06810842,4.3274772 1.56967181,4.5527764 2.12235909,4.5527764 L2.18478141,4.5527764 C3.30345192,4.5527764 4.21350701,3.63083918 4.21350701,2.49770372 C4.21350701,1.94624868 3.99758818,1.44525358 3.64739893,1.07578312 L3.64739893,1.07578312 Z M2.18478141,3.60428132 L2.12235909,3.60428132 C1.52004606,3.60428132 1.02996838,3.10783899 1.02996838,2.49770372 C1.02996838,1.88756845 1.52004606,1.39112612 2.12235909,1.39112612 L2.18478141,1.39112612 C2.78709444,1.39112612 3.27717212,1.88756845 3.27717212,2.49770372 C3.27717212,3.10783899 2.78709444,3.60428132 2.18478141,3.60428132 Z" id="Shape"></path>
                        <path d="M9.50716995,0.644786958 L8.88294669,0.0124569021 L0.230712917,8.77693088 L0.854936178,9.40926093 C0.946384885,9.50183405 1.06623575,9.54818385 1.18602419,9.54818385 C1.30581264,9.54818385 1.4256635,9.50189729 1.51711221,9.40926093 L9.50716995,1.31543622 C9.68994252,1.13028998 9.68994252,0.829933199 9.50716995,0.644786958 Z" id="Path"></path>
                        <path d="M9.62995466,5.94130997 L9.63051646,5.94105704 L9.11409656,5.41065859 L9.14755493,5.62571404 C8.89000041,5.50557133 8.60379404,5.43803848 8.30216936,5.43803848 L8.23974704,5.43803848 C7.12107653,5.43803848 6.21102144,6.3599757 6.21102144,7.49311116 C6.21102144,7.78594321 6.27219532,8.0644846 6.38168408,8.31684753 L6.1524693,8.28301787 L6.77369629,8.91142748 C6.79585621,8.93495016 6.81857794,8.95790374 6.84186147,8.98035146 L6.85609376,8.99476858 L6.8562186,8.99426272 C7.21889232,9.33742824 7.70534951,9.54818385 8.23974704,9.54818385 L8.30216936,9.54818385 C9.42083987,9.54818385 10.330895,8.62624663 10.330895,7.49311116 C10.330895,6.87399681 10.0588585,6.31843162 9.62995466,5.94130997 L9.62995466,5.94130997 Z M8.30216936,8.59968876 L8.23974704,8.59968876 C7.63743401,8.59968876 7.14735633,8.10324644 7.14735633,7.49311116 C7.14735633,6.88297589 7.63743401,6.38653357 8.23974704,6.38653357 L8.30216936,6.38653357 C8.90448239,6.38653357 9.39456007,6.88297589 9.39456007,7.49311116 C9.39456007,8.10324644 8.90448239,8.59968876 8.30216936,8.59968876 Z" id="Shape"></path>
                    </g>
                    <g id="Group" transform="translate(10.333333, 15.500000)" fill="#FFFFFF" fill-rule="nonzero">
                        <path d="M1.04959216,8.80536975 C0.937693978,8.80536975 0.82573748,8.76060912 0.74031234,8.67102671 C0.569520371,8.49192304 0.569520371,8.20152929 0.74031234,8.02248677 L8.20407885,0.195491438 C8.37492913,0.0163877715 8.65178822,0.0163877715 8.82258019,0.195491438 C8.99337215,0.374595105 8.99337215,0.664988861 8.82258019,0.844031379 L1.35881368,8.67102671 C1.27344685,8.76060912 1.16149035,8.80536975 1.04959216,8.80536975 Z" id="Path"></path>
                        <path d="M1.98256298,3.97464607 L1.9242523,3.97464607 C0.879266681,3.97464607 0.0291553379,3.08310238 0.0291553379,1.98732303 C0.0291553379,0.891543687 0.879266681,0 1.9242523,0 L1.98256298,0 C3.0275486,0 3.87765994,0.891543687 3.87765994,1.98732303 C3.87765994,3.08310238 3.0275486,3.97464607 1.98256298,3.97464607 Z M1.9242523,0.917226015 C1.36161259,0.917226015 0.903815475,1.39730211 0.903815475,1.98732303 C0.903815475,2.57734395 1.36161259,3.05742005 1.9242523,3.05742005 L1.98256298,3.05742005 C2.54520269,3.05742005 3.00299981,2.57734395 3.00299981,1.98732303 C3.00299981,1.39730211 2.54520269,0.917226015 1.98256298,0.917226015 L1.9242523,0.917226015 Z" id="Shape"></path>
                        <path d="M7.69700921,8.80536975 L7.63869853,8.80536975 C6.59371291,8.80536975 5.74360157,7.91382606 5.74360157,6.81804671 C5.74360157,5.72226737 6.59371291,4.83072368 7.63869853,4.83072368 L7.69700921,4.83072368 C8.74199483,4.83072368 9.59210617,5.72226737 9.59210617,6.81804671 C9.59210617,7.91382606 8.74199483,8.80536975 7.69700921,8.80536975 Z M7.63869853,5.7479497 C7.07605882,5.7479497 6.61826171,6.22802579 6.61826171,6.81804671 C6.61826171,7.40806764 7.07605882,7.88814373 7.63869853,7.88814373 L7.69700921,7.88814373 C8.25964892,7.88814373 8.71744604,7.40806764 8.71744604,6.81804671 C8.71744604,6.22802579 8.25964892,5.7479497 7.69700921,5.7479497 L7.63869853,5.7479497 Z" id="Shape"></path>
                    </g>
                    <path d="M16.6902684,9.5952381 C16.4939802,9.5952381 16.3133107,9.46759573 16.2560223,9.27131944 C16.1866128,9.03343234 16.324889,8.78478383 16.564837,8.71597054 C16.6161553,8.70126327 16.6677752,8.68512115 16.7183096,8.66802245 C18.0974528,8.20127588 19.0240175,6.91624312 19.0240175,5.47038697 L19.0240175,0.448392374 C19.0240175,0.200760212 19.226517,0 19.4762945,0 C19.726072,0 19.9285714,0.200760212 19.9285714,0.448392374 L19.9285714,5.47038697 C19.9285714,7.29994742 18.7559077,8.92599753 17.0104805,9.51667975 C16.9464984,9.53832216 16.8811293,9.55876885 16.816122,9.57742197 C16.774211,9.58949867 16.7318779,9.5952381 16.6902684,9.5952381 L16.6902684,9.5952381 Z" id="Path" fill="#C2BFF9" fill-rule="nonzero"></path>
                    <path d="M15.5,11.0714286 C14.6860223,11.0714286 14.0238095,10.4092158 14.0238095,9.5952381 C14.0238095,8.78126039 14.6860223,8.11904762 15.5,8.11904762 C16.3139777,8.11904762 16.9761905,8.78126039 16.9761905,9.5952381 C16.9761905,10.4092158 16.3139777,11.0714286 15.5,11.0714286 Z" id="Path" fill="#F5F5F5" fill-rule="nonzero"></path>
                </g>
            </g>
        </g>
    </g>
</svg>