<?xml version="1.0" encoding="UTF-8"?>
<svg width="107px" height="78px" viewBox="0 0 107 78" version="1.1" xmlns="http://www.w3.org/2000/svg" xmlns:xlink="http://www.w3.org/1999/xlink">
    <title>Group</title>
    <defs>
        <linearGradient x1="24.782128%" y1="93.0398926%" x2="70.2854209%" y2="-14.9591082%" id="linearGradient-1">
            <stop stop-color="#4753DA" offset="0%"></stop>
            <stop stop-color="#C86FF2" offset="100%"></stop>
        </linearGradient>
        <linearGradient x1="16.5730034%" y1="93.0398926%" x2="76.4708121%" y2="-14.2105082%" id="linearGradient-2">
            <stop stop-color="#4753DA" offset="0%"></stop>
            <stop stop-color="#C79CFF" offset="100%"></stop>
        </linearGradient>
        <linearGradient x1="308.136704%" y1="70.6002837%" x2="308.136704%" y2="106.783986%" id="linearGradient-3">
            <stop stop-color="#EDEDED" offset="0%"></stop>
            <stop stop-color="#FFFFFF" offset="100%"></stop>
        </linearGradient>
        <linearGradient x1="308.136704%" y1="70.6002837%" x2="308.136704%" y2="106.783986%" id="linearGradient-4">
            <stop stop-color="#6DF0EA" offset="0%"></stop>
            <stop stop-color="#FFFFFF" offset="100%"></stop>
        </linearGradient>
        <linearGradient x1="308.136704%" y1="70.6002837%" x2="308.136704%" y2="106.783986%" id="linearGradient-5">
            <stop stop-color="#EDEDED" offset="0%"></stop>
            <stop stop-color="#FFFFFF" offset="100%"></stop>
        </linearGradient>
        <linearGradient x1="50%" y1="97.8080055%" x2="80.0030147%" y2="8.48250886%" id="linearGradient-6">
            <stop stop-color="#FFF6C7" offset="0%"></stop>
            <stop stop-color="#FBDA5F" offset="100%"></stop>
        </linearGradient>
        <linearGradient x1="6.34024936%" y1="93.0398926%" x2="85.1201886%" y2="-14.9591082%" id="linearGradient-7">
            <stop stop-color="#FFB21D" offset="0%"></stop>
            <stop stop-color="#C8331E" offset="100%"></stop>
        </linearGradient>
        <linearGradient x1="19.6807287%" y1="93.0398926%" x2="74.3890198%" y2="-14.9591082%" id="linearGradient-8">
            <stop stop-color="#4753DA" offset="0%"></stop>
            <stop stop-color="#C86FF2" offset="100%"></stop>
        </linearGradient>
        <linearGradient x1="308.136704%" y1="70.6002837%" x2="308.136704%" y2="106.783986%" id="linearGradient-9">
            <stop stop-color="#EDEDED" offset="0%"></stop>
            <stop stop-color="#FFFFFF" offset="100%"></stop>
        </linearGradient>
        <linearGradient x1="50%" y1="100%" x2="60.969193%" y2="6.57893407%" id="linearGradient-10">
            <stop stop-color="#FFF6C7" offset="0%"></stop>
            <stop stop-color="#FBDA5F" offset="100%"></stop>
        </linearGradient>
        <linearGradient x1="308.136704%" y1="70.6002837%" x2="308.136704%" y2="106.783986%" id="linearGradient-11">
            <stop stop-color="#EDEDED" offset="0%"></stop>
            <stop stop-color="#FFFFFF" offset="100%"></stop>
        </linearGradient>
        <linearGradient x1="308.136704%" y1="70.6002837%" x2="308.136704%" y2="105.747886%" id="linearGradient-12">
            <stop stop-color="#5746D9" offset="0%"></stop>
            <stop stop-color="#5B78E1" offset="100%"></stop>
        </linearGradient>
    </defs>
    <g id="Page-1" stroke="none" stroke-width="1" fill="none" fill-rule="evenodd">
        <g id="Dashboard041" transform="translate(-172.000000, -73.000000)" fill-rule="nonzero">
            <g id="Group" transform="translate(172.000000, 73.000000)">
                <g id="Group-8">
                    <path d="M14.5113658,12.8695803 C14.6040475,13.1743666 14.7875729,13.4156175 15.0191457,13.5377775 L20.4269754,16.3861333 C21.1910082,16.7885249 21.1910082,18.2114751 20.4269754,18.6141736 L15.0191457,21.4625294 C14.7875729,21.5843825 14.6040475,21.8259403 14.5113658,22.1304197 L12.3466061,29.2460912 C12.0407305,30.2513029 10.9592695,30.2513029 10.6533939,29.2460912 L8.48863417,22.1304197 C8.39595252,21.8256334 8.21242711,21.5843825 7.98085427,21.4625294 L2.57302462,18.6141736 C1.80899179,18.211782 1.80899179,16.7885249 2.57302462,16.3861333 L7.98085427,13.5377775 C8.21242711,13.4159244 8.39595252,13.1743666 8.48863417,12.8695803 L10.6533939,5.75390882 C10.9592695,4.74869706 12.0407305,4.74869706 12.3466061,5.75390882 L14.5113658,12.8695803 Z" id="Path" fill="url(#linearGradient-1)" opacity="0.186896188"></path>
                    <path d="M100.623839,12.482421 L102.218906,17.0363909 C102.287237,17.2312925 102.422332,17.3859426 102.592897,17.4640621 L106.577696,19.2870271 C107.140768,19.5446891 107.140768,20.4553771 106.577696,20.7127743 L102.592897,22.5357393 C102.422332,22.6138588 102.286976,22.7682441 102.218906,22.9634104 L100.623839,27.5173803 C100.398506,28.1608732 99.601494,28.1608732 99.3761608,27.5173803 L97.7810937,22.9634104 C97.7127635,22.7685089 97.5776679,22.6138588 97.4071031,22.5357393 L93.4223042,20.7127743 C92.8592319,20.4551123 92.8592319,19.5444243 93.4223042,19.2870271 L97.4071031,17.4640621 C97.5776679,17.3859426 97.7130243,17.2315573 97.7810937,17.0363909 L99.3761608,12.482421 C99.601494,11.839193 100.398506,11.839193 100.623839,12.482421 Z" id="Path" fill="url(#linearGradient-2)" opacity="0.272716704"></path>
                    <path d="M59.8119196,0.301513152 L60.6094532,3.14774434 C60.6436183,3.26955781 60.7111661,3.36621414 60.7964484,3.41503883 L62.7888479,4.55439195 C63.070384,4.71543067 63.070384,5.28461071 62.7888479,5.44548392 L60.7964484,6.58483704 C60.7111661,6.63366173 60.6434879,6.73015256 60.6094532,6.85213153 L59.8119196,9.69836272 C59.699253,10.1005458 59.300747,10.1005458 59.1880804,9.69836272 L58.3905468,6.85213153 C58.3563817,6.73031806 58.2888339,6.63366173 58.2035516,6.58483704 L56.2111521,5.44548392 C55.929616,5.2844452 55.929616,4.71526516 56.2111521,4.55439195 L58.2035516,3.41503883 C58.2888339,3.36621414 58.3565121,3.26972331 58.3905468,3.14774434 L59.1880804,0.301513152 C59.300747,-0.100504384 59.699253,-0.100504384 59.8119196,0.301513152 Z" id="Path-Copy" fill="url(#linearGradient-3)"></path>
                    <path d="M38.8119196,22.3015132 L39.6094532,25.1477443 C39.6436183,25.2695578 39.7111661,25.3662141 39.7964484,25.4150388 L41.7888479,26.5543919 C42.070384,26.7154307 42.070384,27.2846107 41.7888479,27.4454839 L39.7964484,28.584837 C39.7111661,28.6336617 39.6434879,28.7301526 39.6094532,28.8521315 L38.8119196,31.6983627 C38.699253,32.1005458 38.300747,32.1005458 38.1880804,31.6983627 L37.3905468,28.8521315 C37.3563817,28.7303181 37.2888339,28.6336617 37.2035516,28.584837 L35.2111521,27.4454839 C34.929616,27.2844452 34.929616,26.7152652 35.2111521,26.5543919 L37.2035516,25.4150388 C37.2888339,25.3662141 37.3565121,25.2697233 37.3905468,25.1477443 L38.1880804,22.3015132 C38.300747,21.8994956 38.699253,21.8994956 38.8119196,22.3015132 Z" id="Path-Copy-3" fill="url(#linearGradient-3)"></path>
                    <path d="M77.8119196,34.3015132 L78.6094532,37.1477443 C78.6436183,37.2695578 78.7111661,37.3662141 78.7964484,37.4150388 L80.7888479,38.5543919 C81.070384,38.7154307 81.070384,39.2846107 80.7888479,39.4454839 L78.7964484,40.584837 C78.7111661,40.6336617 78.6434879,40.7301526 78.6094532,40.8521315 L77.8119196,43.6983627 C77.699253,44.1005458 77.300747,44.1005458 77.1880804,43.6983627 L76.3905468,40.8521315 C76.3563817,40.7303181 76.2888339,40.6336617 76.2035516,40.584837 L74.2111521,39.4454839 C73.929616,39.2844452 73.929616,38.7152652 74.2111521,38.5543919 L76.2035516,37.4150388 C76.2888339,37.3662141 76.3565121,37.2697233 76.3905468,37.1477443 L77.1880804,34.3015132 C77.300747,33.8994956 77.699253,33.8994956 77.8119196,34.3015132 Z" id="Path-Copy-2" fill="url(#linearGradient-3)"></path>
                    <path d="M0.676224084,38.5526886 C0.828825795,38.6889138 16.012696,52.4455211 22.2673516,76.5614013 C22.8989112,79.0972246 26.600384,77.9900267 25.9159427,75.4924749 C19.3339237,50.1139018 3.76477191,36.0540663 3.10526056,35.4679499 C2.30372385,34.7560459 1.11212105,34.8692547 0.441277886,35.7200603 C-0.229061643,36.5708658 -0.123801717,37.8389112 0.676224084,38.5526886 Z" id="Path" fill="url(#linearGradient-4)" opacity="0.183587937"></path>
                    <path d="M78.0416814,36.7535053 C78.9911867,37.2822817 80.2203336,36.9358513 80.7514399,35.9486587 C80.7769586,35.9013938 83.3421116,31.189671 86.3240688,28.5312871 C87.1512975,27.7938468 87.2302457,26.5184993 86.500041,25.6827694 C85.7701021,24.8470395 84.5079936,24.7675485 83.6804992,25.5049888 C80.16398,28.6397816 77.360919,33.79891 77.243427,34.0169732 C76.716308,34.995035 77.0735687,36.219895 78.0416814,36.7535053 Z" id="Path" fill="url(#linearGradient-5)"></path>
                    <ellipse id="Oval" fill="url(#linearGradient-6)" transform="translate(79.902791, 8.409326) rotate(-76.700416) translate(-79.902791, -8.409326) " cx="79.9027908" cy="8.40932625" rx="5.03137508" ry="4.91985162"></ellipse>
                    <circle id="Oval" fill="url(#linearGradient-7)" opacity="0.33286903" cx="43.5" cy="9.5" r="2.5"></circle>
                    <path d="M16.6759572,28.5313476 C19.6578437,31.1896141 22.2229359,35.9011289 22.2487197,35.9483917 C22.7795476,36.9358092 24.0081338,37.2819558 24.9578824,36.7540084 C25.9265038,36.2209587 26.2840218,34.9953472 25.7561179,34.016523 C25.6386287,33.7984694 22.8353683,28.6398373 19.3191984,25.5051829 C18.4917235,24.767238 17.2293792,24.8472626 16.4997234,25.6829557 C15.7698018,26.5186487 15.8487482,27.7939399 16.6759572,28.5313476 L16.6759572,28.5313476 Z" id="Path" fill="url(#linearGradient-8)" opacity="0.110373361"></path>
                    <path d="M48.9763762,44.0551144 C48.9763762,45.1291364 49.8772075,46 50.9881881,46 C52.0991687,46 53,45.1291364 53,44.0551144 C53,36.039287 49.8437442,31.1106906 49.7093557,30.9049442 C49.1182605,29.9991425 47.8835996,29.7292136 46.9442186,30.2970218 C46.0048377,30.8643125 45.7191952,32.0628175 46.3019915,32.9732776 C46.3284944,33.0152033 48.9763762,37.2305456 48.9763762,44.0551144 L48.9763762,44.0551144 Z" id="Path" fill="url(#linearGradient-9)"></path>
                    <path d="M78.3906021,77.9263261 C79.3714771,78.2220555 80.4445689,77.6019863 80.7192039,76.5233492 C86.9660145,52.4724691 102.115784,38.7344187 102.321382,38.5504567 C103.123367,37.8386739 103.229693,36.5717967 102.559231,35.7204381 C101.888265,34.8693469 100.694485,34.7559751 99.8919969,35.4677579 C99.2321172,36.0533343 83.6542701,50.1002162 77.0685751,75.4554075 C76.7906647,76.5252209 77.3825155,77.6316662 78.3906021,77.9263261 L78.3906021,77.9263261 Z" id="Path" fill="url(#linearGradient-10)"></path>
                    <polygon id="Path" fill="url(#linearGradient-11)" points="63 20 68 20 68 25 63 25"></polygon>
                    <polygon id="Path" fill="url(#linearGradient-12)" opacity="0.214107695" points="26 7 31 7 31 12 26 12"></polygon>
                </g>
                <g id="badge-(1)" transform="translate(27.000000, 11.000000)">
                    <path d="M52.5163139,24.6116846 L49.2531509,23.2427266 C48.7328571,23.0244807 48.3522777,22.5615995 48.2353222,22.0049714 L47.5020851,18.5141019 C47.2076945,17.1124761 45.4496747,16.6602358 44.5270962,17.7488048 L42.2295007,20.4599057 C41.8631456,20.892141 41.3096617,21.1147497 40.7494345,21.0549476 L40.1186125,20.9876968 L38.5714286,21.6794648 L39.2525098,29.556427 L47.5596146,32.8571429 L48.678594,32.4239498 L48.802925,30.8485574 C48.8477052,30.2813948 49.1660138,29.7727575 49.6539604,29.4885378 L52.7147167,27.7055404 C53.9438028,26.9897238 53.8265313,25.161396 52.5163139,24.6116846 L52.5163139,24.6116846 Z" id="Path" fill="#FFBA57"></path>
                    <path d="M37.648204,20.7142857 L40.1138285,20.9770949 C39.3985225,21.6975854 39.072986,22.724634 39.2440306,23.7318063 L40.041996,28.4318736 C40.076663,28.6360003 40.2239717,28.8016364 40.4204179,28.8607395 C44.4439748,30.0698301 47.2554364,31.5225896 48.5714286,32.2795726 L48.4238076,34.1494195 L43.2995478,35 L38.3910978,30.2554476 L34.2857143,25.6631752 L37.648204,20.7142857 Z" id="Path" fill="#FFAC3E"></path>
                    <path d="M1.05512935,24.6116846 L4.31828893,23.2427266 C4.83858218,23.0244807 5.2191612,22.5615995 5.33611655,22.0049714 L6.06935283,18.5141019 C6.36374314,17.1124761 8.12176114,16.6602358 9.04433865,17.7488048 L11.3419317,20.4599057 C11.7082865,20.892141 12.2617697,21.1147497 12.8219964,21.0549476 L13.4528177,20.9876968 L15,21.6794648 L14.3189195,29.556427 L6.01182344,32.8571429 L4.89284525,32.4239498 L4.76840897,30.8485574 C4.72362877,30.2813948 4.40532056,29.7727575 3.91737442,29.4885378 L0.85662135,27.7055404 C-0.372358093,26.9897238 -0.255086649,25.161396 1.05512935,24.6116846 L1.05512935,24.6116846 Z" id="Path" fill="#FFBA57"></path>
                    <path d="M15.9232246,20.7142857 L13.4576001,20.9770949 C14.172906,21.6975854 14.4984426,22.724634 14.327398,23.7318063 L13.5294326,28.4318736 C13.4947656,28.6360003 13.3474569,28.8016364 13.1510107,28.8607395 C9.12745376,30.0698301 6.3158881,31.5225896 5,32.2795726 L5.14762099,34.1494195 L10.2718808,35 L15.1803308,30.2554476 L19.2857143,25.6631752 L15.9232246,20.7142857 Z" id="Path" fill="#FFAC3E"></path>
                    <path d="M14.8750079,19.9981223 C15.6144923,20.7161181 15.952035,21.7505258 15.7774331,22.7644254 L14.833406,28.2467027 L16.5772192,29.2857143 L36.2801338,29.2857143 L38.023947,28.2467027 L37.0798148,22.7644254 C36.9052129,21.7506304 37.2427556,20.7161181 37.98224,19.9981223 L42.6204322,15.4951109 C44.4827478,13.6870423 43.4550967,10.5369433 40.8814516,10.1644476 L34.4716065,9.23676618 C33.4495233,9.08881427 32.5660081,8.449503 32.1090175,7.52715784 L29.242373,1.74207091 C28.091387,-0.580690304 24.7657559,-0.580690304 23.6147698,1.74207091 L20.7481254,7.52715784 C20.2910297,8.449503 19.4076196,9.08881427 18.3855364,9.23676618 L11.9756913,10.1644476 C9.40204614,10.5369433 8.37439503,13.6870423 10.2367106,15.4951109 L14.8750079,19.9981223 Z" id="Path" fill="#FFD400"></path>
                    <path d="M15.1978127,28.6115505 L15.0470494,29.5416193 C14.9808017,29.9503919 14.9867861,30.3440577 15.050724,30.7142857 L38.5206638,30.7142857 C38.5846017,30.3440577 38.5906911,29.9503919 38.5243384,29.5416193 L38.3735751,28.6115505 C35.1019276,27.7625698 31.2021346,27.1428571 26.7856939,27.1428571 C22.3692532,27.1428571 18.4694602,27.7624587 15.1978127,28.6115505 L15.1978127,28.6115505 Z" id="Path" fill="#F9CF58"></path>
                    <path d="M47.2294642,39.2857143 L41.5053812,40.0590484 L42.1039497,41.4692524 L40.8427595,42.1560217 L40.0266641,44.7386475 C39.9381948,45.0186273 40.0765536,45.3214957 40.3428073,45.4307323 C44.316529,47.0604941 47.0549565,48.9144784 48.3519785,49.890665 C48.7105066,50.1605563 49.2154266,49.900211 49.2194431,49.4438473 L49.251364,45.8203825 C49.2531609,45.6150351 49.3643553,45.427261 49.5410826,45.3309332 L52.5670091,43.6822963 C52.9188782,43.490617 52.9590435,42.9893438 52.641632,42.7422327 C51.7307254,42.033117 49.8941144,40.709044 47.2294642,39.2857143 Z" id="Path" fill="#C61926"></path>
                    <path d="M45.073469,44.2176328 C44.4278661,43.8668554 43.1873831,43.2424812 41.4285714,42.5746088 L42.0788422,40.7142857 C44.8752449,41.7586303 46.4204806,42.7171332 46.4285714,42.7222336 L45.8335877,43.9872456 C45.7053799,44.2597838 45.3501116,44.3679522 45.073469,44.2176328 Z" id="Path" fill="#B2182B"></path>
                    <path d="M6.34207009,39.2857143 C6.34207009,39.2857143 12.0661531,40.0590484 12.0660474,40.0590484 L11.4674788,41.4692524 L12.7286691,42.1560217 L13.5447645,44.7386475 C13.6332338,45.0186273 13.4948749,45.3214957 13.2286213,45.4307323 C9.25489956,47.0604941 6.51647203,48.9144784 5.2194501,49.890665 C4.86092199,50.1605563 4.35600196,49.900211 4.35198543,49.4438473 L4.31995889,45.8203825 C4.31816202,45.6150351 4.20696757,45.427261 4.03024027,45.3309332 L1.00441949,43.6822963 C0.652550364,43.490617 0.612385069,42.9893438 0.929796598,42.7422327 C1.84080891,42.033117 3.67731417,40.709044 6.34207009,39.2857143 Z" id="Path" fill="#C61926"></path>
                    <path d="M8.49795952,44.2176328 C9.14356249,43.8668554 10.3840455,43.2424812 12.1428571,42.5746088 L11.4925864,40.7142857 C8.6961837,41.7586303 7.15094793,42.7171332 7.14285714,42.7222336 L7.73784086,43.9872456 C7.86604865,44.2597838 8.22131699,44.3679522 8.49795952,44.2176328 Z" id="Path" fill="#B2182B"></path>
                    <path d="M45.1213476,40.5111149 C45.1213476,40.5111149 38.6836923,36.2376185 26.7857663,36.2376185 C14.8878403,36.2376185 8.41045723,40.7142857 8.41045723,40.7142857 L6.50903961,40.272319 L4.33067208,35.0902756 C4.2230329,34.8343149 4.31424021,34.5347405 4.54480647,34.3907288 C6.40108843,33.2307552 14.6147383,28.5714286 26.7857663,28.5714286 C38.9567943,28.5714286 47.1704441,33.2308631 49.0266221,34.3907288 C49.2571884,34.5347405 49.3483957,34.8343149 49.2407565,35.0902756 L47.062389,40.2722111 L45.1213476,40.5111149 Z" id="Path" fill="#FF4755"></path>
                    <path d="M26.7857143,35 C15.3331574,35 7.73936223,39.3070884 6.42857143,40.1064595 L7.33142375,42.1428571 C7.33142375,42.1428571 14.8405406,37.1907434 26.7857143,37.1907434 C38.730888,37.1907434 46.2400048,42.1428571 46.2400048,42.1428571 L47.1428571,40.1064595 C45.8320663,39.3070884 38.2382712,35 26.7857143,35 L26.7857143,35 Z" id="Path" fill="#FC2B3A"></path>
                </g>
            </g>
        </g>
    </g>
</svg>