<?xml version="1.0" encoding="UTF-8"?>
<svg width="10px" height="19px" viewBox="0 0 10 19" version="1.1" xmlns="http://www.w3.org/2000/svg" xmlns:xlink="http://www.w3.org/1999/xlink">
    <title>C3674666-B303-4247-B08E-347110E60CE6</title>
    <g id="Page-1" stroke="none" stroke-width="1" fill="none" fill-rule="evenodd">
        <g id="login2" transform="translate(-55.000000, -262.000000)" fill="#FFFFFF" fill-rule="nonzero">
            <g id="Group-4" transform="translate(32.000000, 102.000000)">
                <g id="socials" transform="translate(1.230000, 146.558395)">
                    <g id="Group-6" transform="translate(0.000000, 0.931605)">
                        <g id="facebook-icon" transform="translate(22.189519, 12.785610)">
                            <path d="M2.73578906,18.1912208 L2.73578906,10.054913 L0,10.054913 L0,6.82170779 L2.73578906,6.82170779 L2.73578906,4.26356737 C2.73578906,2.91343095 3.11476904,1.86531446 3.87274036,1.11918643 C4.63071168,0.373058414 5.63737725,0 6.89276725,0 C7.91129121,0 8.74030991,0.047372497 9.37984821,0.142118912 L9.37984821,3.02002689 L7.67442127,3.02002689 C7.03488296,3.02002689 6.59668737,3.16214438 6.35982133,3.44638362 C6.1703285,3.68324966 6.0755835,4.06222964 6.0755835,4.58333492 L6.0755835,6.82170779 L9.09561039,6.82170779 L8.66925365,10.054913 L6.0755835,10.054913 L6.0755835,18.1912208 L2.73578906,18.1912208 Z" id=""></path>
                        </g>
                    </g>
                </g>
            </g>
        </g>
    </g>
</svg>