<?xml version="1.0" encoding="UTF-8"?>
<svg width="17px" height="17px" viewBox="0 0 17 17" version="1.1" xmlns="http://www.w3.org/2000/svg" xmlns:xlink="http://www.w3.org/1999/xlink">
    <title>rupee</title>
    <g id="Page-1" stroke="none" stroke-width="1" fill="none" fill-rule="evenodd">
        <g id="Dashboard07" transform="translate(-326.000000, -89.000000)" fill-rule="nonzero">
            <g id="Group-5" transform="translate(28.000000, 62.000000)">
                <g id="Group" transform="translate(298.000000, 27.000000)">
                    <path d="M16.8804848,8.44024242 C16.8804848,13.1016677 13.1016677,16.8804848 8.44024242,16.8804848 C5.98292613,16.8804848 3.77089362,15.8304498 2.2285685,14.1544588 C1.82343686,13.7145327 1.46481269,13.2311996 1.15958596,12.7127276 C0.422701121,11.4594377 0,9.99910353 0,8.44024242 C0,3.77881711 3.77881711,0 8.44024242,0 C9.99944802,0 11.4597822,0.422701121 12.7127276,1.15993046 C13.2311996,1.46481269 13.7141882,1.82343686 14.1541143,2.228913 C15.8301053,3.77054912 16.8804848,5.98292613 16.8804848,8.44024242 Z" id="Path" fill="#F0CD00"></path>
                    <path d="M16.8804848,8.44024242 C16.8804848,12.9965953 13.2704726,16.709613 8.75442614,16.8746284 C4.2383797,16.709613 0.628367436,12.9965953 0.628367436,8.44024242 C0.628367436,3.88388951 4.2383797,0.170871847 8.75442614,0.00585649474 C13.2704726,0.170871847 16.8804848,3.88388951 16.8804848,8.44024242 Z" id="Path" fill="#FFDE50"></path>
                    <path d="M14.1541143,2.228913 L2.2285685,14.1544588 C1.82343686,13.7145327 1.46481269,13.2311996 1.15958596,12.7127276 L12.7127276,1.15993046 C13.2311996,1.46481269 13.7141882,1.82343686 14.1541143,2.228913 Z" id="Path" fill="#FFEA94"></path>
                    <path d="M16.2982804,5.35455869 L5.35421419,16.2986249 C4.57943439,15.9940871 3.86046353,15.578276 3.21728261,15.070828 L15.070828,3.21728261 C15.578276,3.86046353 15.9940871,4.57943439 16.2982804,5.35455869 Z" id="Path" fill="#FFEA94"></path>
                    <path d="M14.9988275,8.44024242 C14.9988275,12.0623122 12.0623122,14.9988275 8.44024242,14.9988275 C7.17868456,14.9988275 6.00049561,14.6426149 5.00041301,14.0252714 C4.5646209,13.7565617 4.16293426,13.4378994 3.80258759,13.0775528 C3.53766732,12.812977 3.29513954,12.5253198 3.07844924,12.2183705 C2.7801125,11.7956694 2.53035023,11.3361068 2.3377749,10.8479508 C2.05252916,10.1262239 1.8919923,9.34145362 1.88234631,8.52085535 C1.88165731,8.49398438 1.88165731,8.4671134 1.88165731,8.44024242 C1.88165731,4.81817268 4.81782818,1.88165731 8.44024242,1.88165731 C8.4671134,1.88165731 8.49432888,1.88165731 8.52119985,1.88234631 C9.34179812,1.8919923 10.1262239,2.05287366 10.8479508,2.3377749 C11.3361068,2.53069473 11.7956694,2.7801125 12.2183705,3.07844924 C12.5253198,3.29548404 12.8126325,3.53766732 13.0775528,3.80258759 C13.4378994,4.16258976 13.7565617,4.5646209 14.0252714,5.00041301 C14.6426149,6.00049561 14.9988275,7.17868456 14.9988275,8.44024242 Z" id="Path" fill="#FAA300"></path>
                    <path d="M13.0775528,3.80258759 L3.80258759,13.0775528 C3.53766732,12.812977 3.29513954,12.5253198 3.07844924,12.2183705 C2.7801125,11.7956694 2.53035023,11.3361068 2.3377749,10.8479508 C2.05252916,10.1262239 1.8919923,9.34145362 1.88234631,8.52085535 C1.88165731,8.49398438 1.88165731,8.4671134 1.88165731,8.44024242 C1.88165731,4.81817268 4.81782818,1.88165731 8.44024242,1.88165731 C8.4671134,1.88165731 8.49432888,1.88165731 8.52119985,1.88234631 C9.34179812,1.8919923 10.1262239,2.05287366 10.8479508,2.3377749 C11.3361068,2.53069473 11.7956694,2.7801125 12.2183705,3.07844924 C12.5253198,3.29548404 12.8126325,3.53766732 13.0775528,3.80258759 Z" id="Path" fill="#FFBD00"></path>
                    <path d="M14.9986553,8.44024242 C14.9986553,12.0623122 12.0621399,14.9988275 8.44007017,14.9988275 C8.31570579,14.9988275 8.1923749,14.9953825 8.06973301,14.9884925 C11.5195529,14.7966062 14.2576365,11.9379478 14.2576365,8.44024242 C14.2576365,4.94253706 11.5195529,2.08387863 8.06973301,1.8919923 C8.1923749,1.88510231 8.31570579,1.88165731 8.44007017,1.88165731 C12.0621399,1.88165731 14.9986553,4.81817268 14.9986553,8.44024242 Z" id="Path" fill="#F68E00"></path>
                </g>
            </g>
        </g>
    </g>
</svg>