<?xml version="1.0" encoding="UTF-8"?>
<svg width="87px" height="99px" viewBox="0 0 87 99" version="1.1" xmlns="http://www.w3.org/2000/svg" xmlns:xlink="http://www.w3.org/1999/xlink">
    <title>Group 15</title>
    <defs>
        <linearGradient x1="25.9666929%" y1="93.0398926%" x2="69.3325492%" y2="-14.9591082%" id="linearGradient-1">
            <stop stop-color="#4753DA" offset="0%"></stop>
            <stop stop-color="#C86FF2" offset="100%"></stop>
        </linearGradient>
        <linearGradient x1="18.4558302%" y1="93.0398926%" x2="74.979803%" y2="-14.2105082%" id="linearGradient-2">
            <stop stop-color="#4753DA" offset="0%"></stop>
            <stop stop-color="#C79CFF" offset="100%"></stop>
        </linearGradient>
        <linearGradient x1="308.136704%" y1="70.6002837%" x2="308.136704%" y2="106.783986%" id="linearGradient-3">
            <stop stop-color="#EDEDED" offset="0%"></stop>
            <stop stop-color="#FFFFFF" offset="100%"></stop>
        </linearGradient>
        <linearGradient x1="308.136704%" y1="70.6002837%" x2="308.136704%" y2="106.783986%" id="linearGradient-4">
            <stop stop-color="#6DF0EA" offset="0%"></stop>
            <stop stop-color="#FFFFFF" offset="100%"></stop>
        </linearGradient>
        <linearGradient x1="308.136704%" y1="70.6002837%" x2="308.136704%" y2="106.783986%" id="linearGradient-5">
            <stop stop-color="#EDEDED" offset="0%"></stop>
            <stop stop-color="#FFFFFF" offset="100%"></stop>
        </linearGradient>
        <linearGradient x1="50%" y1="98.0079233%" x2="80.0030147%" y2="8.30889598%" id="linearGradient-6">
            <stop stop-color="#FFF6C7" offset="0%"></stop>
            <stop stop-color="#FBDA5F" offset="100%"></stop>
        </linearGradient>
        <linearGradient x1="6.34024936%" y1="93.0398926%" x2="85.1201886%" y2="-14.9591082%" id="linearGradient-7">
            <stop stop-color="#FFB21D" offset="0%"></stop>
            <stop stop-color="#C8331E" offset="100%"></stop>
        </linearGradient>
        <linearGradient x1="22.0577596%" y1="93.0398926%" x2="72.4769207%" y2="-14.9591082%" id="linearGradient-8">
            <stop stop-color="#4753DA" offset="0%"></stop>
            <stop stop-color="#C86FF2" offset="100%"></stop>
        </linearGradient>
        <linearGradient x1="308.136704%" y1="70.6002837%" x2="308.136704%" y2="106.783986%" id="linearGradient-9">
            <stop stop-color="#EDEDED" offset="0%"></stop>
            <stop stop-color="#FFFFFF" offset="100%"></stop>
        </linearGradient>
        <linearGradient x1="50%" y1="100%" x2="60.9373752%" y2="6.57893407%" id="linearGradient-10">
            <stop stop-color="#FFF6C7" offset="0%"></stop>
            <stop stop-color="#FBDA5F" offset="100%"></stop>
        </linearGradient>
        <linearGradient x1="308.136704%" y1="70.6002837%" x2="308.136704%" y2="106.783986%" id="linearGradient-11">
            <stop stop-color="#EDEDED" offset="0%"></stop>
            <stop stop-color="#FFFFFF" offset="100%"></stop>
        </linearGradient>
        <linearGradient x1="308.136704%" y1="70.6002837%" x2="308.136704%" y2="105.747886%" id="linearGradient-12">
            <stop stop-color="#5746D9" offset="0%"></stop>
            <stop stop-color="#5B78E1" offset="100%"></stop>
        </linearGradient>
    </defs>
    <g id="Page-1" stroke="none" stroke-width="1" fill="none" fill-rule="evenodd">
        <g id="Dashboard07" transform="translate(-183.000000, -459.000000)" fill-rule="nonzero">
            <g id="Group-4" transform="translate(47.000000, 337.000000)">
                <g id="Group-15" transform="translate(136.000000, 122.000000)">
                    <g id="Group-8">
                        <path d="M11.959427,10.3861388 C12.0333728,10.6352324 12.179798,10.8324001 12.3645577,10.9322382 L16.6791777,13.2601217 C17.2887589,13.5889854 17.2887589,14.7519237 16.6791777,15.0810383 L12.3645577,17.4089217 C12.179798,17.508509 12.0333728,17.7059276 11.959427,17.9547703 L10.2322803,23.7702145 C9.98823829,24.5917467 9.12539807,24.5917467 8.88135611,23.7702145 L7.15420932,17.9547703 C7.08026355,17.7056767 6.93383837,17.508509 6.7490787,17.4089217 L2.43445864,15.0810383 C1.82487742,14.7521746 1.82487742,13.5889854 2.43445864,13.2601217 L6.7490787,10.9322382 C6.93383837,10.8326509 7.08026355,10.6352324 7.15420932,10.3861388 L8.88135611,4.57069457 C9.12539807,3.74916242 9.98823829,3.74916242 10.2322803,4.57069457 L11.959427,10.3861388 Z" id="Path" fill="url(#linearGradient-1)" opacity="0.186896188"></path>
                        <path d="M81.8970012,10.2838128 L83.1735727,14.035663 C83.2282591,14.1962353 83.3363794,14.3236459 83.4728866,14.3880057 L86.6620195,15.8898803 C87.1126602,16.1021586 87.1126602,16.8524414 86.6620195,17.0645015 L83.4728866,18.5663761 C83.3363794,18.6307359 83.2280504,18.7579284 83.1735727,18.9187188 L81.8970012,22.670569 C81.7166614,23.2007194 81.0787931,23.2007194 80.8984534,22.670569 L79.6218818,18.9187188 C79.5671954,18.7581465 79.4590751,18.6307359 79.3225679,18.5663761 L76.133435,17.0645015 C75.6827944,16.8522232 75.6827944,16.1019404 76.133435,15.8898803 L79.3225679,14.3880057 C79.4590751,14.3236459 79.5674042,14.1964535 79.6218818,14.035663 L80.8984534,10.2838128 C81.0787931,9.75388058 81.7166614,9.75388058 81.8970012,10.2838128 Z" id="Path" fill="url(#linearGradient-2)" opacity="0.272716704"></path>
                        <path d="M48.7075033,0.238469493 L49.3833353,2.48957961 C49.4122869,2.58592299 49.4695271,2.66236937 49.5417956,2.70098526 L51.2301601,3.60210999 C51.4687345,3.72947699 51.4687345,4.17964665 51.2301601,4.30688274 L49.5417956,5.20800747 C49.4695271,5.24662337 49.4121764,5.32293884 49.3833353,5.41941312 L48.7075033,7.67052324 C48.6120293,7.98861347 48.2743343,7.98861347 48.1788603,7.67052324 L47.5030283,5.41941312 C47.4740767,5.32306974 47.4168365,5.24662337 47.3445681,5.20800747 L45.6562036,4.30688274 C45.4176291,4.17951575 45.4176291,3.72934608 45.6562036,3.60210999 L47.3445681,2.70098526 C47.4168365,2.66236937 47.4741872,2.58605389 47.5030283,2.48957961 L48.1788603,0.238469493 C48.2743343,-0.0794898309 48.6120293,-0.0794898309 48.7075033,0.238469493 Z" id="Path-Copy" fill="url(#linearGradient-3)"></path>
                        <path d="M31.5711397,18.033924 L32.2469717,20.2850342 C32.2759233,20.3813775 32.3331635,20.4578239 32.4054319,20.4964398 L34.0937964,21.3975645 C34.3323709,21.5249315 34.3323709,21.9751012 34.0937964,22.1023373 L32.4054319,23.003462 C32.3331635,23.0420779 32.2758128,23.1183934 32.2469717,23.2148677 L31.5711397,25.4659778 C31.4756657,25.784068 31.1379707,25.784068 31.0424967,25.4659778 L30.3666647,23.2148677 C30.3377131,23.1185243 30.2804729,23.0420779 30.2082044,23.003462 L28.5198399,22.1023373 C28.2812655,21.9749703 28.2812655,21.5248006 28.5198399,21.3975645 L30.2082044,20.4964398 C30.2804729,20.4578239 30.3378236,20.3815084 30.3666647,20.2850342 L31.0424967,18.033924 C31.1379707,17.7159647 31.4756657,17.7159647 31.5711397,18.033924 Z" id="Path-Copy-3" fill="url(#linearGradient-3)"></path>
                        <path d="M63.2075033,27.9202877 L63.8833353,30.1713978 C63.9122869,30.2677412 63.9695271,30.3441875 64.0417956,30.3828034 L65.7301601,31.2839282 C65.9687345,31.4112952 65.9687345,31.8614648 65.7301601,31.9887009 L64.0417956,32.8898257 C63.9695271,32.9284415 63.9121764,33.004757 63.8833353,33.1012313 L63.2075033,35.3523414 C63.1120293,35.6704316 62.7743343,35.6704316 62.6788603,35.3523414 L62.0030283,33.1012313 C61.9740767,33.0048879 61.9168365,32.9284415 61.8445681,32.8898257 L60.1562036,31.9887009 C59.9176291,31.8613339 59.9176291,31.4111643 60.1562036,31.2839282 L61.8445681,30.3828034 C61.9168365,30.3441875 61.9741872,30.2678721 62.0030283,30.1713978 L62.6788603,27.9202877 C62.7743343,27.6023284 63.1120293,27.6023284 63.2075033,27.9202877 Z" id="Path-Copy-2" fill="url(#linearGradient-3)"></path>
                        <path d="M0.548545411,31.2269992 C0.672334212,31.3376642 12.9893199,42.5130898 18.0630265,62.104056 C18.5753405,64.1640773 21.5779339,63.2646252 21.0227228,61.2356944 C15.6834626,40.6189572 3.05394085,29.1971987 2.51895262,28.7210566 C1.86875501,28.1427287 0.902140153,28.2346958 0.357959684,28.9258629 C-0.185812242,29.61703 -0.100426568,30.6471493 0.548545411,31.2269992 Z" id="Path" fill="url(#linearGradient-4)" opacity="0.183587937"></path>
                        <path d="M63.4375116,30.1151038 C64.188484,30.5507435 65.1606275,30.265332 65.5806843,29.45202 C65.6008672,29.4130801 67.6296701,25.531263 69.9881272,23.3411173 C70.6423898,22.733567 70.7048307,21.6828545 70.1273051,20.9943271 C69.5499898,20.3057996 68.5517768,20.2403098 67.8973039,20.8478601 C65.1160569,23.4305019 62.8990905,27.6809202 62.806165,27.8605745 C62.3892618,28.6663641 62.6718225,29.6754817 63.4375116,30.1151038 Z" id="Path" fill="url(#linearGradient-5)"></path>
                        <ellipse id="Oval" fill="url(#linearGradient-6)" transform="translate(64.967690, 6.821551) rotate(-76.700416) translate(-64.967690, -6.821551) " cx="64.9676897" cy="6.82155136" rx="4.08187667" ry="3.99973609"></ellipse>
                        <circle id="Oval" fill="url(#linearGradient-7)" opacity="0.33286903" cx="35.5909091" cy="7.90909091" r="1.97727273"></circle>
                        <path d="M13.7164389,23.3411671 C16.07484,25.5312162 18.1035948,29.4128619 18.1239874,29.4518 C18.543824,30.2652974 19.515524,30.550475 20.2666888,30.1155183 C21.0327803,29.676358 21.3155445,28.6666213 20.8980205,27.8602036 C20.8050972,27.6805572 18.5879731,23.4305478 15.8070023,20.84802 C15.152545,20.2400541 14.1541453,20.3059834 13.577054,20.9944805 C12.9997524,21.6829776 13.0621917,22.7336436 13.7164389,23.3411671 L13.7164389,23.3411671 Z" id="Path" fill="url(#linearGradient-8)" opacity="0.110373361"></path>
                        <path d="M40.0903707,35.9658613 C40.0903707,36.8507089 40.8537375,37.5681818 41.7951854,37.5681818 C42.7366332,37.5681818 43.5,36.8507089 43.5,35.9658613 C43.5,29.3619126 40.8253806,25.3014212 40.7114995,25.1319142 C40.2106038,24.3856572 39.164349,24.1632726 38.3683151,24.6310691 C37.5722813,25.0984393 37.3302271,26.085844 37.8240902,26.835939 C37.8465488,26.87048 40.0903707,30.3433472 40.0903707,35.9658613 L40.0903707,35.9658613 Z" id="Path" fill="url(#linearGradient-9)"></path>
                        <path d="M63.7416772,63.2128769 C64.537352,63.4531181 65.4078322,62.9493937 65.6306129,62.0731436 C70.6979559,42.5349815 82.9872793,31.3746308 83.1540583,31.2251861 C83.804619,30.6469566 83.8908699,29.6177862 83.3469987,28.9261699 C82.8027187,28.2347707 81.8343376,28.1426711 81.1833681,28.7209006 C80.6480811,29.196604 68.0115058,40.6078395 62.6692637,61.2055821 C62.4438259,62.0746641 62.9239287,62.9735047 63.7416772,63.2128769 L63.7416772,63.2128769 Z" id="Path" fill="url(#linearGradient-10)"></path>
                        <polygon id="Path" fill="url(#linearGradient-11)" points="51.4090909 16.4772727 55.3636364 16.4772727 55.3636364 20.4318182 51.4090909 20.4318182"></polygon>
                        <polygon id="Path" fill="url(#linearGradient-12)" opacity="0.214107695" points="21.0909091 5.93181818 25.0454545 5.93181818 25.0454545 9.88636364 21.0909091 9.88636364"></polygon>
                    </g>
                    <g id="trophy" transform="translate(13.181818, 36.909091)">
                        <path d="M49.6381027,28.7822134 C49.0996782,28.7822134 48.571136,28.5045776 48.2506796,27.9909987 C47.7399036,27.1738444 47.9465458,26.072066 48.7125988,25.5272175 L56.4809466,20.0028092 C57.4096706,19.3417659 57.9643067,18.2365526 57.9643067,17.0462955 L57.9643067,11.015415 C57.9643067,9.05656627 56.4695096,7.46205534 54.6331589,7.46205534 C52.7968081,7.46205534 51.302011,9.05656627 51.302011,11.015415 C51.302011,11.9974452 50.5570553,12.7920949 49.6364371,12.7920949 C48.7158189,12.7920949 47.9708632,11.9974452 47.9708632,11.015415 C47.9708632,7.09594084 50.9587918,3.90869565 54.6331589,3.90869565 C58.307526,3.90869565 61.2954545,7.09594084 61.2954545,11.015415 L61.2954545,17.046414 C61.2954545,19.4285863 60.1861823,21.6390129 58.3286232,22.9594414 L50.5602754,28.4837312 C50.2756844,28.6850883 49.955228,28.7822134 49.6381027,28.7822134 Z" id="Path" fill="#FF9F00"></path>
                        <path d="M11.6573519,28.7822134 C11.3402266,28.7822134 11.0197702,28.6850883 10.7350681,28.4837312 L2.9668313,22.9594414 C1.10927223,21.6390129 0,19.4285863 0,17.046414 L0,11.015415 C0,7.09594084 2.98792857,3.90869565 6.66229568,3.90869565 C10.3366628,3.90869565 13.3245914,7.09594084 13.3245914,11.015415 C13.3245914,11.9974452 12.5796357,12.7920949 11.6590174,12.7920949 C10.7383992,12.7920949 9.99344352,11.9974452 9.99344352,11.015415 C9.99344352,9.05656627 8.49864644,7.46205534 6.66229568,7.46205534 C4.82594491,7.46205534 3.33114784,9.05656627 3.33114784,11.015415 L3.33114784,17.046414 C3.33114784,18.236671 3.88578395,19.3418843 4.81450797,20.0029277 L12.5828558,25.527336 C13.3489087,26.0721845 13.5555509,27.1738444 13.0447749,27.9911171 C12.7244296,28.5045776 12.1957764,28.7822134 11.6573519,28.7822134 Z" id="Path" fill="#FDBF00"></path>
                        <path d="M48.002659,0 L13.1151276,0 C12.1381604,0 11.370751,0.807541779 11.370751,1.83560035 L11.370751,23.8628045 C11.370751,30.0671337 14.5107451,35.0231322 20.2320677,37.8500792 C23.3720618,39.3918611 25.3257636,42.6471147 25.3257636,46.1347554 C25.3257636,47.1625692 26.093173,47.9703557 27.0701401,47.9703557 L34.0476464,47.9703557 C35.0246136,47.9703557 35.792023,47.1625692 35.792023,46.1347554 L35.792023,45.5472409 C35.792023,42.5002667 37.3619619,39.4286955 39.8388604,37.9600928 C45.8047445,34.3991505 49.7470356,30.6544034 49.7470356,23.8628045 L49.7470356,1.83560035 C49.7470356,0.807541779 48.9796262,0 48.002659,0 Z" id="Path" fill="#FFE470"></path>
                        <path d="M51.7013834,1.83560035 L51.7013834,23.8628045 C51.7013834,30.6544034 47.3575627,34.3991505 40.7840422,37.9600928 C38.054867,39.4286955 36.3250269,42.5002667 36.3250269,45.5472409 L36.3250269,46.1347554 C36.3250269,47.1625692 35.4794555,47.9703557 34.4029824,47.9703557 L30.5588933,47.9703557 L30.5588933,0 L49.7793388,0 C50.8558119,0 51.7013834,0.807541779 51.7013834,1.83560035 Z" id="Path" fill="#FFD400"></path>
                        <path d="M38.7316206,44.0616601 L24.5181818,44.0616601 C21.5687748,44.0616601 19.1881423,46.2042294 19.1881423,48.8586957 L19.1881423,52.0567194 C19.1881423,52.9520594 19.969763,53.6557312 20.9648221,53.6557312 L42.2849802,53.6557312 C43.2800394,53.6557312 44.0616601,52.9520594 44.0616601,52.0567194 L44.0616601,48.8586957 C44.0616601,46.2042294 41.6810275,44.0616601 38.7316206,44.0616601 Z" id="Path" fill="#384949"></path>
                        <path d="M42.3738142,51.7013834 L20.6983202,51.7013834 C17.6997564,51.7013834 15.2794466,53.8439527 15.2794466,56.498419 L15.2794466,59.6964427 C15.2794466,60.5917827 16.0740943,61.2954545 17.0857378,61.2954545 L45.9863966,61.2954545 C46.9980401,61.2954545 47.7926877,60.5917827 47.7926877,59.6964427 L47.7926877,56.498419 C47.7926877,53.8439527 45.372378,51.7013834 42.3738142,51.7013834 Z" id="Path" fill="#4A696F"></path>
                        <path d="M42.0116646,13.5954644 C41.7820875,12.8931668 41.1700095,12.4126474 40.4430155,12.3388445 L34.8565126,11.5255346 L32.3695553,6.64641433 C32.0250621,6.01816599 31.3363309,5.68537549 30.6477273,5.68537549 C29.9591236,5.68537549 29.2702649,6.01816599 28.9258993,6.64641433 L26.4389419,11.5255346 L20.8524391,12.3388445 C20.125445,12.4126474 19.513367,12.8931668 19.28379,13.5954644 C19.0539578,14.260799 19.2455271,15.0000596 19.7809519,15.480579 L23.8368134,19.2878946 L22.8802423,24.6474111 C22.7655813,25.3497087 23.0334212,26.0520063 23.6454992,26.4588461 C24.2195694,26.8654394 25.0230891,26.9391191 25.6352946,26.606575 L30.6477273,24.0561257 L35.6601599,26.606575 C36.2722379,26.9391191 37.0758852,26.9024024 37.6499554,26.4588461 C38.2620333,26.0521295 38.5298733,25.3498319 38.4152123,24.6474111 L37.4586411,19.2878946 L41.5145027,15.480579 C42.0499274,15.0000596 42.2414967,14.260799 42.0116646,13.5954644 Z" id="Path" fill="#FDBF00"></path>
                        <path d="M34.7553485,26.6066147 L30.5588933,24.0561606 L30.5588933,5.68537549 C31.1355054,5.68537549 31.7121176,6.01816663 32.0004237,6.64641616 L34.0825275,11.5255457 L38.7595997,12.3388571 C39.3682459,12.4126601 39.8806832,12.8931805 40.0728873,13.5954794 C40.2653049,14.2608153 40.1049213,15.0000773 39.6566587,15.4805976 L36.2610537,19.2879204 L37.061904,24.647447 C37.1578992,25.349746 36.9336612,26.0520449 36.4212238,26.4588855 C35.9406069,26.9023195 35.2677859,26.9391594 34.7553485,26.6066147 Z" id="Path" fill="#FF9F00"></path>
                        <path d="M42.1073123,48.8586957 L42.1073123,52.0567194 C42.1073123,52.9520594 41.3815216,53.6557312 40.4575381,53.6557312 L30.5588933,53.6557312 L30.5588933,44.0616601 L37.1579898,44.0616601 C39.8967249,44.0616601 42.1073123,46.2042294 42.1073123,48.8586957 Z" id="Path" fill="#293939"></path>
                        <path d="M46.0160079,56.498419 L46.0160079,59.6964427 C46.0160079,60.5917827 45.2691259,61.2954545 44.3182916,61.2954545 L30.7365613,61.2954545 L30.7365613,51.7013834 L40.922859,51.7013834 C43.7411813,51.7013834 46.0160079,53.8439527 46.0160079,56.498419 Z" id="Path" fill="#3E5959"></path>
                    </g>
                </g>
            </g>
        </g>
    </g>
</svg>