<?xml version="1.0" encoding="UTF-8"?>
<svg width="73px" height="82px" viewBox="0 0 73 82" version="1.1" xmlns="http://www.w3.org/2000/svg" xmlns:xlink="http://www.w3.org/1999/xlink">
    <title>Group 15 Copy</title>
    <defs>
        <linearGradient x1="25.9666929%" y1="93.0398926%" x2="69.3325492%" y2="-14.9591082%" id="linearGradient-1">
            <stop stop-color="#4753DA" offset="0%"></stop>
            <stop stop-color="#C86FF2" offset="100%"></stop>
        </linearGradient>
        <linearGradient x1="18.4558302%" y1="93.0398926%" x2="74.979803%" y2="-14.2105082%" id="linearGradient-2">
            <stop stop-color="#4753DA" offset="0%"></stop>
            <stop stop-color="#C79CFF" offset="100%"></stop>
        </linearGradient>
        <linearGradient x1="308.136704%" y1="70.6002837%" x2="308.136704%" y2="106.783986%" id="linearGradient-3">
            <stop stop-color="#EDEDED" offset="0%"></stop>
            <stop stop-color="#FFFFFF" offset="100%"></stop>
        </linearGradient>
        <linearGradient x1="308.136704%" y1="70.6002837%" x2="308.136704%" y2="106.783986%" id="linearGradient-4">
            <stop stop-color="#6DF0EA" offset="0%"></stop>
            <stop stop-color="#FFFFFF" offset="100%"></stop>
        </linearGradient>
        <linearGradient x1="308.136704%" y1="70.6002837%" x2="308.136704%" y2="106.783986%" id="linearGradient-5">
            <stop stop-color="#EDEDED" offset="0%"></stop>
            <stop stop-color="#FFFFFF" offset="100%"></stop>
        </linearGradient>
        <linearGradient x1="50%" y1="98.0079233%" x2="80.0030147%" y2="8.30889598%" id="linearGradient-6">
            <stop stop-color="#FFF6C7" offset="0%"></stop>
            <stop stop-color="#FBDA5F" offset="100%"></stop>
        </linearGradient>
        <linearGradient x1="6.34024936%" y1="93.0398926%" x2="85.1201886%" y2="-14.9591082%" id="linearGradient-7">
            <stop stop-color="#FFB21D" offset="0%"></stop>
            <stop stop-color="#C8331E" offset="100%"></stop>
        </linearGradient>
        <linearGradient x1="22.0577596%" y1="93.0398926%" x2="72.4769207%" y2="-14.9591082%" id="linearGradient-8">
            <stop stop-color="#4753DA" offset="0%"></stop>
            <stop stop-color="#C86FF2" offset="100%"></stop>
        </linearGradient>
        <linearGradient x1="308.136704%" y1="70.6002837%" x2="308.136704%" y2="106.783986%" id="linearGradient-9">
            <stop stop-color="#EDEDED" offset="0%"></stop>
            <stop stop-color="#FFFFFF" offset="100%"></stop>
        </linearGradient>
        <linearGradient x1="50%" y1="100%" x2="60.9373752%" y2="6.57893407%" id="linearGradient-10">
            <stop stop-color="#FFF6C7" offset="0%"></stop>
            <stop stop-color="#FBDA5F" offset="100%"></stop>
        </linearGradient>
        <linearGradient x1="308.136704%" y1="70.6002837%" x2="308.136704%" y2="106.783986%" id="linearGradient-11">
            <stop stop-color="#EDEDED" offset="0%"></stop>
            <stop stop-color="#FFFFFF" offset="100%"></stop>
        </linearGradient>
        <linearGradient x1="308.136704%" y1="70.6002837%" x2="308.136704%" y2="105.747886%" id="linearGradient-12">
            <stop stop-color="#5746D9" offset="0%"></stop>
            <stop stop-color="#5B78E1" offset="100%"></stop>
        </linearGradient>
    </defs>
    <g id="Page-1" stroke="none" stroke-width="1" fill="none" fill-rule="evenodd">
        <g id="Dashboard07" transform="translate(-60.000000, -496.000000)" fill-rule="nonzero">
            <g id="Group-4" transform="translate(47.000000, 337.000000)">
                <g id="Group-15-Copy" transform="translate(13.000000, 159.000000)">
                    <g id="Group-8">
                        <path d="M9.90578806,8.60266043 C9.96703607,8.80898035 10.0883175,8.97229098 10.2413508,9.05498517 L13.8150765,10.9831311 C14.3199822,11.2555232 14.3199822,12.2187651 13.8150765,12.491365 L10.2413508,14.4195109 C10.0883175,14.5019974 9.96703607,14.6655158 9.90578806,14.8716279 L8.47522203,19.6884605 C8.27308626,20.3689215 7.55841052,20.3689215 7.35627475,19.6884605 L5.92570873,14.8716279 C5.86446072,14.665308 5.74317926,14.5019974 5.590146,14.4195109 L2.01642029,12.491365 C1.51151463,12.2189729 1.51151463,11.2555232 2.01642029,10.9831311 L5.590146,9.05498517 C5.74317926,8.97249876 5.86446072,8.80898035 5.92570873,8.60266043 L7.35627475,3.78582782 C7.55841052,3.10536685 8.27308626,3.10536685 8.47522203,3.78582782 L9.90578806,8.60266043 Z" id="Path" fill="url(#linearGradient-1)" opacity="0.186896188"></path>
                        <path d="M67.8338798,8.51790554 L68.8912421,11.6254986 C68.9365378,11.7584979 69.0260921,11.8640299 69.1391586,11.9173381 L71.7806626,13.161315 C72.1539205,13.3371415 72.1539205,13.9585878 71.7806626,14.1342336 L69.1391586,15.3782105 C69.0260921,15.4315186 68.936365,15.53687 68.8912421,15.6700499 L67.8338798,18.777643 C67.6845075,19.2167575 67.1561721,19.2167575 67.0067998,18.777643 L65.9494375,15.6700499 C65.9041417,15.5370507 65.8145875,15.4315186 65.7015209,15.3782105 L63.0600169,14.1342336 C62.686759,13.9584071 62.686759,13.3369608 63.0600169,13.161315 L65.7015209,11.9173381 C65.8145875,11.8640299 65.9043146,11.7586786 65.9494375,11.6254986 L67.0067998,8.51790554 C67.1561721,8.0789718 67.6845075,8.0789718 67.8338798,8.51790554 Z" id="Path" fill="url(#linearGradient-2)" opacity="0.272716704"></path>
                        <path d="M40.3435886,0.197520186 L40.9033686,2.06207604 C40.9273487,2.14187561 40.9747598,2.20519483 41.0346186,2.23717971 L42.4330619,2.98356585 C42.630669,3.08906175 42.630669,3.46192955 42.4330619,3.56731702 L41.0346186,4.31370316 C40.9747598,4.34568804 40.9272572,4.40889884 40.9033686,4.48880683 L40.3435886,6.35336268 C40.2645091,6.61683136 39.9848022,6.61683136 39.9057227,6.35336268 L39.3459427,4.48880683 C39.3219625,4.40900726 39.2745515,4.34568804 39.2146927,4.31370316 L37.8162494,3.56731702 C37.6186423,3.46182112 37.6186423,3.08895332 37.8162494,2.98356585 L39.2146927,2.23717971 C39.2745515,2.20519483 39.3220541,2.14198403 39.3459427,2.06207604 L39.9057227,0.197520186 C39.9848022,-0.0658400619 40.2645091,-0.0658400619 40.3435886,0.197520186 Z" id="Path-Copy" fill="url(#linearGradient-3)"></path>
                        <path d="M26.1498328,14.9371896 L26.7096129,16.8017455 C26.733593,16.881545 26.7810041,16.9448643 26.8408628,16.9768491 L28.2393061,17.7232353 C28.4369133,17.8287312 28.4369133,18.201599 28.2393061,18.3069864 L26.8408628,19.0533726 C26.7810041,19.0853575 26.7335015,19.1485683 26.7096129,19.2284762 L26.1498328,21.0930321 C26.0707534,21.3565008 25.7910464,21.3565008 25.711967,21.0930321 L25.1521869,19.2284762 C25.1282068,19.1486767 25.0807957,19.0853575 25.020937,19.0533726 L23.6224937,18.3069864 C23.4248866,18.2014905 23.4248866,17.8286227 23.6224937,17.7232353 L25.020937,16.9768491 C25.0807957,16.9448643 25.1282983,16.8816535 25.1521869,16.8017455 L25.711967,14.9371896 C25.7910464,14.6738294 26.0707534,14.6738294 26.1498328,14.9371896 Z" id="Path-Copy-3" fill="url(#linearGradient-3)"></path>
                        <path d="M52.3536896,23.1258948 L52.9134696,24.9904507 C52.9374498,25.0702503 52.9848608,25.1335695 53.0447196,25.1655544 L54.4431629,25.9119405 C54.64077,26.0174364 54.64077,26.3903042 54.4431629,26.4956917 L53.0447196,27.2420778 C52.9848608,27.2740627 52.9373582,27.3372735 52.9134696,27.4171815 L52.3536896,29.2817373 C52.2746101,29.545206 51.9949032,29.545206 51.9158237,29.2817373 L51.3560437,27.4171815 C51.3320636,27.3373819 51.2846525,27.2740627 51.2247937,27.2420778 L49.8263504,26.4956917 C49.6287433,26.3901958 49.6287433,26.017328 49.8263504,25.9119405 L51.2247937,25.1655544 C51.2846525,25.1335695 51.3321551,25.0703587 51.3560437,24.9904507 L51.9158237,23.1258948 C51.9949032,22.8625346 52.2746101,22.8625346 52.3536896,23.1258948 Z" id="Path-Copy-2" fill="url(#linearGradient-3)"></path>
                        <path d="M0.454350745,25.8647872 C0.556882882,25.9564491 10.7588306,35.2128622 14.9612947,51.4397231 C15.3856356,53.1460034 17.8726321,52.4010027 17.4127603,50.7204742 C12.9903427,33.6439848 2.52952677,24.1835383 2.0864052,23.789158 C1.54785769,23.3101389 0.747227197,23.3863137 0.296491859,23.9587955 C-0.153905089,24.5312773 -0.0831816014,25.3845075 0.454350745,25.8647872 Z" id="Path" fill="url(#linearGradient-4)" opacity="0.183587937"></path>
                        <path d="M52.5442015,24.9438234 C53.1662191,25.3046562 53.9714288,25.0682548 54.3193547,24.3946024 C54.3360718,24.3623492 56.0164944,21.1471067 57.9699639,19.3330466 C58.5118784,18.8298231 58.5635971,17.9595361 58.0852426,17.3892406 C57.6070623,16.8189451 56.7802596,16.7647011 56.2381709,17.2679245 C53.9345118,19.4070824 52.0982365,22.9276309 52.021268,23.0764355 C51.6759542,23.7438571 51.9099944,24.5796919 52.5442015,24.9438234 Z" id="Path" fill="url(#linearGradient-5)"></path>
                        <ellipse id="Oval" fill="url(#linearGradient-6)" transform="translate(53.811622, 5.650174) rotate(-76.700416) translate(-53.811622, -5.650174) " cx="53.8116218" cy="5.65017386" rx="3.38094835" ry="3.31291272"></ellipse>
                        <circle id="Oval" fill="url(#linearGradient-7)" opacity="0.33286903" cx="29.4793388" cy="6.55096419" r="1.63774105"></circle>
                        <path d="M11.3610908,19.3330879 C13.3145139,21.1470679 14.9948967,24.3621684 15.0117876,24.3944202 C15.359531,25.0682261 16.1643734,25.3044338 16.7865504,24.9441667 C17.4210907,24.5804178 17.6552995,23.7440702 17.3094715,23.0761282 C17.2325048,22.9273302 15.3960989,19.4071204 13.0926686,17.268057 C12.5505928,16.7644892 11.7236355,16.8190974 11.2456407,17.3893677 C10.7674716,17.959638 10.8191891,18.8298866 11.3610908,19.3330879 L11.3610908,19.3330879 Z" id="Path" fill="url(#linearGradient-8)" opacity="0.110373361"></path>
                        <path d="M33.2061657,29.7899053 C33.2061657,30.5228094 33.8384492,31.1170799 34.6182343,31.1170799 C35.3980194,31.1170799 36.030303,30.5228094 36.030303,29.7899053 C36.030303,24.319968 33.8149617,20.9567327 33.7206359,20.816333 C33.3057527,20.1982211 32.4391578,20.0140237 31.7798166,20.4014916 C31.1204754,20.7886063 30.9199861,21.6064566 31.3290444,22.2277474 C31.3476465,22.2563572 33.2061657,25.1328735 33.2061657,29.7899053 L33.2061657,29.7899053 Z" id="Path" fill="url(#linearGradient-9)"></path>
                        <path d="M52.7961367,52.3581405 C53.4551805,52.5571281 54.1761842,52.1399019 54.3607097,51.4141189 C58.5579028,35.2309948 68.7369384,25.9870679 68.8750786,25.8632854 C69.4139269,25.3843479 69.485367,24.5319038 69.0348878,23.9590498 C68.58407,23.3863758 67.7819766,23.3100912 67.2427898,23.7890288 C66.7994207,24.1830458 56.3327624,33.6347761 51.907875,50.6955327 C51.7211487,51.4153783 52.1188096,52.1598726 52.7961367,52.3581405 L52.7961367,52.3581405 Z" id="Path" fill="url(#linearGradient-10)"></path>
                        <polygon id="Path" fill="url(#linearGradient-11)" points="42.5812672 13.6478421 45.8567493 13.6478421 45.8567493 16.9233242 42.5812672 16.9233242"></polygon>
                        <polygon id="Path" fill="url(#linearGradient-12)" opacity="0.214107695" points="17.4692378 4.91322314 20.7447199 4.91322314 20.7447199 8.18870523 17.4692378 8.18870523"></polygon>
                    </g>
                    <g id="trophy" transform="translate(10.918274, 30.571166)">
                        <path d="M41.1143881,23.8398132 C40.6684203,23.8398132 40.2306379,23.6098522 39.9652094,23.1844636 C39.5421424,22.5076287 39.7133006,21.5950446 40.3478091,21.1437559 L46.7821982,16.5679834 C47.5514443,16.0204525 48.0108399,15.1050233 48.0108399,14.1191539 L48.0108399,9.12387911 C48.0108399,7.50139833 46.7727252,6.1806923 45.2517073,6.1806923 C43.7306895,6.1806923 42.4925748,7.50139833 42.4925748,9.12387911 C42.4925748,9.93727784 41.8755408,10.5954725 41.1130085,10.5954725 C40.3504762,10.5954725 39.7334422,9.93727784 39.7334422,9.12387911 C39.7334422,5.87744595 42.2082922,3.23750549 45.2517073,3.23750549 C48.2951225,3.23750549 50.7699725,5.87744595 50.7699725,9.12387911 L50.7699725,14.119252 C50.7699725,16.0923644 49.8511813,17.9232228 48.312597,19.016911 L41.8782079,23.5925855 C41.6424861,23.759366 41.3770575,23.8398132 41.1143881,23.8398132 Z" id="Path" fill="#FF9F00"></path>
                        <path d="M9.65558437,23.8398132 C9.39291495,23.8398132 9.1274864,23.759366 8.89167254,23.5925855 L2.45737542,19.016911 C0.91879114,17.9232228 0,16.0923644 0,14.119252 L0,9.12387911 C0,5.87744595 2.47484993,3.23750549 5.51826511,3.23750549 C8.56168028,3.23750549 11.0365302,5.87744595 11.0365302,9.12387911 C11.0365302,9.93727784 10.4194962,10.5954725 9.65696394,10.5954725 C8.89443167,10.5954725 8.27739766,9.93727784 8.27739766,9.12387911 C8.27739766,7.50139833 7.03928291,6.1806923 5.51826511,6.1806923 C3.9972473,6.1806923 2.75913255,7.50139833 2.75913255,9.12387911 L2.75913255,14.119252 C2.75913255,15.1051214 3.21852812,16.0205507 3.98777428,16.5680815 L10.4221634,21.143854 C11.0566719,21.5951427 11.2278301,22.5076287 10.8047631,23.1845617 C10.5394265,23.6098522 10.1015522,23.8398132 9.65558437,23.8398132 Z" id="Path" fill="#FDBF00"></path>
                        <path d="M39.7597782,0 L10.8630349,0 C10.0538298,0 9.41819779,0.668872989 9.41819779,1.52039625 L9.41819779,19.7651512 C9.41819779,24.9040905 12.019001,29.009059 16.7578742,31.3505706 C19.3586775,32.6276021 20.9768951,35.3238728 20.9768951,38.2126257 C20.9768951,39.0639462 21.6125271,39.7330219 22.4217322,39.7330219 L28.2010809,39.7330219 C29.010286,39.7330219 29.645918,39.0639462 29.645918,38.2126257 L29.645918,37.7259975 C29.645918,35.2022411 30.9462715,32.6581114 32.9978439,31.441693 C37.9392833,28.4922257 41.2046153,25.390516 41.2046153,19.7651512 L41.2046153,1.52039625 C41.2046153,0.668872989 40.5689833,0 39.7597782,0 Z" id="Path" fill="#FFE470"></path>
                        <path d="M42.8233681,1.52039625 L42.8233681,19.7651512 C42.8233681,25.390516 39.225456,28.4922257 33.7807218,31.441693 C31.5201929,32.6581114 30.0873961,35.2022411 30.0873961,37.7259975 L30.0873961,38.2126257 C30.0873961,39.0639462 29.3870237,39.7330219 28.4953996,39.7330219 L25.3114066,39.7330219 L25.3114066,0 L41.2313716,0 C42.1229957,0 42.8233681,0.668872989 42.8233681,1.52039625 Z" id="Path" fill="#FFD400"></path>
                        <path d="M32.0807362,36.4955164 L20.307989,36.4955164 C17.8650458,36.4955164 15.8932088,38.2701698 15.8932088,40.4688186 L15.8932088,43.1176867 C15.8932088,43.8592815 16.5406118,44.4421208 17.3648022,44.4421208 L35.023923,44.4421208 C35.8481134,44.4421208 36.4955164,43.8592815 36.4955164,43.1176867 L36.4955164,40.4688186 C36.4955164,38.2701698 34.5236794,36.4955164 32.0807362,36.4955164 Z" id="Path" fill="#384949"></path>
                        <path d="M35.0975027,42.8233681 L17.1440632,42.8233681 C14.6604043,42.8233681 12.6557033,44.5980214 12.6557033,46.7966703 L12.6557033,49.4455384 C12.6557033,50.1871332 13.3138963,50.7699725 14.1518232,50.7699725 L38.0897426,50.7699725 C38.9276695,50.7699725 39.5858626,50.1871332 39.5858626,49.4455384 L39.5858626,46.7966703 C39.5858626,44.5980214 37.5811616,42.8233681 35.0975027,42.8233681 Z" id="Path" fill="#4A696F"></path>
                        <path d="M34.7975403,11.2608897 C34.6073856,10.6791887 34.1004119,10.2811827 33.4982552,10.220053 L28.8710509,9.54640239 L26.8111468,5.50511086 C26.525809,4.98474355 25.9553448,4.70909889 25.3849862,4.70909889 C24.8146276,4.70909889 24.2440578,4.98474355 23.9588257,5.50511086 L21.8989216,9.54640239 L17.2717172,10.220053 C16.6695605,10.2811827 16.1625868,10.6791887 15.9724321,11.2608897 C15.7820661,11.8119749 15.9407396,12.4242918 16.3842228,12.8222978 L19.7436232,15.9758319 L18.9513118,20.4150273 C18.8563401,20.9967284 19.0781873,21.5784294 19.5851609,21.9154078 C20.0606534,22.2521821 20.726195,22.3132097 21.2332743,22.0377692 L25.3849862,19.9252759 L29.5366981,22.0377692 C30.0436718,22.3132097 30.709319,22.282798 31.1848115,21.9154078 C31.6917852,21.5785315 31.9136324,20.9968304 31.8186607,20.4150273 L31.0263492,15.9758319 L34.3857497,12.8222978 C34.8292328,12.4242918 34.9879064,11.8119749 34.7975403,11.2608897 Z" id="Path" fill="#FDBF00"></path>
                        <path d="M28.7872584,22.0378021 L25.3114066,19.9253047 L25.3114066,4.70909889 C25.7890045,4.70909889 26.2666025,4.98474407 26.5054015,5.50511237 L28.2299723,9.54641157 L32.1039109,10.2200635 C32.608042,10.2811932 33.0324851,10.6792 33.1916844,11.2609021 C33.3510606,11.8119884 33.2182176,12.4243065 32.8469295,12.8223132 L30.0344081,15.9758533 L30.6977386,20.4150571 C30.7772499,20.9967593 30.5915173,21.5784615 30.1670742,21.9154405 C29.7689875,22.2827293 29.2117014,22.3132431 28.7872584,22.0378021 Z" id="Path" fill="#FF9F00"></path>
                        <path d="M34.8767637,40.4688186 L34.8767637,43.1176867 C34.8767637,43.8592815 34.2756038,44.4421208 33.5102841,44.4421208 L25.3114066,44.4421208 L25.3114066,36.4955164 L30.7773249,36.4955164 C33.0457721,36.4955164 34.8767637,38.2701698 34.8767637,40.4688186 Z" id="Path" fill="#293939"></path>
                        <path d="M38.1142692,46.7966703 L38.1142692,49.4455384 C38.1142692,50.1871332 37.4956396,50.7699725 36.7080799,50.7699725 L25.4585659,50.7699725 L25.4585659,42.8233681 L33.8957014,42.8233681 C36.2300693,42.8233681 38.1142692,44.5980214 38.1142692,46.7966703 Z" id="Path" fill="#3E5959"></path>
                    </g>
                </g>
            </g>
        </g>
    </g>
</svg>